<?xml version="1.0" encoding="UTF-8" standalone="no"?>
<svg
   xmlns:dc="http://purl.org/dc/elements/1.1/"
   xmlns:cc="http://creativecommons.org/ns#"
   xmlns:rdf="http://www.w3.org/1999/02/22-rdf-syntax-ns#"
   xmlns:svg="http://www.w3.org/2000/svg"
   xmlns="http://www.w3.org/2000/svg"
   xmlns:xlink="http://www.w3.org/1999/xlink"
   xmlns:sodipodi="http://sodipodi.sourceforge.net/DTD/sodipodi-0.dtd"
   xmlns:inkscape="http://www.inkscape.org/namespaces/inkscape"
   width="48"
   height="48"
   viewBox="-42 -42 215 129"
   id="svg2"
   sodipodi:version="0.32"
   inkscape:version="0.46"
   sodipodi:docname="Flag_of_Mississippi.svg"
   inkscape:output_extension="org.inkscape.output.svg.inkscape"
   version="1.0"
   inkscape:export-filename="D:\Workspace\Java\AndNav2\res\drawable\flag_usa_state_of_mississippi.png"
   inkscape:export-xdpi="90"
   inkscape:export-ydpi="90">
  <metadata
     id="metadata45">
    <rdf:RDF>
      <cc:Work
         rdf:about="">
        <dc:format>image/svg+xml</dc:format>
        <dc:type
           rdf:resource="http://purl.org/dc/dcmitype/StillImage" />
      </cc:Work>
    </rdf:RDF>
  </metadata>
  <defs
     id="defs43">
    <inkscape:perspective
       sodipodi:type="inkscape:persp3d"
       inkscape:vp_x="0 : 240 : 1"
       inkscape:vp_y="0 : 1000 : 0"
       inkscape:vp_z="800 : 240 : 1"
       inkscape:persp3d-origin="400 : 160 : 1"
       id="perspective47" />
    <linearGradient
       gradientUnits="userSpaceOnUse"
       y2="13.64602"
       x2="15.000001"
       y1="-4.3631072"
       x1="15.000001"
       id="linearGradient3351"
       xlink:href="#linearGradient3345"
       inkscape:collect="always" />
    <filter
       id="filter5781"
       inkscape:collect="always">
      <feGaussianBlur
         id="feGaussianBlur5783"
         stdDeviation="0.33222591"
         inkscape:collect="always" />
    </filter>
    <linearGradient
       gradientTransform="matrix(0.9555556,0,0,0.9310345,0.6666666,0.6896552)"
       gradientUnits="userSpaceOnUse"
       y2="13.738016"
       x2="15"
       y1="-13.883799"
       x1="15"
       id="linearGradient5741"
       xlink:href="#linearGradient5735"
       inkscape:collect="always" />
    <inkscape:perspective
       sodipodi:type="inkscape:persp3d"
       inkscape:vp_x="0 : 300 : 1"
       inkscape:vp_y="0 : 1000 : 0"
       inkscape:vp_z="900 : 300 : 1"
       inkscape:persp3d-origin="450 : 200 : 1"
       id="perspective4943" />
    <g
       id="smallcross">
      <clipPath
         id="vclip">
        <path
           d="M -109,104 C -51.562386,104 -5,57.437614 -5,0 C -5,-57.437614 -51.562386,-104 -109,-104 L 109,-104 C 51.562386,-104 5,-57.437614 5,-1.2735906e-14 C 5,57.437614 51.562386,104 109,104 L -109,104 z"
           id="path4921" />
      </clipPath>
      <path
         id="varm"
         d="M -55,74 C -55,43.624339 -30.375661,19 3.3691583e-15,19 C 30.375661,19 55,43.624339 55,74 L 55,-74 C 55,-43.624339 30.375661,-19 3.3661767e-15,-19 C -30.375661,-19 -55,-43.624339 -55,-74 L -55,74 z"
         clip-path="url(#vclip)" />
      <use
         height="20"
         width="30"
         y="0"
         x="0"
         xlink:href="#varm"
         transform="matrix(0,1,-1,0,0,0)"
         id="use4924" />
    </g>
    <inkscape:perspective
       sodipodi:type="inkscape:persp3d"
       inkscape:vp_x="0 : 300 : 1"
       inkscape:vp_y="0 : 1000 : 0"
       inkscape:vp_z="900 : 300 : 1"
       inkscape:persp3d-origin="450 : 200 : 1"
       id="perspective2710" />
    <inkscape:perspective
       id="perspective20"
       inkscape:persp3d-origin="372 : 165.33333 : 1"
       inkscape:vp_z="744 : 248 : 1"
       inkscape:vp_y="0 : 1000 : 0"
       inkscape:vp_x="0 : 248 : 1"
       sodipodi:type="inkscape:persp3d" />
    <linearGradient
       id="linearGradient5735"
       inkscape:collect="always">
      <stop
         id="stop5737"
         offset="0"
         style="stop-color:#ffffff;stop-opacity:1;" />
      <stop
         id="stop5739"
         offset="1"
         style="stop-color:#ffffff;stop-opacity:0;" />
    </linearGradient>
    <linearGradient
       id="linearGradient3345"
       inkscape:collect="always">
      <stop
         id="stop3347"
         offset="0"
         style="stop-color:#ffffff;stop-opacity:1;" />
      <stop
         id="stop3349"
         offset="1"
         style="stop-color:#ffffff;stop-opacity:0;" />
    </linearGradient>
    <linearGradient
       inkscape:collect="always"
       xlink:href="#linearGradient3345"
       id="linearGradient2665"
       gradientUnits="userSpaceOnUse"
       x1="15.000001"
       y1="-4.3631072"
       x2="15.000001"
       y2="13.64602"
       gradientTransform="matrix(7.1666667,0,0,7.1666667,-42,-49.166667)" />
    <linearGradient
       inkscape:collect="always"
       xlink:href="#linearGradient5735"
       id="linearGradient2667"
       gradientUnits="userSpaceOnUse"
       gradientTransform="matrix(6.8481485,0,0,6.6724139,-37.222223,-44.224138)"
       x1="15"
       y1="-13.883799"
       x2="15"
       y2="13.738016" />
  </defs>
  <sodipodi:namedview
     inkscape:window-height="750"
     inkscape:window-width="1280"
     inkscape:pageshadow="2"
     inkscape:pageopacity="0.0"
     guidetolerance="10.0"
     gridtolerance="10.0"
     objecttolerance="10.0"
     borderopacity="1.0"
     bordercolor="#666666"
     pagecolor="#ffffff"
     id="base"
     showgrid="false"
     inkscape:zoom="7.6933218"
     inkscape:cx="22.015852"
     inkscape:cy="26.799808"
     inkscape:window-x="1672"
     inkscape:window-y="424"
     inkscape:current-layer="svg2" />
  <rect
     ry="0"
     rx="0"
     y="0.625"
     x="0"
     height="20"
     width="30"
     id="rect5743"
     style="opacity:0.1245791;fill:#000000;fill-opacity:1;stroke:none;stroke-width:2;stroke-linecap:round;stroke-linejoin:miter;stroke-miterlimit:4;stroke-dasharray:none;stroke-dashoffset:0;stroke-opacity:1;filter:url(#filter5781)"
     transform="matrix(7.1666667,0,0,7.1666667,-42,-49.166667)" />
  <g
     id="g2526"
     transform="matrix(0.9583333,0,0,0.9583333,2.7291653,10.79167)">
    <rect
       id="rect4"
       height="143.33333"
       width="215"
       y="-56.333332"
       x="-42"
       style="fill:#ffffff" />
    <rect
       id="rect6"
       height="47.777779"
       width="119.11949"
       y="-56.333332"
       x="53.880516"
       style="fill:#002868" />
    <rect
       id="rect8"
       height="47.777779"
       width="215"
       y="39.222221"
       x="-42"
       style="fill:#bf0a30" />
    <g
       transform="matrix(1.1111111,0,0,1.1111111,4.6666667,-9.6666667)"
       id="g2506">
      <path
         style="fill:#002868"
         d="M -42,-32 L -42,-42 L -32,-42 L 0,-10 L 32,-42 L 42,-42 L 42,-32 L 10,0 L 42,32 L 42,42 L 32,42 L 0,10 L -32,42 L -42,42 L -42,32 L -10,0"
         id="path10" />
      <path
         style="fill:#bf0a30"
         d="M -28,-42 L 0,-14 L 28,-42 L -28,-42 z M 42,-28 L 14,0 L 42,28 L 42,-28 z M 28,42 L 0,14 L -28,42 L 28,42 z M -42,28 L -14,0 L -42,-28 L -42,28 z"
         id="path12" />
      <g
         style="fill:#ffffff"
         id="star"
         transform="scale(5.5,5.5)">
        <g
           id="cone">
          <polygon
             id="triangle"
             points="0,0 0,1 0.5,1 0,0 "
             transform="matrix(0.9510565,0.309017,-0.309017,0.9510565,0,-1)" />
          <use
             height="129"
             width="215"
             y="0"
             x="0"
             xlink:href="#triangle"
             transform="scale(-1,1)"
             id="use17" />
        </g>
        <use
           height="129"
           width="215"
           y="0"
           x="0"
           xlink:href="#cone"
           transform="matrix(0.309017,0.9510565,-0.9510565,0.309017,0,0)"
           id="use19" />
        <use
           height="129"
           width="215"
           y="0"
           x="0"
           xlink:href="#cone"
           transform="matrix(0.309017,-0.9510565,0.9510565,0.309017,0,0)"
           id="use21" />
        <use
           height="129"
           width="215"
           y="0"
           x="0"
           xlink:href="#cone"
           transform="matrix(-0.809017,0.5877853,-0.5877853,-0.809017,0,0)"
           id="use23" />
        <use
           height="129"
           width="215"
           y="0"
           x="0"
           xlink:href="#cone"
           transform="matrix(-0.809017,-0.5877853,0.5877853,-0.809017,0,0)"
           id="use25" />
      </g>
      <g
         id="rhs">
        <use
           height="129"
           width="215"
           y="0"
           x="0"
           xlink:href="#star"
           transform="translate(11,11)"
           id="use28" />
        <use
           height="129"
           width="215"
           y="0"
           x="0"
           xlink:href="#star"
           transform="translate(22,22)"
           id="use30" />
        <use
           height="129"
           width="215"
           y="0"
           x="0"
           xlink:href="#star"
           transform="translate(33,33)"
           id="use32" />
        <use
           height="129"
           width="215"
           y="0"
           x="0"
           xlink:href="#star"
           transform="translate(11,-11)"
           id="use34" />
        <use
           height="129"
           width="215"
           y="0"
           x="0"
           xlink:href="#star"
           transform="translate(22,-22)"
           id="use36" />
        <use
           height="129"
           width="215"
           y="0"
           x="0"
           xlink:href="#star"
           transform="translate(33,-33)"
           id="use38" />
      </g>
      <use
         height="129"
         width="215"
         y="0"
         x="0"
         xlink:href="#rhs"
         transform="scale(-1,1)"
         id="use40" />
    </g>
  </g>
  <rect
     ry="0"
     rx="0"
     y="-37.96875"
     x="-30.802084"
     height="120.9375"
     width="192.60419"
     id="rect5733"
     style="fill:url(#linearGradient2665);fill-opacity:1;stroke:url(#linearGradient2667);stroke-width:4.47916651;stroke-linecap:round;stroke-linejoin:miter;stroke-miterlimit:4;stroke-dasharray:none;stroke-dashoffset:0;stroke-opacity:1" />
</svg>
