<?xml version="1.0" encoding="UTF-8" standalone="no"?>
<svg
   xmlns:dc="http://purl.org/dc/elements/1.1/"
   xmlns:cc="http://creativecommons.org/ns#"
   xmlns:rdf="http://www.w3.org/1999/02/22-rdf-syntax-ns#"
   xmlns:svg="http://www.w3.org/2000/svg"
   xmlns="http://www.w3.org/2000/svg"
   xmlns:xlink="http://www.w3.org/1999/xlink"
   xmlns:sodipodi="http://sodipodi.sourceforge.net/DTD/sodipodi-0.dtd"
   xmlns:inkscape="http://www.inkscape.org/namespaces/inkscape"
   version="1.0"
   width="48"
   height="48"
   viewBox="0 0 6 4"
   id="svg2"
   sodipodi:version="0.32"
   inkscape:version="0.46"
   sodipodi:docname="Flag_of_Arizona.svg"
   inkscape:output_extension="org.inkscape.output.svg.inkscape"
   inkscape:export-filename="D:\Workspace\Java\AndNav2\res\drawable\us_state_of_arizona.png"
   inkscape:export-xdpi="90"
   inkscape:export-ydpi="90">
  <metadata
     id="metadata56">
    <rdf:RDF>
      <cc:Work
         rdf:about="">
        <dc:format>image/svg+xml</dc:format>
        <dc:type
           rdf:resource="http://purl.org/dc/dcmitype/StillImage" />
      </cc:Work>
    </rdf:RDF>
  </metadata>
  <defs
     id="defs54">
    <inkscape:perspective
       sodipodi:type="inkscape:persp3d"
       inkscape:vp_x="0 : 300 : 1"
       inkscape:vp_y="0 : 1000 : 0"
       inkscape:vp_z="900 : 300 : 1"
       inkscape:persp3d-origin="450 : 200 : 1"
       id="perspective58" />
    <linearGradient
       gradientUnits="userSpaceOnUse"
       y2="13.64602"
       x2="15.000001"
       y1="-4.3631072"
       x1="15.000001"
       id="linearGradient3351"
       xlink:href="#linearGradient3345"
       inkscape:collect="always" />
    <filter
       id="filter5781"
       inkscape:collect="always">
      <feGaussianBlur
         id="feGaussianBlur5783"
         stdDeviation="0.33222591"
         inkscape:collect="always" />
    </filter>
    <linearGradient
       gradientTransform="matrix(0.9555556,0,0,0.9310345,0.6666666,0.6896552)"
       gradientUnits="userSpaceOnUse"
       y2="13.738016"
       x2="15"
       y1="-13.883799"
       x1="15"
       id="linearGradient5741"
       xlink:href="#linearGradient5735"
       inkscape:collect="always" />
    <inkscape:perspective
       sodipodi:type="inkscape:persp3d"
       inkscape:vp_x="0 : 300 : 1"
       inkscape:vp_y="0 : 1000 : 0"
       inkscape:vp_z="900 : 300 : 1"
       inkscape:persp3d-origin="450 : 200 : 1"
       id="perspective4943" />
    <g
       id="smallcross">
      <clipPath
         id="vclip">
        <path
           d="M -109,104 C -51.562386,104 -5,57.437614 -5,0 C -5,-57.437614 -51.562386,-104 -109,-104 L 109,-104 C 51.562386,-104 5,-57.437614 5,-1.2735906e-14 C 5,57.437614 51.562386,104 109,104 L -109,104 z"
           id="path4921" />
      </clipPath>
      <path
         id="varm"
         d="M -55,74 C -55,43.624339 -30.375661,19 3.3691583e-15,19 C 30.375661,19 55,43.624339 55,74 L 55,-74 C 55,-43.624339 30.375661,-19 3.3661767e-15,-19 C -30.375661,-19 -55,-43.624339 -55,-74 L -55,74 z"
         clip-path="url(#vclip)" />
      <use
         height="20"
         width="30"
         y="0"
         x="0"
         xlink:href="#varm"
         transform="matrix(0,1,-1,0,0,0)"
         id="use4924" />
    </g>
    <inkscape:perspective
       sodipodi:type="inkscape:persp3d"
       inkscape:vp_x="0 : 300 : 1"
       inkscape:vp_y="0 : 1000 : 0"
       inkscape:vp_z="900 : 300 : 1"
       inkscape:persp3d-origin="450 : 200 : 1"
       id="perspective2710" />
    <inkscape:perspective
       id="perspective20"
       inkscape:persp3d-origin="372 : 165.33333 : 1"
       inkscape:vp_z="744 : 248 : 1"
       inkscape:vp_y="0 : 1000 : 0"
       inkscape:vp_x="0 : 248 : 1"
       sodipodi:type="inkscape:persp3d" />
    <linearGradient
       id="linearGradient5735"
       inkscape:collect="always">
      <stop
         id="stop5737"
         offset="0"
         style="stop-color:#ffffff;stop-opacity:1;" />
      <stop
         id="stop5739"
         offset="1"
         style="stop-color:#ffffff;stop-opacity:0;" />
    </linearGradient>
    <linearGradient
       id="linearGradient3345"
       inkscape:collect="always">
      <stop
         id="stop3347"
         offset="0"
         style="stop-color:#ffffff;stop-opacity:1;" />
      <stop
         id="stop3349"
         offset="1"
         style="stop-color:#ffffff;stop-opacity:0;" />
    </linearGradient>
    <linearGradient
       inkscape:collect="always"
       xlink:href="#linearGradient3345"
       id="linearGradient2546"
       gradientUnits="userSpaceOnUse"
       x1="15.000001"
       y1="-4.3631072"
       x2="15.000001"
       y2="13.64602"
       gradientTransform="scale(0.2,0.2)" />
    <linearGradient
       inkscape:collect="always"
       xlink:href="#linearGradient5735"
       id="linearGradient2548"
       gradientUnits="userSpaceOnUse"
       gradientTransform="matrix(0.1911111,0,0,0.1862069,0.1333333,0.137931)"
       x1="15"
       y1="-13.883799"
       x2="15"
       y2="13.738016" />
  </defs>
  <sodipodi:namedview
     inkscape:window-height="750"
     inkscape:window-width="1280"
     inkscape:pageshadow="2"
     inkscape:pageopacity="0.0"
     guidetolerance="10.0"
     gridtolerance="10.0"
     objecttolerance="10.0"
     borderopacity="1.0"
     bordercolor="#666666"
     pagecolor="#ffffff"
     id="base"
     showgrid="false"
     inkscape:zoom="4.8355555"
     inkscape:cx="35.120463"
     inkscape:cy="18.111959"
     inkscape:window-x="1672"
     inkscape:window-y="424"
     inkscape:current-layer="svg2" />
  <clipPath
     id="around">
    <rect
       id="path_around"
       width="6"
       height="4"
       x="0"
       y="0" />
  </clipPath>
  <rect
     ry="0"
     rx="0"
     y="0.625"
     x="0"
     height="20"
     width="30"
     id="rect5743"
     style="opacity:0.1245791;fill:#000000;fill-opacity:1;stroke:none;stroke-width:2;stroke-linecap:round;stroke-linejoin:miter;stroke-miterlimit:4;stroke-dasharray:none;stroke-dashoffset:0;stroke-opacity:1;filter:url(#filter5781)"
     transform="scale(0.2,0.2)" />
  <g
     clip-path="url(#around)"
     id="g6"
     transform="matrix(0.9583333,0,0,0.9583333,0.125,0.1666667)">
    <rect
       id="red_background"
       width="6"
       height="4"
       x="0"
       y="0"
       style="fill:#bf0a30" />
    <defs
       id="defs9">
      <rect
         id="yellow_ray"
         width="10"
         height="1"
         x="-2"
         y="2"
         style="fill:#fed700" />
      <rect
         id="red_gap"
         width="10"
         height="1"
         x="-2"
         y="2"
         style="fill:#bf0a30" />
    </defs>
    <use
       xlink:href="#yellow_ray"
       transform="matrix(0.1205367,-0.9927089,0.9927089,0.1205367,0.6529722,4.7370533)"
       id="use13"
       x="0"
       y="0"
       width="6"
       height="4" />
    <use
       xlink:href="#yellow_ray"
       transform="matrix(0.1205367,0.9927089,-0.9927089,0.1205367,4.6238077,-1.2192)"
       id="use15"
       x="0"
       y="0"
       width="6"
       height="4" />
    <use
       xlink:href="#red_gap"
       transform="matrix(0.3546049,-0.9350162,0.9350162,0.3546049,6.6152854e-2,4.095839)"
       id="use17"
       x="0"
       y="0"
       width="6"
       height="4" />
    <use
       xlink:href="#red_gap"
       transform="matrix(0.3546049,0.9350162,-0.9350162,0.3546049,3.8062178,-1.5142585)"
       id="use19"
       x="0"
       y="0"
       width="6"
       height="4" />
    <use
       xlink:href="#yellow_ray"
       transform="matrix(0.5680647,-0.8229839,0.8229839,0.5680647,-0.350162,3.3328221)"
       id="use21"
       x="0"
       y="0"
       width="6"
       height="4" />
    <use
       xlink:href="#yellow_ray"
       transform="matrix(0.5680647,0.8229839,-0.8229839,0.5680647,2.9417735,-1.6050811)"
       id="use23"
       x="0"
       y="0"
       width="6"
       height="4" />
    <use
       xlink:href="#red_gap"
       transform="matrix(0.7485107,-0.6631227,0.6631227,0.7485107,-0.5717776,2.4923465)"
       id="use25"
       x="0"
       y="0"
       width="6"
       height="4" />
    <use
       xlink:href="#red_gap"
       transform="matrix(0.7485107,0.6631227,-0.6631227,0.7485107,2.0807131,-1.4863895)"
       id="use27"
       x="0"
       y="0"
       width="6"
       height="4" />
    <use
       xlink:href="#yellow_ray"
       transform="matrix(0.885456,-0.4647232,0.4647232,0.885456,-0.5858144,1.6232575)"
       id="use29"
       x="0"
       y="0"
       width="6"
       height="4" />
    <use
       xlink:href="#yellow_ray"
       transform="matrix(0.885456,0.4647232,-0.4647232,0.885456,1.2730783,-1.1650816)"
       id="use31"
       x="0"
       y="0"
       width="6"
       height="4" />
    <use
       xlink:href="#red_gap"
       transform="matrix(0.9709418,-0.2393157,0.2393157,0.9709418,-0.3914568,0.7760634)"
       id="use33"
       x="0"
       y="0"
       width="6"
       height="4" />
    <use
       xlink:href="#red_gap"
       transform="matrix(0.9709418,0.2393157,-0.2393157,0.9709418,0.5658059,-0.6598306)"
       id="use35"
       x="0"
       y="0"
       width="6"
       height="4" />
    <comment
       id="comment37">rotate around (180/13) degrees</comment>
    <rect
       id="blue_half"
       width="6"
       height="2"
       y="2"
       x="0"
       style="fill:#002868" />
  </g>
  <g
     id="star"
     transform="matrix(1.105573,0,0,1.105573,3,2.105573)"
     style="fill:#ce5c17">
    <g
       id="cone">
      <polygon
         id="triangle"
         points="0,0 0,1 0.5,1 0,0 "
         transform="matrix(0.951057,0.309017,-0.309017,0.951057,0,-1)" />
      <use
         xlink:href="#triangle"
         transform="scale(-1,1)"
         width="6"
         height="4"
         id="use43"
         x="0"
         y="0" />
    </g>
    <use
       xlink:href="#cone"
       transform="matrix(0.309017,0.951057,-0.951057,0.309017,0,0)"
       width="6"
       height="4"
       id="use45"
       x="0"
       y="0" />
    <use
       xlink:href="#cone"
       transform="matrix(0.309017,-0.951057,0.951057,0.309017,0,0)"
       width="6"
       height="4"
       id="use47"
       x="0"
       y="0" />
    <use
       xlink:href="#cone"
       transform="matrix(-0.809017,0.587785,-0.587785,-0.809017,0,0)"
       width="6"
       height="4"
       id="use49"
       x="0"
       y="0" />
    <use
       xlink:href="#cone"
       transform="matrix(-0.809017,-0.587785,0.587785,-0.809017,0,0)"
       width="6"
       height="4"
       id="use51"
       x="0"
       y="0" />
  </g>
  <rect
     ry="0"
     rx="0"
     y="0.3125"
     x="0.3125"
     height="3.375"
     width="5.3750005"
     id="rect5733"
     style="fill:url(#linearGradient2546);fill-opacity:1;stroke:url(#linearGradient2548);stroke-width:0.125;stroke-linecap:round;stroke-linejoin:miter;stroke-miterlimit:4;stroke-dasharray:none;stroke-dashoffset:0;stroke-opacity:1" />
</svg>
