<?xml version="1.0" encoding="UTF-8" standalone="no"?>
<!-- Created with Inkscape (http://www.inkscape.org/) -->
<svg
   xmlns:dc="http://purl.org/dc/elements/1.1/"
   xmlns:cc="http://creativecommons.org/ns#"
   xmlns:rdf="http://www.w3.org/1999/02/22-rdf-syntax-ns#"
   xmlns:svg="http://www.w3.org/2000/svg"
   xmlns="http://www.w3.org/2000/svg"
   xmlns:xlink="http://www.w3.org/1999/xlink"
   xmlns:sodipodi="http://sodipodi.sourceforge.net/DTD/sodipodi-0.dtd"
   xmlns:inkscape="http://www.inkscape.org/namespaces/inkscape"
   version="1.0"
   width="48"
   height="48"
   id="svg548"
   sodipodi:version="0.32"
   inkscape:version="0.46"
   sodipodi:docname="Flag_of_Arkansas.svg"
   inkscape:output_extension="org.inkscape.output.svg.inkscape"
   inkscape:export-filename="D:\Workspace\Java\AndNav2\res\drawable\us_state_of_arkansas.png"
   inkscape:export-xdpi="90"
   inkscape:export-ydpi="90">
  <metadata
     id="metadata38">
    <rdf:RDF>
      <cc:Work
         rdf:about="">
        <dc:format>image/svg+xml</dc:format>
        <dc:type
           rdf:resource="http://purl.org/dc/dcmitype/StillImage" />
      </cc:Work>
    </rdf:RDF>
  </metadata>
  <sodipodi:namedview
     inkscape:window-height="750"
     inkscape:window-width="1280"
     inkscape:pageshadow="2"
     inkscape:pageopacity="0.0"
     guidetolerance="10.0"
     gridtolerance="10.0"
     objecttolerance="10.0"
     borderopacity="1.0"
     bordercolor="#666666"
     pagecolor="#ffffff"
     id="base"
     showgrid="false"
     inkscape:zoom="11.697439"
     inkscape:cx="49.676327"
     inkscape:cy="22.965353"
     inkscape:window-x="1672"
     inkscape:window-y="424"
     inkscape:current-layer="svg548" />
  <defs
     id="defs550">
    <inkscape:perspective
       sodipodi:type="inkscape:persp3d"
       inkscape:vp_x="0 : 248.03149 : 1"
       inkscape:vp_y="0 : 1000 : 0"
       inkscape:vp_z="744.09448 : 248.03149 : 1"
       inkscape:persp3d-origin="372.04724 : 165.35433 : 1"
       id="perspective40" />
    <filter
       id="filter5781"
       inkscape:collect="always">
      <feGaussianBlur
         id="feGaussianBlur5783"
         stdDeviation="0.33222591"
         inkscape:collect="always" />
    </filter>
    <inkscape:perspective
       sodipodi:type="inkscape:persp3d"
       inkscape:vp_x="0 : 300 : 1"
       inkscape:vp_y="0 : 1000 : 0"
       inkscape:vp_z="900 : 300 : 1"
       inkscape:persp3d-origin="450 : 200 : 1"
       id="perspective4943" />
    <g
       id="smallcross">
      <clipPath
         id="vclip">
        <path
           d="M -109,104 C -51.562386,104 -5,57.437614 -5,0 C -5,-57.437614 -51.562386,-104 -109,-104 L 109,-104 C 51.562386,-104 5,-57.437614 5,-1.2735906e-14 C 5,57.437614 51.562386,104 109,104 L -109,104 z"
           id="path4921" />
      </clipPath>
      <path
         id="varm"
         d="M -55,74 C -55,43.624339 -30.375661,19 3.3691583e-15,19 C 30.375661,19 55,43.624339 55,74 L 55,-74 C 55,-43.624339 30.375661,-19 3.3661767e-15,-19 C -30.375661,-19 -55,-43.624339 -55,-74 L -55,74 z"
         clip-path="url(#vclip)" />
      <use
         height="20"
         width="30"
         y="0"
         x="0"
         xlink:href="#varm"
         transform="matrix(0,1,-1,0,0,0)"
         id="use4924" />
    </g>
    <inkscape:perspective
       sodipodi:type="inkscape:persp3d"
       inkscape:vp_x="0 : 300 : 1"
       inkscape:vp_y="0 : 1000 : 0"
       inkscape:vp_z="900 : 300 : 1"
       inkscape:persp3d-origin="450 : 200 : 1"
       id="perspective2710" />
    <inkscape:perspective
       id="perspective20"
       inkscape:persp3d-origin="372 : 165.33333 : 1"
       inkscape:vp_z="744 : 248 : 1"
       inkscape:vp_y="0 : 1000 : 0"
       inkscape:vp_x="0 : 248 : 1"
       sodipodi:type="inkscape:persp3d" />
    <linearGradient
       id="linearGradient5735"
       inkscape:collect="always">
      <stop
         id="stop5737"
         offset="0"
         style="stop-color:#ffffff;stop-opacity:1;" />
      <stop
         id="stop5739"
         offset="1"
         style="stop-color:#ffffff;stop-opacity:0;" />
    </linearGradient>
    <linearGradient
       id="linearGradient3345"
       inkscape:collect="always">
      <stop
         id="stop3347"
         offset="0"
         style="stop-color:#ffffff;stop-opacity:1;" />
      <stop
         id="stop3349"
         offset="1"
         style="stop-color:#ffffff;stop-opacity:0;" />
    </linearGradient>
    <linearGradient
       inkscape:collect="always"
       xlink:href="#linearGradient3345"
       id="linearGradient2573"
       gradientUnits="userSpaceOnUse"
       x1="15.000001"
       y1="-4.3631072"
       x2="15.000001"
       y2="13.64602"
       gradientTransform="matrix(1.6,0,0,1.6,0,8)" />
    <linearGradient
       inkscape:collect="always"
       xlink:href="#linearGradient5735"
       id="linearGradient2575"
       gradientUnits="userSpaceOnUse"
       gradientTransform="matrix(1.528889,0,0,1.4896552,1.0666666,9.1034483)"
       x1="15"
       y1="-13.883799"
       x2="15"
       y2="13.738016" />
  </defs>
  <rect
     ry="0"
     rx="0"
     y="0.625"
     x="0"
     height="20"
     width="30"
     id="rect5743"
     style="opacity:0.1245791;fill:#000000;fill-opacity:1;stroke:none;stroke-width:2;stroke-linecap:round;stroke-linejoin:miter;stroke-miterlimit:4;stroke-dasharray:none;stroke-dashoffset:0;stroke-opacity:1;filter:url(#filter5781)"
     transform="matrix(1.6,0,0,1.6,0,8)" />
  <g
     id="g2413"
     transform="matrix(6.1820111e-2,0,0,6.1820111e-2,1,9.0333393)">
    <rect
       id="rect552"
       style="font-size:12px;fill:#cc0033;fill-opacity:1;fill-rule:evenodd;stroke-width:1pt"
       y="-0.000164"
       x="0"
       height="496.06302"
       width="744.09442" />
    <path
       id="path558"
       style="fill:#000099;fill-opacity:1;fill-rule:evenodd;stroke:none;stroke-width:3.14457989;stroke-linecap:butt;stroke-linejoin:miter;stroke-dasharray:none;stroke-opacity:1"
       transform="matrix(0.993773,0,0,0.993773,-757.812,-5.093132)"
       d="M 781.195,252.574 L 1135.79,490.76 L 1493.33,252.11 L 1135.79,18.7648 L 781.195,252.574 z" />
    <path
       id="path559"
       style="fill:#ffffff;fill-opacity:1;fill-rule:evenodd;stroke:none;stroke-width:3.32875991;stroke-linecap:butt;stroke-linejoin:miter;stroke-dasharray:none;stroke-opacity:1"
       transform="matrix(0.747276,0,0,0.747276,-477.1913,57.624)"
       d="M 781.195,252.574 L 1135.79,490.76 L 1493.33,252.11 L 1135.79,18.7648 L 781.195,252.574 z" />
    <path
       id="polygon560"
       style="font-size:12px;fill:#ffffff;fill-opacity:1;fill-rule:evenodd;stroke:none;stroke-width:0.625;stroke-dasharray:none;stroke-dashoffset:5;stroke-opacity:1"
       transform="matrix(1.728696,0,0,1.728698,-1558.768,-12.85062)"
       d="M 1124.7477,46.826843 L 1117.0249,41.236862 L 1109.3161,46.853307 L 1112.246,37.781109 L 1104.5223,32.185167 L 1114.0559,32.168222 L 1116.9912,23.093294 L 1119.9533,32.15502 L 1129.4911,32.142348 L 1121.7883,37.759748 L 1124.7477,46.826843 z" />
    <path
       id="polygon561"
       style="font-size:12px;fill:#ffffff;fill-opacity:1;fill-rule:evenodd;stroke:none;stroke-width:0.625;stroke-dasharray:none;stroke-dashoffset:5;stroke-opacity:1"
       transform="matrix(1.450905,-0.939821,0.939822,1.450907,-1333.006,1075.419)"
       d="M 1124.7477,46.826843 L 1117.0249,41.236862 L 1109.3161,46.853307 L 1112.246,37.781109 L 1104.5223,32.185167 L 1114.0559,32.168222 L 1116.9912,23.093294 L 1119.9533,32.15502 L 1129.4911,32.142348 L 1121.7883,37.759748 L 1124.7477,46.826843 z" />
    <path
       id="polygon563"
       style="font-size:12px;fill:#ffffff;fill-opacity:1;fill-rule:evenodd;stroke:none;stroke-width:0.625;stroke-dasharray:none;stroke-dashoffset:5;stroke-opacity:1"
       transform="matrix(1.450905,-0.939821,0.939822,1.450907,-1382.069,1106.982)"
       d="M 1124.7477,46.826843 L 1117.0249,41.236862 L 1109.3161,46.853307 L 1112.246,37.781109 L 1104.5223,32.185167 L 1114.0559,32.168222 L 1116.9912,23.093294 L 1119.9533,32.15502 L 1129.4911,32.142348 L 1121.7883,37.759748 L 1124.7477,46.826843 z" />
    <path
       id="polygon564"
       style="font-size:12px;fill:#ffffff;fill-opacity:1;fill-rule:evenodd;stroke:none;stroke-width:0.625;stroke-dasharray:none;stroke-dashoffset:5;stroke-opacity:1"
       transform="matrix(1.450905,-0.939821,0.939822,1.450907,-1428.632,1138.544)"
       d="M 1124.7477,46.826843 L 1117.0249,41.236862 L 1109.3161,46.853307 L 1112.246,37.781109 L 1104.5223,32.185167 L 1114.0559,32.168222 L 1116.9912,23.093294 L 1119.9533,32.15502 L 1129.4911,32.142348 L 1121.7883,37.759748 L 1124.7477,46.826843 z" />
    <path
       id="polygon565"
       style="font-size:12px;fill:#ffffff;fill-opacity:1;fill-rule:evenodd;stroke:none;stroke-width:0.625;stroke-dasharray:none;stroke-dashoffset:5;stroke-opacity:1"
       transform="matrix(1.450905,-0.939821,0.939822,1.450907,-1475.507,1169.482)"
       d="M 1124.7477,46.826843 L 1117.0249,41.236862 L 1109.3161,46.853307 L 1112.246,37.781109 L 1104.5223,32.185167 L 1114.0559,32.168222 L 1116.9912,23.093294 L 1119.9533,32.15502 L 1129.4911,32.142348 L 1121.7883,37.759748 L 1124.7477,46.826843 z" />
    <path
       id="polygon566"
       style="font-size:12px;fill:#ffffff;fill-opacity:1;fill-rule:evenodd;stroke:none;stroke-width:0.625;stroke-dasharray:none;stroke-dashoffset:5;stroke-opacity:1"
       transform="matrix(1.450905,-0.939821,0.939822,1.450907,-1523.945,1200.107)"
       d="M 1124.7477,46.826843 L 1117.0249,41.236862 L 1109.3161,46.853307 L 1112.246,37.781109 L 1104.5223,32.185167 L 1114.0559,32.168222 L 1116.9912,23.093294 L 1119.9533,32.15502 L 1129.4911,32.142348 L 1121.7883,37.759748 L 1124.7477,46.826843 z" />
    <path
       id="polygon567"
       style="font-size:12px;fill:#ffffff;fill-opacity:1;fill-rule:evenodd;stroke:none;stroke-width:0.625;stroke-dasharray:none;stroke-dashoffset:5;stroke-opacity:1"
       transform="matrix(-1.450905,-0.939821,-0.939822,1.450907,2081.757,1078.07)"
       d="M 1124.7477,46.826843 L 1117.0249,41.236862 L 1109.3161,46.853307 L 1112.246,37.781109 L 1104.5223,32.185167 L 1114.0559,32.168222 L 1116.9912,23.093294 L 1119.9533,32.15502 L 1129.4911,32.142348 L 1121.7883,37.759748 L 1124.7477,46.826843 z" />
    <path
       id="polygon568"
       style="font-size:12px;fill:#ffffff;fill-opacity:1;fill-rule:evenodd;stroke:none;stroke-width:0.625;stroke-dasharray:none;stroke-dashoffset:5;stroke-opacity:1"
       transform="matrix(-1.450905,-0.939821,-0.939822,1.450907,2130.82,1109.633)"
       d="M 1124.7477,46.826843 L 1117.0249,41.236862 L 1109.3161,46.853307 L 1112.246,37.781109 L 1104.5223,32.185167 L 1114.0559,32.168222 L 1116.9912,23.093294 L 1119.9533,32.15502 L 1129.4911,32.142348 L 1121.7883,37.759748 L 1124.7477,46.826843 z" />
    <path
       id="polygon569"
       style="font-size:12px;fill:#ffffff;fill-opacity:1;fill-rule:evenodd;stroke:none;stroke-width:0.625;stroke-dasharray:none;stroke-dashoffset:5;stroke-opacity:1"
       transform="matrix(-1.450905,-0.939821,-0.939822,1.450907,2177.383,1141.195)"
       d="M 1124.7477,46.826843 L 1117.0249,41.236862 L 1109.3161,46.853307 L 1112.246,37.781109 L 1104.5223,32.185167 L 1114.0559,32.168222 L 1116.9912,23.093294 L 1119.9533,32.15502 L 1129.4911,32.142348 L 1121.7883,37.759748 L 1124.7477,46.826843 z" />
    <path
       id="polygon570"
       style="font-size:12px;fill:#ffffff;fill-opacity:1;fill-rule:evenodd;stroke:none;stroke-width:0.625;stroke-dasharray:none;stroke-dashoffset:5;stroke-opacity:1"
       transform="matrix(-1.450905,-0.939821,-0.939822,1.450907,2224.258,1172.133)"
       d="M 1124.7477,46.826843 L 1117.0249,41.236862 L 1109.3161,46.853307 L 1112.246,37.781109 L 1104.5223,32.185167 L 1114.0559,32.168222 L 1116.9912,23.093294 L 1119.9533,32.15502 L 1129.4911,32.142348 L 1121.7883,37.759748 L 1124.7477,46.826843 z" />
    <path
       id="polygon571"
       style="font-size:12px;fill:#ffffff;fill-opacity:1;fill-rule:evenodd;stroke:none;stroke-width:0.625;stroke-dasharray:none;stroke-dashoffset:5;stroke-opacity:1"
       transform="matrix(-1.450905,-0.939821,-0.939822,1.450907,2272.696,1202.758)"
       d="M 1124.7477,46.826843 L 1117.0249,41.236862 L 1109.3161,46.853307 L 1112.246,37.781109 L 1104.5223,32.185167 L 1114.0559,32.168222 L 1116.9912,23.093294 L 1119.9533,32.15502 L 1129.4911,32.142348 L 1121.7883,37.759748 L 1124.7477,46.826843 z" />
    <path
       id="polygon595"
       style="font-size:12px;fill:#ffffff;fill-opacity:1;fill-rule:evenodd;stroke:none;stroke-width:0.625;stroke-dasharray:none;stroke-dashoffset:5;stroke-opacity:1"
       transform="matrix(1.664422,-0.466998,0.466998,1.664425,-1765.569,738.6602)"
       d="M 1124.7477,46.826843 L 1117.0249,41.236862 L 1109.3161,46.853307 L 1112.246,37.781109 L 1104.5223,32.185167 L 1114.0559,32.168222 L 1116.9912,23.093294 L 1119.9533,32.15502 L 1129.4911,32.142348 L 1121.7883,37.759748 L 1124.7477,46.826843 z" />
    <path
       id="polygon596"
       style="font-size:12px;fill:#ffffff;fill-opacity:1;fill-rule:evenodd;stroke:none;stroke-width:0.625;stroke-dasharray:none;stroke-dashoffset:5;stroke-opacity:1"
       transform="matrix(1.61972,-0.604065,0.604065,1.619723,-1675.506,923.277)"
       d="M 1124.7477,46.826843 L 1117.0249,41.236862 L 1109.3161,46.853307 L 1112.246,37.781109 L 1104.5223,32.185167 L 1114.0559,32.168222 L 1116.9912,23.093294 L 1119.9533,32.15502 L 1129.4911,32.142348 L 1121.7883,37.759748 L 1124.7477,46.826843 z" />
    <path
       id="polygon597"
       style="font-size:12px;fill:#ffffff;fill-opacity:1;fill-rule:evenodd;stroke:none;stroke-width:0.625;stroke-dasharray:none;stroke-dashoffset:5;stroke-opacity:1"
       transform="matrix(1.664422,-0.466998,0.466998,1.664425,-1544.596,888.0374)"
       d="M 1124.7477,46.826843 L 1117.0249,41.236862 L 1109.3161,46.853307 L 1112.246,37.781109 L 1104.5223,32.185167 L 1114.0559,32.168222 L 1116.9912,23.093294 L 1119.9533,32.15502 L 1129.4911,32.142348 L 1121.7883,37.759748 L 1124.7477,46.826843 z" />
    <path
       id="polygon599"
       style="font-size:12px;fill:#ffffff;fill-opacity:1;fill-rule:evenodd;stroke:none;stroke-width:0.625;stroke-dasharray:none;stroke-dashoffset:5;stroke-opacity:1"
       transform="matrix(1.585465,-0.688977,0.688978,1.585468,-1597.004,1049.759)"
       d="M 1124.7477,46.826843 L 1117.0249,41.236862 L 1109.3161,46.853307 L 1112.246,37.781109 L 1104.5223,32.185167 L 1114.0559,32.168222 L 1116.9912,23.093294 L 1119.9533,32.15502 L 1129.4911,32.142348 L 1121.7883,37.759748 L 1124.7477,46.826843 z" />
    <path
       id="polygon600"
       style="font-size:12px;fill:#ffffff;fill-opacity:1;fill-rule:evenodd;stroke:none;stroke-width:0.625;stroke-dasharray:none;stroke-dashoffset:5;stroke-opacity:1"
       transform="matrix(1.618889,-0.606289,0.60629,1.618892,-1588.037,986.3359)"
       d="M 1124.7477,46.826843 L 1117.0249,41.236862 L 1109.3161,46.853307 L 1112.246,37.781109 L 1104.5223,32.185167 L 1114.0559,32.168222 L 1116.9912,23.093294 L 1119.9533,32.15502 L 1129.4911,32.142348 L 1121.7883,37.759748 L 1124.7477,46.826843 z" />
    <path
       id="polygon601"
       style="font-size:12px;fill:#ffffff;fill-opacity:1;fill-rule:evenodd;stroke:none;stroke-width:0.625;stroke-dasharray:none;stroke-dashoffset:5;stroke-opacity:1"
       transform="matrix(1.613838,-0.619608,0.619609,1.613841,-1540.45,1028.781)"
       d="M 1124.7477,46.826843 L 1117.0249,41.236862 L 1109.3161,46.853307 L 1112.246,37.781109 L 1104.5223,32.185167 L 1114.0559,32.168222 L 1116.9912,23.093294 L 1119.9533,32.15502 L 1129.4911,32.142348 L 1121.7883,37.759748 L 1124.7477,46.826843 z" />
    <path
       id="polygon602"
       style="font-size:12px;fill:#ffffff;fill-opacity:1;fill-rule:evenodd;stroke:none;stroke-width:0.625;stroke-dasharray:none;stroke-dashoffset:5;stroke-opacity:1"
       transform="matrix(-1.664422,-0.466998,-0.466998,1.664425,2503.424,743.9635)"
       d="M 1124.7477,46.826843 L 1117.0249,41.236862 L 1109.3161,46.853307 L 1112.246,37.781109 L 1104.5223,32.185167 L 1114.0559,32.168222 L 1116.9912,23.093294 L 1119.9533,32.15502 L 1129.4911,32.142348 L 1121.7883,37.759748 L 1124.7477,46.826843 z" />
    <path
       id="polygon603"
       style="font-size:12px;fill:#ffffff;fill-opacity:1;fill-rule:evenodd;stroke:none;stroke-width:0.625;stroke-dasharray:none;stroke-dashoffset:5;stroke-opacity:1"
       transform="matrix(-1.61972,-0.604065,-0.604065,1.619723,2413.362,928.5806)"
       d="M 1124.7477,46.826843 L 1117.0249,41.236862 L 1109.3161,46.853307 L 1112.246,37.781109 L 1104.5223,32.185167 L 1114.0559,32.168222 L 1116.9912,23.093294 L 1119.9533,32.15502 L 1129.4911,32.142348 L 1121.7883,37.759748 L 1124.7477,46.826843 z" />
    <path
       id="polygon604"
       style="font-size:12px;fill:#ffffff;fill-opacity:1;fill-rule:evenodd;stroke:none;stroke-width:0.625;stroke-dasharray:none;stroke-dashoffset:5;stroke-opacity:1"
       transform="matrix(-1.664422,-0.466998,-0.466998,1.664425,2281.125,892.015)"
       d="M 1124.7477,46.826843 L 1117.0249,41.236862 L 1109.3161,46.853307 L 1112.246,37.781109 L 1104.5223,32.185167 L 1114.0559,32.168222 L 1116.9912,23.093294 L 1119.9533,32.15502 L 1129.4911,32.142348 L 1121.7883,37.759748 L 1124.7477,46.826843 z" />
    <path
       id="polygon605"
       style="font-size:12px;fill:#ffffff;fill-opacity:1;fill-rule:evenodd;stroke:none;stroke-width:0.625;stroke-dasharray:none;stroke-dashoffset:5;stroke-opacity:1"
       transform="matrix(-1.585465,-0.688977,-0.688978,1.585468,2333.534,1055.063)"
       d="M 1124.7477,46.826843 L 1117.0249,41.236862 L 1109.3161,46.853307 L 1112.246,37.781109 L 1104.5223,32.185167 L 1114.0559,32.168222 L 1116.9912,23.093294 L 1119.9533,32.15502 L 1129.4911,32.142348 L 1121.7883,37.759748 L 1124.7477,46.826843 z" />
    <path
       id="polygon606"
       style="font-size:12px;fill:#ffffff;fill-opacity:1;fill-rule:evenodd;stroke:none;stroke-width:0.625;stroke-dasharray:none;stroke-dashoffset:5;stroke-opacity:1"
       transform="matrix(-1.618889,-0.606289,-0.60629,1.618892,2324.566,990.7555)"
       d="M 1124.7477,46.826843 L 1117.0249,41.236862 L 1109.3161,46.853307 L 1112.246,37.781109 L 1104.5223,32.185167 L 1114.0559,32.168222 L 1116.9912,23.093294 L 1119.9533,32.15502 L 1129.4911,32.142348 L 1121.7883,37.759748 L 1124.7477,46.826843 z" />
    <path
       id="polygon607"
       style="font-size:12px;fill:#ffffff;fill-opacity:1;fill-rule:evenodd;stroke:none;stroke-width:0.625;stroke-dasharray:none;stroke-dashoffset:5;stroke-opacity:1"
       transform="matrix(-1.613838,-0.619608,-0.619609,1.613841,2276.98,1033.201)"
       d="M 1124.7477,46.826843 L 1117.0249,41.236862 L 1109.3161,46.853307 L 1112.246,37.781109 L 1104.5223,32.185167 L 1114.0559,32.168222 L 1116.9912,23.093294 L 1119.9533,32.15502 L 1129.4911,32.142348 L 1121.7883,37.759748 L 1124.7477,46.826843 z" />
    <path
       id="polygon608"
       style="font-size:12px;fill:#ffffff;fill-opacity:1;fill-rule:evenodd;stroke:none;stroke-width:0.625;stroke-dasharray:none;stroke-dashoffset:5;stroke-opacity:1"
       transform="matrix(1.728692,3.527006e-3,-3.527269e-3,1.728694,-1859.24,177.906)"
       d="M 1124.7477,46.826843 L 1117.0249,41.236862 L 1109.3161,46.853307 L 1112.246,37.781109 L 1104.5223,32.185167 L 1114.0559,32.168222 L 1116.9912,23.093294 L 1119.9533,32.15502 L 1129.4911,32.142348 L 1121.7883,37.759748 L 1124.7477,46.826843 z" />
    <path
       id="polygon609"
       style="font-size:12px;fill:#ffffff;fill-opacity:1;fill-rule:evenodd;stroke:none;stroke-width:0.625;stroke-dasharray:none;stroke-dashoffset:5;stroke-opacity:1"
       transform="matrix(1.728692,3.527006e-3,-3.527269e-3,1.728694,-1260.486,177.906)"
       d="M 1124.7477,46.826843 L 1117.0249,41.236862 L 1109.3161,46.853307 L 1112.246,37.781109 L 1104.5223,32.185167 L 1114.0559,32.168222 L 1116.9912,23.093294 L 1119.9533,32.15502 L 1129.4911,32.142348 L 1121.7883,37.759748 L 1124.7477,46.826843 z" />
    <path
       id="polygon610"
       style="font-size:12px;fill:#000099;fill-opacity:1;fill-rule:evenodd;stroke:none;stroke-width:0.625;stroke-dasharray:none;stroke-dashoffset:5;stroke-opacity:1"
       transform="matrix(2.468298,4.923027e-3,-5.036381e-3,2.412927,-2281.724,211.1708)"
       d="M 1124.7477,46.826843 L 1117.0249,41.236862 L 1109.3161,46.853307 L 1112.246,37.781109 L 1104.5223,32.185167 L 1114.0559,32.168222 L 1116.9912,23.093294 L 1119.9533,32.15502 L 1129.4911,32.142348 L 1121.7883,37.759748 L 1124.7477,46.826843 z" />
    <path
       id="polygon611"
       style="font-size:12px;fill:#000099;fill-opacity:1;fill-rule:evenodd;stroke:none;stroke-width:0.625;stroke-dasharray:none;stroke-dashoffset:5;stroke-opacity:1"
       transform="matrix(2.468298,4.923027e-3,-5.036381e-3,2.412927,-2494.85,203.6708)"
       d="M 1124.7477,46.826843 L 1117.0249,41.236862 L 1109.3161,46.853307 L 1112.246,37.781109 L 1104.5223,32.185167 L 1114.0559,32.168222 L 1116.9912,23.093294 L 1119.9533,32.15502 L 1129.4911,32.142348 L 1121.7883,37.759748 L 1124.7477,46.826843 z" />
    <path
       id="polygon612"
       style="font-size:12px;fill:#000099;fill-opacity:1;fill-rule:evenodd;stroke:none;stroke-width:0.625;stroke-dasharray:none;stroke-dashoffset:5;stroke-opacity:1"
       transform="matrix(2.468298,4.923027e-3,-5.036381e-3,2.412927,-2387.349,46.16976)"
       d="M 1124.7477,46.826843 L 1117.0249,41.236862 L 1109.3161,46.853307 L 1112.246,37.781109 L 1104.5223,32.185167 L 1114.0559,32.168222 L 1116.9912,23.093294 L 1119.9533,32.15502 L 1129.4911,32.142348 L 1121.7883,37.759748 L 1124.7477,46.826843 z" />
    <path
       id="polygon613"
       style="font-size:12px;fill:#000099;fill-opacity:1;fill-rule:evenodd;stroke:none;stroke-width:0.625;stroke-dasharray:none;stroke-dashoffset:5;stroke-opacity:1"
       transform="matrix(-0.738903,-2.35511,2.302345,-0.722114,1109.45,3003.858)"
       d="M 1124.7477,46.826843 L 1117.0249,41.236862 L 1109.3161,46.853307 L 1112.246,37.781109 L 1104.5223,32.185167 L 1114.0559,32.168222 L 1116.9912,23.093294 L 1119.9533,32.15502 L 1129.4911,32.142348 L 1121.7883,37.759748 L 1124.7477,46.826843 z" />
    <path
       id="path586"
       style="font-size:53px;font-weight:bold;fill:#000099;fill-opacity:1;stroke:#000099;stroke-width:0.85913903;stroke-opacity:1;font-family:Nimbus Sans L"
       transform="matrix(1,0,0,1.037264,0,-1.525879e-5)"
       d="M 521.309,208.684 C 521.309,205.133 520.514,202.801 518.606,200.681 C 516.009,197.819 511.716,196.282 506.151,196.282 C 496.876,196.282 491.523,200.628 491.523,208.154 C 491.523,214.143 494.544,217.058 502.388,218.542 L 507.794,219.602 C 513.094,220.609 515.055,222.093 515.055,225.22 C 515.055,228.453 512.087,230.414 507.264,230.414 C 501.858,230.414 498.837,228.135 498.572,224.001 L 490.834,224.001 C 491.311,232.269 496.982,236.774 506.84,236.774 C 516.804,236.774 522.687,232.11 522.687,224.266 C 522.687,218.171 519.613,214.991 512.458,213.613 L 506.416,212.447 C 500.745,211.334 499.102,210.221 499.102,207.412 C 499.102,204.497 501.699,202.642 505.78,202.642 C 510.815,202.642 513.624,204.762 513.889,208.684 L 521.309,208.684 z M 477.425,227.764 L 479.969,235.555 L 488.131,235.555 L 474.775,196.918 L 465.977,196.918 L 452.25,235.555 L 460.359,235.555 L 462.956,227.764 L 477.425,227.764 z M 475.252,221.139 L 465.182,221.139 L 470.217,206.034 L 475.252,221.139 z M 447.692,208.684 C 447.692,205.133 446.897,202.801 444.989,200.681 C 442.392,197.819 438.099,196.282 432.534,196.282 C 423.259,196.282 417.906,200.628 417.906,208.154 C 417.906,214.143 420.927,217.058 428.771,218.542 L 434.177,219.602 C 439.477,220.609 441.438,222.093 441.438,225.22 C 441.438,228.453 438.47,230.414 433.647,230.414 C 428.241,230.414 425.22,228.135 424.955,224.001 L 417.217,224.001 C 417.694,232.269 423.365,236.774 433.223,236.774 C 443.187,236.774 449.07,232.11 449.07,224.266 C 449.07,218.171 445.996,214.991 438.841,213.613 L 432.799,212.447 C 427.128,211.334 425.485,210.221 425.485,207.412 C 425.485,204.497 428.082,202.642 432.163,202.642 C 437.198,202.642 440.007,204.762 440.272,208.684 L 447.692,208.684 z M 404.338,235.555 L 412.288,235.555 L 412.288,196.918 L 404.338,196.918 L 404.338,223.206 L 389.021,196.918 L 380.859,196.918 L 380.859,235.555 L 388.809,235.555 L 388.809,208.843 L 404.338,235.555 z M 365.542,227.764 L 368.086,235.555 L 376.248,235.555 L 362.892,196.918 L 354.094,196.918 L 340.367,235.555 L 348.476,235.555 L 351.073,227.764 L 365.542,227.764 z M 363.369,221.139 L 353.299,221.139 L 358.334,206.034 L 363.369,221.139 z M 312.595,222.623 L 316.57,218.489 L 329.237,235.555 L 338.724,235.555 L 321.658,213.56 L 337.081,196.918 L 327.7,196.918 L 312.595,213.878 L 312.595,196.918 L 304.645,196.918 L 304.645,235.555 L 312.595,235.555 L 312.595,222.623 z M 274.647,220.238 L 283.763,220.238 C 287.208,220.238 288.692,221.616 288.692,224.849 C 288.692,225.167 288.692,225.697 288.639,226.386 C 288.586,227.393 288.586,228.347 288.586,228.93 C 288.586,232.534 288.798,233.7 289.805,235.555 L 298.338,235.555 L 298.338,234.124 C 297.119,233.435 296.642,232.64 296.642,230.944 C 296.43,219.549 296.218,219.019 291.289,216.899 C 295.635,215.203 297.808,212.076 297.808,207.359 C 297.808,204.285 296.748,201.476 294.893,199.568 C 293.144,197.766 290.706,196.918 287.42,196.918 L 266.697,196.918 L 266.697,235.555 L 274.647,235.555 L 274.647,220.238 z M 274.647,213.613 L 274.647,203.543 L 284.24,203.543 C 286.519,203.543 287.473,203.755 288.427,204.55 C 289.381,205.345 289.858,206.67 289.858,208.472 C 289.858,210.327 289.328,211.811 288.427,212.606 C 287.579,213.348 286.519,213.613 284.24,213.613 L 274.647,213.613 z M 250.744,227.764 L 253.288,235.555 L 261.45,235.555 L 248.094,196.918 L 239.296,196.918 L 225.569,235.555 L 233.678,235.555 L 236.275,227.764 L 250.744,227.764 z M 248.571,221.139 L 238.501,221.139 L 243.536,206.034 L 248.571,221.139 z" />
  </g>
  <rect
     ry="0"
     rx="0"
     y="10.5"
     x="2.5"
     height="27"
     width="43.000004"
     id="rect5733"
     style="fill:url(#linearGradient2573);fill-opacity:1;stroke:url(#linearGradient2575);stroke-width:1;stroke-linecap:round;stroke-linejoin:miter;stroke-miterlimit:4;stroke-dasharray:none;stroke-dashoffset:0;stroke-opacity:1" />
</svg>
