<?xml version="1.0" encoding="UTF-8" standalone="no"?>
<!-- Created with Sodipodi ("http://www.sodipodi.com/") -->
<svg
   xmlns:dc="http://purl.org/dc/elements/1.1/"
   xmlns:cc="http://creativecommons.org/ns#"
   xmlns:rdf="http://www.w3.org/1999/02/22-rdf-syntax-ns#"
   xmlns:svg="http://www.w3.org/2000/svg"
   xmlns="http://www.w3.org/2000/svg"
   xmlns:xlink="http://www.w3.org/1999/xlink"
   xmlns:sodipodi="http://sodipodi.sourceforge.net/DTD/sodipodi-0.dtd"
   xmlns:inkscape="http://www.inkscape.org/namespaces/inkscape"
   height="48"
   id="svg548"
   sodipodi:docbase="/home/digitect/flags/"
   sodipodi:docname="Flag_of_South_Carolina.svg"
   sodipodi:version="0.32"
   width="48"
   inkscape:version="0.46"
   inkscape:output_extension="org.inkscape.output.svg.inkscape"
   version="1.0"
   inkscape:export-filename="D:\Workspace\Java\AndNav2\res\drawable\flag_usa_state_of_south_carolina.png"
   inkscape:export-xdpi="90"
   inkscape:export-ydpi="90">
  <metadata
     id="metadata3">
    <rdf:RDF>
      <cc:Work
         rdf:about="">
        <dc:title>Clipart by Steve Hall - United States - South Carolina</dc:title>
        <dc:description />
        <dc:subject>
          <rdf:Bag>
            <rdf:li />
            <rdf:li>0xa10d420</rdf:li>
            <rdf:li>america</rdf:li>
            <rdf:li>flag</rdf:li>
            <rdf:li>unitedstates</rdf:li>
            <rdf:li>north_america</rdf:li>
            <rdf:li>sign</rdf:li>
          </rdf:Bag>
        </dc:subject>
        <dc:publisher>
          <cc:Agent
             rdf:about="http://www.openclipart.org">
            <dc:title>Steve Hall</dc:title>
          </cc:Agent>
        </dc:publisher>
        <dc:creator>
          <cc:Agent>
            <dc:title>Steve Hall</dc:title>
          </cc:Agent>
        </dc:creator>
        <dc:rights>
          <cc:Agent>
            <dc:title>Steve Hall</dc:title>
          </cc:Agent>
        </dc:rights>
        <dc:date />
        <dc:format>image/svg+xml</dc:format>
        <dc:type
           rdf:resource="http://purl.org/dc/dcmitype/StillImage" />
        <cc:license
           rdf:resource="http://web.resource.org/cc/PublicDomain" />
        <dc:language>en</dc:language>
      </cc:Work>
      <cc:License
         rdf:about="http://web.resource.org/cc/PublicDomain">
        <cc:permits
           rdf:resource="http://web.resource.org/cc/Reproduction" />
        <cc:permits
           rdf:resource="http://web.resource.org/cc/Distribution" />
        <cc:permits
           rdf:resource="http://web.resource.org/cc/DerivativeWorks" />
      </cc:License>
    </rdf:RDF>
  </metadata>
  <defs
     id="defs550">
    <inkscape:perspective
       sodipodi:type="inkscape:persp3d"
       inkscape:vp_x="0 : 248.03149 : 1"
       inkscape:vp_y="0 : 1000 : 0"
       inkscape:vp_z="744.09448 : 248.03149 : 1"
       inkscape:persp3d-origin="372.04724 : 165.35433 : 1"
       id="perspective56" />
    <linearGradient
       gradientUnits="userSpaceOnUse"
       y2="13.64602"
       x2="15.000001"
       y1="-4.3631072"
       x1="15.000001"
       id="linearGradient3351"
       xlink:href="#linearGradient3345"
       inkscape:collect="always" />
    <filter
       id="filter5781"
       inkscape:collect="always">
      <feGaussianBlur
         id="feGaussianBlur5783"
         stdDeviation="0.33222591"
         inkscape:collect="always" />
    </filter>
    <linearGradient
       gradientTransform="matrix(0.9555556,0,0,0.9310345,0.6666666,0.6896552)"
       gradientUnits="userSpaceOnUse"
       y2="13.738016"
       x2="15"
       y1="-13.883799"
       x1="15"
       id="linearGradient5741"
       xlink:href="#linearGradient5735"
       inkscape:collect="always" />
    <inkscape:perspective
       sodipodi:type="inkscape:persp3d"
       inkscape:vp_x="0 : 300 : 1"
       inkscape:vp_y="0 : 1000 : 0"
       inkscape:vp_z="900 : 300 : 1"
       inkscape:persp3d-origin="450 : 200 : 1"
       id="perspective4943" />
    <g
       id="smallcross">
      <clipPath
         id="vclip">
        <path
           d="M -109,104 C -51.562386,104 -5,57.437614 -5,0 C -5,-57.437614 -51.562386,-104 -109,-104 L 109,-104 C 51.562386,-104 5,-57.437614 5,-1.2735906e-14 C 5,57.437614 51.562386,104 109,104 L -109,104 z"
           id="path4921" />
      </clipPath>
      <path
         id="varm"
         d="M -55,74 C -55,43.624339 -30.375661,19 3.3691583e-15,19 C 30.375661,19 55,43.624339 55,74 L 55,-74 C 55,-43.624339 30.375661,-19 3.3661767e-15,-19 C -30.375661,-19 -55,-43.624339 -55,-74 L -55,74 z"
         clip-path="url(#vclip)" />
      <use
         height="20"
         width="30"
         y="0"
         x="0"
         xlink:href="#varm"
         transform="matrix(0,1,-1,0,0,0)"
         id="use4924" />
    </g>
    <inkscape:perspective
       sodipodi:type="inkscape:persp3d"
       inkscape:vp_x="0 : 300 : 1"
       inkscape:vp_y="0 : 1000 : 0"
       inkscape:vp_z="900 : 300 : 1"
       inkscape:persp3d-origin="450 : 200 : 1"
       id="perspective2710" />
    <inkscape:perspective
       id="perspective20"
       inkscape:persp3d-origin="372 : 165.33333 : 1"
       inkscape:vp_z="744 : 248 : 1"
       inkscape:vp_y="0 : 1000 : 0"
       inkscape:vp_x="0 : 248 : 1"
       sodipodi:type="inkscape:persp3d" />
    <linearGradient
       id="linearGradient5735"
       inkscape:collect="always">
      <stop
         id="stop5737"
         offset="0"
         style="stop-color:#ffffff;stop-opacity:1;" />
      <stop
         id="stop5739"
         offset="1"
         style="stop-color:#ffffff;stop-opacity:0;" />
    </linearGradient>
    <linearGradient
       id="linearGradient3345"
       inkscape:collect="always">
      <stop
         id="stop3347"
         offset="0"
         style="stop-color:#ffffff;stop-opacity:1;" />
      <stop
         id="stop3349"
         offset="1"
         style="stop-color:#ffffff;stop-opacity:0;" />
    </linearGradient>
    <linearGradient
       inkscape:collect="always"
       xlink:href="#linearGradient3345"
       id="linearGradient2544"
       gradientUnits="userSpaceOnUse"
       x1="15.000001"
       y1="-4.3631072"
       x2="15.000001"
       y2="13.64602"
       gradientTransform="matrix(1.6,0,0,1.6,0,8)" />
    <linearGradient
       inkscape:collect="always"
       xlink:href="#linearGradient5735"
       id="linearGradient2546"
       gradientUnits="userSpaceOnUse"
       gradientTransform="matrix(1.528889,0,0,1.4896552,1.0666666,9.1034483)"
       x1="15"
       y1="-13.883799"
       x2="15"
       y2="13.738016" />
  </defs>
  <sodipodi:namedview
     id="base"
     showgrid="false"
     inkscape:zoom="8.2713386"
     inkscape:cx="32.392316"
     inkscape:cy="17.408656"
     inkscape:window-width="1280"
     inkscape:window-height="750"
     inkscape:window-x="1672"
     inkscape:window-y="424"
     inkscape:current-layer="svg548" />
  <rect
     ry="0"
     rx="0"
     y="0.625"
     x="0"
     height="20"
     width="30"
     id="rect5743"
     style="opacity:0.1245791;fill:#000000;fill-opacity:1;stroke:none;stroke-width:2;stroke-linecap:round;stroke-linejoin:miter;stroke-miterlimit:4;stroke-dasharray:none;stroke-dashoffset:0;stroke-opacity:1;filter:url(#filter5781)"
     transform="matrix(1.6,0,0,1.6,0,8)" />
  <rect
     height="30.66708"
     id="rect552"
     style="font-size:12px;fill:#003366;fill-opacity:1;fill-rule:evenodd;stroke-width:1pt"
     width="46"
     x="1"
     y="9.3329201" />
  <path
     d="M 3.5465548,15.028743 C 2.2479629,19.357903 7.469448,22.855923 11.026154,19.717193 C 14.756143,15.800673 10.593594,10.510913 6.270899,12.199493 C 9.4257996,11.657023 11.306329,15.302293 9.1848927,17.576853 C 7.135766,19.670063 3.3989346,18.294533 3.5465548,15.028743 z"
     id="path557"
     sodipodi:nodetypes="ccccc"
     style="fill:#ffffff;fill-opacity:1;fill-rule:evenodd;stroke:#000000;stroke-width:0.03831643;stroke-linecap:butt;stroke-linejoin:miter;stroke-dasharray:none;stroke-opacity:1" />
  <path
     d="M 24.510822,18.064603 C 24.493637,18.030293 24.322033,17.566853 24.322033,17.549663 C 24.322033,17.532553 23.704108,16.399743 23.704108,16.399743 L 23.652615,17.051973 L 22.537001,14.975193 C 22.537001,14.975193 22.588494,15.781883 22.605679,15.781883 C 22.622864,15.781883 23.13774,16.983303 23.13774,16.983303 L 22.022126,15.009513 L 21.901952,15.146823 C 21.901952,15.146823 21.919138,15.490093 21.919138,15.524413 C 21.919138,15.558723 22.674296,16.948993 22.674296,16.931813 C 22.674296,16.914613 21.558682,14.975193 21.541559,14.975193 C 21.524374,14.975193 21.335584,15.112503 21.335584,15.112503 C 21.335584,15.112503 21.335584,15.455763 21.335584,15.472923 C 21.335584,15.490093 22.159421,16.897503 22.159421,16.897503 L 20.923634,14.940863 L 20.683351,14.820713 C 20.683351,14.820713 20.649043,15.112503 20.649043,15.129663 C 20.649043,15.146823 21.987816,17.189273 21.987816,17.189273 L 21.249782,16.142273 L 21.043807,16.090783 L 21.026622,16.399743 L 22.107927,18.013113 L 22.434013,18.699653 L 23.034752,19.317513 C 23.034752,19.317513 22.296717,18.596663 22.296717,18.562353 C 22.296717,18.527993 22.056434,18.133223 22.056434,18.116093 C 22.056434,18.098913 21.455756,17.532553 21.455756,17.532553 C 21.455756,17.532553 21.301276,17.532553 21.301276,17.549663 C 21.301276,17.566853 21.352769,17.961613 21.352769,17.978803 C 21.352769,17.995923 21.66167,18.304893 21.66167,18.304893 C 21.66167,18.304893 21.352769,18.253393 21.266905,18.219093 C 21.181103,18.184713 20.837833,18.064603 20.837833,18.064603 C 20.837833,18.064603 20.769215,18.219093 20.786338,18.236203 C 20.803524,18.253393 20.992313,18.390693 21.009499,18.407873 C 21.026622,18.424993 20.855017,18.442183 20.837833,18.424993 C 20.820709,18.407873 19.859514,17.892943 19.859514,17.892943 L 18.761085,17.343753 L 18.366321,17.223583 L 18.349136,17.378063 C 18.349136,17.378063 18.778271,17.721333 18.795393,17.721333 C 18.812579,17.721333 19.979686,18.339193 19.979686,18.339193 L 17.525299,17.549663 L 17.353694,17.549663 L 17.473805,17.824323 L 19.413256,18.476493 L 19.447626,18.630973 C 19.447626,18.630973 19.361824,18.562353 19.293145,18.510863 C 19.224467,18.459373 18.812579,18.390693 18.726777,18.390693 C 18.640913,18.390693 17.628286,18.442183 17.628286,18.442183 C 17.628286,18.442183 17.662594,18.596663 17.679779,18.596663 C 17.696965,18.596663 17.954371,18.716773 17.971556,18.733963 C 17.988742,18.751143 19.378947,18.699653 19.378947,18.699653 C 19.378947,18.699653 19.018554,18.785453 19.018554,18.802633 C 19.018554,18.819763 19.001369,18.974243 19.018554,18.991433 C 19.035677,19.008553 19.361824,19.077233 19.378947,19.077233 C 19.396133,19.077233 19.670724,18.974243 19.687909,18.957053 C 19.705033,18.939943 19.876699,18.802633 19.893885,18.802633 C 19.911007,18.802633 19.516243,19.094413 19.516243,19.111533 C 19.516243,19.128723 19.49912,19.283203 19.516243,19.300333 C 19.533429,19.317513 19.893885,19.334693 19.928193,19.317513 C 19.962501,19.300333 20.254278,19.094413 20.254278,19.111533 C 20.254278,19.128723 20.357266,19.386193 20.357266,19.403323 C 20.357266,19.420503 20.786338,19.489183 20.820709,19.506303 C 20.855017,19.523483 21.798965,19.626483 21.798965,19.626483 L 22.708667,20.038363 C 22.708667,20.038363 21.850459,19.746583 21.833336,19.729463 C 21.816151,19.712283 21.266905,19.660783 21.266905,19.660783 L 19.121479,19.832383 C 19.121479,19.832383 17.353694,20.124173 17.336509,20.124173 C 17.319385,20.124173 16.907436,20.278643 16.907436,20.278643 C 16.907436,20.278643 17.07904,20.381633 17.130534,20.398823 C 17.182028,20.415943 19.155849,20.261523 19.155849,20.261523 L 17.319385,20.450313 C 17.319385,20.450313 16.993238,20.656283 16.958929,20.673413 C 16.924621,20.690593 16.804449,20.862203 16.804449,20.879383 C 16.804449,20.896563 16.838757,21.068173 16.890251,21.068173 C 16.941745,21.068173 17.422311,20.965183 17.456681,20.965183 C 17.49099,20.965183 18.383506,20.793583 18.383506,20.793583 C 18.383506,20.793583 19.293145,20.536123 19.310331,20.536123 C 19.327454,20.536123 17.834261,20.982373 17.834261,20.982373 L 17.388002,21.085363 C 17.388002,21.085363 17.388002,21.291333 17.422311,21.291333 C 17.456681,21.291333 17.817076,21.325643 17.971556,21.308463 C 18.126038,21.291333 18.520802,21.136853 18.589419,21.119663 C 18.658098,21.102483 19.653601,20.776403 19.653601,20.776403 C 19.653601,20.776403 18.726777,21.205473 18.692406,21.205473 C 18.658098,21.205473 17.937248,21.548743 17.937248,21.548743 C 17.937248,21.548743 17.799952,21.771903 17.834261,21.771903 C 17.868569,21.771903 18.126038,21.806203 18.143222,21.806203 C 18.160346,21.806203 18.640913,21.565923 18.658098,21.565923 C 18.675282,21.565923 19.49912,21.153973 19.49912,21.153973 L 18.967059,21.565923 L 18.469308,21.874893 C 18.469308,21.874893 18.400629,22.029303 18.417815,22.029303 C 18.435,22.029303 18.675282,22.097993 18.675282,22.097993 C 18.675282,22.097993 19.018554,21.960693 19.08717,21.909203 C 19.155849,21.857713 19.790897,21.462943 19.790897,21.462943 C 19.790897,21.462943 20.477438,21.033863 20.528932,20.999563 C 20.580426,20.965183 21.232597,20.707723 21.232597,20.707723 L 20.357266,21.291333 C 20.357266,21.291333 19.842391,21.840513 19.825206,21.857713 C 19.80802,21.874893 19.224467,22.338273 19.207343,22.372583 C 19.190158,22.406953 18.452123,23.110613 18.435,23.144923 C 18.417815,23.179303 18.229025,23.694173 18.229025,23.694173 C 18.229025,23.694173 18.21184,24.535183 18.21184,24.620993 C 18.21184,24.706793 18.332012,25.032943 18.349136,25.032943 C 18.366321,25.032943 18.486494,24.466513 18.486494,24.466513 C 18.486494,24.466513 18.675282,25.118743 18.692406,25.067253 C 18.709592,25.015763 18.915566,24.449383 18.93269,24.449383 C 18.949875,24.449383 19.104356,24.603813 19.121479,24.603813 C 19.138664,24.603813 19.344639,24.449383 19.361824,24.380713 C 19.378947,24.312033 19.670724,23.059123 19.670724,23.059123 L 19.825206,23.762843 C 19.825206,23.762843 20.013996,23.694173 20.03118,23.591183 C 20.048304,23.488193 20.168476,22.698723 20.185662,22.715853 C 20.202784,22.733033 20.391574,22.990503 20.425945,22.973323 C 20.460253,22.956133 20.683351,22.767343 20.683351,22.750223 C 20.683351,22.733033 20.855017,21.892013 20.855017,21.892013 L 21.043807,22.218103 C 21.043807,22.218103 21.318398,22.149483 21.318398,22.115173 C 21.318398,22.080803 22.00494,21.325643 22.022126,21.325643 C 22.03931,21.325643 22.554185,21.016683 22.57137,21.016683 C 22.588494,21.016683 22.622864,21.153973 22.554185,21.239843 C 22.485507,21.325643 22.193729,21.703223 22.107927,21.771903 C 22.022126,21.840513 21.335584,22.561363 21.335584,22.578553 C 21.335584,22.595743 21.335584,22.767343 21.335584,22.767343 L 21.66167,22.904643 C 21.66167,22.904643 21.163979,23.144923 21.163979,23.162103 C 21.163979,23.179303 20.614734,23.591183 20.614734,23.591183 C 20.614734,23.591183 20.546055,23.865843 20.580426,23.865843 C 20.614734,23.865843 21.060992,23.882953 21.060992,23.900143 C 21.060992,23.917333 20.872202,24.020253 20.820709,24.054623 C 20.769215,24.088933 20.099797,24.415023 20.099797,24.432203 C 20.099797,24.449383 19.893885,24.672483 19.893885,24.689673 C 19.893885,24.706793 20.082674,24.775483 20.099797,24.758283 C 20.116983,24.741163 20.597549,24.552313 20.597549,24.552313 C 20.597549,24.552313 19.790897,25.307533 19.790897,25.324723 C 19.790897,25.341843 19.773712,25.547823 19.790897,25.547823 C 19.80802,25.547823 20.013996,25.427643 20.048304,25.410523 C 20.082674,25.393333 20.803524,24.741163 20.820709,24.723983 C 20.837833,24.706793 20.837833,24.844093 20.837833,24.844093 L 20.116983,25.753793 C 20.116983,25.753793 19.945378,25.942583 19.945378,25.959773 C 19.945378,25.976893 20.013996,26.217173 20.03118,26.200053 C 20.048304,26.182873 20.202784,26.028383 20.254278,25.959773 C 20.305772,25.891083 20.734845,25.376213 20.769215,25.359023 C 20.803524,25.341843 21.198289,25.015763 21.198289,25.015763 C 21.198289,25.015763 21.198289,25.153053 21.198289,25.170233 C 21.198289,25.187363 20.958005,25.530633 20.958005,25.547823 C 20.958005,25.565003 20.700536,26.028383 20.683351,26.062693 C 20.666228,26.097063 20.666228,26.440333 20.666228,26.440333 C 20.666228,26.440333 20.855017,26.457463 20.855017,26.423153 C 20.855017,26.388843 21.215411,25.788103 21.249782,25.736613 C 21.28409,25.685113 21.593052,25.015763 21.610175,24.947083 C 21.627361,24.878463 21.850459,24.312033 21.850459,24.277723 C 21.850459,24.243413 21.936323,24.174743 21.936323,24.174743 C 21.936323,24.174743 21.970631,24.535183 21.970631,24.620993 C 21.970631,24.706793 22.107927,24.998573 22.107927,24.947083 C 22.107927,24.895583 22.348211,24.415023 22.348211,24.415023 C 22.348211,24.415023 22.639988,23.831463 22.674296,23.779973 C 22.708667,23.728483 22.863147,23.402393 22.863147,23.368083 C 22.863147,23.333773 23.086245,22.801653 23.086245,22.801653 L 23.086245,23.385203 C 23.086245,23.385203 22.863147,24.054623 22.863147,24.071743 C 22.863147,24.088933 22.622802,24.638183 22.588494,24.672483 C 22.554185,24.706793 22.348211,25.067253 22.348211,25.084433 C 22.348211,25.101563 22.159421,25.393333 22.159421,25.393333 L 22.382519,25.273223 C 22.382519,25.273223 22.622864,25.135873 22.674296,25.084433 C 22.725789,25.032943 22.983258,24.706793 22.983258,24.758283 C 22.983258,24.809783 22.828777,25.153053 22.828777,25.170233 C 22.828777,25.187363 22.657173,25.736613 22.657173,25.753793 C 22.657173,25.770923 22.519877,26.131363 22.519877,26.148563 C 22.519877,26.165673 22.502691,26.457463 22.537001,26.457463 C 22.57137,26.457463 22.845963,26.182873 22.880271,26.131363 C 22.914641,26.079873 23.154924,25.599313 23.154924,25.599313 C 23.154924,25.599313 23.29222,25.719423 23.29222,25.736613 C 23.29222,25.753793 23.532504,25.633623 23.532504,25.633623 C 23.532504,25.633623 23.463825,25.153053 23.463825,25.135873 C 23.463825,25.118743 23.566812,24.775483 23.583997,24.689673 C 23.601121,24.603813 23.686984,24.191923 23.704108,24.140433 C 23.721294,24.088933 23.789972,23.333773 23.789972,23.350893 C 23.789972,23.368083 23.789972,24.054623 23.789972,24.054623 C 23.789972,24.054623 24.184675,23.934453 24.167551,23.934453 C 24.150366,23.934453 23.777918,24.174743 23.777918,24.174743 L 23.763638,24.672483 L 24.243215,24.381203 L 23.762649,24.827463 L 23.757704,25.175243 L 24.098872,25.069663 L 23.758322,25.275633 C 23.741137,25.292763 23.738169,25.650803 23.738169,25.667993 C 23.738169,25.685113 23.429517,33.631773 23.429517,33.631773 C 23.429517,33.631773 23.172048,34.541413 23.13774,34.558593 C 23.103431,34.575723 21.747533,34.558593 21.730348,34.575723 C 21.713163,34.592903 21.266905,34.833183 21.266905,34.850373 C 21.266905,34.867493 21.060992,35.039163 21.060992,35.039163 C 21.060992,35.039163 21.198289,35.245133 21.215411,35.262263 C 21.232597,35.279443 21.798965,35.348123 21.816151,35.330933 C 21.833336,35.313753 21.713163,35.502543 21.713163,35.502543 C 21.713163,35.502543 21.318398,35.725703 21.318398,35.742823 C 21.318398,35.760013 21.28409,35.983173 21.318398,36.017473 C 21.352769,36.051783 21.490065,36.171963 21.524374,36.154773 C 21.558682,36.137593 21.833336,35.983173 21.833336,35.983173 L 21.953447,36.103283 C 21.953447,36.103283 21.919138,36.326373 21.936323,36.343573 C 21.953447,36.360753 22.125113,36.463733 22.193729,36.412243 C 22.262408,36.360753 22.468383,36.189083 22.554185,36.137593 C 22.639988,36.086093 22.845963,35.863003 22.863147,35.863003 C 22.880271,35.863003 22.94895,36.000293 22.966073,36.017473 C 22.983258,36.034603 23.189233,36.137593 23.223541,36.137593 C 23.25785,36.137593 23.498133,36.120473 23.601121,36.120473 C 23.704108,36.120473 23.944392,36.068973 23.995885,36.051783 C 24.047379,36.034603 24.219045,35.845813 24.236168,35.828693 C 24.253354,35.811503 24.510822,35.880183 24.527945,35.897313 C 24.545131,35.914493 24.665303,36.120473 24.751105,36.154773 C 24.836908,36.189083 25.042882,36.223453 25.042882,36.223453 C 25.042882,36.223453 25.111499,36.154773 25.111499,36.051783 C 25.111499,35.948803 25.077191,35.742823 25.094375,35.742823 C 25.111499,35.742823 25.300289,35.777193 25.334659,35.794323 C 25.368968,35.811503 25.609251,35.914493 25.643559,35.948803 C 25.67793,35.983173 25.866719,36.068973 25.883904,36.017473 C 25.901028,35.965983 25.883904,35.708523 25.901028,35.708523 C 25.918212,35.708523 26.072694,35.794323 26.107002,35.828693 C 26.141311,35.863003 26.3301,35.965983 26.347286,35.983173 C 26.364471,36.000293 26.690556,36.137593 26.690556,36.103283 C 26.690556,36.068973 26.690556,35.828693 26.690556,35.811503 C 26.690556,35.794323 26.810667,35.794323 26.827852,35.811503 C 26.845038,35.828693 27.016642,35.931673 27.051012,35.931673 C 27.085321,35.931673 27.068136,35.708523 27.068136,35.691393 C 27.068136,35.674213 27.033827,35.399623 27.033827,35.416733 C 27.033827,35.433933 27.342727,35.536913 27.411406,35.554033 C 27.480085,35.571223 27.80617,35.657033 27.80617,35.622713 C 27.80617,35.588403 27.668875,35.416733 27.617381,35.365243 C 27.565887,35.313753 27.188308,35.039163 27.102444,34.987673 C 27.016642,34.936173 26.621877,34.833183 26.621877,34.833183 C 26.621877,34.833183 25.729424,34.781693 25.626436,34.781693 C 25.523449,34.781693 25.334659,34.507103 25.317474,34.455603 C 25.300289,34.404113 25.214486,33.923543 25.197363,33.923543 C 25.180178,33.923543 25.094375,33.099703 25.094375,33.099703 L 25.042882,27.933523 L 24.888401,24.071743 L 24.682426,23.556873 C 24.682426,23.556873 25.317474,24.964263 25.317474,24.981453 C 25.317474,24.998573 25.437647,25.479133 25.437647,25.496323 C 25.437647,25.513513 25.471955,25.856773 25.471955,25.856773 L 25.712238,25.822413 L 25.79804,25.496323 L 24.974203,23.333773 L 24.802598,22.973323 C 24.802598,22.973323 25.79804,25.496323 25.849534,25.496323 C 25.901028,25.496323 26.107002,25.221733 26.107002,25.221733 L 25.420461,23.368083 L 24.905587,22.990503 C 24.905587,22.990503 25.48914,23.333773 25.48914,23.282283 C 25.48914,23.230793 25.67793,23.024813 25.712238,23.024813 C 25.746547,23.024813 25.506263,23.350893 25.506263,23.350893 C 25.506263,23.350893 26.167769,25.605683 26.167769,25.617793 C 26.167769,25.629973 26.31341,25.714913 26.325526,25.666383 C 26.337642,25.617793 26.459051,25.205163 26.459051,25.193053 C 26.459051,25.180933 26.31341,24.610483 26.289116,24.549843 C 26.264821,24.489143 25.803666,23.044903 25.803666,23.044903 C 25.803666,23.044903 26.56822,25.059523 26.556104,25.108113 C 26.543988,25.156633 26.543988,25.508563 26.543988,25.520743 C 26.543988,25.532863 26.823093,25.520743 26.823093,25.508563 C 26.823093,25.496453 26.83527,25.108113 26.83527,25.047403 C 26.83527,24.986703 26.750272,24.695483 26.72604,24.659073 C 26.701746,24.622663 26.204179,23.069193 26.204179,23.069193 C 26.204179,23.069193 26.993027,25.217343 26.993027,25.229463 C 26.993027,25.241573 27.065848,25.508563 27.077964,25.508563 C 27.090081,25.508563 27.369247,25.642093 27.369247,25.642093 C 27.369247,25.642093 27.442068,25.945493 27.466362,25.957673 C 27.490594,25.969783 27.672646,26.066833 27.672646,26.054723 C 27.672646,26.042603 27.709056,24.901773 27.709056,24.889653 C 27.709056,24.877473 27.612002,24.440613 27.612002,24.440613 C 27.612002,24.440613 27.903224,25.229463 27.903224,25.265863 C 27.903224,25.302283 27.951812,25.739203 27.963928,25.763433 C 27.976044,25.787733 28.243032,25.896963 28.243032,25.884843 C 28.243032,25.872663 28.303737,25.581383 28.303737,25.581383 L 28.534315,25.763433 C 28.534315,25.763433 28.74066,25.714913 28.74066,25.690613 C 28.74066,25.666383 28.667839,25.253753 28.655723,25.229463 C 28.643546,25.205163 28.388673,24.549843 28.388673,24.549843 C 28.388673,24.549843 28.874124,25.241573 28.886301,25.277983 C 28.898417,25.314393 29.080469,25.447923 29.080469,25.423633 C 29.080469,25.399333 29.092585,25.108113 29.068353,25.095933 C 29.044059,25.083823 28.849891,24.719713 28.813481,24.634773 C 28.77707,24.549843 28.485789,23.882343 28.485789,23.882343 L 28.619313,23.967283 C 28.619313,23.967283 29.505215,25.156633 29.517393,25.156633 C 29.529509,25.156633 29.71156,25.217343 29.723676,25.205163 C 29.735855,25.193053 29.747971,25.023113 29.735855,25.023113 C 29.723676,25.023113 29.468805,24.525543 29.456689,24.501253 C 29.444572,24.477023 28.655723,23.263363 28.655723,23.263363 L 29.578036,24.404203 C 29.578036,24.404203 29.820791,24.513433 29.832907,24.501253 C 29.845086,24.489143 29.881496,24.355613 29.869318,24.331373 C 29.857202,24.307083 29.67515,23.979393 29.650856,23.955163 C 29.626624,23.930873 28.813481,22.692983 28.789186,22.668693 C 28.764893,22.644383 28.18239,21.661373 28.18239,21.661373 C 28.18239,21.661373 28.946944,22.122523 28.995533,22.171123 C 29.044059,22.219643 30.221304,23.263363 30.257715,23.287653 C 30.294125,23.311893 30.718871,23.603183 30.718871,23.615353 C 30.718871,23.627473 30.949449,23.700283 30.937333,23.700283 C 30.925217,23.700283 30.767397,23.372593 30.767397,23.372593 C 30.767397,23.372593 31.107206,23.481823 31.143617,23.518243 C 31.180027,23.554653 31.471309,23.651703 31.507719,23.675993 C 31.54413,23.700283 31.762592,23.688103 31.762592,23.688103 C 31.762592,23.688103 31.653361,23.457533 31.629066,23.445413 C 31.604834,23.433303 31.313552,23.190553 31.313552,23.190553 C 31.313552,23.190553 31.677655,23.372593 31.701887,23.384703 C 31.726181,23.396883 32.041758,23.457533 32.041758,23.457533 C 32.041758,23.457533 32.199515,23.409013 32.211632,23.396883 C 32.223748,23.384703 32.211632,23.202663 32.187399,23.202663 C 32.163105,23.202663 30.767397,22.438103 30.767397,22.438103 C 30.767397,22.438103 31.265025,22.607983 31.277142,22.607983 C 31.289258,22.607983 31.677655,22.559453 31.677655,22.559453 L 31.592718,22.389583 L 29.71156,21.709893 C 29.71156,21.709893 28.995533,21.236633 29.007649,21.248743 C 29.019764,21.260863 29.699444,21.418623 29.723676,21.418623 C 29.747971,21.418623 30.68246,21.479323 30.68246,21.467203 C 30.68246,21.455023 30.148485,21.224453 30.148485,21.224453 C 30.148485,21.224453 30.876628,21.188033 30.900923,21.188033 C 30.925217,21.188033 31.99317,21.151623 31.99317,21.151623 C 31.99317,21.151623 32.163105,20.981753 32.187399,20.981753 C 32.211632,20.981753 32.405799,20.799713 32.405799,20.799713 L 32.357272,20.205023 L 32.223748,19.986563 C 32.223748,19.986563 31.677655,19.877333 31.677655,19.865223 C 31.677655,19.853043 31.386372,19.768103 31.386372,19.768103 C 31.386372,19.768103 29.820791,19.743803 29.857202,19.731693 C 29.893612,19.719573 29.857202,19.646753 29.881496,19.646753 C 29.905728,19.646753 30.354768,19.573933 30.354768,19.573933 C 30.354768,19.573933 30.342652,19.416173 30.342652,19.428293 C 30.342652,19.440413 28.837714,19.464703 28.837714,19.464703 C 28.837714,19.464703 29.286814,19.234123 29.298931,19.234123 C 29.311047,19.234123 29.893612,18.894313 29.942138,18.882133 C 29.990665,18.870023 30.245537,18.651553 30.245537,18.639443 C 30.245537,18.627263 29.990665,18.530213 29.978549,18.542323 C 29.966433,18.554443 29.359635,18.651553 29.383868,18.639443 C 29.408162,18.627263 29.578036,18.457393 29.735855,18.396683 C 29.893612,18.336043 30.488293,17.959763 30.500409,17.959763 C 30.512526,17.959763 30.815986,17.789893 30.815986,17.777773 C 30.815986,17.765593 30.755281,17.656363 30.718871,17.668543 C 30.68246,17.680663 30.014959,17.935533 30.002843,17.935533 C 29.990665,17.935533 29.687267,17.971943 29.687267,17.959763 C 29.687267,17.947653 30.172716,17.632133 30.172716,17.632133 C 30.172716,17.632133 30.815986,17.183093 30.828102,17.183093 C 30.840218,17.183093 30.949449,16.940333 30.937333,16.940333 C 30.925217,16.940333 30.573229,17.037453 30.561113,17.061683 C 30.548936,17.085973 30.039253,17.401483 30.027075,17.401483 C 30.014959,17.401483 30.548997,16.940333 30.561113,16.940333 C 30.573229,16.940333 30.706755,16.624823 30.706755,16.624823 C 30.706755,16.624823 30.573229,16.539823 30.573229,16.552003 C 30.573229,16.564113 30.099896,16.746173 30.099896,16.746173 L 29.444572,17.425793 C 29.444572,17.425793 30.209127,16.588413 30.209127,16.539823 C 30.209127,16.491303 30.233421,16.260713 30.233421,16.260713 L 29.784381,16.454883 C 29.784381,16.454883 29.311047,16.539823 29.311047,16.552003 C 29.311047,16.564113 28.206622,17.619953 28.18239,17.644253 C 28.158095,17.668543 27.417773,18.166113 27.417773,18.166113 C 27.417773,18.166113 26.908091,18.493803 26.895913,18.505923 C 26.883797,18.518103 26.446873,18.603033 26.446873,18.603033 C 26.446873,18.603033 26.410463,18.481623 26.446873,18.469513 C 26.483283,18.457393 26.810977,17.911233 26.823093,17.899123 C 26.83527,17.887003 27.235721,16.964633 27.235721,16.964633 L 27.260016,16.345653 L 27.21149,16.236423 C 27.21149,16.236423 26.72604,17.122393 26.72604,17.134503 C 26.72604,17.146683 26.701746,17.049573 26.713861,17.037453 C 26.72604,17.025273 27.2479,16.005843 27.2479,16.005843 L 27.260016,15.617513 C 27.260016,15.617513 27.175079,15.508253 27.150785,15.544683 C 27.126491,15.581103 26.34982,16.916043 26.34982,16.916043 C 26.34982,16.916043 26.216295,17.073863 26.216295,17.061683 C 26.216295,17.049573 27.102258,15.447573 27.114374,15.447573 C 27.126491,15.447573 27.223605,15.204843 27.235721,15.156293 C 27.2479,15.107753 27.260016,14.622303 27.260016,14.622303 L 27.126491,14.500943 C 27.126491,14.500943 26.823093,14.865033 26.823093,14.889303 C 26.823093,14.913573 26.167769,16.297133 26.167769,16.297133 C 26.167769,16.297133 26.228412,16.139373 26.277,16.017963 C 26.325526,15.896613 26.786682,14.695113 26.786682,14.695113 C 26.786682,14.695113 26.713861,14.525213 26.713861,14.549483 C 26.713861,14.573763 26.398347,14.974253 26.398347,15.010663 C 26.398347,15.047073 25.937129,15.945133 25.937129,15.945133 C 25.937129,15.945133 26.337642,14.877163 26.34982,14.877163 C 26.361936,14.877163 26.422641,14.476663 26.422641,14.464533 C 26.422641,14.452393 26.240589,14.440253 26.228412,14.488803 C 26.216295,14.537343 25.985717,14.767943 25.949307,14.913573 C 25.912897,15.059203 25.512383,16.175723 25.512383,16.212133 C 25.512383,16.248533 25.172574,17.098093 25.184691,17.085973 C 25.196868,17.073863 25.488089,16.066553 25.488089,16.042253 C 25.488089,16.017963 25.427446,15.399023 25.427446,15.399023 C 25.427446,15.399023 25.330331,15.338353 25.330331,15.362623 C 25.330331,15.386893 25.196868,15.653863 25.196868,15.653863 C 25.196868,15.653863 24.893408,16.285013 24.893408,16.321363 C 24.893408,16.357763 24.69924,17.110273 24.69924,17.110273 L 24.577893,17.838423 L 24.505073,18.093293 L 24.505073,18.081173"
     id="path554"
     sodipodi:nodetypes="cccccccccccccccccccccccccccccccccccccccccccccccccccccccccccccccccccccccccccccccccccccccccccccccccccccccccccccccccccccccccccccccccccccccccccccccccccccccccccccccccccccccccccccccccccccccccccccccccccccccccccccccccccccccccccccccccccccccccccccccccccccccccccccccccccccccccccccccccccccccccccccccccccccccccccccccccccccccccccccccccccccccccccccccccccccccccccccccccccccccccccccccccccccccccccccccccccccccccccccccccccc"
     style="fill:#ffffff;fill-opacity:1;fill-rule:evenodd;stroke:#666666;stroke-width:0.07727143;stroke-linecap:butt;stroke-linejoin:miter;stroke-dasharray:none;stroke-opacity:1" />
  <path
     d="M 23.048723,20.957463 L 23.133659,21.297273 C 23.133659,21.297273 23.352122,21.151623 23.364238,21.139513 C 23.376415,21.127333 23.473469,20.921053 23.473469,20.921053"
     id="path556"
     style="fill:none;fill-opacity:1;fill-rule:evenodd;stroke:#666666;stroke-width:0.07727143;stroke-linecap:butt;stroke-linejoin:miter;stroke-dasharray:none;stroke-opacity:1" />
  <path
     d="M 23.291478,21.212343 C 23.291478,21.212343 23.340005,21.564253 23.340005,21.576433 C 23.340005,21.588553 23.461352,21.345793 23.461352,21.345793 L 23.522056,21.163743 C 23.522056,21.163743 23.631287,21.297273 23.643403,21.297273 C 23.655519,21.297273 23.789045,21.297273 23.801161,21.309393 C 23.813339,21.321573 23.92257,21.624963 23.92257,21.624963 L 24.068149,21.321573 C 24.068149,21.321573 24.189558,21.090983 24.189558,21.103103 C 24.189558,21.115223 24.153147,21.649263 24.153147,21.661373 C 24.153147,21.673493 24.17738,21.964773 24.17738,22.001183 C 24.17738,22.037593 24.14097,22.668693 24.14097,22.680803 C 24.14097,22.692983 24.395842,22.595863 24.395842,22.595863 L 24.553599,22.280353 C 24.553599,22.280353 24.62642,21.758423 24.62642,21.782723 C 24.62642,21.807013 24.687124,22.207533 24.69924,22.207533 C 24.711419,22.207533 24.869176,22.086113 24.85706,22.025473 C 24.844882,21.964773 24.784239,21.819123 24.784239,21.819123"
     id="path558"
     style="fill:none;fill-opacity:1;fill-rule:evenodd;stroke:#666666;stroke-width:0.07727143;stroke-linecap:butt;stroke-linejoin:miter;stroke-dasharray:none;stroke-opacity:1" />
  <path
     d="M 24.723535,21.175923 C 24.723535,21.175923 24.723535,21.515733 24.723535,21.540033 C 24.723535,21.564253 24.784239,21.794833 24.808471,21.807013 C 24.832766,21.819123 24.92988,21.855543 24.954113,21.843433 C 24.978407,21.831253 25.07546,21.576433 25.087637,21.576433 C 25.099754,21.576433 25.269689,21.357973 25.293922,21.321573 C 25.318215,21.285153 25.366742,21.042393 25.366742,21.042393"
     id="path559"
     style="fill:none;fill-opacity:1;fill-rule:evenodd;stroke:#666666;stroke-width:0.07727143;stroke-linecap:butt;stroke-linejoin:miter;stroke-dasharray:none;stroke-opacity:1" />
  <path
     d="M 25.609498,20.666173 L 25.718729,21.042393 C 25.718729,21.042393 25.93719,21.224453 25.93719,21.236563 C 25.93719,21.248743 25.997834,21.600663 25.997834,21.612843 C 25.997834,21.624963 25.75514,21.928363 25.75514,21.928363 L 25.609498,22.171123 L 25.925013,22.316693 C 25.925013,22.316693 25.876487,22.474523 25.840076,22.486633 C 25.803666,22.498743 25.536678,22.717213 25.536678,22.717213 C 25.536678,22.717213 25.827959,22.717213 25.840076,22.741503 C 25.852192,22.765793 25.888603,22.959963 25.90078,23.020603 C 25.912897,23.081323 26.082832,23.129843 26.082832,23.129843 L 26.325526,22.984203"
     id="path560"
     style="fill:none;fill-opacity:1;fill-rule:evenodd;stroke:#666666;stroke-width:0.07727143;stroke-linecap:butt;stroke-linejoin:miter;stroke-dasharray:none;stroke-opacity:1" />
  <path
     d="M 26.082832,22.353113 C 26.070654,22.389513 25.961423,22.535153 25.961423,22.547333 C 25.961423,22.559453 26.155653,22.656563 26.155653,22.656563 L 26.240589,22.826443 C 26.240589,22.826443 26.422641,22.911373 26.422641,22.923553 C 26.422641,22.935673 26.398347,23.214843 26.410463,23.214843 C 26.422641,23.214843 26.604692,23.202663 26.604692,23.251253 C 26.604692,23.299783 26.641102,23.578873 26.653219,23.591053 C 26.665335,23.603183 26.895913,23.785223 26.895913,23.809513 C 26.895913,23.833753 26.956617,24.076513 26.956617,24.076513 L 27.053732,24.282793 L 27.345015,24.137153"
     id="path561"
     style="fill:none;fill-opacity:1;fill-rule:evenodd;stroke:#666666;stroke-width:0.07727143;stroke-linecap:butt;stroke-linejoin:miter;stroke-dasharray:none;stroke-opacity:1" />
  <path
     d="M 27.599825,24.392023 C 27.587709,24.379903 27.429952,24.185743 27.429952,24.185743 C 27.429952,24.185743 27.332837,23.797333 27.332837,23.773113 C 27.332837,23.748813 27.102258,23.190553 27.077964,23.142023 C 27.053732,23.093433 26.556104,22.171123 26.556104,22.146833 C 26.556104,22.122523 26.434757,21.904063 26.434757,21.904063"
     id="path562"
     style="fill:none;fill-opacity:1;fill-rule:evenodd;stroke:#666666;stroke-width:0.07727143;stroke-linecap:butt;stroke-linejoin:miter;stroke-dasharray:none;stroke-opacity:1" />
  <path
     d="M 25.803666,20.799713 C 25.803666,20.799713 26.082832,20.775413 26.094948,20.775413 C 26.107064,20.775413 26.289116,20.957463 26.301232,20.957463 C 26.31341,20.957463 26.616809,21.212343 26.616809,21.248743 C 26.616809,21.285153 26.810977,21.661373 26.83527,21.722023 C 26.859503,21.782723 27.150785,22.086113 27.162963,22.134703 C 27.175079,22.183233 27.187195,22.571573 27.199374,22.595863 C 27.21149,22.620163 27.648413,23.336183 27.66053,23.360483 C 27.672646,23.384703 27.781877,23.627473 27.781877,23.639583 C 27.781877,23.651703 27.745466,23.979393 27.745466,23.991573 C 27.745466,24.003683 27.903285,24.282793 27.915401,24.319193 C 27.927517,24.355613 28.036748,24.744003 28.061043,24.756133 C 28.085275,24.768243 28.291621,25.108113 28.291621,25.144523 C 28.291621,25.180873 28.291621,25.423633 28.291621,25.423633"
     id="path563"
     style="fill:none;fill-opacity:1;fill-rule:evenodd;stroke:#666666;stroke-width:0.07727143;stroke-linecap:butt;stroke-linejoin:miter;stroke-dasharray:none;stroke-opacity:1" />
  <path
     d="M 27.466362,23.918753 C 27.466362,23.930873 27.672646,23.942983 27.672646,23.942983 L 27.915401,23.651703 L 28.085275,23.615293 L 28.230916,23.336183 L 28.582903,23.251253"
     id="path564"
     style="fill:none;fill-opacity:1;fill-rule:evenodd;stroke:#666666;stroke-width:0.07727143;stroke-linecap:butt;stroke-linejoin:miter;stroke-dasharray:none;stroke-opacity:1" />
  <path
     d="M 26.883797,21.042393 C 26.895913,21.054573 27.150785,21.455023 27.175079,21.503613 C 27.199374,21.552143 27.527004,22.256063 27.527004,22.268173 C 27.527004,22.280353 27.988222,23.081323 27.988222,23.093433 C 27.988222,23.105613 27.988222,23.748813 28.012454,23.797333 C 28.036748,23.845933 28.267326,24.149333 28.279505,24.173563 C 28.291621,24.197853 28.388735,24.537663 28.388735,24.537663"
     id="path565"
     style="fill:none;fill-opacity:1;fill-rule:evenodd;stroke:#666666;stroke-width:0.07727143;stroke-linecap:butt;stroke-linejoin:miter;stroke-dasharray:none;stroke-opacity:1" />
  <path
     d="M 28.449378,23.712413 C 28.461556,23.615293 28.473672,23.105613 28.473672,23.093433 C 28.473672,23.081323 28.230916,22.656563 28.230916,22.571573 C 28.230916,22.486633 28.048864,21.964773 28.024632,21.940483 C 28.000338,21.916243 27.721234,21.333683 27.696939,21.309393 C 27.672646,21.285153 27.539182,21.005993 27.502772,20.969573 C 27.466362,20.933163 27.296426,20.496313 27.296426,20.496313"
     id="path566"
     style="fill:none;fill-opacity:1;fill-rule:evenodd;stroke:#666666;stroke-width:0.07727143;stroke-linecap:butt;stroke-linejoin:miter;stroke-dasharray:none;stroke-opacity:1" />
  <path
     d="M 26.531872,21.005993 C 26.568283,20.981753 26.677513,20.714703 26.677513,20.654063 C 26.677513,20.593363 26.568283,20.277853 26.556104,20.265663 C 26.543988,20.253553 26.252705,20.071503 26.252705,20.071503 L 25.912897,19.950153"
     id="path567"
     style="fill:none;fill-opacity:1;fill-rule:evenodd;stroke:#666666;stroke-width:0.07727143;stroke-linecap:butt;stroke-linejoin:miter;stroke-dasharray:none;stroke-opacity:1" />
  <path
     d="M 26.094948,19.889443 L 26.361936,19.998673 C 26.361936,19.998673 26.568283,19.986563 26.580398,19.986563 C 26.592514,19.986563 26.823093,19.804513 26.79886,19.804513 C 26.774566,19.804513 26.422641,19.598163 26.422641,19.598163 C 26.422641,19.598163 26.070654,19.464703 26.058538,19.464703 C 26.046422,19.464703 25.706551,19.488933 25.706551,19.488933 C 25.706551,19.488933 26.119242,19.015663 26.155653,18.967073 C 26.192063,18.918553 26.446873,18.578743 26.446873,18.578743"
     id="path568"
     style="fill:none;fill-opacity:1;fill-rule:evenodd;stroke:#666666;stroke-width:0.07727143;stroke-linecap:butt;stroke-linejoin:miter;stroke-dasharray:none;stroke-opacity:1" />
  <path
     d="M 27.393541,18.687973 C 27.381425,18.687973 27.114374,18.942843 27.090142,18.954953 C 27.065848,18.967073 26.665335,19.088483 26.653219,19.137013 C 26.641102,19.185533 26.68963,19.306943 26.68963,19.306943 L 27.102258,19.088483 C 27.102258,19.088483 27.296426,19.270533 27.345015,19.306943 C 27.393541,19.343363 27.454184,19.573933 27.454184,19.573933"
     id="path569"
     style="fill:none;fill-opacity:1;fill-rule:evenodd;stroke:#666666;stroke-width:0.07727143;stroke-linecap:butt;stroke-linejoin:miter;stroke-dasharray:none;stroke-opacity:1" />
  <path
     d="M 28.485789,19.112713 C 28.437262,19.112713 28.206684,19.197713 28.194506,19.209833 C 28.18239,19.221943 27.891107,19.428293 27.891107,19.440413 C 27.891107,19.452523 27.721234,19.561753 27.721234,19.573933"
     id="path570"
     style="fill:none;fill-opacity:1;fill-rule:evenodd;stroke:#666666;stroke-width:0.07727143;stroke-linecap:butt;stroke-linejoin:miter;stroke-dasharray:none;stroke-opacity:1" />
  <path
     d="M 29.747971,21.054573 C 29.747971,21.078803 30.536819,21.127333 30.536819,21.127333"
     id="path571"
     style="fill:none;fill-opacity:1;fill-rule:evenodd;stroke:#666666;stroke-width:0.07727143;stroke-linecap:butt;stroke-linejoin:miter;stroke-dasharray:none;stroke-opacity:1" />
  <path
     d="M 29.869318,20.787533 C 29.942138,20.787533 30.573229,20.787533 30.585408,20.787533 C 30.597524,20.787533 30.828102,20.678293 30.84028,20.702593 C 30.852396,20.726883 30.961627,20.823933 31.02227,20.848233 C 31.082974,20.872523 31.519898,20.848233 31.54413,20.848233 C 31.568424,20.848233 31.896117,20.872523 31.981054,20.860343 C 32.065991,20.848233 32.29663,20.787533 32.29663,20.787533"
     id="path572"
     style="fill:none;fill-opacity:1;fill-rule:evenodd;stroke:#666666;stroke-width:0.07727143;stroke-linecap:butt;stroke-linejoin:miter;stroke-dasharray:none;stroke-opacity:1" />
  <path
     d="M 30.415472,20.277853 C 30.439766,20.277853 30.973743,20.350663 31.05868,20.350663 C 31.143678,20.350663 31.653361,20.362783 31.701949,20.362783 C 31.750476,20.362783 32.284452,20.374903 32.284452,20.374903"
     id="path573"
     style="fill:none;fill-opacity:1;fill-rule:evenodd;stroke:#666666;stroke-width:0.07727143;stroke-linecap:butt;stroke-linejoin:miter;stroke-dasharray:none;stroke-opacity:1" />
  <path
     d="M 29.71156,20.059383 C 29.723739,20.071503 30.002843,20.083613 30.112074,20.083613 C 30.221304,20.083613 30.427589,19.974383 30.524703,19.986563 C 30.621818,19.998673 30.985859,19.962273 31.107268,19.974453 C 31.228615,19.986563 32.053875,20.022973 32.053875,20.035083"
     id="path574"
     style="fill:none;fill-opacity:1;fill-rule:evenodd;stroke:#666666;stroke-width:0.07727143;stroke-linecap:butt;stroke-linejoin:miter;stroke-dasharray:none;stroke-opacity:1" />
  <path
     d="M 28.230916,19.986563 C 28.279505,19.986563 28.655723,19.889443 28.70425,19.889443 C 28.752777,19.889443 29.335342,19.865223 29.420278,19.840923 C 29.505277,19.816623 29.820791,19.707393 29.820791,19.707393"
     id="path575"
     style="fill:none;fill-opacity:1;fill-rule:evenodd;stroke:#666666;stroke-width:0.07727143;stroke-linecap:butt;stroke-linejoin:miter;stroke-dasharray:none;stroke-opacity:1" />
  <path
     d="M 28.18239,19.683163 C 28.230916,19.646753 28.522199,19.513223 28.582903,19.501113 C 28.643546,19.488933 28.898417,19.428293 28.898417,19.440413"
     id="path576"
     style="fill:none;fill-opacity:1;fill-rule:evenodd;stroke:#666666;stroke-width:0.07727143;stroke-linecap:butt;stroke-linejoin:miter;stroke-dasharray:none;stroke-opacity:1" />
  <path
     d="M 29.832907,16.479123 C 29.772265,16.564113 29.408162,16.891803 29.383868,16.928223 C 29.359635,16.964633 28.971238,17.170913 28.947006,17.195203 C 28.922712,17.219443 28.813481,17.316563 28.813481,17.316563"
     id="path577"
     style="fill:none;fill-opacity:1;fill-rule:evenodd;stroke:#666666;stroke-width:0.07727143;stroke-linecap:butt;stroke-linejoin:miter;stroke-dasharray:none;stroke-opacity:1" />
  <path
     d="M 23.789045,25.945493 C 23.813339,25.933373 24.153147,25.654203 24.10456,25.727023 C 24.056033,25.799843 23.752635,26.297413 23.752635,26.297413"
     id="path578"
     style="fill:none;fill-opacity:1;fill-rule:evenodd;stroke:#666666;stroke-width:0.07727143;stroke-linecap:butt;stroke-linejoin:miter;stroke-dasharray:none;stroke-opacity:1" />
  <path
     d="M 23.740519,26.515873 C 23.76475,26.528053 23.983213,26.625103 23.983213,26.625103 L 23.667698,26.916383"
     id="path579"
     style="fill:none;fill-opacity:1;fill-rule:evenodd;stroke:#666666;stroke-width:0.07727143;stroke-linecap:butt;stroke-linejoin:miter;stroke-dasharray:none;stroke-opacity:1" />
  <path
     d="M 23.716224,27.365423 C 23.752635,27.365423 24.10456,27.292613 24.080327,27.341193 C 24.056033,27.389723 23.69193,27.778053 23.69193,27.778053"
     id="path580"
     style="fill:none;fill-opacity:1;fill-rule:evenodd;stroke:#666666;stroke-width:0.07727143;stroke-linecap:butt;stroke-linejoin:miter;stroke-dasharray:none;stroke-opacity:1" />
  <path
     d="M 23.667698,28.227103 C 23.679814,28.239283 24.043917,28.263503 24.007507,28.336333 C 23.971097,28.409143 23.655519,28.566973 23.655519,28.579083"
     id="path581"
     style="fill:none;fill-opacity:1;fill-rule:evenodd;stroke:#666666;stroke-width:0.07727143;stroke-linecap:butt;stroke-linejoin:miter;stroke-dasharray:none;stroke-opacity:1" />
  <path
     d="M 23.631287,28.761143 C 23.643403,28.833953 23.971097,29.088833 23.95898,29.088833"
     id="path582"
     style="fill:none;fill-opacity:1;fill-rule:evenodd;stroke:#666666;stroke-width:0.07727143;stroke-linecap:butt;stroke-linejoin:miter;stroke-dasharray:none;stroke-opacity:1" />
  <path
     d="M 23.643403,29.756333 C 23.655519,29.756333 24.056033,29.926203 24.056033,29.926203"
     id="path583"
     style="fill:none;fill-opacity:1;fill-rule:evenodd;stroke:#666666;stroke-width:0.07727143;stroke-linecap:butt;stroke-linejoin:miter;stroke-dasharray:none;stroke-opacity:1" />
  <path
     d="M 23.619109,30.484473 C 23.631287,30.545183 23.873982,30.666523 23.873982,30.666523"
     id="path584"
     style="fill:none;fill-opacity:1;fill-rule:evenodd;stroke:#666666;stroke-width:0.07727143;stroke-linecap:butt;stroke-linejoin:miter;stroke-dasharray:none;stroke-opacity:1" />
  <path
     d="M 23.570583,31.188383 L 23.95898,31.455373"
     id="path585"
     style="fill:none;fill-opacity:1;fill-rule:evenodd;stroke:#666666;stroke-width:0.07727143;stroke-linecap:butt;stroke-linejoin:miter;stroke-dasharray:none;stroke-opacity:1" />
  <path
     d="M 23.558467,31.904413 C 23.582699,31.953003 23.898276,32.268513 23.898276,32.268513"
     id="path586"
     style="fill:none;fill-opacity:1;fill-rule:evenodd;stroke:#666666;stroke-width:0.07727143;stroke-linecap:butt;stroke-linejoin:miter;stroke-dasharray:none;stroke-opacity:1" />
  <path
     d="M 23.485646,32.875313 C 23.497762,32.887493 23.934686,33.178783 23.934686,33.178783"
     id="path587"
     style="fill:none;fill-opacity:1;fill-rule:evenodd;stroke:#666666;stroke-width:0.07727143;stroke-linecap:butt;stroke-linejoin:miter;stroke-dasharray:none;stroke-opacity:1" />
  <path
     d="M 23.388532,33.749163 C 23.412825,33.773453 23.801161,33.955443 23.801161,33.955443"
     id="path588"
     style="fill:none;fill-opacity:1;fill-rule:evenodd;stroke:#666666;stroke-width:0.07727143;stroke-linecap:butt;stroke-linejoin:miter;stroke-dasharray:none;stroke-opacity:1" />
  <path
     d="M 23.145837,34.562303 C 23.145837,34.622953 23.255068,34.804993 23.255068,34.841413 C 23.255068,34.877813 23.376415,34.987043 23.412825,35.011343 C 23.449236,35.035573 23.704108,35.205513 23.752635,35.205513 C 23.801161,35.205513 24.068149,35.108393 24.128854,35.096283 C 24.189558,35.084163 24.590072,35.023453 24.650714,35.023453 C 24.711419,35.023453 25.233279,34.950643 25.269689,34.950643 C 25.306099,34.950643 25.500267,34.756473 25.500267,34.768583"
     id="path589"
     style="fill:none;fill-opacity:1;fill-rule:evenodd;stroke:#666666;stroke-width:0.07727143;stroke-linecap:butt;stroke-linejoin:miter;stroke-dasharray:none;stroke-opacity:1" />
  <path
     d="M 25.160458,33.652043 C 25.124048,33.676343 24.82065,33.821983 24.82065,33.834093 C 24.82065,33.846273 24.602188,33.955443 24.602188,33.955443"
     id="path590"
     style="fill:none;fill-opacity:1;fill-rule:evenodd;stroke:#666666;stroke-width:0.07727143;stroke-linecap:butt;stroke-linejoin:miter;stroke-dasharray:none;stroke-opacity:1" />
  <path
     d="M 25.063344,32.875313 C 25.051227,32.899603 24.89347,33.008833 24.85706,33.033133 C 24.82065,33.057363 24.553661,33.203003 24.553661,33.203003"
     id="path591"
     style="fill:none;fill-opacity:1;fill-rule:evenodd;stroke:#666666;stroke-width:0.07727143;stroke-linecap:butt;stroke-linejoin:miter;stroke-dasharray:none;stroke-opacity:1" />
  <path
     d="M 25.075521,32.001533 C 25.039111,32.025823 24.82065,32.232103 24.808471,32.244223 C 24.796355,32.256403 24.529367,32.329223 24.517251,32.341343"
     id="path592"
     style="fill:none;fill-opacity:1;fill-rule:evenodd;stroke:#666666;stroke-width:0.07727143;stroke-linecap:butt;stroke-linejoin:miter;stroke-dasharray:none;stroke-opacity:1" />
  <path
     d="M 25.063344,31.224793 C 25.051227,31.249083 24.869176,31.406853 24.85706,31.418963 C 24.844882,31.431143 24.602188,31.576723 24.602188,31.576723"
     id="path593"
     style="fill:none;fill-opacity:1;fill-rule:evenodd;stroke:#666666;stroke-width:0.07727143;stroke-linecap:butt;stroke-linejoin:miter;stroke-dasharray:none;stroke-opacity:1" />
  <path
     d="M 25.051227,30.387353 C 25.014817,30.448063 24.796355,30.666523 24.772061,30.678643 C 24.747829,30.690823 24.335199,30.848583 24.335199,30.848583"
     id="path594"
     style="fill:none;fill-opacity:1;fill-rule:evenodd;stroke:#666666;stroke-width:0.07727143;stroke-linecap:butt;stroke-linejoin:miter;stroke-dasharray:none;stroke-opacity:1" />
  <path
     d="M 25.039111,29.598513 C 25.014817,29.647103 24.735651,29.877673 24.711419,29.914093 C 24.687124,29.950503 24.298789,30.314593 24.298789,30.314593"
     id="path595"
     style="fill:none;fill-opacity:1;fill-rule:evenodd;stroke:#666666;stroke-width:0.07727143;stroke-linecap:butt;stroke-linejoin:miter;stroke-dasharray:none;stroke-opacity:1" />
  <path
     d="M 25.002701,28.979603 C 24.954113,29.040233 24.565777,29.343633 24.565777,29.343633 L 24.978407,29.149463"
     id="path596"
     style="fill:none;fill-opacity:1;fill-rule:evenodd;stroke:#666666;stroke-width:0.07727143;stroke-linecap:butt;stroke-linejoin:miter;stroke-dasharray:none;stroke-opacity:1" />
  <path
     d="M 24.978407,28.178573 L 24.456546,28.457743 C 24.456546,28.457743 24.869176,28.566973 24.869176,28.530553 C 24.869176,28.494143 25.026934,28.372733 25.026934,28.372733"
     id="path597"
     style="fill:none;fill-opacity:1;fill-rule:evenodd;stroke:#666666;stroke-width:0.07727143;stroke-linecap:butt;stroke-linejoin:miter;stroke-dasharray:none;stroke-opacity:1" />
  <path
     d="M 24.990523,27.353313 C 24.92988,27.389723 24.735651,27.644593 24.723535,27.644593 C 24.711419,27.644593 24.432252,27.814473 24.432252,27.814473 C 24.432252,27.814473 24.832766,27.790233 24.85706,27.790233"
     id="path598"
     style="fill:none;fill-opacity:1;fill-rule:evenodd;stroke:#666666;stroke-width:0.07727143;stroke-linecap:butt;stroke-linejoin:miter;stroke-dasharray:none;stroke-opacity:1" />
  <path
     d="M 24.954113,26.552283 C 24.905587,26.600873 24.626482,26.867863 24.626482,26.879983 C 24.626482,26.892093 24.420136,26.989213 24.456546,27.001323 C 24.492957,27.013503 24.954113,26.904273 24.954113,26.904273"
     id="path599"
     style="fill:none;fill-opacity:1;fill-rule:evenodd;stroke:#666666;stroke-width:0.07727143;stroke-linecap:butt;stroke-linejoin:miter;stroke-dasharray:none;stroke-opacity:1" />
  <path
     d="M 24.881292,25.909083 C 24.881292,25.921193 24.66283,26.139653 24.66283,26.139653 C 24.66283,26.139653 24.395842,26.321703 24.44443,26.321703 C 24.492957,26.321703 24.881292,26.151833 24.89347,26.151833"
     id="path600"
     style="fill:none;fill-opacity:1;fill-rule:evenodd;stroke:#666666;stroke-width:0.07727143;stroke-linecap:butt;stroke-linejoin:miter;stroke-dasharray:none;stroke-opacity:1" />
  <path
     d="M 24.85706,25.168753 C 24.844882,25.205163 24.650714,25.338693 24.638598,25.350803 C 24.626482,25.362923 24.44443,25.520743 24.44443,25.520743 L 24.796355,25.411513"
     id="path601"
     style="fill:none;fill-opacity:1;fill-rule:evenodd;stroke:#666666;stroke-width:0.07727143;stroke-linecap:butt;stroke-linejoin:miter;stroke-dasharray:none;stroke-opacity:1" />
  <path
     d="M 24.832766,24.440613 C 24.844882,24.477023 24.614304,24.731823 24.614304,24.731823 C 24.614304,24.731823 24.529367,24.877473 24.553661,24.865363 C 24.577893,24.853243 24.869176,24.634773 24.869176,24.634773"
     id="path602"
     style="fill:none;fill-opacity:1;fill-rule:evenodd;stroke:#666666;stroke-width:0.07727143;stroke-linecap:butt;stroke-linejoin:miter;stroke-dasharray:none;stroke-opacity:1" />
  <rect
     ry="0"
     rx="0"
     y="10.5"
     x="2.5"
     height="27"
     width="43.000004"
     id="rect5733"
     style="fill:url(#linearGradient2544);fill-opacity:1;stroke:url(#linearGradient2546);stroke-width:1;stroke-linecap:round;stroke-linejoin:miter;stroke-miterlimit:4;stroke-dasharray:none;stroke-dashoffset:0;stroke-opacity:1" />
</svg>
