<?xml version="1.0" encoding="UTF-8" standalone="no"?>
<svg
   xmlns:dc="http://purl.org/dc/elements/1.1/"
   xmlns:cc="http://creativecommons.org/ns#"
   xmlns:rdf="http://www.w3.org/1999/02/22-rdf-syntax-ns#"
   xmlns:svg="http://www.w3.org/2000/svg"
   xmlns="http://www.w3.org/2000/svg"
   xmlns:xlink="http://www.w3.org/1999/xlink"
   xmlns:sodipodi="http://sodipodi.sourceforge.net/DTD/sodipodi-0.dtd"
   xmlns:inkscape="http://www.inkscape.org/namespaces/inkscape"
   viewBox="0 0 360 240"
   width="48"
   height="48"
   version="1.0"
   id="svg2"
   sodipodi:version="0.32"
   inkscape:version="0.46"
   sodipodi:docname="Flag_of_Maryland.svg"
   inkscape:output_extension="org.inkscape.output.svg.inkscape"
   inkscape:export-filename="D:\Workspace\Java\AndNav2\res\drawable\flag_usa_state_of_maryland.png"
   inkscape:export-xdpi="90"
   inkscape:export-ydpi="90">
  <metadata
     id="metadata30">
    <rdf:RDF>
      <cc:Work
         rdf:about="">
        <dc:format>image/svg+xml</dc:format>
        <dc:type
           rdf:resource="http://purl.org/dc/dcmitype/StillImage" />
      </cc:Work>
    </rdf:RDF>
  </metadata>
  <sodipodi:namedview
     inkscape:window-height="750"
     inkscape:window-width="1280"
     inkscape:pageshadow="2"
     inkscape:pageopacity="0.0"
     guidetolerance="10.0"
     gridtolerance="10.0"
     objecttolerance="10.0"
     borderopacity="1.0"
     bordercolor="#666666"
     pagecolor="#ffffff"
     id="base"
     showgrid="false"
     inkscape:zoom="5.8026667"
     inkscape:cx="56.226214"
     inkscape:cy="39.530464"
     inkscape:window-x="1672"
     inkscape:window-y="424"
     inkscape:current-layer="svg2" />
  <defs
     id="defs4">
    <inkscape:perspective
       sodipodi:type="inkscape:persp3d"
       inkscape:vp_x="0 : 250 : 1"
       inkscape:vp_y="0 : 1000 : 0"
       inkscape:vp_z="750 : 250 : 1"
       inkscape:persp3d-origin="375 : 166.66667 : 1"
       id="perspective32" />
    <path
       id="cross"
       transform="scale(0.24,0.24)"
       d="M 0,215 C 17.673112,215 32,200.67311 32,183 L 32,167 L 63,167 C 80.673112,167 95,152.67311 95,135 C 95,117.32689 80.673112,103 63,103 L 32,103 L 32,32 L 231,32 L 231,63 C 231,80.673112 245.32689,95 263,95 C 280.67311,95 295,80.673112 295,63 L 295,32 L 323,32 C 340.67311,32 355,17.673112 355,0 L 0,0 L 0,215 z" />
    <linearGradient
       gradientUnits="userSpaceOnUse"
       y2="13.64602"
       x2="15.000001"
       y1="-4.3631072"
       x1="15.000001"
       id="linearGradient3351"
       xlink:href="#linearGradient3345"
       inkscape:collect="always" />
    <filter
       id="filter5781"
       inkscape:collect="always">
      <feGaussianBlur
         id="feGaussianBlur5783"
         stdDeviation="0.33222591"
         inkscape:collect="always" />
    </filter>
    <linearGradient
       gradientTransform="matrix(0.9555556,0,0,0.9310345,0.6666666,0.6896552)"
       gradientUnits="userSpaceOnUse"
       y2="13.738016"
       x2="15"
       y1="-13.883799"
       x1="15"
       id="linearGradient5741"
       xlink:href="#linearGradient5735"
       inkscape:collect="always" />
    <inkscape:perspective
       sodipodi:type="inkscape:persp3d"
       inkscape:vp_x="0 : 300 : 1"
       inkscape:vp_y="0 : 1000 : 0"
       inkscape:vp_z="900 : 300 : 1"
       inkscape:persp3d-origin="450 : 200 : 1"
       id="perspective4943" />
    <g
       id="smallcross">
      <clipPath
         id="vclip">
        <path
           d="M -109,104 C -51.562386,104 -5,57.437614 -5,0 C -5,-57.437614 -51.562386,-104 -109,-104 L 109,-104 C 51.562386,-104 5,-57.437614 5,-1.2735906e-14 C 5,57.437614 51.562386,104 109,104 L -109,104 z"
           id="path4921" />
      </clipPath>
      <path
         id="varm"
         d="M -55,74 C -55,43.624339 -30.375661,19 3.3691583e-15,19 C 30.375661,19 55,43.624339 55,74 L 55,-74 C 55,-43.624339 30.375661,-19 3.3661767e-15,-19 C -30.375661,-19 -55,-43.624339 -55,-74 L -55,74 z"
         clip-path="url(#vclip)" />
      <use
         height="20"
         width="30"
         y="0"
         x="0"
         xlink:href="#varm"
         transform="matrix(0,1,-1,0,0,0)"
         id="use4924" />
    </g>
    <inkscape:perspective
       sodipodi:type="inkscape:persp3d"
       inkscape:vp_x="0 : 300 : 1"
       inkscape:vp_y="0 : 1000 : 0"
       inkscape:vp_z="900 : 300 : 1"
       inkscape:persp3d-origin="450 : 200 : 1"
       id="perspective2710" />
    <inkscape:perspective
       id="perspective20"
       inkscape:persp3d-origin="372 : 165.33333 : 1"
       inkscape:vp_z="744 : 248 : 1"
       inkscape:vp_y="0 : 1000 : 0"
       inkscape:vp_x="0 : 248 : 1"
       sodipodi:type="inkscape:persp3d" />
    <linearGradient
       id="linearGradient5735"
       inkscape:collect="always">
      <stop
         id="stop5737"
         offset="0"
         style="stop-color:#ffffff;stop-opacity:1;" />
      <stop
         id="stop5739"
         offset="1"
         style="stop-color:#ffffff;stop-opacity:0;" />
    </linearGradient>
    <linearGradient
       id="linearGradient3345"
       inkscape:collect="always">
      <stop
         id="stop3347"
         offset="0"
         style="stop-color:#ffffff;stop-opacity:1;" />
      <stop
         id="stop3349"
         offset="1"
         style="stop-color:#ffffff;stop-opacity:0;" />
    </linearGradient>
    <linearGradient
       inkscape:collect="always"
       xlink:href="#linearGradient3345"
       id="linearGradient2535"
       gradientUnits="userSpaceOnUse"
       x1="15.000001"
       y1="-4.3631072"
       x2="15.000001"
       y2="13.64602"
       gradientTransform="scale(12,12)" />
    <linearGradient
       inkscape:collect="always"
       xlink:href="#linearGradient5735"
       id="linearGradient2537"
       gradientUnits="userSpaceOnUse"
       gradientTransform="matrix(11.466667,0,0,11.172414,7.9999992,8.2758624)"
       x1="15"
       y1="-13.883799"
       x2="15"
       y2="13.738016" />
  </defs>
  <rect
     ry="0"
     rx="0"
     y="0.625"
     x="0"
     height="20"
     width="30"
     id="rect5743"
     style="opacity:0.1245791;fill:#000000;fill-opacity:1;stroke:none;stroke-width:2;stroke-linecap:round;stroke-linejoin:miter;stroke-miterlimit:4;stroke-dasharray:none;stroke-dashoffset:0;stroke-opacity:1;filter:url(#filter5781)"
     transform="scale(12,12)" />
  <g
     id="g2405"
     transform="matrix(0.9583333,0,0,0.9583333,7.5,10)">
    <g
       id="q1">
      <rect
         style="fill:#000000"
         y="0"
         x="0"
         id="rect8"
         height="120"
         width="180" />
      <path
         style="fill:#ebab00"
         id="path10"
         d="M 0,120 L 0,20 L 30,40 L 30,120 L 60,120 L 60,0 L 90,0 L 90,120 L 120,120 L 120,0 L 150,0 L 150,120 L 180,120 L 180,100 L 30,0 L 30,40 L 150,120 L 0,120 z" />
    </g>
    <g
       id="q2">
      <rect
         style="fill:#ffffff"
         y="0"
         id="rect13"
         height="120"
         width="180"
         x="180" />
      <path
         style="fill:#9e1b34"
         id="path15"
         d="M 270,0 L 360,0 L 360,60 L 180,60 L 180,120 L 270,120 L 270,0 z" />
      <g
         id="g17"
         transform="translate(270,60)">
        <use
           height="240"
           width="360"
           y="0"
           x="0"
           style="fill:#9e1b34"
           id="use19"
           xlink:href="#cross" />
        <use
           height="240"
           width="360"
           y="0"
           x="0"
           style="fill:#ffffff"
           id="use21"
           xlink:href="#cross"
           transform="scale(-1,1)" />
        <use
           height="240"
           width="360"
           y="0"
           x="0"
           style="fill:#ffffff"
           id="use23"
           xlink:href="#cross"
           transform="scale(1,-1)" />
        <use
           height="240"
           width="360"
           y="0"
           x="0"
           style="fill:#9e1b34"
           id="use25"
           xlink:href="#cross"
           transform="scale(-1,-1)" />
      </g>
    </g>
    <use
       height="240"
       width="360"
       xlink:href="#q2"
       y="120"
       x="-180"
       id="q3" />
    <use
       height="240"
       width="360"
       xlink:href="#q1"
       y="120"
       x="180"
       id="q4" />
  </g>
  <rect
     ry="0"
     rx="0"
     y="18.75"
     x="18.75"
     height="202.5"
     width="322.50003"
     id="rect5733"
     style="fill:url(#linearGradient2535);fill-opacity:1;stroke:url(#linearGradient2537);stroke-width:7.5;stroke-linecap:round;stroke-linejoin:miter;stroke-miterlimit:4;stroke-dasharray:none;stroke-dashoffset:0;stroke-opacity:1" />
</svg>
