<?xml version="1.0" encoding="UTF-8" standalone="no"?>
<!-- Created with Inkscape (http://www.inkscape.org/) -->
<svg
   xmlns:dc="http://purl.org/dc/elements/1.1/"
   xmlns:cc="http://creativecommons.org/ns#"
   xmlns:rdf="http://www.w3.org/1999/02/22-rdf-syntax-ns#"
   xmlns:svg="http://www.w3.org/2000/svg"
   xmlns="http://www.w3.org/2000/svg"
   xmlns:xlink="http://www.w3.org/1999/xlink"
   xmlns:sodipodi="http://sodipodi.sourceforge.net/DTD/sodipodi-0.dtd"
   xmlns:inkscape="http://www.inkscape.org/namespaces/inkscape"
   height="48"
   id="svg1"
   version="1.0"
   width="48"
   x="0.0000000"
   y="0.0000000"
   sodipodi:version="0.32"
   inkscape:version="0.46"
   sodipodi:docname="Flag_of_Nevada.svg"
   inkscape:output_extension="org.inkscape.output.svg.inkscape"
   inkscape:export-filename="D:\Workspace\Java\AndNav2\res\drawable\flag_usa_state_of_nevada.png"
   inkscape:export-xdpi="90"
   inkscape:export-ydpi="90">
  <sodipodi:namedview
     inkscape:window-height="750"
     inkscape:window-width="1280"
     inkscape:pageshadow="2"
     inkscape:pageopacity="0.0"
     guidetolerance="10.0"
     gridtolerance="10.0"
     objecttolerance="10.0"
     borderopacity="1.0"
     bordercolor="#666666"
     pagecolor="#ffffff"
     id="base"
     showgrid="false"
     inkscape:zoom="5.8487196"
     inkscape:cx="11.015638"
     inkscape:cy="31.003178"
     inkscape:window-x="1672"
     inkscape:window-y="424"
     inkscape:current-layer="svg1" />
  <metadata
     id="metadata3">
    <rdf:RDF>
      <cc:Work
         rdf:about="">
        <dc:title>USA Nevada</dc:title>
        <dc:description />
        <dc:subject>
          <rdf:Bag>
            <rdf:li />
            <rdf:li>america</rdf:li>
            <rdf:li>flag</rdf:li>
            <rdf:li>unitedstates</rdf:li>
            <rdf:li>north_america</rdf:li>
            <rdf:li>sign</rdf:li>
          </rdf:Bag>
        </dc:subject>
        <dc:publisher>
          <cc:Agent
             rdf:about="http://www.openclipart.org">
            <dc:title>Caleb Moore</dc:title>
          </cc:Agent>
        </dc:publisher>
        <dc:creator>
          <cc:Agent>
            <dc:title>Caleb Moore</dc:title>
          </cc:Agent>
        </dc:creator>
        <dc:rights>
          <cc:Agent>
            <dc:title>Caleb Moore</dc:title>
          </cc:Agent>
        </dc:rights>
        <dc:date />
        <dc:format>image/svg+xml</dc:format>
        <dc:type
           rdf:resource="http://purl.org/dc/dcmitype/StillImage" />
        <cc:license
           rdf:resource="http://web.resource.org/cc/PublicDomain" />
        <dc:language>en</dc:language>
      </cc:Work>
      <cc:License
         rdf:about="http://web.resource.org/cc/PublicDomain">
        <cc:permits
           rdf:resource="http://web.resource.org/cc/Reproduction" />
        <cc:permits
           rdf:resource="http://web.resource.org/cc/Distribution" />
        <cc:permits
           rdf:resource="http://web.resource.org/cc/DerivativeWorks" />
      </cc:License>
    </rdf:RDF>
  </metadata>
  <defs
     id="defs3">
    <inkscape:perspective
       sodipodi:type="inkscape:persp3d"
       inkscape:vp_x="0 : 248.03149 : 1"
       inkscape:vp_y="0 : 1000 : 0"
       inkscape:vp_z="744.09448 : 248.03149 : 1"
       inkscape:persp3d-origin="372.04724 : 165.35433 : 1"
       id="perspective55" />
    <linearGradient
       gradientUnits="userSpaceOnUse"
       y2="13.64602"
       x2="15.000001"
       y1="-4.3631072"
       x1="15.000001"
       id="linearGradient3351"
       xlink:href="#linearGradient3345"
       inkscape:collect="always" />
    <filter
       id="filter5781"
       inkscape:collect="always">
      <feGaussianBlur
         id="feGaussianBlur5783"
         stdDeviation="0.33222591"
         inkscape:collect="always" />
    </filter>
    <linearGradient
       gradientTransform="matrix(0.9555556,0,0,0.9310345,0.6666666,0.6896552)"
       gradientUnits="userSpaceOnUse"
       y2="13.738016"
       x2="15"
       y1="-13.883799"
       x1="15"
       id="linearGradient5741"
       xlink:href="#linearGradient5735"
       inkscape:collect="always" />
    <inkscape:perspective
       sodipodi:type="inkscape:persp3d"
       inkscape:vp_x="0 : 300 : 1"
       inkscape:vp_y="0 : 1000 : 0"
       inkscape:vp_z="900 : 300 : 1"
       inkscape:persp3d-origin="450 : 200 : 1"
       id="perspective4943" />
    <g
       id="smallcross">
      <clipPath
         id="vclip">
        <path
           d="M -109,104 C -51.562386,104 -5,57.437614 -5,0 C -5,-57.437614 -51.562386,-104 -109,-104 L 109,-104 C 51.562386,-104 5,-57.437614 5,-1.2735906e-14 C 5,57.437614 51.562386,104 109,104 L -109,104 z"
           id="path4921" />
      </clipPath>
      <path
         id="varm"
         d="M -55,74 C -55,43.624339 -30.375661,19 3.3691583e-15,19 C 30.375661,19 55,43.624339 55,74 L 55,-74 C 55,-43.624339 30.375661,-19 3.3661767e-15,-19 C -30.375661,-19 -55,-43.624339 -55,-74 L -55,74 z"
         clip-path="url(#vclip)" />
      <use
         height="20"
         width="30"
         y="0"
         x="0"
         xlink:href="#varm"
         transform="matrix(0,1,-1,0,0,0)"
         id="use4924" />
    </g>
    <inkscape:perspective
       sodipodi:type="inkscape:persp3d"
       inkscape:vp_x="0 : 300 : 1"
       inkscape:vp_y="0 : 1000 : 0"
       inkscape:vp_z="900 : 300 : 1"
       inkscape:persp3d-origin="450 : 200 : 1"
       id="perspective2710" />
    <inkscape:perspective
       id="perspective20"
       inkscape:persp3d-origin="372 : 165.33333 : 1"
       inkscape:vp_z="744 : 248 : 1"
       inkscape:vp_y="0 : 1000 : 0"
       inkscape:vp_x="0 : 248 : 1"
       sodipodi:type="inkscape:persp3d" />
    <linearGradient
       id="linearGradient5735"
       inkscape:collect="always">
      <stop
         id="stop5737"
         offset="0"
         style="stop-color:#ffffff;stop-opacity:1;" />
      <stop
         id="stop5739"
         offset="1"
         style="stop-color:#ffffff;stop-opacity:0;" />
    </linearGradient>
    <linearGradient
       id="linearGradient3345"
       inkscape:collect="always">
      <stop
         id="stop3347"
         offset="0"
         style="stop-color:#ffffff;stop-opacity:1;" />
      <stop
         id="stop3349"
         offset="1"
         style="stop-color:#ffffff;stop-opacity:0;" />
    </linearGradient>
    <linearGradient
       inkscape:collect="always"
       xlink:href="#linearGradient3345"
       id="linearGradient2543"
       gradientUnits="userSpaceOnUse"
       x1="15.000001"
       y1="-4.3631072"
       x2="15.000001"
       y2="13.64602"
       gradientTransform="matrix(1.6,0,0,1.6,0,8)" />
    <linearGradient
       inkscape:collect="always"
       xlink:href="#linearGradient5735"
       id="linearGradient2545"
       gradientUnits="userSpaceOnUse"
       gradientTransform="matrix(1.528889,0,0,1.4896552,1.0666666,9.1034483)"
       x1="15"
       y1="-13.883799"
       x2="15"
       y2="13.738016" />
  </defs>
  <rect
     ry="0"
     rx="0"
     y="0.625"
     x="0"
     height="20"
     width="30"
     id="rect5743"
     style="opacity:0.1245791;fill:#000000;fill-opacity:1;stroke:none;stroke-width:2;stroke-linecap:round;stroke-linejoin:miter;stroke-miterlimit:4;stroke-dasharray:none;stroke-dashoffset:0;stroke-opacity:1;filter:url(#filter5781)"
     transform="matrix(1.6,0,0,1.6,0,8)" />
  <rect
     height="32"
     id="rect1707"
     style="fill:#013983;fill-opacity:1;fill-rule:evenodd;stroke:none;stroke-width:1pt;stroke-linecap:butt;stroke-linejoin:miter;stroke-opacity:1"
     width="46"
     x="1"
     y="9" />
  <g
     id="g1625"
     transform="matrix(6.1820106e-2,0,0,6.4507938e-2,1,9.0000117)">
    <g
       id="g1561"
       transform="matrix(-1,0,0,1,288.0376,0.538291)">
      <path
         d="M 61.460628,74.33315 C 54.46511,86.825148 34.977593,86.825148 33.978233,91.322267 C 32.978874,95.819386 36.976313,100.06667 36.976313,100.06667 C 36.976313,100.06667 65.707907,91.072427 71.704066,82.078189 C 77.700225,73.083951 61.460628,74.33315 61.460628,74.33315 z"
         id="path1562"
         style="font-size:12px;font-style:normal;font-variant:normal;font-weight:100;font-stretch:ultra-condensed;letter-spacing:0;writing-mode:lr-tb;text-anchor:start;fill:#ee8b31;fill-opacity:1;fill-rule:evenodd;stroke:#000000;stroke-width:1pt;stroke-linecap:butt;stroke-linejoin:miter;marker:none;marker-start:none;marker-mid:none;marker-end:none;stroke-miterlimit:4;stroke-dashoffset:0;stroke-opacity:1;font-family:Bitstream Vera Sans" />
      <path
         d="M 33.829431,92.950359 C 33.461558,96.181516 45.221031,92.071787 47.719431,92.321627 C 50.21783,92.571467 52.71623,95.569546 51.71687,97.318426 C 50.71751,99.067306 44.471511,101.81555 41.223592,102.06538 C 37.975673,102.31522 33.307247,96.610932 33.829431,92.950359 z"
         id="path1563"
         style="font-size:12px;font-style:normal;font-variant:normal;font-weight:100;font-stretch:ultra-condensed;letter-spacing:0;writing-mode:lr-tb;text-anchor:start;fill:#ee8b31;fill-opacity:1;fill-rule:evenodd;stroke:#000000;stroke-width:1pt;stroke-linecap:butt;stroke-linejoin:miter;marker:none;marker-start:none;marker-mid:none;marker-end:none;stroke-miterlimit:4;stroke-dashoffset:0;stroke-opacity:1;font-family:Bitstream Vera Sans" />
      <path
         d="M 39.974392,109.81042 C 36.976313,100.56635 54.093448,94.033308 47.573384,92.310858 C 51.082558,92.130218 56.339003,96.24881 53.71559,99.816825 C 52.768221,101.10531 40.723912,103.81426 39.974392,109.81042 z"
         id="path1564"
         style="font-size:12px;font-style:normal;font-variant:normal;font-weight:100;font-stretch:ultra-condensed;letter-spacing:0;writing-mode:lr-tb;text-anchor:start;fill:#ee8b31;fill-opacity:1;fill-rule:evenodd;stroke:#000000;stroke-width:1pt;stroke-linecap:butt;stroke-linejoin:miter;marker:none;marker-start:none;marker-mid:none;marker-end:none;stroke-miterlimit:4;stroke-dashoffset:0;stroke-opacity:1;font-family:Bitstream Vera Sans" />
    </g>
    <g
       id="g1557">
      <path
         d="M 61.460628,74.33315 C 54.46511,86.825148 34.977593,86.825148 33.978233,91.322267 C 32.978874,95.819386 36.976313,100.06667 36.976313,100.06667 C 36.976313,100.06667 65.707907,91.072427 71.704066,82.078189 C 77.700225,73.083951 61.460628,74.33315 61.460628,74.33315 z"
         id="path1554"
         style="font-size:12px;font-style:normal;font-variant:normal;font-weight:100;font-stretch:ultra-condensed;letter-spacing:0;writing-mode:lr-tb;text-anchor:start;fill:#ee8b31;fill-opacity:1;fill-rule:evenodd;stroke:#000000;stroke-width:1pt;stroke-linecap:butt;stroke-linejoin:miter;marker:none;marker-start:none;marker-mid:none;marker-end:none;stroke-miterlimit:4;stroke-dashoffset:0;stroke-opacity:1;font-family:Bitstream Vera Sans" />
      <path
         d="M 33.829431,92.950359 C 33.461558,96.181516 45.221031,92.071787 47.719431,92.321627 C 50.21783,92.571467 52.71623,95.569546 51.71687,97.318426 C 50.71751,99.067306 44.471511,101.81555 41.223592,102.06538 C 37.975673,102.31522 33.307247,96.610932 33.829431,92.950359 z"
         id="path1555"
         style="font-size:12px;font-style:normal;font-variant:normal;font-weight:100;font-stretch:ultra-condensed;letter-spacing:0;writing-mode:lr-tb;text-anchor:start;fill:#ee8b31;fill-opacity:1;fill-rule:evenodd;stroke:#000000;stroke-width:1pt;stroke-linecap:butt;stroke-linejoin:miter;marker:none;marker-start:none;marker-mid:none;marker-end:none;stroke-miterlimit:4;stroke-dashoffset:0;stroke-opacity:1;font-family:Bitstream Vera Sans" />
      <path
         d="M 39.974392,109.81042 C 36.976313,100.56635 54.093448,94.033308 47.573384,92.310858 C 51.082558,92.130218 56.339003,96.24881 53.71559,99.816825 C 52.768221,101.10531 40.723912,103.81426 39.974392,109.81042 z"
         id="path1556"
         style="font-size:12px;font-style:normal;font-variant:normal;font-weight:100;font-stretch:ultra-condensed;letter-spacing:0;writing-mode:lr-tb;text-anchor:start;fill:#ee8b31;fill-opacity:1;fill-rule:evenodd;stroke:#000000;stroke-width:1pt;stroke-linecap:butt;stroke-linejoin:miter;marker:none;marker-start:none;marker-mid:none;marker-end:none;stroke-miterlimit:4;stroke-dashoffset:0;stroke-opacity:1;font-family:Bitstream Vera Sans" />
    </g>
    <g
       id="g1550"
       transform="matrix(-1,0,0,1,287.2113,-0.296097)">
      <path
         d="M 37.162943,56.018114 C 32.332096,45.699486 49.766394,33.861028 33.249922,42.523775 C 34.816786,32.915292 46.63585,37.23423 46.63585,40.958621 C 46.63585,44.683012 41.696984,48.326438 41.777949,51.322143 C 41.858914,54.317849 46.797781,56.422939 46.797781,56.422939 L 37.162943,56.018114 z"
         id="path1551"
         style="fill:#ee8b31;fill-opacity:1;fill-rule:evenodd;stroke:#000000;stroke-width:1pt;stroke-linecap:butt;stroke-linejoin:miter;stroke-opacity:1" />
      <path
         d="M 63.019159,38.496743 C 53.30844,37.474562 48.142272,55.445235 37.181832,56.269631 C 36.880779,57.27781 39.737515,60.073972 45.231507,60.10281 C 53.409185,60.145735 69.76385,43.875687 69.76385,43.875687 L 63.019159,38.496743 z"
         id="path1552"
         style="fill:#ee8b31;fill-opacity:1;fill-rule:evenodd;stroke:#000000;stroke-width:1pt;stroke-linecap:butt;stroke-linejoin:miter;stroke-opacity:1" />
      <path
         d="M 51.554677,68.830184 C 51.836965,61.772965 65.43143,52.494097 66.620144,44.965569 C 67.46701,39.602082 62.385813,38.472927 62.385813,38.472927 C 62.385813,38.472927 68.878455,36.496906 82.992892,55.97483 C 97.107329,75.452753 51.735022,68.855948 51.554677,68.830184 z"
         id="path1553"
         style="fill:#ee8b31;fill-opacity:1;fill-rule:evenodd;stroke:#000000;stroke-width:1pt;stroke-linecap:butt;stroke-linejoin:miter;stroke-opacity:1" />
    </g>
    <g
       id="g1546">
      <path
         d="M 37.162943,56.018114 C 32.332096,45.699486 49.766394,33.861028 33.249922,42.523775 C 34.816786,32.915292 46.63585,37.23423 46.63585,40.958621 C 46.63585,44.683012 41.696984,48.326438 41.777949,51.322143 C 41.858914,54.317849 46.797781,56.422939 46.797781,56.422939 L 37.162943,56.018114 z"
         id="path923"
         style="fill:#ee8b31;fill-opacity:1;fill-rule:evenodd;stroke:#000000;stroke-width:1pt;stroke-linecap:butt;stroke-linejoin:miter;stroke-opacity:1" />
      <path
         d="M 63.019159,38.496743 C 53.30844,37.474562 48.142272,55.445235 37.181832,56.269631 C 36.880779,57.27781 39.737515,60.073972 45.231507,60.10281 C 53.409185,60.145735 69.76385,43.875687 69.76385,43.875687 L 63.019159,38.496743 z"
         id="path922"
         style="fill:#ee8b31;fill-opacity:1;fill-rule:evenodd;stroke:#000000;stroke-width:1pt;stroke-linecap:butt;stroke-linejoin:miter;stroke-opacity:1" />
      <path
         d="M 51.554677,68.830184 C 51.836965,61.772965 65.43143,52.494097 66.620144,44.965569 C 67.46701,39.602082 62.385813,38.472927 62.385813,38.472927 C 62.385813,38.472927 68.878455,36.496906 82.992892,55.97483 C 97.107329,75.452753 51.735022,68.855948 51.554677,68.830184 z"
         id="path921"
         style="fill:#ee8b31;fill-opacity:1;fill-rule:evenodd;stroke:#000000;stroke-width:1pt;stroke-linecap:butt;stroke-linejoin:miter;stroke-opacity:1" />
    </g>
    <path
       d="M 52.187803,68.689426 C 71.645607,68.933897 93.199122,30.067411 141.74033,29.581999 C 189.79612,29.096587 220.41854,67.304107 234.45402,67.929552 C 241.26872,68.233226 216.34523,91.985638 212.61048,92.200155 C 204.35784,92.674173 173.4389,63.817102 143.19656,62.104607 C 119.97229,60.789515 91.179246,90.959185 75.159703,90.585588 C 72.114065,90.51456 47.170322,68.627287 52.187803,68.689426 z"
       id="path919"
       style="fill:#ee8b31;fill-opacity:1;fill-rule:evenodd;stroke:#000000;stroke-width:1pt;stroke-linecap:butt;stroke-linejoin:miter;stroke-opacity:1" />
    <g
       id="g1614">
      <path
         d="M 210.69413,65.600726 L 199.56369,78.783124 L 196.9966,76.61562 L 200.53295,69.336476 L 195.47304,75.329215 L 193.0242,73.261566 L 204.15464,60.079168 L 206.60347,62.146818 L 203.23351,69.468819 L 208.24529,63.533076 L 210.69413,65.600726"
         id="text1574"
         style="font-size:12px;font-style:normal;font-variant:normal;font-weight:normal;font-stretch:condensed;writing-mode:lr-tb;text-anchor:start;fill:#000000;fill-opacity:1;stroke:none;stroke-width:1pt;stroke-linecap:butt;stroke-linejoin:miter;stroke-opacity:1;font-family:Impact" />
      <path
         d="M 192.22203,51.792486 L 194.47296,53.307554 C 195.97355,54.317603 196.94262,55.068348 197.38013,55.559777 C 197.82265,56.054619 198.02166,56.693831 197.97717,57.477418 C 197.94165,58.258521 197.51332,59.259055 196.69218,60.479034 C 195.94241,61.592938 195.32028,62.261783 194.82576,62.485561 C 194.33123,62.709349 193.71072,62.625682 192.96426,62.234562 C 193.47072,62.840939 193.72908,63.370239 193.73935,63.822451 C 193.74958,64.274664 193.69262,64.64738 193.56844,64.940594 C 193.45324,65.231305 193.00688,65.954233 192.22938,67.109389 L 189.68856,70.88427 L 186.73517,68.896386 L 189.93649,64.140213 C 190.45218,63.374038 190.71864,62.864014 190.73588,62.610129 C 190.75813,62.359644 190.55022,62.086958 190.11212,61.792076 L 185.76833,68.24562 L 182.58834,66.105209 L 192.22203,51.792486 M 193.75377,56.381708 L 191.61162,59.564278 C 191.96915,59.804931 192.2561,59.916719 192.47247,59.899633 C 192.69783,59.880061 193.02275,59.554959 193.44722,58.924334 L 193.97681,58.137532 C 194.28225,57.683728 194.41208,57.338647 194.3663,57.102292 C 194.32553,56.869336 194.12136,56.629144 193.75377,56.381708"
         id="path1593"
         style="font-size:12px;font-style:normal;font-variant:normal;font-weight:normal;font-stretch:condensed;writing-mode:lr-tb;text-anchor:start;fill:#000000;fill-opacity:1;stroke:none;stroke-width:1pt;stroke-linecap:butt;stroke-linejoin:miter;stroke-opacity:1;font-family:Impact" />
      <path
         d="M 182.54443,57.255327 C 181.83662,58.837696 181.30152,59.94475 180.93915,60.576491 C 180.58521,61.204222 180.11741,61.714867 179.53575,62.10843 C 178.95961,62.504468 178.32092,62.720757 177.61967,62.757301 C 176.91841,62.793841 176.18822,62.642334 175.4291,62.302777 C 174.70877,61.980566 174.12141,61.554394 173.66698,61.024255 C 173.22099,60.490105 172.94675,59.869343 172.84424,59.161961 C 172.74173,58.454579 172.80227,57.761764 173.02587,57.083507 C 173.24946,56.405258 173.72385,55.255488 174.44908,53.634208 L 175.65438,50.939642 C 176.36217,49.357281 176.89305,48.252232 177.24698,47.624487 C 177.60936,46.99276 178.07861,46.478873 178.65475,46.082822 C 179.23642,45.689276 179.87787,45.474224 180.57914,45.437669 C 181.28039,45.40114 182.01058,45.552646 182.7697,45.892189 C 183.49001,46.214411 184.07317,46.642592 184.51917,47.176726 C 184.97358,47.706877 185.25205,48.325638 185.35457,49.033009 C 185.45707,49.740402 185.39652,50.433217 185.17294,51.111461 C 184.94934,51.789723 184.47493,52.939489 183.74973,54.56076 L 182.54443,57.255327 M 181.36018,50.515019 C 181.68796,49.782209 181.86081,49.299173 181.87871,49.065901 C 181.90505,48.828649 181.81017,48.661682 181.59407,48.565008 C 181.41121,48.48323 181.23221,48.504332 181.05706,48.628323 C 180.89033,48.748324 180.62567,49.213644 180.26307,50.02427 L 176.97351,57.378392 C 176.56449,58.292797 176.34259,58.870632 176.30782,59.111905 C 176.27857,59.355655 176.38031,59.529579 176.61305,59.633678 C 176.8513,59.740256 177.05879,59.685196 177.23552,59.468505 C 177.41224,59.251812 177.70801,58.67978 178.12284,57.752409 L 181.36018,50.515019"
         id="path1591"
         style="font-size:12px;font-style:normal;font-variant:normal;font-weight:normal;font-stretch:condensed;writing-mode:lr-tb;text-anchor:start;fill:#000000;fill-opacity:1;stroke:none;stroke-width:1pt;stroke-linecap:butt;stroke-linejoin:miter;stroke-opacity:1;font-family:Impact" />
      <path
         d="M 164.03299,40.316842 L 167.70938,41.369512 C 168.87064,41.702036 169.71857,42.05937 170.25318,42.441513 C 170.79361,42.825357 171.15475,43.394324 171.33662,44.148416 C 171.52043,44.895703 171.40699,45.986477 170.99632,47.420741 C 170.71861,48.39059 170.39371,49.029154 170.02161,49.336429 C 169.65531,49.645386 169.06062,49.792869 168.2375,49.778869 C 169.02495,50.248214 169.4951,50.789275 169.64798,51.402056 C 169.80279,52.008017 169.72571,52.850559 169.41674,53.929676 L 168.97672,55.466398 C 168.65599,56.586498 168.3075,57.384578 167.93127,57.860644 C 167.56085,58.338381 167.10803,58.607773 166.57282,58.668828 C 166.03758,58.729879 165.02885,58.5482 163.54664,58.123793 L 159.28377,56.903196 L 164.03299,40.316842 M 166.90557,44.209832 L 165.84954,47.897964 C 166.00905,47.936259 166.13257,47.967932 166.22011,47.992985 C 166.5819,48.096591 166.84175,48.060144 166.99962,47.883643 C 167.15944,47.700332 167.38016,47.116921 167.66178,46.133409 C 167.81039,45.61435 167.8732,45.240673 167.85018,45.012371 C 167.82909,44.777262 167.75927,44.61317 167.64071,44.520087 C 167.52797,44.428703 167.28292,44.325283 166.90557,44.209832 M 165.11031,50.479657 L 163.78147,55.120558 C 164.3067,55.248781 164.66379,55.247569 164.85273,55.11692 C 165.04751,54.987949 165.24072,54.588797 165.43238,53.919468 L 165.87532,52.372503 C 166.0787,51.662198 166.13771,51.213537 166.05236,51.026515 C 165.967,50.839503 165.65298,50.657218 165.11031,50.479657"
         id="path1589"
         style="font-size:12px;font-style:normal;font-variant:normal;font-weight:normal;font-stretch:condensed;writing-mode:lr-tb;text-anchor:start;fill:#000000;fill-opacity:1;stroke:none;stroke-width:1pt;stroke-linecap:butt;stroke-linejoin:miter;stroke-opacity:1;font-family:Impact" />
      <path
         d="M 140.22822,37.804208 L 146.61998,37.804208 L 146.61998,41.256917 L 144.06146,41.256917 L 144.06146,44.528465 L 146.45609,44.528465 L 146.45609,47.810671 L 144.06146,47.810671 L 144.06146,51.604387 L 146.87493,51.604387 L 146.87493,55.057097 L 140.22822,55.057097 L 140.22822,37.804208"
         id="path1586"
         style="font-size:12px;font-style:normal;font-variant:normal;font-weight:normal;font-stretch:condensed;writing-mode:lr-tb;text-anchor:start;fill:#000000;fill-opacity:1;stroke:none;stroke-width:1pt;stroke-linecap:butt;stroke-linejoin:miter;stroke-opacity:1;font-family:Impact" />
      <path
         d="M 131.69554,39.477025 L 132.6186,53.246297 L 134.94428,53.09039 L 135.17522,56.535367 L 129.0249,56.947673 L 127.87089,39.73342 L 131.69554,39.477025"
         id="path1585"
         style="font-size:12px;font-style:normal;font-variant:normal;font-weight:normal;font-stretch:condensed;writing-mode:lr-tb;text-anchor:start;fill:#000000;fill-opacity:1;stroke:none;stroke-width:1pt;stroke-linecap:butt;stroke-linejoin:miter;stroke-opacity:1;font-family:Impact" />
      <path
         d="M 120.51262,40.723542 L 121.69959,43.965812 L 119.56206,44.748343 L 124.30625,57.707416 L 120.70665,59.025195 L 115.96246,46.066123 L 113.83348,46.845522 L 112.64651,43.603253 L 120.51262,40.723542"
         id="path1584"
         style="font-size:12px;font-style:normal;font-variant:normal;font-weight:normal;font-stretch:condensed;writing-mode:lr-tb;text-anchor:start;fill:#000000;fill-opacity:1;stroke:none;stroke-width:1pt;stroke-linecap:butt;stroke-linejoin:miter;stroke-opacity:1;font-family:Impact" />
      <path
         d="M 107.84889,45.786576 L 109.39552,48.873512 L 107.36039,49.893152 L 113.54208,62.231368 L 110.11494,63.948437 L 103.93325,51.610221 L 101.90627,52.62578 L 100.35964,49.538845 L 107.84889,45.786576"
         id="path1583"
         style="font-size:12px;font-style:normal;font-variant:normal;font-weight:normal;font-stretch:condensed;writing-mode:lr-tb;text-anchor:start;fill:#000000;fill-opacity:1;stroke:none;stroke-width:1pt;stroke-linecap:butt;stroke-linejoin:miter;stroke-opacity:1;font-family:Impact" />
      <path
         d="M 94.510747,53.508883 L 105.72851,66.799445 L 102.43425,68.932017 L 100.58854,66.432738 L 99.434401,67.179881 L 100.92852,69.906766 L 97.596041,72.064077 L 89.855979,56.522192 L 94.510747,53.508883 M 98.834786,63.924709 C 97.610034,62.390239 96.136268,60.471096 94.413484,58.167276 C 95.878741,61.14559 96.985629,63.302236 97.734151,64.637215 L 98.834786,63.924709"
         id="path1582"
         style="font-size:12px;font-style:normal;font-variant:normal;font-weight:normal;font-stretch:condensed;writing-mode:lr-tb;text-anchor:start;fill:#000000;fill-opacity:1;stroke:none;stroke-width:1pt;stroke-linecap:butt;stroke-linejoin:miter;stroke-opacity:1;font-family:Impact" />
      <path
         d="M 76.861774,64.480843 L 79.998649,62.293611 C 80.989508,61.60274 81.801854,61.170562 82.435688,60.997077 C 83.07451,60.820154 83.743773,60.899133 84.443478,61.234013 C 85.139122,61.563098 85.913597,62.33953 86.766904,63.563305 C 87.3439,64.390835 87.634143,65.045881 87.637629,65.528443 C 87.646093,66.007558 87.385141,66.561927 86.854773,67.191546 C 87.71582,66.876986 88.432242,66.853796 89.00404,67.121973 C 89.57177,67.384347 90.176641,67.975908 90.818658,68.896654 L 91.732915,70.207859 C 92.3993,71.163591 92.798396,71.937606 92.930199,72.529906 C 93.066969,73.118748 92.990131,73.640007 92.699684,74.093689 C 92.409223,74.547381 91.631643,75.215142 90.366941,76.096974 L 86.729659,78.633122 L 76.861774,64.480843 M 81.694447,64.709763 L 83.888665,67.856657 C 84.019041,67.757101 84.121572,67.68128 84.196257,67.629192 C 84.504967,67.413952 84.640692,67.189403 84.603436,66.955543 C 84.56212,66.715879 84.248899,66.176457 83.663771,65.337271 C 83.354959,64.894391 83.104746,64.609832 82.913133,64.483595 C 82.717464,64.351558 82.546115,64.30215 82.399084,64.335365 C 82.257039,64.36514 82.02216,64.489938 81.694447,64.709763 M 85.424617,70.059482 L 88.185674,74.019323 C 88.616628,73.692856 88.841063,73.415113 88.85898,73.186095 C 88.881873,72.953616 88.694217,72.551823 88.296009,71.980713 L 87.375658,70.660767 C 86.953066,70.054707 86.642303,69.72576 86.443367,69.673923 C 86.244432,69.622106 85.904849,69.750625 85.424617,70.059482"
         id="path1580"
         style="font-size:12px;font-style:normal;font-variant:normal;font-weight:normal;font-stretch:condensed;writing-mode:lr-tb;text-anchor:start;fill:#000000;fill-opacity:1;stroke:none;stroke-width:1pt;stroke-linecap:butt;stroke-linejoin:miter;stroke-opacity:1;font-family:Impact" />
    </g>
  </g>
  <path
     d="M 9.9873273,13.430282 L 10.510861,14.941702 L 12.011657,14.941702 L 10.755176,15.906822 L 11.261258,17.418242 L 10.057132,16.453132 L 8.7657484,17.400032 L 9.2369289,15.906822 L 7.9804483,14.941702 L 9.5510493,14.905282 L 9.9873273,13.430282 z"
     id="path920"
     style="fill:#ffffff;fill-opacity:1;fill-rule:evenodd;stroke:none;stroke-width:1pt;stroke-linecap:butt;stroke-linejoin:miter;stroke-opacity:1" />
  <g
     id="g1695"
     transform="matrix(6.1820106e-2,0,0,6.4507938e-2,0.7630178,8.9450617)">
    <path
       d="M 178.46679,223.03861 C 173.78151,226.44609 165.2628,209.83463 142.68825,206.42715 C 120.11369,203.01967 122.24336,224.31642 111.16905,217.50146 C 100.09474,210.6865 126.50271,206.85308 126.50271,206.85308 C 126.50271,206.85308 119.68775,207.27902 115.4284,206.85308 C 111.16905,206.42715 103.92816,211.11243 98.816935,211.53837 C 93.705714,211.9643 91.150103,208.55682 90.298233,205.14934 C 89.446363,201.74186 89.020428,198.76031 89.020428,198.76031 C 89.020428,198.76031 95.409454,204.29747 98.816935,204.72341 C 102.22442,205.14934 109.03938,204.72341 109.03938,204.72341 C 109.03938,204.72341 103.50222,202.1678 99.24287,199.61218 C 94.983519,197.05657 90.298233,193.22316 90.298233,193.22316 C 90.298233,193.22316 82.205467,197.48251 74.538636,196.2047 C 66.871805,194.9269 61.760584,182.57478 61.760584,182.57478 C 61.760584,182.57478 69.427415,191.51942 74.964571,192.37129 C 80.501727,193.22316 83.909207,190.66755 83.909207,190.66755 C 83.909207,190.66755 78.372052,184.27852 75.390506,180.01917 C 72.408961,175.75982 71.983026,177.46356 72.408961,175.75982 C 72.834896,174.05608 72.834896,172.35234 72.834896,172.35234 L 66.871805,170.22267 L 63.038389,165.96331 C 63.038389,165.96331 57.927169,160.42616 57.501233,157.87055 C 57.075298,155.31494 62.612454,150.62965 64.74213,151.48152 C 66.871805,152.33339 63.464324,155.74087 63.890259,158.72242 C 64.316194,161.70396 71.131155,165.53738 71.131155,165.53738 C 71.131155,165.53738 67.723675,159.57429 67.723675,157.01868 C 67.723675,154.46307 67.29774,153.18526 67.29774,153.18526 C 67.29774,153.18526 68.14961,154.46307 65.168065,151.48152 C 62.186519,148.49998 56.649363,148.92591 56.649363,145.51843 C 56.649363,142.11095 56.223428,140.40721 56.223428,140.40721 C 56.223428,140.40721 58.353104,143.38876 60.908714,145.0925 C 63.464324,146.79624 65.594,146.79624 65.594,146.79624 C 65.594,146.79624 63.038389,143.81469 60.056844,139.55534 C 57.075298,135.29599 46.426922,130.18477 46.852857,128.05509 C 47.278792,125.92542 48.556597,123.79574 48.556597,123.79574 C 48.556597,123.79574 49.834402,128.05509 54.093753,128.05509 C 58.353104,128.05509 58.353104,119.53639 58.353104,119.53639 C 58.353104,119.53639 60.908714,126.77729 63.464324,126.77729 C 66.019935,126.77729 69.00148,122.94387 69.00148,122.94387 C 69.00148,122.94387 68.14961,131.03664 66.44587,133.16631 C 64.74213,135.29599 62.186519,137.42567 63.890259,139.98128 C 65.594,142.53689 69.00148,148.92591 69.00148,148.92591 C 69.00148,148.92591 70.279285,149.77778 71.983026,146.3703 C 73.686766,142.96282 76.242376,137.42567 73.686766,134.01819 C 71.131155,130.6107 68.14961,128.05509 68.14961,128.05509 C 68.14961,128.05509 71.983026,130.18477 72.834896,129.3329 C 73.686766,128.48103 71.983026,122.092 70.279285,115.70298 C 68.575545,109.31395 64.74213,103.7768 64.74213,103.7768 C 64.74213,103.7768 68.575545,107.18428 74.964571,107.61021 C 81.353597,108.03615 88.594493,106.75834 88.594493,106.75834 C 88.594493,106.75834 83.909207,108.88802 81.353597,109.73989 C 78.797987,110.59176 76.668311,111.86956 76.668311,111.86956 C 76.668311,111.86956 81.779532,111.01769 81.353597,112.72143 C 80.927662,114.42517 74.538636,116.12891 74.964571,119.11046 C 75.390506,122.092 81.779532,116.55485 86.038883,114.42517 C 90.298233,112.2955 95.835389,112.2955 95.835389,112.2955 C 95.835389,112.2955 90.298233,119.53639 87.742623,120.8142 C 85.187013,122.092 78.372052,125.49948 78.372052,125.49948 C 78.372052,125.49948 80.501727,127.20322 83.057337,125.92542 C 85.612948,124.64761 87.742623,122.51794 87.742623,122.51794 C 87.742623,122.51794 86.038883,129.3329 83.057337,131.88851 C 80.075792,134.44412 77.094246,133.59225 77.094246,133.59225 C 77.094246,133.59225 76.668311,134.87006 76.668311,138.27754 C 76.668311,141.68502 75.816441,144.24063 75.816441,144.24063 C 75.816441,144.24063 81.779532,138.70347 83.057337,136.14786 C 84.335142,133.59225 89.872298,131.88851 89.872298,131.88851 L 88.594493,136.99973 L 95.409454,130.18477 L 97.113194,135.29599 C 97.113194,135.29599 97.539129,136.99973 100.09474,136.99973 C 102.65035,136.99973 103.92816,137.42567 103.92816,137.42567 C 103.92816,137.42567 97.965064,139.12941 92.427909,139.55534 C 86.890753,139.98128 83.909207,138.27754 83.057337,140.40721 C 82.205467,142.53689 83.057337,143.81469 80.501727,146.79624 C 77.946116,149.77778 75.390506,157.87055 75.390506,161.27803 C 75.390506,164.68551 76.668311,165.53738 76.668311,165.53738 C 76.668311,165.53738 76.668311,165.96331 78.797987,161.70396 C 80.927662,157.44461 85.612948,152.75933 85.612948,152.75933 C 85.612948,152.75933 82.205467,162.1299 80.927662,164.68551 C 79.649857,167.24112 77.520181,170.22267 79.223922,173.63015 C 80.927662,177.03763 89.872298,186.83413 94.131649,190.66755 C 98.390999,194.50096 102.65035,197.90844 102.65035,197.90844 C 102.65035,197.90844 100.09474,193.64909 101.79848,191.09348 C 103.50222,188.53787 108.61344,193.64909 110.31718,196.63064 C 112.02092,199.61218 113.72466,203.01967 115.85434,203.87154 C 117.98401,204.72341 117.55808,204.29747 117.55808,204.29747 L 117.13214,198.33438 C 117.13214,198.33438 119.68775,201.74186 122.6693,202.59373 C 125.65084,203.4456 129.48426,203.87154 129.48426,203.87154 C 129.48426,203.87154 124.37304,200.03812 120.96556,196.2047 C 117.55808,192.37129 114.57653,189.81568 113.29873,190.66755 C 112.02092,191.51942 110.74312,194.07503 108.61344,191.09348 C 106.48377,188.11194 104.78003,184.70446 101.79848,184.27852 C 98.816935,183.85259 96.687259,188.53787 96.687259,188.53787 C 96.687259,188.53787 95.835389,183.85259 95.835389,180.87104 C 95.835389,177.8895 100.09474,177.8895 99.24287,175.75982 C 98.390999,173.63015 96.261324,174.05608 94.557584,168.94486 C 92.853844,163.83364 88.594493,159.57429 88.594493,159.57429 C 88.594493,159.57429 95.835389,166.38925 97.965064,165.96331 C 100.09474,165.53738 104.35409,159.14835 104.35409,159.14835 C 104.35409,159.14835 103.50222,164.25957 103.50222,169.79673 C 103.50222,175.33389 103.50222,180.87104 106.05783,181.29698 C 108.61344,181.72291 107.76157,177.03763 110.74312,179.59324 C 113.72466,182.14885 116.28027,189.81568 118.83588,191.09348 C 121.39149,192.37129 122.6693,189.81568 121.39149,186.4082 C 120.11369,183.00072 116.70621,183.42665 116.28027,179.59324 C 115.85434,175.75982 116.70621,174.48202 116.70621,174.48202 C 116.70621,174.48202 118.40995,180.87104 120.11369,180.87104 C 121.81743,180.87104 123.52117,168.94486 123.52117,168.94486 C 123.52117,168.94486 129.48426,177.46356 129.05832,181.72291 C 128.63239,185.98226 124.79897,185.55633 124.79897,188.96381 C 124.79897,192.37129 124.37304,197.90844 126.50271,197.48251 C 128.63239,197.05657 131.61393,189.81568 131.61393,189.81568 C 131.61393,189.81568 132.4658,194.07503 134.16954,197.05657 C 135.87328,200.03812 137.57703,203.01967 137.57703,203.01967 C 137.57703,203.01967 138.85483,201.74186 137.57703,196.2047 C 136.29922,190.66755 134.59548,187.686 134.16954,184.70446 C 133.74361,181.72291 135.87328,178.31543 138.00296,179.1673 C 140.13264,180.01917 140.13264,183.42665 139.7067,189.38974 C 139.28077,195.35283 138.85483,202.1678 140.55857,202.1678 C 142.26231,202.1678 154.18849,204.72341 162.70719,209.83463 C 171.2259,214.94585 180.17053,219.2052 178.46679,223.03861 z"
       id="path1676"
       style="fill:#017b21;fill-opacity:1;fill-rule:evenodd;stroke:#014004;stroke-width:1.25;stroke-linecap:butt;stroke-linejoin:miter;stroke-miterlimit:4;stroke-opacity:1" />
    <path
       d="M 74.112701,180.87104 C 71.131155,178.31543 67.29774,179.1673 69.85335,175.33389 C 72.408961,171.50047 75.816441,171.92641 78.372052,173.63015 C 80.927662,175.33389 76.668311,170.22267 80.501727,170.6486 C 84.335142,171.07454 90.298233,177.03763 88.168558,179.1673 C 86.038883,181.29698 91.150103,181.29698 92.001974,184.27852 C 92.853844,187.26007 90.724168,193.64909 86.464818,192.37129 C 82.205467,191.09348 77.094246,191.94535 76.668311,188.96381 C 76.242376,185.98226 74.538636,177.03763 74.112701,180.87104 z"
       id="path1677"
       style="fill:#ee8b31;fill-opacity:1;fill-rule:evenodd;stroke:#c65a1a;stroke-width:1;stroke-linecap:butt;stroke-linejoin:miter;stroke-miterlimit:4;stroke-opacity:1" />
    <path
       d="M 79.649857,159.14835 C 83.057337,168.09299 86.464818,169.3708 91.150103,168.94486 C 95.835389,168.51893 103.07629,157.87055 99.668805,153.6112 C 96.261324,149.35185 90.724168,157.44461 90.724168,157.44461 C 90.724168,157.44461 90.724168,155.31494 89.872298,153.18526 C 89.020428,151.05559 86.890753,151.05559 86.890753,151.05559 C 86.890753,151.05559 89.446363,152.75933 92.853844,151.05559 C 96.261324,149.35185 96.687259,147.22217 94.557584,145.51843 C 92.427909,143.81469 84.761077,143.81469 80.501727,145.94437 C 76.242376,148.07404 76.242376,153.6112 76.242376,156.16681 C 76.242376,158.72242 76.242376,157.87055 79.649857,159.14835 z"
       id="path1678"
       style="fill:#ee8b31;fill-opacity:1;fill-rule:evenodd;stroke:#c65a1a;stroke-width:1;stroke-linecap:butt;stroke-linejoin:miter;stroke-miterlimit:4;stroke-opacity:1" />
    <path
       d="M 60.908714,171.07454 C 55.371558,173.20421 56.223428,163.83364 58.779039,160.85209 C 61.334649,157.87055 62.186519,155.31494 64.316194,157.01868 C 66.44587,158.72242 63.038389,161.27803 65.594,160.42616 C 68.14961,159.57429 66.44587,155.74087 68.575545,156.59274 C 70.70522,157.44461 69.427415,161.70396 68.575545,165.11144 C 67.723675,168.51893 66.871805,172.77828 64.74213,173.63015 C 62.612454,174.48202 60.056844,175.33389 60.908714,171.07454 z"
       id="path1679"
       style="fill:#ee8b31;fill-opacity:1;fill-rule:evenodd;stroke:#c65a1a;stroke-width:1;stroke-linecap:butt;stroke-linejoin:miter;stroke-miterlimit:4;stroke-opacity:1" />
    <path
       d="M 63.038389,147.22217 C 56.223428,147.22217 57.075298,146.79624 56.649363,144.66656 C 56.223428,142.53689 59.630909,143.38876 57.075298,140.83315 C 54.519688,138.27754 54.093753,141.68502 53.667818,138.70347 C 53.241883,135.72193 57.927169,135.29599 61.334649,134.87006 C 64.74213,134.44412 62.612454,137.42567 65.594,137.42567 C 68.575545,137.42567 70.279285,136.5738 70.279285,136.5738 L 69.00148,140.40721 C 69.00148,140.40721 72.834896,139.12941 71.983026,142.11095 C 71.131155,145.0925 70.279285,149.77778 63.038389,147.22217 z"
       id="path1680"
       style="fill:#ee8b31;fill-opacity:1;fill-rule:evenodd;stroke:#c65a1a;stroke-width:1;stroke-linecap:butt;stroke-linejoin:miter;stroke-miterlimit:4;stroke-opacity:1" />
    <path
       d="M 58.353104,119.96233 C 57.075298,124.64761 59.630909,126.77729 55.797493,126.35135 C 51.964078,125.92542 52.815948,122.092 52.815948,118.25859 C 52.815948,114.42517 54.945623,111.01769 58.779039,111.44363 C 62.612454,111.86956 65.594,115.70298 63.464324,118.68452 C 61.334649,121.66607 67.723675,117.83265 64.74213,120.8142 C 61.760584,123.79574 60.056844,123.36981 58.353104,119.96233 z"
       id="path1681"
       style="fill:#ee8b31;fill-opacity:1;fill-rule:evenodd;stroke:#c65a1a;stroke-width:1;stroke-linecap:butt;stroke-linejoin:miter;stroke-miterlimit:4;stroke-opacity:1" />
    <path
       d="M 70.70522,97.813705 C 71.983026,101.64712 66.44587,106.33241 72.408961,107.61021 C 78.372052,108.88802 86.890753,104.20273 84.761077,101.64712 C 82.631402,99.09151 80.075792,101.64712 76.668311,101.64712 C 73.260831,101.64712 74.112701,95.684029 70.70522,97.813705 z"
       id="path1689"
       style="fill:#ee8b31;fill-opacity:1;fill-rule:evenodd;stroke:#c65a1a;stroke-width:1;stroke-linecap:butt;stroke-linejoin:miter;stroke-miterlimit:4;stroke-opacity:1" />
    <path
       d="M 103.92816,134.44412 C 101.37254,138.27754 98.390999,134.44412 94.983519,134.01819 C 91.576038,133.59225 87.742623,134.01819 86.890753,131.03664 C 86.038883,128.05509 89.446363,130.6107 91.576038,128.90696 C 93.705714,127.20322 91.576038,125.92542 93.705714,125.92542 C 95.835389,125.92542 95.409454,126.35135 97.113194,128.05509 C 98.816935,129.75883 96.261324,123.36981 97.539129,121.24013 C 98.816935,119.11046 102.65035,116.98078 103.07629,121.24013 C 103.50222,125.49948 101.79848,129.3329 100.94661,130.6107 C 100.09474,131.88851 106.48377,128.48103 103.92816,134.44412 z"
       id="path1690"
       style="fill:#ee8b31;fill-opacity:1;fill-rule:evenodd;stroke:#c65a1a;stroke-width:1;stroke-linecap:butt;stroke-linejoin:miter;stroke-miterlimit:4;stroke-opacity:1" />
  </g>
  <use
     height="496.06299"
     id="use1704"
     transform="matrix(-1,0,0,1,20.022892,2.7471719e-2)"
     width="744.09448"
     x="0"
     xlink:href="#g1695"
     y="0" />
  <g
     id="g1682"
     style="fill:#e48630;fill-opacity:1"
     transform="matrix(6.1820106e-2,0,0,6.4507938e-2,1,9.0000117)">
    <path
       d="M 177.65923,135.28087 L 188.44055,145.42877 L 184.90997,148.09977 L 183.15494,146.13748 L 181.91801,147.07326 L 183.29622,149.32062 L 179.72469,152.02261 L 172.67056,139.05498 L 177.65923,135.28087 M 181.49541,144.14817 C 180.32334,142.96212 178.91737,141.46689 177.27748,139.66244 C 178.6107,142.15113 179.62348,143.94384 180.31582,145.04058 L 181.49541,144.14817"
       id="text1654"
       style="font-size:12px;font-style:normal;font-variant:normal;font-weight:normal;font-stretch:condensed;writing-mode:lr-tb;text-anchor:start;stroke:none;stroke-width:1pt;stroke-linecap:butt;stroke-linejoin:miter;stroke-opacity:1;font-family:Impact" />
    <path
       d="M 159.70553,146.80531 L 162.48568,145.29473 C 164.28031,144.31965 165.53244,143.73509 166.24211,143.54101 C 166.95768,143.34376 167.57173,143.3248 168.08433,143.48409 C 168.59691,143.64343 169.00738,143.90951 169.31575,144.28239 C 169.62126,144.65 170.10297,145.44176 170.76094,146.65767 L 173.19392,151.15394 C 173.81752,152.30641 174.17341,153.11184 174.26154,153.57018 C 174.35268,154.02004 174.30829,154.43752 174.12836,154.82259 C 173.94555,155.20241 173.65784,155.55712 173.26517,155.88677 C 172.86965,156.21113 172.22764,156.61468 171.33917,157.09743 L 166.65261,159.64385 L 159.70553,146.80531 M 164.60983,146.983 L 169.17972,155.42835 C 169.71517,155.13743 169.99318,154.86324 170.01376,154.60577 C 170.03147,154.34303 169.80862,153.78345 169.34519,152.92702 L 166.64617,147.9391 C 166.3315,147.35758 166.10923,146.99607 165.97936,146.85455 C 165.84949,146.71305 165.691,146.64526 165.50384,146.65116 C 165.31383,146.6518 165.01583,146.7624 164.60983,146.983"
       id="path1664"
       style="font-size:12px;font-style:normal;font-variant:normal;font-weight:normal;font-stretch:condensed;writing-mode:lr-tb;text-anchor:start;stroke:none;stroke-width:1pt;stroke-linecap:butt;stroke-linejoin:miter;stroke-opacity:1;font-family:Impact" />
    <path
       d="M 154.12003,147.90898 L 159.70999,161.61915 L 155.38879,162.58165 L 154.6078,160.06755 L 153.09387,160.40476 L 153.41365,163.0216 L 149.04232,163.99528 L 148.01418,149.269 L 154.12003,147.90898 M 153.92489,157.56855 C 153.35162,156.00272 152.69406,154.05847 151.95219,151.73577 C 152.13079,154.55342 152.3071,156.60487 152.48114,157.89012 L 153.92489,157.56855"
       id="path1662"
       style="font-size:12px;font-style:normal;font-variant:normal;font-weight:normal;font-stretch:condensed;writing-mode:lr-tb;text-anchor:start;stroke:none;stroke-width:1pt;stroke-linecap:butt;stroke-linejoin:miter;stroke-opacity:1;font-family:Impact" />
    <path
       d="M 146.51972,149.21702 L 142.34037,163.38592 L 135.63283,162.48982 L 135.01506,147.68005 L 139.67571,148.30269 C 139.68205,152.3606 139.61683,155.78126 139.48003,158.56469 C 140.08266,155.81317 140.65442,153.37286 141.19529,151.24375 L 141.85907,148.59438 L 146.51972,149.21702"
       id="path1660"
       style="font-size:12px;font-style:normal;font-variant:normal;font-weight:normal;font-stretch:condensed;writing-mode:lr-tb;text-anchor:start;stroke:none;stroke-width:1pt;stroke-linecap:butt;stroke-linejoin:miter;stroke-opacity:1;font-family:Impact" />
    <path
       d="M 123.29891,144.1416 L 132.75993,147.23084 L 131.88003,150.01685 L 128.09292,148.78026 L 127.25921,151.42008 L 130.80372,152.57744 L 129.96728,155.22586 L 126.42277,154.06849 L 125.45598,157.12964 L 129.62045,158.48945 L 128.74056,161.27544 L 118.90219,158.06299 L 123.29891,144.1416"
       id="path1659"
       style="font-size:12px;font-style:normal;font-variant:normal;font-weight:normal;font-stretch:condensed;writing-mode:lr-tb;text-anchor:start;stroke:none;stroke-width:1pt;stroke-linecap:butt;stroke-linejoin:miter;stroke-opacity:1;font-family:Impact" />
    <path
       d="M 122.15885,143.39524 L 113.75691,155.3324 L 109.87816,152.60236 L 111.39568,145.55543 L 107.57615,150.98209 L 103.87609,148.37781 L 112.27803,136.44065 L 115.97808,139.04492 L 114.67559,146.16601 L 118.4588,140.79096 L 122.15885,143.39524"
       id="path1658"
       style="font-size:12px;font-style:normal;font-variant:normal;font-weight:normal;font-stretch:condensed;writing-mode:lr-tb;text-anchor:start;stroke:none;stroke-width:1pt;stroke-linecap:butt;stroke-linejoin:miter;stroke-opacity:1;font-family:Impact" />
  </g>
  <rect
     ry="0"
     rx="0"
     y="10.5"
     x="2.5"
     height="27"
     width="43.000004"
     id="rect5733"
     style="fill:url(#linearGradient2543);fill-opacity:1;stroke:url(#linearGradient2545);stroke-width:1;stroke-linecap:round;stroke-linejoin:miter;stroke-miterlimit:4;stroke-dasharray:none;stroke-dashoffset:0;stroke-opacity:1" />
</svg>
