<?xml version="1.0" encoding="UTF-8" standalone="no"?>
<!-- Created with Inkscape (http://www.inkscape.org/) -->
<svg
   xmlns:dc="http://purl.org/dc/elements/1.1/"
   xmlns:cc="http://creativecommons.org/ns#"
   xmlns:rdf="http://www.w3.org/1999/02/22-rdf-syntax-ns#"
   xmlns:svg="http://www.w3.org/2000/svg"
   xmlns="http://www.w3.org/2000/svg"
   xmlns:xlink="http://www.w3.org/1999/xlink"
   xmlns:sodipodi="http://sodipodi.sourceforge.net/DTD/sodipodi-0.dtd"
   xmlns:inkscape="http://www.inkscape.org/namespaces/inkscape"
   version="1.0"
   width="48"
   height="48"
   viewBox="0 0 500 500"
   id="Layer_1"
   xml:space="preserve"
   sodipodi:version="0.32"
   inkscape:version="0.46"
   sodipodi:docname="Flag_of_Rhode_Island.svg"
   inkscape:output_extension="org.inkscape.output.svg.inkscape"
   inkscape:export-filename="D:\Workspace\Java\AndNav2\res\drawable\flag_usa_state_of_rhode_island.png"
   inkscape:export-xdpi="90"
   inkscape:export-ydpi="90"><metadata
   id="metadata38"><rdf:RDF><cc:Work
       rdf:about=""><dc:format>image/svg+xml</dc:format><dc:type
         rdf:resource="http://purl.org/dc/dcmitype/StillImage" /></cc:Work></rdf:RDF></metadata><sodipodi:namedview
   inkscape:window-height="750"
   inkscape:window-width="1280"
   inkscape:pageshadow="2"
   inkscape:pageopacity="0.0"
   guidetolerance="10.0"
   gridtolerance="10.0"
   objecttolerance="10.0"
   borderopacity="1.0"
   bordercolor="#666666"
   pagecolor="#ffffff"
   id="base"
   showgrid="false"
   inkscape:zoom="5.2269333"
   inkscape:cx="27.097135"
   inkscape:cy="28.44135"
   inkscape:window-x="1672"
   inkscape:window-y="424"
   inkscape:current-layer="Layer_1" /><defs
   id="defs2308"><inkscape:perspective
     sodipodi:type="inkscape:persp3d"
     inkscape:vp_x="0 : 250 : 1"
     inkscape:vp_y="0 : 1000 : 0"
     inkscape:vp_z="500 : 250 : 1"
     inkscape:persp3d-origin="250 : 166.66667 : 1"
     id="perspective40" /><linearGradient
     gradientUnits="userSpaceOnUse"
     y2="13.64602"
     x2="15.000001"
     y1="-4.3631072"
     x1="15.000001"
     id="linearGradient3351"
     xlink:href="#linearGradient3345"
     inkscape:collect="always" /><filter
     id="filter5781"
     inkscape:collect="always"><feGaussianBlur
       id="feGaussianBlur5783"
       stdDeviation="0.33222591"
       inkscape:collect="always" /></filter><linearGradient
     gradientTransform="matrix(0.9555556,0,0,0.9310345,0.6666666,0.6896552)"
     gradientUnits="userSpaceOnUse"
     y2="13.738016"
     x2="15"
     y1="-13.883799"
     x1="15"
     id="linearGradient5741"
     xlink:href="#linearGradient5735"
     inkscape:collect="always" /><inkscape:perspective
     sodipodi:type="inkscape:persp3d"
     inkscape:vp_x="0 : 300 : 1"
     inkscape:vp_y="0 : 1000 : 0"
     inkscape:vp_z="900 : 300 : 1"
     inkscape:persp3d-origin="450 : 200 : 1"
     id="perspective4943" /><g
     id="smallcross"><clipPath
       id="vclip"><path
         d="M -109,104 C -51.562386,104 -5,57.437614 -5,0 C -5,-57.437614 -51.562386,-104 -109,-104 L 109,-104 C 51.562386,-104 5,-57.437614 5,-1.2735906e-14 C 5,57.437614 51.562386,104 109,104 L -109,104 z"
         id="path4921" /></clipPath><path
       id="varm"
       d="M -55,74 C -55,43.624339 -30.375661,19 3.3691583e-15,19 C 30.375661,19 55,43.624339 55,74 L 55,-74 C 55,-43.624339 30.375661,-19 3.3661767e-15,-19 C -30.375661,-19 -55,-43.624339 -55,-74 L -55,74 z"
       clip-path="url(#vclip)" /><use
       height="20"
       width="30"
       y="0"
       x="0"
       xlink:href="#varm"
       transform="matrix(0,1,-1,0,0,0)"
       id="use4924" /></g><inkscape:perspective
     sodipodi:type="inkscape:persp3d"
     inkscape:vp_x="0 : 300 : 1"
     inkscape:vp_y="0 : 1000 : 0"
     inkscape:vp_z="900 : 300 : 1"
     inkscape:persp3d-origin="450 : 200 : 1"
     id="perspective2710" /><inkscape:perspective
     id="perspective20"
     inkscape:persp3d-origin="372 : 165.33333 : 1"
     inkscape:vp_z="744 : 248 : 1"
     inkscape:vp_y="0 : 1000 : 0"
     inkscape:vp_x="0 : 248 : 1"
     sodipodi:type="inkscape:persp3d" /><linearGradient
     id="linearGradient5735"
     inkscape:collect="always"><stop
       id="stop5737"
       offset="0"
       style="stop-color:#ffffff;stop-opacity:1;" /><stop
       id="stop5739"
       offset="1"
       style="stop-color:#ffffff;stop-opacity:0;" /></linearGradient><linearGradient
     id="linearGradient3345"
     inkscape:collect="always"><stop
       id="stop3347"
       offset="0"
       style="stop-color:#ffffff;stop-opacity:1;" /><stop
       id="stop3349"
       offset="1"
       style="stop-color:#ffffff;stop-opacity:0;" /></linearGradient><linearGradient
     inkscape:collect="always"
     xlink:href="#linearGradient3345"
     id="linearGradient2666"
     gradientUnits="userSpaceOnUse"
     x1="15.000001"
     y1="-4.3631072"
     x2="15.000001"
     y2="13.64602"
     gradientTransform="matrix(16.666667,0,0,16.666667,0,83.333326)" /><linearGradient
     inkscape:collect="always"
     xlink:href="#linearGradient5735"
     id="linearGradient2668"
     gradientUnits="userSpaceOnUse"
     gradientTransform="matrix(15.925927,0,0,15.517242,11.11111,94.82758)"
     x1="15"
     y1="-13.883799"
     x2="15"
     y2="13.738016" /></defs>


















<rect
   ry="0"
   rx="0"
   y="0.625"
   x="0"
   height="20"
   width="30"
   id="rect5743"
   style="opacity:0.1245791;fill:#000000;fill-opacity:1;stroke:none;stroke-width:2;stroke-linecap:round;stroke-linejoin:miter;stroke-miterlimit:4;stroke-dasharray:none;stroke-dashoffset:0;stroke-opacity:1;filter:url(#filter5781)"
   transform="matrix(16.666667,0,0,16.666667,0,83.333326)" /><g
   id="g2515"
   transform="matrix(0.9583333,0,0,0.9583333,90.277777,-62.499983)"><rect
     id="rect607"
     style="fill:#ffffff"
     y="166.66666"
     x="-83.333336"
     height="333.33334"
     width="500" /><g
     id="g2481"><polygon
       points="251.988,60.555 259.569,79.104 279.869,80.963 264.212,93.763 268.682,113.26 251.424,102.62 233.886,112.811 238.877,93.436 223.569,80.237 243.912,78.903 251.988,60.555 "
       style="fill:#fcc50e;stroke:#010101;stroke-width:1.36029994"
       id="polygon616"
       transform="matrix(0.6666667,0,0,0.6666667,0,166.66667)" /><polygon
       points="341.801,82.501 339.128,102.362 355.801,114.09 335.848,117.384 330.006,136.514 320.347,118.689 300.063,118.784 314.047,104.475 307.354,85.403 325.654,94.384 341.801,82.501 "
       style="fill:#fcc50e;stroke:#010101;stroke-width:1.36029994"
       id="polygon617"
       transform="matrix(0.6666667,0,0,0.6666667,0,166.66667)" /><polygon
       points="407.926,142.611 396.911,159.353 406.855,177.147 387.445,171.47 373.892,186.179 372.91,165.929 354.588,157.226 373.391,150.388 375.623,130.3 388.225,146.324 407.926,142.611 "
       style="fill:#fcc50e;stroke:#010101;stroke-width:1.36029994"
       id="polygon618"
       transform="matrix(0.6666667,0,0,0.6666667,0,166.66667)" /><polygon
       points="439.37,230.399 421.948,240.302 422.714,260.672 408.009,246.79 389.248,253.729 397.581,235.246 385.221,219.164 405.076,221.624 416.198,204.747 420.137,224.748 439.37,230.399 "
       style="fill:#fcc50e;stroke:#010101;stroke-width:1.36029994"
       id="polygon619"
       transform="matrix(0.6666667,0,0,0.6666667,0,166.66667)" /><polygon
       points="430.136,321.686 410.11,322.44 401.398,340.869 394.75,321.771 374.902,319.278 390.818,306.72 387.265,286.75 403.75,298.087 421.4,288.238 415.674,307.803 430.136,321.686 "
       style="fill:#fcc50e;stroke:#010101;stroke-width:1.36029994"
       id="polygon620"
       transform="matrix(0.6666667,0,0,0.6666667,0,166.66667)" /><polygon
       points="161.918,82.298 176.882,95.627 195.932,88.374 187.496,106.752 200.08,122.3 179.902,120.33 168.63,137.192 164.596,117.595 145.045,112.469 162.729,102.329 161.918,82.298 "
       style="fill:#fcc50e;stroke:#010101;stroke-width:1.36029994"
       id="polygon621"
       transform="matrix(0.6666667,0,0,0.6666667,0,166.66667)" /><polygon
       points="299.074,384.15 299.361,404.188 317.582,413.328 298.333,419.529 295.377,439.312 283.193,423.106 263.146,426.193 274.865,409.977 265.432,392.102 284.857,398.284 299.074,384.15 "
       style="fill:#fcc50e;stroke:#010101;stroke-width:1.36029994"
       id="polygon622"
       transform="matrix(0.6666667,0,0,0.6666667,0,166.66667)" /><polygon
       points="125.65,132.468 127.302,152.439 146.102,160.317 127.321,167.815 125.72,187.753 112.461,172.417 92.67,176.861 103.257,159.884 92.628,142.693 112.43,147.538 125.65,132.468 "
       style="fill:#fcc50e;stroke:#010101;stroke-width:1.36029994"
       id="polygon623"
       transform="matrix(0.6666667,0,0,0.6666667,0,166.66667)" /><polygon
       points="84.774,204.796 95.753,221.561 116.034,219.515 103.105,235.064 111.21,253.352 92.241,246.197 76.968,259.545 78.173,239.574 60.63,229.537 80.344,224.348 84.774,204.796 "
       style="fill:#fcc50e;stroke:#010101;stroke-width:1.36029994"
       id="polygon624"
       transform="matrix(0.6666667,0,0,0.6666667,0,166.66667)" /><polygon
       points="81.562,287.098 99.291,296.439 116.038,284.818 112.267,304.688 128.22,316.754 108.16,319.691 101.272,338.77 92.646,320.717 72.436,320.441 87.164,306.346 81.562,287.098 "
       style="fill:#fcc50e;stroke:#010101;stroke-width:1.36029994"
       id="polygon625"
       transform="matrix(0.6666667,0,0,0.6666667,0,166.66667)" /><polygon
       points="146.867,344.947 152.303,364.235 172.262,368.377 155.259,379.324 157.496,399.201 141.551,386.679 122.975,394.822 130.124,376.136 116.406,361.291 136.769,362.265 146.867,344.947 "
       style="fill:#fcc50e;stroke:#010101;stroke-width:1.36029994"
       id="polygon626"
       transform="matrix(0.6666667,0,0,0.6666667,0,166.66667)" /><polygon
       points="233.622,392.604 224.391,410.39 236.115,427.065 216.224,423.418 204.256,439.445 201.194,419.404 182.074,412.635 200.072,403.896 200.223,383.685 214.408,398.325 233.622,392.604 "
       style="fill:#fcc50e;stroke:#010101;stroke-width:1.36029994"
       id="polygon627"
       transform="matrix(0.6666667,0,0,0.6666667,0,166.66667)" /><polygon
       points="355.488,345.846 365.614,363.139 385.973,362.11 372.281,376.994 379.461,395.664 360.873,387.569 344.951,400.136 347.154,380.25 330.136,369.347 350.085,365.151 355.488,345.846 "
       style="fill:#fcc50e;stroke:#010101;stroke-width:1.36029994"
       id="polygon628"
       transform="matrix(0.6666667,0,0,0.6666667,0,166.66667)" /><g
       id="g2269"
       transform="matrix(0.6666667,0,0,0.6666667,0,166.66667)">
	<path
   d="M 277.865,341.365 C 307.866,336.365 326.366,311.365 326.366,311.365 L 323.866,328.365 L 341.366,325.865 C 341.366,325.865 325.866,350.365 279.365,364.365 L 277.865,341.365 z"
   style="fill:#09acc5;stroke:#010101;stroke-width:1.36029994"
   id="path2271" />
	<path
   d="M 279.066,364.215 L 293.567,348.215 L 277.566,341.215 C 277.566,341.215 275.066,356.715 279.066,364.215 z"
   style="fill:#09acc5;stroke:#010101;stroke-width:1.36029994"
   id="path2273" />
	<path
   d="M 224.624,341.365 C 194.624,336.365 176.124,311.365 176.124,311.365 L 178.624,328.365 L 161.124,325.865 C 161.124,325.865 176.624,350.365 223.124,364.365 L 224.624,341.365 z"
   style="fill:#09acc5;stroke:#010101;stroke-width:1.36029994"
   id="path2275" />
	<path
   d="M 223.423,364.215 L 208.923,348.215 L 224.923,341.215 C 224.923,341.215 227.423,356.715 223.423,364.215 z"
   style="fill:#09acc5;stroke:#010101;stroke-width:1.36029994"
   id="path2277" />
	<path
   d="M 293.874,320.721 C 278.382,328.797 263.816,331.599 251.245,331.732 C 238.674,331.599 224.108,328.797 208.616,320.721 L 208.616,347.721 C 224.058,355.771 238.58,358.579 251.124,358.729 L 251.124,358.735 C 251.164,358.735 251.205,358.733 251.245,358.732 C 251.285,358.733 251.326,358.735 251.366,358.735 L 251.366,358.729 C 263.91,358.58 278.431,355.771 293.874,347.721 L 293.874,320.721 z"
   style="fill:#09acc5;stroke:#010101;stroke-width:1.36029994"
   id="path2279" />
</g><g
       id="g2281"
       transform="matrix(0.6666667,0,0,0.6666667,0,166.66667)">
	<g
   id="g2283">
		<path
   d="M 216.072,329.481 C 217.51,330.039 218.957,330.56 220.413,331.046 C 220.413,333.254 220.413,335.461 220.413,337.669 C 222.253,338.283 224.107,338.842 225.973,339.344 C 225.973,337.136 225.973,334.928 225.973,332.721 C 227.467,333.122 228.968,333.488 230.474,333.817 C 230.474,339.646 230.474,345.474 230.474,351.303 C 228.995,350.98 227.52,350.621 226.054,350.229 C 226.054,347.712 226.054,345.195 226.054,342.678 C 224.171,342.173 222.298,341.611 220.44,340.99 C 220.44,343.508 220.44,346.024 220.44,348.541 C 218.975,348.053 217.519,347.527 216.072,346.967 C 216.072,341.14 216.072,335.311 216.072,329.481 z"
   style="fill:#fcc50e;stroke:#010101;stroke-width:1.36029994"
   id="path2285" />
		<path
   d="M 235.289,340.915 C 235.289,339.125 235.646,337.478 237.058,336.353 C 238.33,335.328 240.243,335.124 242.162,335.302 C 244.247,335.498 246.17,336.032 247.536,337.347 C 248.679,338.437 249.321,339.993 249.321,342.805 C 249.321,344.219 249.321,345.633 249.321,347.047 C 249.321,349.499 248.846,351.068 247.564,352.213 C 245.863,353.73 243.412,353.722 242.106,353.592 C 240.103,353.421 236.834,352.351 235.814,349.218 C 235.372,347.906 235.289,346.368 235.289,345.606 C 235.289,344.042 235.289,342.479 235.289,340.915 z M 239.828,347.038 C 239.828,348.867 240.244,350.244 242.245,350.437 C 244.665,350.649 244.667,348.695 244.666,347.487 C 244.666,345.463 244.666,343.437 244.666,341.413 C 244.666,340.191 244.665,338.736 242.3,338.53 C 239.826,338.289 239.828,340.264 239.828,340.964 C 239.828,342.988 239.828,345.014 239.828,347.038 z"
   style="fill:#fcc50e;stroke:#010101;stroke-width:1.36029994"
   id="path2287" />
		<path
   d="M 254.229,336.014 C 256.479,335.945 258.726,335.798 260.967,335.573 C 263.968,335.264 265.571,335.549 266.649,336.217 C 267.92,336.988 268.497,338.283 268.497,340.024 C 268.498,342.744 266.761,344.333 265.848,344.942 C 264.382,345.926 262.774,346.206 261.191,346.415 C 260.376,346.523 259.56,346.62 258.744,346.708 C 258.744,348.892 258.744,351.075 258.744,353.259 C 257.241,353.375 255.736,353.456 254.23,353.502 C 254.229,347.671 254.229,341.843 254.229,336.014 z M 258.742,343.776 C 260.885,343.604 261.689,343.5 262.217,343.254 C 262.578,343.097 263.854,342.413 263.854,340.624 C 263.854,338.933 263.106,338.673 262.496,338.528 C 261.772,338.365 261.442,338.43 258.743,338.653 C 258.742,340.36 258.742,342.068 258.742,343.776 z"
   style="fill:#fcc50e;stroke:#010101;stroke-width:1.36029994"
   id="path2289" />
		<path
   d="M 272.508,333.709 C 277.007,332.701 281.452,331.37 285.808,329.716 C 285.808,330.78 285.808,331.845 285.808,332.909 C 282.867,334.026 279.883,334.996 276.87,335.818 C 276.87,337.057 276.87,338.297 276.87,339.535 C 278.942,338.97 281,338.335 283.04,337.63 C 283.04,338.693 283.04,339.757 283.04,340.821 C 281.018,341.519 278.978,342.15 276.925,342.712 C 276.925,344.086 276.925,345.46 276.925,346.833 C 280.127,345.957 283.296,344.914 286.418,343.704 C 286.418,344.792 286.418,345.88 286.418,346.968 C 281.867,348.732 277.217,350.141 272.508,351.196 C 272.508,345.366 272.508,339.537 272.508,333.709 z"
   style="fill:#fcc50e;stroke:#010101;stroke-width:1.36029994"
   id="path2291" />
	</g>
</g><path
       d="M 222.22268,327.33334 C 222.22268,327.33334 211.22268,333.66668 197.55601,338.66668 C 197.55601,338.66668 203.49734,340.64868 205.91401,342.93135 C 198.35068,350.34868 192.14334,353.69268 186.81001,355.75335 C 174.26601,359.90601 172.43001,353.58001 172.33934,349.92268 L 172.30934,349.92268 L 171.64268,262.66601 L 164.80201,262.66601 L 164.13534,349.92268 L 164.10534,349.92268 C 164.01467,353.58001 162.17867,359.90601 149.63401,355.75335 C 144.30067,353.69201 138.09334,350.34868 130.53001,342.93135 C 132.94667,340.64801 138.88867,338.66668 138.88867,338.66668 C 125.22201,333.66668 114.22201,327.33334 114.22201,327.33334 C 113.55534,343.00001 124.88867,354.00001 124.88867,354.00001 C 125.01467,350.71868 125.81001,349.06401 126.71334,348.10935 C 136.46801,357.61801 143.96201,360.35135 150.23467,362.34735 C 157.45201,364.64401 167.95468,374.35935 168.22201,374.66668 C 168.48868,374.35935 178.99134,364.64468 186.20868,362.34735 C 192.48134,360.35135 199.97534,357.61735 209.73001,348.10935 C 210.63268,349.06401 211.42868,350.71868 211.55468,354.00001 C 211.55601,354.00001 222.88934,343.00001 222.22268,327.33334 z"
       style="fill:#fcc50e;stroke:#010101;stroke-width:0.90686667"
       id="path2293" /><path
       d="M 168.22268,270.79534 C 162.50934,271.11601 148.69001,271.75868 137.55601,274.76001 L 137.66734,281.31534 C 137.66734,281.31534 160.71001,284.15001 168.22334,284.51001 C 175.73601,284.15001 198.77868,281.31534 198.77868,281.31534 L 198.89001,274.76001 C 187.75468,271.75934 173.93468,271.11601 168.22268,270.79534 z"
       style="fill:#fcc50e;stroke:#010101;stroke-width:0.90686667"
       id="path2295" /><g
       id="g2297"
       transform="matrix(0.6666667,0,0,0.6666667,0,166.66667)">
	<g
   id="g2299">
		<path
   d="M 252.334,148.667 C 245.522,148.667 240,154.189 240,161 C 240,167.811 245.522,173.333 252.334,173.333 C 259.145,173.333 264.666,167.811 264.666,161 C 264.666,154.188 259.145,148.667 252.334,148.667 z M 252.334,169.679 C 247.54,169.679 243.654,165.793 243.654,161 C 243.654,156.207 247.54,152.32 252.334,152.32 C 257.126,152.32 261.012,156.206 261.012,161 C 261.012,165.792 257.126,169.679 252.334,169.679 z"
   style="fill:#fcc50e"
   id="path2301" />
	</g>
	<g
   id="g2303">
		<path
   d="M 252.334,148.667 C 245.522,148.667 240,154.189 240,161 C 240,167.811 245.522,173.333 252.334,173.333 C 259.145,173.333 264.666,167.811 264.666,161 C 264.666,154.188 259.145,148.667 252.334,148.667 z M 252.334,169.679 C 247.54,169.679 243.654,165.793 243.654,161 C 243.654,156.207 247.54,152.32 252.334,152.32 C 257.126,152.32 261.012,156.206 261.012,161 C 261.012,165.792 257.126,169.679 252.334,169.679 z"
   style="fill:none;stroke:#010101;stroke-width:1.36029994"
   id="path2305" />
	</g>
</g></g></g>
<rect
   ry="0"
   rx="0"
   y="109.37499"
   x="26.041668"
   height="281.25"
   width="447.91672"
   id="rect5733"
   style="fill:url(#linearGradient2666);fill-opacity:1;stroke:url(#linearGradient2668);stroke-width:10.41666698;stroke-linecap:round;stroke-linejoin:miter;stroke-miterlimit:4;stroke-dasharray:none;stroke-dashoffset:0;stroke-opacity:1" /></svg>