<?xml version="1.0" encoding="UTF-8" standalone="no"?>
<!-- Created with Inkscape (http://www.inkscape.org/) -->
<svg
   xmlns:dc="http://purl.org/dc/elements/1.1/"
   xmlns:cc="http://creativecommons.org/ns#"
   xmlns:rdf="http://www.w3.org/1999/02/22-rdf-syntax-ns#"
   xmlns:svg="http://www.w3.org/2000/svg"
   xmlns="http://www.w3.org/2000/svg"
   xmlns:sodipodi="http://sodipodi.sourceforge.net/DTD/sodipodi-0.dtd"
   xmlns:inkscape="http://www.inkscape.org/namespaces/inkscape"
   width="48"
   height="48"
   id="svg2"
   sodipodi:version="0.32"
   inkscape:version="0.46"
   version="1.0"
   sodipodi:docname="accessibility.svg"
   inkscape:output_extension="org.inkscape.output.svg.inkscape"
   inkscape:export-filename="D:\Workspace\Java\AndNav2\res\drawable\accessibility.png"
   inkscape:export-xdpi="90"
   inkscape:export-ydpi="90">
  <defs
     id="defs4">
    <inkscape:perspective
       sodipodi:type="inkscape:persp3d"
       inkscape:vp_x="0 : 526.18109 : 1"
       inkscape:vp_y="0 : 1000 : 0"
       inkscape:vp_z="744.09448 : 526.18109 : 1"
       inkscape:persp3d-origin="372.04724 : 350.78739 : 1"
       id="perspective10" />
    <inkscape:perspective
       id="perspective2641"
       inkscape:persp3d-origin="372.04724 : 350.78739 : 1"
       inkscape:vp_z="744.09448 : 526.18109 : 1"
       inkscape:vp_y="0 : 1000 : 0"
       inkscape:vp_x="0 : 526.18109 : 1"
       sodipodi:type="inkscape:persp3d" />
  </defs>
  <sodipodi:namedview
     id="base"
     pagecolor="#ffffff"
     bordercolor="#666666"
     borderopacity="1.0"
     inkscape:pageopacity="0.0"
     inkscape:pageshadow="2"
     inkscape:zoom="7.9195959"
     inkscape:cx="19.894169"
     inkscape:cy="31.555563"
     inkscape:document-units="px"
     inkscape:current-layer="layer1"
     showgrid="false"
     inkscape:window-width="1280"
     inkscape:window-height="750"
     inkscape:window-x="-8"
     inkscape:window-y="-8" />
  <metadata
     id="metadata7">
    <rdf:RDF>
      <cc:Work
         rdf:about="">
        <dc:format>image/svg+xml</dc:format>
        <dc:type
           rdf:resource="http://purl.org/dc/dcmitype/StillImage" />
      </cc:Work>
    </rdf:RDF>
  </metadata>
  <g
     inkscape:label="Ebene 1"
     inkscape:groupmode="layer"
     id="layer1">
    <path
       style="fill:#c4f8c9;fill-opacity:1;stroke:#000000;stroke-width:0.99983716;stroke-miterlimit:4;stroke-dasharray:none;stroke-opacity:1"
       d="M 23.530476,47.500915 L 23.855123,47.497837 L 24.00078,47.38003 C 24.080891,47.315234 24.265845,47.117445 24.411789,46.940497 L 24.677142,46.618775 L 24.677142,46.225096 L 24.677142,45.831416 L 25.504648,45.895024 L 26.332153,45.958632 L 26.56538,46.223594 C 26.693657,46.369321 26.799983,46.542953 26.801665,46.609439 L 26.804722,46.730323 L 27.234202,46.730323 L 27.663681,46.730323 L 27.72588,46.629682 L 27.78808,46.52904 L 27.979043,46.589649 L 28.170004,46.650258 L 28.526978,46.482934 C 28.723309,46.390903 28.91692,46.259865 28.957224,46.19174 L 29.0305,46.067875 L 29.363614,45.957937 L 29.696726,45.848 L 29.751217,45.676321 L 29.805703,45.504639 L 30.45697,45.384156 C 30.815166,45.317889 31.406674,45.241762 31.771434,45.214986 L 32.434636,45.166305 L 32.383906,44.908702 L 32.33318,44.651099 L 32.850208,44.636114 L 33.367237,44.62113 L 33.419375,44.756998 L 33.471514,44.89287 L 33.740498,44.889794 L 34.009478,44.886719 L 34.197202,44.744731 C 34.30045,44.66664 34.444994,44.602744 34.518412,44.602744 C 34.59183,44.602744 34.714068,44.664914 34.790054,44.740897 L 34.928206,44.879055 L 34.928206,45.075302 L 34.928206,45.271547 L 35.360698,45.525006 L 35.793191,45.77846 L 35.958834,45.746564 L 36.124477,45.714663 L 36.249789,45.231236 C 36.318709,44.965349 36.375937,44.656635 36.376963,44.545202 L 36.378828,44.342599 L 36.188593,44.170436 L 35.998354,43.998274 L 35.794122,44.051684 L 35.589887,44.105092 L 35.655407,43.942907 C 35.691445,43.853709 35.743097,43.625242 35.770191,43.435204 L 35.819452,43.089684 L 35.215976,42.480558 L 34.612498,41.871434 L 34.961382,41.568873 C 35.15327,41.402468 35.431019,41.175321 35.578601,41.064104 C 35.726186,40.95289 36.064528,40.782539 36.330473,40.685548 L 36.814018,40.509201 L 37.076872,40.268196 L 37.33973,40.027193 L 37.403909,39.459914 L 37.468092,38.892635 L 37.559703,38.836015 L 37.651316,38.779395 L 38.083049,38.900276 L 38.514784,39.021153 L 38.704013,38.818041 L 38.89324,38.614926 L 38.89324,37.924256 L 38.89324,37.233583 L 38.565124,36.928954 C 38.384661,36.761407 38.099717,36.521378 37.931919,36.39556 L 37.626829,36.166799 L 37.33582,36.225 L 37.044816,36.283203 L 36.909361,35.959021 L 36.773912,35.634838 L 36.440868,35.4768 C 36.257697,35.389879 36.070886,35.318665 36.025737,35.318549 C 35.980583,35.31843 35.707616,35.05732 35.419136,34.738299 L 34.894631,34.158264 L 34.534813,34.158264 L 34.174997,34.158264 L 33.880182,33.882866 L 33.585369,33.60747 L 33.520993,33.350971 L 33.456617,33.094473 L 33.37236,33.094473 L 33.2881,33.094473 L 33.080693,32.687926 L 32.873287,32.281376 L 32.656236,32.110643 L 32.439187,31.939909 L 32.680239,31.436228 L 32.921292,30.932543 L 32.774445,30.683771 L 32.6276,30.434999 L 32.195708,30.193231 C 31.958164,30.060257 31.695263,29.894054 31.611479,29.823892 L 31.459148,29.696324 L 31.39692,29.413001 L 31.33469,29.129681 L 31.155318,29.004047 L 30.97595,28.878409 L 31.047318,28.76293 L 31.118688,28.647454 L 31.355234,29.030907 L 31.591776,29.414361 L 31.708932,29.416963 L 31.826091,29.419564 L 31.924141,29.056909 L 32.022189,28.694253 L 32.315562,28.339092 L 32.608938,27.98393 L 32.922377,27.916914 C 33.094767,27.880057 33.290446,27.805882 33.357225,27.752083 L 33.478632,27.654264 L 33.840764,27.711832 L 34.202897,27.769395 L 34.310746,27.699928 C 34.370066,27.661721 34.448194,27.535571 34.48437,27.419591 L 34.550142,27.208717 L 34.841682,27.144684 L 35.133221,27.080654 L 35.221738,26.847842 L 35.310253,26.615029 L 35.447362,26.615029 L 35.58447,26.615029 L 35.640135,26.469967 L 35.695803,26.324907 L 35.943869,26.324907 L 36.191936,26.324907 L 36.38965,25.989805 L 36.587362,25.654709 L 37.157363,25.542567 L 37.727361,25.430426 L 37.78588,25.246043 L 37.844402,25.061663 L 38.258382,24.867068 C 38.48607,24.760044 38.756154,24.594409 38.85857,24.498995 L 39.044784,24.325512 L 39.30749,24.259575 L 39.5702,24.193644 L 39.5702,24.029875 L 39.5702,23.866112 L 39.304253,23.648366 L 39.038303,23.430618 L 39.546021,23.427141 L 40.053743,23.423662 L 40.053743,23.665432 L 40.053743,23.907203 L 40.152843,23.907203 L 40.251943,23.907203 L 40.343863,24.148973 L 40.435788,24.390743 L 40.823171,24.390743 L 41.210554,24.390743 L 41.274087,24.124794 C 41.309029,23.978524 41.368855,23.815329 41.407031,23.762141 C 41.445212,23.708951 41.526246,23.461206 41.587117,23.211598 L 41.697779,22.757764 L 41.697779,22.047372 L 41.697779,21.336978 L 41.504358,20.957602 C 41.397985,20.748946 41.310944,20.519742 41.310944,20.448255 L 41.310944,20.318282 L 40.83202,20.119249 L 40.353087,19.920216 L 40.404363,19.663844 L 40.455636,19.407474 L 40.157982,19.032921 C 39.994271,18.826915 39.860321,18.6027 39.860321,18.534659 L 39.860321,18.410956 L 39.75083,18.374458 L 39.641342,18.337963 L 39.799185,18.032724 L 39.957034,17.727487 L 39.957034,17.142437 L 39.957034,16.557384 L 39.869398,16.557384 L 39.781765,16.557384 L 39.716429,16.082343 L 39.651095,15.607302 L 39.424746,15.55049 L 39.198393,15.493682 L 39.088235,15.159894 L 38.978076,14.826109 L 39.080719,14.634314 L 39.183368,14.44252 L 39.183368,14.050542 L 39.183368,13.658567 L 38.804663,13.419501 C 38.596375,13.288013 38.399405,13.137467 38.366948,13.084955 C 38.334493,13.032442 38.124123,12.865425 37.899456,12.713811 C 37.674789,12.562199 37.414814,12.408932 37.321735,12.373224 L 37.152495,12.308293 L 37.152495,12.00268 L 37.152495,11.697065 L 37.475344,11.339708 L 37.798192,10.982353 L 37.861576,10.232541 L 37.924957,9.4827254 L 37.841083,9.320969 C 37.794952,9.2320002 37.571315,8.6043473 37.344118,7.9261817 L 36.931027,6.6931506 L 36.485688,6.6897239 L 36.040351,6.6862972 L 35.813235,6.5603383 L 35.586118,6.434382 L 35.861589,6.3253265 C 36.013095,6.265345 36.256736,6.1882951 36.403004,6.1541042 L 36.668954,6.091932 L 36.668954,5.8204196 L 36.668954,5.5489045 L 36.306298,5.2639046 C 36.106838,5.1071543 35.803498,4.907215 35.632208,4.8195903 L 35.320774,4.6602789 L 35.214475,4.461654 L 35.108174,4.263032 L 34.812835,4.3279005 C 34.650398,4.363579 34.370553,4.4794662 34.190957,4.5854305 L 33.864417,4.7780944 L 33.864417,4.6787402 C 33.864417,4.6240975 33.792081,4.50705 33.70367,4.418641 L 33.542925,4.2578933 L 33.645568,4.194139 L 33.748211,4.1303847 L 33.782137,3.8984913 L 33.816062,3.6665977 L 33.975017,3.5669946 L 34.133969,3.4673942 L 34.296225,3.629651 C 34.385467,3.7188902 34.519822,3.7919076 34.594795,3.7919076 L 34.731107,3.7919076 L 34.792765,3.5462399 L 34.854423,3.3005722 L 34.682908,3.1110508 L 34.511397,2.9215323 L 34.381325,2.9215323 L 34.251252,2.9215323 L 34.251252,2.7268048 C 34.251252,2.6197046 34.301638,2.4513952 34.363221,2.3527818 L 34.47519,2.1734891 L 34.414612,2.0156166 L 34.354027,1.8577439 L 33.908123,1.8577439 L 33.462215,1.8577439 L 33.52594,1.5676188 L 33.589659,1.2774937 L 33.396471,1.2774937 C 33.290217,1.2774937 33.131108,1.3051884 33.042897,1.3390384 L 32.88252,1.4005831 L 32.795612,1.6291636 L 32.708706,1.8577439 L 32.569752,1.8577439 L 32.430794,1.8577439 L 32.369191,2.2223766 C 32.335308,2.4229243 32.267762,2.6513992 32.219089,2.7300962 L 32.13059,2.8731804 L 31.302035,2.8793252 L 30.47348,2.8854699 L 30.199282,3.4595726 L 29.925088,4.0336755 L 29.670462,4.250629 C 29.530423,4.3699537 29.415843,4.5072988 29.415843,4.5558427 L 29.415843,4.6440976 L 28.963428,4.7982515 L 28.511014,4.9524026 L 28.19978,4.9524026 L 27.888548,4.9524026 L 27.585041,5.315061 C 27.418113,5.5145216 27.241615,5.721233 27.192822,5.7744233 C 27.144029,5.8276137 27.041183,5.9231032 26.964272,5.9866223 C 26.887362,6.0501413 26.806402,6.1562164 26.784356,6.2223481 L 26.744278,6.3425843 L 26.532727,6.1310343 L 26.321181,5.9194846 L 26.173012,5.9194846 C 26.091521,5.9194846 25.871444,5.9835824 25.683951,6.0619196 L 25.343059,6.2043521 L 25.155163,6.0870124 L 24.967267,5.9696674 L 24.967267,5.8478681 L 24.967267,5.7260687 L 25.063695,5.7260687 C 25.116732,5.7260687 25.334326,5.568691 25.547239,5.3763381 L 25.93435,5.0266046 L 25.93435,4.5479617 L 25.93435,4.0693159 L 26.028505,3.8933823 L 26.122662,3.7174487 L 26.366982,3.6561257 L 26.611303,3.5948055 L 26.611303,3.4951375 C 26.611303,3.4403189 26.546784,3.2706977 26.467924,3.118199 L 26.324543,2.8409313 L 26.020657,2.7741885 L 25.71677,2.7074429 L 25.633625,2.8386649 C 25.587894,2.9108358 25.549811,3.0895632 25.548996,3.2358333 L 25.547515,3.5017825 L 25.644224,3.5017825 C 25.697414,3.5017825 25.740933,3.5453015 25.740933,3.5984917 L 25.740933,3.6951984 L 25.512203,3.6951984 L 25.283478,3.6951984 L 25.024885,3.8986076 L 24.766292,4.1020166 L 24.086404,3.7447457 L 23.406514,3.3874748 L 23.171455,3.4464718 L 22.936397,3.5054662 L 22.936397,3.3650784 L 22.936397,3.2246906 L 22.74298,3.1633028 L 22.549565,3.1019149 L 22.33197,3.1676544 L 22.114377,3.2333965 L 22.235261,3.1064775 L 22.356147,2.9795583 L 22.356147,2.4330826 L 22.356147,1.8866069 L 22.246886,1.5731767 L 22.137622,1.2597465 L 21.905969,1.3040307 L 21.674313,1.348315 L 21.60422,1.2403737 C 21.565669,1.1810062 21.389805,1.0310795 21.213411,0.90720304 L 20.892702,0.68197353 L 20.464979,0.88302431 C 20.229733,0.99360526 20.002937,1.0840778 19.960989,1.0840778 C 19.919041,1.0840778 19.810197,0.99704 19.719111,0.89066193 L 19.553504,0.69724612 L 19.316493,0.69724612 L 19.079485,0.69724612 L 19.019717,0.60053685 L 18.959947,0.50382758 L 18.288697,0.50382758 L 17.617448,0.50382758 L 17.617448,0.77783629 C 17.617448,0.92853916 17.647271,1.0816654 17.683724,1.11812 C 17.720178,1.1545719 17.801799,1.3350654 17.86511,1.5192155 L 17.980213,1.8540333 L 17.87136,1.9407601 C 17.811492,1.9884603 17.664592,2.0575046 17.544916,2.0941945 L 17.327324,2.1609022 L 17.327324,2.2459684 L 17.327324,2.3310346 L 17.716579,2.3155131 L 18.105837,2.2999917 L 18.059983,2.1804994 L 18.014131,2.0610097 L 18.157845,2.1161582 L 18.301556,2.1713066 L 18.443045,2.4449096 C 18.52086,2.5953907 18.584529,2.7641925 18.584529,2.8200224 L 18.584529,2.9215323 L 18.439467,2.9215323 L 18.294406,2.9215323 L 18.294406,3.1101449 L 18.294406,3.2987548 L 18.455708,3.3890244 L 18.61701,3.4792941 L 18.195912,3.5504374 L 17.774816,3.6215806 L 17.602639,3.8276293 L 17.430468,4.0336755 L 17.427249,4.1910748 L 17.424031,4.3484714 L 17.559842,4.4611862 L 17.695653,4.5738983 L 17.946677,4.5108985 L 18.197697,4.4478961 L 18.197697,4.8965997 L 18.197697,5.345306 L 18.366936,5.4077486 C 18.460019,5.4420911 18.568147,5.5168854 18.607225,5.5739513 C 18.646303,5.6310228 18.678941,5.7103553 18.679758,5.7502474 L 18.681237,5.822778 L 18.487822,5.822778 L 18.294406,5.822778 L 18.294406,5.9560284 C 18.294406,6.0293189 18.358598,6.2429243 18.437063,6.4307092 L 18.579719,6.7721397 L 18.695957,6.8108823 L 18.81219,6.8496277 L 18.741007,6.9648063 L 18.669824,7.079985 L 18.397246,7.079985 L 18.124671,7.079985 L 18.00428,6.934921 L 17.883891,6.7898598 L 17.656446,6.7898598 L 17.428998,6.7898598 L 17.266866,7.1033875 L 17.104735,7.4169204 L 17.057972,8.0704721 L 17.011211,8.7240237 L 16.939338,8.7240237 C 16.899807,8.7240237 16.813289,8.6587439 16.747074,8.5789597 L 16.626684,8.4338986 L 16.404437,8.4338986 L 16.182193,8.4338986 L 16.114046,8.7441617 L 16.0459,9.0544276 L 16.154715,9.0907011 L 16.263533,9.1269744 L 16.263533,9.3606854 L 16.263533,9.5943963 L 16.16278,9.5943963 C 16.107366,9.5943963 15.974539,9.5128866 15.867605,9.4132645 L 15.673184,9.2321301 L 15.823297,9.1745285 L 15.973411,9.1169243 L 15.973411,8.8766711 C 15.973411,8.7445296 15.922906,8.5255692 15.861177,8.3900957 C 15.799451,8.2546167 15.715347,8.1437735 15.67428,8.1437735 C 15.633211,8.1437735 15.570387,8.051697 15.534667,7.9391581 L 15.469723,7.7345427 L 14.440186,7.7699182 L 13.410642,7.8052963 L 13.439059,7.6360538 L 13.467475,7.4668167 L 13.233553,7.4668167 C 13.104898,7.4668167 12.863638,7.4940163 12.69742,7.5272579 L 12.395206,7.5877019 L 12.395206,7.6723218 L 12.395206,7.7569391 L 12.540268,7.7569391 C 12.620053,7.7569391 12.685329,7.7833165 12.685329,7.8155521 C 12.685329,7.8477903 12.576534,7.9597451 12.443563,8.0643436 L 12.201789,8.2545194 L 12.201789,8.4544315 L 12.201789,8.6543464 L 12.041709,8.7713992 L 11.881627,8.8884521 L 11.837378,9.42203 L 11.793132,9.9556108 L 12.154113,10.02333 L 12.515095,10.091049 L 12.447911,10.447149 C 12.410956,10.643005 12.347411,11.134925 12.306693,11.540306 L 12.232661,12.277367 L 12.019554,12.57665 L 11.806444,12.875931 L 11.701961,13.469091 L 11.59748,14.062253 L 11.075689,13.997057 L 10.553899,13.931863 L 10.410763,14.274436 C 10.33204,14.462853 10.267628,14.721874 10.267628,14.850045 L 10.267628,15.083079 L 10.388514,15.181642 C 10.455,15.235852 10.705233,15.336978 10.944585,15.406368 C 11.183938,15.475758 11.412873,15.578168 11.45333,15.633949 L 11.526888,15.735365 L 11.465462,16.122197 L 11.404039,16.509029 L 11.198488,16.712406 C 11.085435,16.82426 10.805905,17.032832 10.57731,17.175898 L 10.16168,17.436016 L 10.105712,17.58187 L 10.049744,17.727723 L 10.255171,17.946392 L 10.460601,18.165062 L 10.339936,18.311897 L 10.219273,18.458732 L 9.4753687,18.577215 L 8.7314605,18.695702 L 8.4405566,18.545269 C 8.2805608,18.462532 8.0822145,18.394837 7.9997879,18.394837 L 7.8499236,18.394837 L 7.8499236,18.491546 L 7.8499236,18.588253 L 7.6644185,18.588253 C 7.5623894,18.588253 7.4100745,18.614668 7.3259388,18.646955 L 7.1729667,18.705655 L 7.1729667,19.044797 L 7.1729667,19.383939 L 7.3761595,19.783939 C 7.4879142,20.003937 7.640229,20.307142 7.7146365,20.457724 L 7.8499236,20.731508 L 7.8499236,21.237473 L 7.8499236,21.743437 L 7.555298,22.025707 L 7.2606725,22.307976 L 7.2893516,22.648225 L 7.3180307,22.988475 L 7.00886,23.206068 C 6.8388142,23.325744 6.6538609,23.423662 6.5978497,23.423662 L 6.4960099,23.423662 L 6.4960099,23.710385 L 6.4960099,23.997104 L 6.682878,24.097113 L 6.8697435,24.197122 L 6.9337764,24.398868 L 6.9978093,24.600614 L 6.7793033,24.8332 L 6.5608001,25.065788 L 6.6805089,25.328516 C 6.7463484,25.47302 6.8840857,25.649992 6.9865909,25.721789 L 7.1729667,25.852333 L 7.1729667,25.980069 C 7.1729667,26.050326 7.2400909,26.163513 7.322128,26.2316 L 7.4712893,26.35539 L 7.3704826,26.456198 L 7.269676,26.557005 L 7.269676,26.776947 L 7.269676,26.996895 L 7.5493642,27.141526 L 7.8290525,27.286159 L 7.8662211,27.675907 L 7.9033896,28.065648 L 7.731594,28.065648 L 7.5597984,28.065648 L 7.5597984,28.159875 L 7.5597984,28.254099 L 7.269676,28.404128 L 6.9795509,28.554158 L 6.9795509,28.725748 L 6.9795509,28.897341 L 6.8657785,29.011112 L 6.7520037,29.124888 L 6.7448933,29.593819 L 6.7377803,30.062755 L 6.931199,30.436053 C 7.037577,30.641366 7.1932373,30.877435 7.2771108,30.960655 C 7.3609816,31.04387 7.5568153,31.185137 7.7122944,31.27458 L 7.9949873,31.437201 L 8.0233933,31.57402 L 8.0517991,31.710838 L 7.7090922,32.231209 L 7.3663852,32.751585 L 7.3663852,33.102454 L 7.3663852,33.453326 L 7.677192,33.542463 L 7.9879962,33.631606 L 8.1103986,34.054375 L 8.2328038,34.477142 L 8.3786926,34.638352 L 8.5245841,34.799557 L 8.5851227,35.102255 L 8.6456642,35.404948 L 8.9312455,35.467675 L 9.2168272,35.5304 L 9.4001498,35.3645 L 9.5834663,35.198597 L 9.7292498,35.254539 L 9.8750332,35.310478 L 9.9334841,35.543371 L 9.991935,35.776256 L 10.569854,35.836662 L 11.147773,35.897065 L 11.396118,35.734344 L 11.644463,35.571622 L 11.89895,35.870623 C 12.038916,36.035076 12.245051,36.215692 12.357022,36.271995 C 12.468996,36.328298 12.84874,36.420393 13.200894,36.476651 L 13.841179,36.578937 L 14.264433,36.803982 L 14.687686,37.029028 L 14.495632,37.406926 L 14.303575,37.784819 L 14.147233,37.874779 C 14.061245,37.924256 13.784962,38.185368 13.533271,38.455028 L 13.075649,38.945317 L 12.832136,39.670958 C 12.698204,40.07006 12.588623,40.490742 12.588623,40.605805 L 12.588623,40.815007 L 12.511774,40.847246 C 12.469507,40.864974 12.291932,41.156419 12.117162,41.494895 L 11.799396,42.110311 L 11.827382,42.510333 L 11.85537,42.910351 L 11.697118,43.442247 C 11.610078,43.73479 11.509373,44.178417 11.473327,44.428084 L 11.407791,44.882029 L 11.683907,45.272217 L 11.960019,45.662406 L 12.275634,45.664469 L 12.591248,45.666533 L 12.780939,45.548071 L 12.970628,45.429606 L 13.089093,45.548071 L 13.207554,45.666533 L 13.639963,45.666533 L 14.072369,45.666533 L 14.252478,45.503538 L 14.432589,45.340543 L 14.888697,45.504017 C 15.139555,45.593929 15.415635,45.667277 15.502205,45.667012 L 15.659602,45.666533 L 15.781804,45.519289 L 15.904009,45.372043 L 16.095843,45.432928 L 16.287682,45.493815 L 16.370833,45.362582 C 16.416569,45.290403 16.454655,45.149628 16.455469,45.04975 L 16.456948,44.868151 L 16.075953,44.929072 L 15.694958,44.989995 L 15.631294,44.886985 L 15.567628,44.783973 L 15.728427,44.606292 C 15.816865,44.508566 15.973403,44.4066 16.076283,44.379695 L 16.263341,44.330777 L 16.321572,44.425002 L 16.379807,44.519223 L 16.525844,44.463182 L 16.671882,44.407143 L 16.611473,44.647838 L 16.551062,44.888534 L 16.793913,44.949487 L 17.036766,45.010436 L 17.175796,44.957086 L 17.314826,44.903734 L 17.353345,45.019185 L 17.391863,45.13464 L 18.109082,45.140663 L 18.826298,45.146689 L 19.228382,45.262873 L 19.63046,45.379057 L 20.098754,45.768979 L 20.567044,46.158902 L 20.905527,46.101227 L 21.244002,46.043549 L 21.403004,45.856974 L 21.562005,45.670395 L 21.672918,45.80404 C 21.733919,45.877541 21.898288,45.966411 22.038178,46.001521 C 22.178071,46.036631 22.40476,46.153081 22.541932,46.260303 L 22.791332,46.455244 L 22.843092,46.71367 L 22.894852,46.972094 L 23.165897,46.952725 L 23.436944,46.933354 L 23.370807,47.097787 C 23.334433,47.188223 23.282432,47.316616 23.255252,47.383105 L 23.205827,47.50399 L 23.530476,47.500915 z"
       id="path2677" />
    <path
       style="fill:#cd2f2f;fill-opacity:0.63485479"
       d="M 27.628485,23.729632 C 27.641452,23.729632 27.652062,23.719023 27.652062,23.706056 C 27.652062,23.693088 27.641452,23.682479 27.628485,23.682479 C 27.615518,23.682479 27.604908,23.693088 27.604908,23.706056 C 27.604908,23.719023 27.615518,23.729632 27.628485,23.729632 z"
       id="path2675" />
    <path
       sodipodi:type="arc"
       style="fill:#cd2f2f;fill-opacity:0.47302905;stroke:#000000;stroke-width:0.52027959000000001;stroke-linecap:round;stroke-linejoin:round;stroke-miterlimit:4;stroke-dasharray:none;stroke-dashoffset:0;stroke-opacity:1"
       id="path3451"
       sodipodi:cx="-18.928572"
       sodipodi:cy="17.107143"
       sodipodi:rx="5"
       sodipodi:ry="5"
       d="M -13.928572,17.107143 A 5,5 0 1 1 -23.928572,17.107143 A 5,5 0 1 1 -13.928572,17.107143 z"
       transform="matrix(2.834663,0,0,2.834663,81.284607,-24.786931)" />
    <path
       sodipodi:type="arc"
       style="fill:#e04242;fill-opacity:0.56846476;stroke:#000000;stroke-width:0.52027959000000001;stroke-linecap:round;stroke-linejoin:round;stroke-miterlimit:4;stroke-dasharray:none;stroke-dashoffset:0;stroke-opacity:1"
       id="path3466"
       sodipodi:cx="-18.928572"
       sodipodi:cy="17.107143"
       sodipodi:rx="5"
       sodipodi:ry="5"
       d="M -13.928572,17.107143 A 5,5 0 1 1 -23.928572,17.107143 A 5,5 0 1 1 -13.928572,17.107143 z"
       transform="matrix(1.7511735,0,0,1.7511735,60.775698,-6.2515211)" />
    <path
       sodipodi:type="arc"
       style="fill:#cd2f2f;fill-opacity:0.63485479;stroke:#000000;stroke-width:0.52027959000000001;stroke-linecap:round;stroke-linejoin:round;stroke-miterlimit:4;stroke-dasharray:none;stroke-dashoffset:0;stroke-opacity:1"
       id="path3468"
       sodipodi:cx="-18.928572"
       sodipodi:cy="17.107143"
       sodipodi:rx="5"
       sodipodi:ry="5"
       d="M -13.928572,17.107143 A 5,5 0 1 1 -23.928572,17.107143 A 5,5 0 1 1 -13.928572,17.107143 z"
       transform="matrix(1.0172194,0,0,1.0172194,46.882995,6.3043369)" />
    <path
       sodipodi:type="arc"
       style="fill:#fa0000;fill-opacity:1;stroke:#000000;stroke-width:0.52027959000000001;stroke-linecap:round;stroke-linejoin:round;stroke-miterlimit:4;stroke-dasharray:none;stroke-dashoffset:0;stroke-opacity:1"
       id="path3470"
       sodipodi:cx="-18.928572"
       sodipodi:cy="17.107143"
       sodipodi:rx="5"
       sodipodi:ry="5"
       d="M -13.928572,17.107143 A 5,5 0 1 1 -23.928572,17.107143 A 5,5 0 1 1 -13.928572,17.107143 z"
       transform="matrix(0.5583542,0,0,0.5583542,38.197332,14.15421)" />
  </g>
</svg>
