<?xml version="1.0" encoding="UTF-8" standalone="no"?>
<!-- Created with Inkscape (http://www.inkscape.org/) -->
<svg
   xmlns:dc="http://purl.org/dc/elements/1.1/"
   xmlns:cc="http://creativecommons.org/ns#"
   xmlns:rdf="http://www.w3.org/1999/02/22-rdf-syntax-ns#"
   xmlns:svg="http://www.w3.org/2000/svg"
   xmlns="http://www.w3.org/2000/svg"
   xmlns:xlink="http://www.w3.org/1999/xlink"
   xmlns:sodipodi="http://sodipodi.sourceforge.net/DTD/sodipodi-0.dtd"
   xmlns:inkscape="http://www.inkscape.org/namespaces/inkscape"
   inkscape:export-ydpi="90.000000"
   inkscape:export-xdpi="90.000000"
   inkscape:export-filename="D:\Workspace\Java\AndNav2\res\drawable\menu_whereami.png"
   width="128"
   height="64"
   id="svg11300"
   sodipodi:version="0.32"
   inkscape:version="0.46"
   sodipodi:docbase="G:\Projekte\Workspace\Java\AndNav\ext\img"
   sodipodi:docname="menu_whereami.svg"
   inkscape:output_extension="org.inkscape.output.svg.inkscape"
   version="1.0">
  <defs
     id="defs3">
    <inkscape:perspective
       sodipodi:type="inkscape:persp3d"
       inkscape:vp_x="0 : 24 : 1"
       inkscape:vp_y="0 : 1000 : 0"
       inkscape:vp_z="48 : 24 : 1"
       inkscape:persp3d-origin="24 : 16 : 1"
       id="perspective3154" />
    <linearGradient
       inkscape:collect="always"
       id="linearGradient4711">
      <stop
         style="stop-color:#000000;stop-opacity:1;"
         offset="0"
         id="stop4713" />
      <stop
         style="stop-color:#000000;stop-opacity:0;"
         offset="1"
         id="stop4715" />
    </linearGradient>
    <linearGradient
       inkscape:collect="always"
       id="linearGradient4697">
      <stop
         style="stop-color:#ffffff;stop-opacity:1;"
         offset="0"
         id="stop4699" />
      <stop
         style="stop-color:#ffffff;stop-opacity:0;"
         offset="1"
         id="stop4701" />
    </linearGradient>
    <linearGradient
       id="linearGradient11520">
      <stop
         id="stop11522"
         offset="0.0000000"
         style="stop-color:#ffffff;stop-opacity:1.0000000;" />
      <stop
         id="stop11524"
         offset="1.0000000"
         style="stop-color:#dcdcdc;stop-opacity:1.0000000;" />
    </linearGradient>
    <linearGradient
       id="linearGradient11508"
       inkscape:collect="always">
      <stop
         id="stop11510"
         offset="0"
         style="stop-color:#000000;stop-opacity:1;" />
      <stop
         id="stop11512"
         offset="1"
         style="stop-color:#000000;stop-opacity:0;" />
    </linearGradient>
    <linearGradient
       id="linearGradient11494"
       inkscape:collect="always">
      <stop
         id="stop11496"
         offset="0"
         style="stop-color:#ef2929;stop-opacity:1;" />
      <stop
         id="stop11498"
         offset="1"
         style="stop-color:#ef2929;stop-opacity:0;" />
    </linearGradient>
    <linearGradient
       id="linearGradient11415">
      <stop
         id="stop11417"
         offset="0.0000000"
         style="stop-color:#204a87;stop-opacity:0.0000000;" />
      <stop
         style="stop-color:#204a87;stop-opacity:1.0000000;"
         offset="0.50000000"
         id="stop11423" />
      <stop
         id="stop11419"
         offset="1"
         style="stop-color:#204a87;stop-opacity:0;" />
    </linearGradient>
    <linearGradient
       id="linearGradient11399"
       inkscape:collect="always">
      <stop
         id="stop11401"
         offset="0"
         style="stop-color:#000000;stop-opacity:1;" />
      <stop
         id="stop11403"
         offset="1"
         style="stop-color:#000000;stop-opacity:0;" />
    </linearGradient>
    <linearGradient
       gradientTransform="translate(-60.28571,-0.285714)"
       y2="34.462429"
       x2="43.615788"
       y1="3.774456"
       x1="15.82836"
       gradientUnits="userSpaceOnUse"
       id="linearGradient11425"
       xlink:href="#linearGradient11415"
       inkscape:collect="always" />
    <linearGradient
       gradientTransform="translate(-60.57143,0)"
       y2="39.033859"
       x2="35.679932"
       y1="9.3458843"
       x1="9.6957054"
       gradientUnits="userSpaceOnUse"
       id="linearGradient11427"
       xlink:href="#linearGradient11415"
       inkscape:collect="always" />
    <linearGradient
       y2="33.462429"
       x2="26.758644"
       y1="19.774456"
       x1="13.267134"
       gradientTransform="translate(-60.85714,0.428571)"
       gradientUnits="userSpaceOnUse"
       id="linearGradient11439"
       xlink:href="#linearGradient11415"
       inkscape:collect="always" />
    <radialGradient
       r="8.5"
       fy="39.142857"
       fx="12.071428"
       cy="39.142857"
       cx="12.071428"
       gradientTransform="matrix(1,0,0,0.487395,0,20.06483)"
       gradientUnits="userSpaceOnUse"
       id="radialGradient11441"
       xlink:href="#linearGradient11399"
       inkscape:collect="always" />
    <radialGradient
       gradientTransform="matrix(1.243453,0,0,1.243453,-6.713754,-3.742847)"
       gradientUnits="userSpaceOnUse"
       r="3.8335035"
       fy="15.048258"
       fx="27.577173"
       cy="15.048258"
       cx="27.577173"
       id="radialGradient11500"
       xlink:href="#linearGradient11494"
       inkscape:collect="always" />
    <radialGradient
       r="3.8335035"
       fy="16.049133"
       fx="27.577173"
       cy="16.049133"
       cx="27.577173"
       gradientTransform="matrix(1.243453,0,0,1.243453,-6.713754,-3.742847)"
       gradientUnits="userSpaceOnUse"
       id="radialGradient11504"
       xlink:href="#linearGradient11494"
       inkscape:collect="always" />
    <radialGradient
       gradientUnits="userSpaceOnUse"
       gradientTransform="matrix(1,0,0,0.338462,0,29.48178)"
       r="6.5659914"
       fy="44.565483"
       fx="30.203562"
       cy="44.565483"
       cx="30.203562"
       id="radialGradient11514"
       xlink:href="#linearGradient11508"
       inkscape:collect="always" />
    <radialGradient
       gradientTransform="matrix(1.995058,0,0,1.995058,-24.32488,-35.70087)"
       gradientUnits="userSpaceOnUse"
       r="20.530962"
       fy="35.87817"
       fx="24.44569"
       cy="35.87817"
       cx="24.44569"
       id="radialGradient11526"
       xlink:href="#linearGradient11520"
       inkscape:collect="always" />
    <radialGradient
       r="6.5659914"
       fy="44.565483"
       fx="30.203562"
       cy="44.565483"
       cx="30.203562"
       gradientTransform="matrix(1,0,0,0.338462,0,29.48178)"
       gradientUnits="userSpaceOnUse"
       id="radialGradient11532"
       xlink:href="#linearGradient11508"
       inkscape:collect="always" />
    <radialGradient
       inkscape:collect="always"
       xlink:href="#linearGradient11508"
       id="radialGradient1348"
       gradientUnits="userSpaceOnUse"
       gradientTransform="matrix(1,0,0,0.338462,0,29.48178)"
       cx="30.203562"
       cy="44.565483"
       fx="30.203562"
       fy="44.565483"
       r="6.5659914" />
    <radialGradient
       inkscape:collect="always"
       xlink:href="#linearGradient11520"
       id="radialGradient1350"
       gradientUnits="userSpaceOnUse"
       gradientTransform="matrix(1.995058,0,0,1.995058,-24.32488,-35.70087)"
       cx="24.44569"
       cy="35.87817"
       fx="24.44569"
       fy="35.87817"
       r="20.530962" />
    <radialGradient
       inkscape:collect="always"
       xlink:href="#linearGradient11494"
       id="radialGradient1352"
       gradientUnits="userSpaceOnUse"
       gradientTransform="matrix(1.243453,0,0,1.243453,-6.713754,-3.742847)"
       cx="27.577173"
       cy="16.049133"
       fx="27.577173"
       fy="16.049133"
       r="3.8335035" />
    <radialGradient
       inkscape:collect="always"
       xlink:href="#linearGradient11494"
       id="radialGradient1354"
       gradientUnits="userSpaceOnUse"
       gradientTransform="matrix(1.243453,0,0,1.243453,-6.713754,-3.742847)"
       cx="27.577173"
       cy="15.048258"
       fx="27.577173"
       fy="15.048258"
       r="3.8335035" />
    <radialGradient
       inkscape:collect="always"
       xlink:href="#linearGradient11508"
       id="radialGradient1356"
       gradientUnits="userSpaceOnUse"
       gradientTransform="matrix(1,0,0,0.338462,0,29.48178)"
       cx="30.203562"
       cy="44.565483"
       fx="30.203562"
       fy="44.565483"
       r="6.5659914" />
    <radialGradient
       inkscape:collect="always"
       xlink:href="#linearGradient11520"
       id="radialGradient1366"
       gradientUnits="userSpaceOnUse"
       gradientTransform="matrix(2.049266,0,0,2.049266,-25.65002,-37.31089)"
       cx="24.44569"
       cy="35.87817"
       fx="24.44569"
       fy="35.87817"
       r="20.530962" />
    <linearGradient
       inkscape:collect="always"
       xlink:href="#linearGradient4697"
       id="linearGradient4703"
       x1="10.871767"
       y1="15.555014"
       x2="10.871767"
       y2="54.634052"
       gradientUnits="userSpaceOnUse" />
    <linearGradient
       inkscape:collect="always"
       xlink:href="#linearGradient4697"
       id="linearGradient4707"
       gradientUnits="userSpaceOnUse"
       x1="10.871767"
       y1="15.555014"
       x2="10.871767"
       y2="54.634052"
       gradientTransform="matrix(-1,0,0,1,49.62363,-9.63433)" />
    <radialGradient
       inkscape:collect="always"
       xlink:href="#linearGradient4711"
       id="radialGradient4717"
       cx="23.864855"
       cy="40.266018"
       fx="23.864855"
       fy="40.266018"
       r="14.672465"
       gradientTransform="matrix(1,0,0,0.340361,0,26.56102)"
       gradientUnits="userSpaceOnUse" />
    <radialGradient
       inkscape:collect="always"
       xlink:href="#linearGradient4711"
       id="radialGradient4721"
       gradientUnits="userSpaceOnUse"
       gradientTransform="matrix(1,0,0,0.340361,0,26.56102)"
       cx="23.864855"
       cy="40.266018"
       fx="23.864855"
       fy="40.266018"
       r="14.672465" />
    <linearGradient
       id="linearGradient2933">
      <stop
         style="stop-color:#de9c9e;stop-opacity:1;"
         offset="0"
         id="stop2935" />
      <stop
         style="stop-color:#204a87"
         offset="1"
         id="stop2937" />
    </linearGradient>
    <linearGradient
       id="linearGradient21644"
       inkscape:collect="always">
      <stop
         id="stop21646"
         offset="0"
         style="stop-color:#000000;stop-opacity:1;" />
      <stop
         id="stop21648"
         offset="1"
         style="stop-color:#000000;stop-opacity:0;" />
    </linearGradient>
    <linearGradient
       id="linearGradient2431">
      <stop
         id="stop2433"
         offset="0"
         style="stop-color:#ffffff;stop-opacity:1;" />
      <stop
         id="stop2435"
         offset="1"
         style="stop-color:#b8b8b8;stop-opacity:1;" />
    </linearGradient>
    <linearGradient
       id="linearGradient3151">
      <stop
         id="stop3153"
         offset="0"
         style="stop-color:#ffffff;stop-opacity:1;" />
      <stop
         id="stop3155"
         offset="1"
         style="stop-color:#ffffff;stop-opacity:0;" />
    </linearGradient>
    <linearGradient
       id="linearGradient5048">
      <stop
         id="stop5050"
         offset="0"
         style="stop-color:black;stop-opacity:0;" />
      <stop
         style="stop-color:black;stop-opacity:1;"
         offset="0.5"
         id="stop5056" />
      <stop
         id="stop5052"
         offset="1"
         style="stop-color:black;stop-opacity:0;" />
    </linearGradient>
    <linearGradient
       id="linearGradient4556">
      <stop
         id="stop4558"
         offset="0"
         style="stop-color:#ffd712;stop-opacity:1;" />
      <stop
         id="stop4560"
         offset="1"
         style="stop-color:#ffe012;stop-opacity:0;" />
    </linearGradient>
    <inkscape:perspective
       id="perspective31"
       inkscape:persp3d-origin="24 : 16 : 1"
       inkscape:vp_z="48 : 24 : 1"
       inkscape:vp_y="0 : 1000 : 0"
       inkscape:vp_x="0 : 24 : 1"
       sodipodi:type="inkscape:persp3d" />
    <linearGradient
       inkscape:collect="always"
       xlink:href="#linearGradient4697"
       id="linearGradient3468"
       gradientUnits="userSpaceOnUse"
       x1="10.871767"
       y1="15.555014"
       x2="10.871767"
       y2="54.634052" />
    <linearGradient
       inkscape:collect="always"
       xlink:href="#linearGradient4697"
       id="linearGradient3470"
       gradientUnits="userSpaceOnUse"
       gradientTransform="matrix(-1,0,0,1,49.62363,-9.63433)"
       x1="10.871767"
       y1="15.555014"
       x2="10.871767"
       y2="54.634052" />
    <radialGradient
       inkscape:collect="always"
       xlink:href="#linearGradient21644"
       id="radialGradient3472"
       gradientUnits="userSpaceOnUse"
       gradientTransform="matrix(1,0,0,0.595238,0,14.875)"
       cx="25.125"
       cy="36.75"
       fx="25.125"
       fy="36.75"
       r="15.75" />
    <radialGradient
       inkscape:collect="always"
       xlink:href="#linearGradient2933"
       id="radialGradient3474"
       gradientUnits="userSpaceOnUse"
       gradientTransform="matrix(1.238342,5.954846e-3,-6.507762e-3,1.351272,-6.992513,-9.744842)"
       cx="26.544321"
       cy="28.458725"
       fx="26.544321"
       fy="28.458725"
       r="22.376116" />
    <radialGradient
       inkscape:collect="always"
       xlink:href="#linearGradient2431"
       id="radialGradient3476"
       gradientUnits="userSpaceOnUse"
       gradientTransform="matrix(4.445991,0,0,6.8665,67.25071,-104.6679)"
       cx="-19.515638"
       cy="16.855663"
       fx="-19.515638"
       fy="16.855663"
       r="8.753643" />
  </defs>
  <sodipodi:namedview
     stroke="#ef2929"
     fill="#eeeeec"
     id="base"
     pagecolor="#ffffff"
     bordercolor="#666666"
     borderopacity="0.25490196"
     inkscape:pageopacity="0.0"
     inkscape:pageshadow="2"
     inkscape:zoom="1.9999999"
     inkscape:cx="-43.261656"
     inkscape:cy="0.897141"
     inkscape:current-layer="layer1"
     showgrid="true"
     inkscape:grid-bbox="true"
     inkscape:document-units="px"
     inkscape:showpageshadow="false"
     inkscape:window-width="1280"
     inkscape:window-height="750"
     inkscape:window-x="-8"
     inkscape:window-y="-8" />
  <metadata
     id="metadata4">
    <rdf:RDF>
      <cc:Work
         rdf:about="">
        <dc:format>image/svg+xml</dc:format>
        <dc:type
           rdf:resource="http://purl.org/dc/dcmitype/StillImage" />
        <dc:creator>
          <cc:Agent>
            <dc:title>Jakub Steiner</dc:title>
          </cc:Agent>
        </dc:creator>
        <dc:source>http://jimmac.musichall.cz</dc:source>
        <cc:license
           rdf:resource="http://creativecommons.org/licenses/by-sa/2.0/" />
        <dc:title>Start Here</dc:title>
        <dc:description>To be replaced by vendor/distribution branding.</dc:description>
        <dc:subject>
          <rdf:Bag>
            <rdf:li>start</rdf:li>
            <rdf:li>applications</rdf:li>
            <rdf:li>launchers</rdf:li>
          </rdf:Bag>
        </dc:subject>
        <dc:contributor>
          <cc:Agent>
            <dc:title>Garrett LeSage</dc:title>
          </cc:Agent>
        </dc:contributor>
      </cc:Work>
      <cc:License
         rdf:about="http://creativecommons.org/licenses/by-sa/2.0/">
        <cc:permits
           rdf:resource="http://web.resource.org/cc/Reproduction" />
        <cc:permits
           rdf:resource="http://web.resource.org/cc/Distribution" />
        <cc:requires
           rdf:resource="http://web.resource.org/cc/Notice" />
        <cc:requires
           rdf:resource="http://web.resource.org/cc/Attribution" />
        <cc:permits
           rdf:resource="http://web.resource.org/cc/DerivativeWorks" />
        <cc:requires
           rdf:resource="http://web.resource.org/cc/ShareAlike" />
      </cc:License>
    </rdf:RDF>
  </metadata>
  <g
     id="layer1"
     inkscape:label="Layer 1"
     inkscape:groupmode="layer">
    <g
       id="g15"
       inkscape:r_cx="true"
       inkscape:r_cy="true"
       transform="matrix(0.582036,0,0,0.582076,-63.9369,-62.75444)" />
    <g
       id="g3451"
       transform="matrix(1.2968024,0,0,1.2968024,35.769397,2.0518416)">
      <g
         transform="matrix(-1.0749995,0,0,1.0749995,43.925212,-1.7999759)"
         id="g11142">
        <g
           id="g3946"
           transform="matrix(0.99645,0,0,1.007814,-0.891385,0.197492)"
           inkscape:r_cx="true"
           inkscape:r_cy="true">
          <g
             style="fill:#3465a4;stroke:#204a87;stroke-width:2.13030815;stroke-miterlimit:4;stroke-dasharray:none"
             transform="matrix(0.467989,0,0,0.468861,-45.74716,-42.20022)"
             inkscape:r_cy="true"
             inkscape:r_cx="true"
             id="g9">
            <path
               style="fill:#3465a4;stroke:#204a87;stroke-width:2.13030815;stroke-miterlimit:4;stroke-dasharray:none"
               inkscape:r_cy="true"
               inkscape:r_cx="true"
               d="M 148.52832,163.19141 C 148.26758,162.52539 147.9209,161.76758 147.49902,160.96484 L 144.86621,162.08984 C 142.99609,159.00586 142.88281,152.55859 143.23242,150.4751 C 144.07129,145.4751 146.37012,141.0542 144.79492,135.94482 C 142.9834,130.06885 139.11816,120.90479 132.90039,118.49854 C 129.3125,117.10986 126.57715,120.23877 124.8125,122.98584 C 122.10742,127.19775 120.62207,132.30615 120.15137,137.26416 C 119.61719,142.87744 120.96777,148.62744 123.6123,153.58594 C 126.15234,158.35156 130.41406,162.3457 132.11621,167.53906 L 129.81836,168.52148 C 129.98242,169.05469 130.16016,169.57031 130.35059,170.05469 C 132.2002,174.77539 138.41797,184.19141 144.86328,181 C 151.42285,177.75 150.68164,168.68945 148.52832,163.19141 z"
               id="path11" />
            <path
               sodipodi:nodetypes="cccssssssccssc"
               inkscape:r_cy="true"
               inkscape:r_cx="true"
               style="fill:#3465a4;stroke:#204a87;stroke-width:2.13030815;stroke-miterlimit:4;stroke-dasharray:none"
               d="M 148.52832,163.19141 C 148.26758,162.52539 147.9209,161.76758 147.49902,160.96484 L 144.86621,162.08984 C 142.99609,159.00586 142.88281,152.55859 143.23242,150.4751 C 144.07129,145.4751 146.37012,141.0542 144.79492,135.94482 C 142.9834,130.06885 139.11816,120.90479 132.90039,118.49854 C 129.3125,117.10986 126.57715,120.23877 124.8125,122.98584 C 122.10742,127.19775 120.62207,132.30615 120.15137,137.26416 C 119.61719,142.87744 120.96777,148.62744 123.6123,153.58594 C 126.15234,158.35156 130.41406,162.3457 132.11621,167.53906 C 131.45735,167.7531 130.58431,168.19401 129.81836,168.52148 C 129.98242,169.05469 130.16016,169.57031 130.35059,170.05469 C 132.2002,174.77539 138.41797,184.19141 144.86328,181 C 151.42285,177.75 150.68164,168.68945 148.52832,163.19141 z"
               id="path13" />
          </g>
          <path
             inkscape:r_cy="true"
             inkscape:r_cx="true"
             style="opacity:0.53846154;fill:none;fill-opacity:1;stroke:url(#linearGradient3468);stroke-width:0.99788946;stroke-miterlimit:4;stroke-dasharray:none;stroke-opacity:1"
             d="M 23.15264,35.402331 C 23.0545,35.149035 22.924012,34.86083 22.76522,34.555538 L 21.55328,35.248555 C 20.849382,34.075677 20.088378,30.676027 20.313336,28.65454 C 20.537003,26.644656 21.671118,23.657436 21.078226,21.714272 C 20.396384,19.479565 18.499596,15.198858 16.159278,14.28373 C 14.808825,13.755597 13.867858,15.418314 12.805702,17.404522 C 11.809153,19.268045 11.361039,21.656264 11.404842,23.409277 C 11.458404,25.552859 12.154071,27.598298 13.149451,29.48408 C 14.105502,31.296507 16.599743,34.90392 17.240418,36.879022 L 16.287138,37.296844 C 16.348889,37.499631 16.504177,37.651533 16.575853,37.835749 C 17.272032,39.631092 19.749562,42.824999 21.640566,41.733227 C 23.566023,40.621565 23.963133,37.493307 23.15264,35.402331 z"
             id="path4667"
             sodipodi:nodetypes="ccczsszssccszc" />
        </g>
        <g
           id="g3940"
           transform="matrix(0.996431,0,0,1.007807,-0.512841,-6.0774e-2)"
           inkscape:r_cx="true"
           inkscape:r_cy="true">
          <g
             id="g4657"
             inkscape:r_cx="true"
             inkscape:r_cy="true"
             transform="matrix(-0.467989,0,0,0.468861,95.32836,-51.86619)"
             style="fill:#729fcf;stroke:#3465a4;stroke-width:2.13033509;stroke-miterlimit:4;stroke-dasharray:none">
            <path
               id="path4659"
               d="M 148.52832,163.19141 C 148.26758,162.52539 147.9209,161.76758 147.49902,160.96484 L 144.86621,162.08984 C 142.99609,159.00586 142.88281,152.55859 143.23242,150.4751 C 144.07129,145.4751 146.37012,141.0542 144.79492,135.94482 C 142.9834,130.06885 139.11816,120.90479 132.90039,118.49854 C 129.3125,117.10986 126.57715,120.23877 124.8125,122.98584 C 122.10742,127.19775 120.62207,132.30615 120.15137,137.26416 C 119.61719,142.87744 120.96777,148.62744 123.6123,153.58594 C 126.15234,158.35156 130.41406,162.3457 132.11621,167.53906 L 129.81836,168.52148 C 129.98242,169.05469 130.16016,169.57031 130.35059,170.05469 C 132.2002,174.77539 138.41797,184.19141 144.86328,181 C 151.42285,177.75 150.68164,168.68945 148.52832,163.19141 z"
               inkscape:r_cx="true"
               inkscape:r_cy="true"
               style="fill:#729fcf;stroke:#3465a4;stroke-width:2.13033509;stroke-miterlimit:4;stroke-dasharray:none" />
            <path
               id="path4661"
               d="M 148.52832,163.19141 C 148.26758,162.52539 147.9209,161.76758 147.49902,160.96484 L 144.86621,162.08984 C 142.99609,159.00586 142.88281,152.55859 143.23242,150.4751 C 144.07129,145.4751 146.37012,141.0542 144.79492,135.94482 C 142.9834,130.06885 139.11816,120.90479 132.90039,118.49854 C 129.3125,117.10986 126.57715,120.23877 124.8125,122.98584 C 122.10742,127.19775 120.62207,132.30615 120.15137,137.26416 C 119.61719,142.87744 120.96777,148.62744 123.6123,153.58594 C 126.15234,158.35156 130.41406,162.3457 132.11621,167.53906 L 129.81836,168.52148 C 129.98242,169.05469 130.16016,169.57031 130.35059,170.05469 C 132.2002,174.77539 138.41797,184.19141 144.86328,181 C 151.42285,177.75 150.68164,168.68945 148.52832,163.19141 z"
               style="fill:#729fcf;stroke:#3465a4;stroke-width:2.13033509;stroke-miterlimit:4;stroke-dasharray:none"
               inkscape:r_cx="true"
               inkscape:r_cy="true" />
          </g>
          <path
             sodipodi:nodetypes="ccczsszssccszc"
             id="path4705"
             d="M 26.470988,25.768001 C 26.569128,25.514705 26.699616,25.2265 26.858408,24.921208 L 28.070348,25.614225 C 28.774246,24.441347 29.53525,21.041697 29.310292,19.02021 C 29.086625,17.010326 27.95251,14.023106 28.545402,12.079942 C 29.227244,9.8452351 31.124032,5.5645281 33.46435,4.6494001 C 34.814803,4.1212671 35.75577,5.7839841 36.817926,7.7701921 C 37.814475,9.6337151 38.262589,12.021934 38.218786,13.774947 C 38.165224,15.918529 37.469557,17.963968 36.474177,19.84975 C 35.518126,21.662177 33.023885,25.26959 32.38321,27.244692 L 33.33649,27.662514 C 33.274739,27.865301 33.119451,28.017203 33.047775,28.201419 C 32.351596,29.996762 29.874066,33.190669 27.983062,32.098897 C 26.057605,30.987235 25.660495,27.858977 26.470988,25.768001 z"
             style="opacity:0.53846154;fill:none;fill-opacity:1;stroke:url(#linearGradient3470);stroke-width:0.99790192;stroke-miterlimit:4;stroke-dasharray:none;stroke-opacity:1"
             inkscape:r_cx="true"
             inkscape:r_cy="true" />
        </g>
      </g>
      <path
         transform="matrix(0.5702508,0,0,0.2914888,21.731934,10.139858)"
         d="M 40.875,36.75 A 15.75,9.375 0 1 1 9.375,36.75 A 15.75,9.375 0 1 1 40.875,36.75 z"
         sodipodi:ry="9.375"
         sodipodi:rx="15.75"
         sodipodi:cy="36.75"
         sodipodi:cx="25.125"
         id="path21642"
         style="opacity:0.63068183;fill:url(#radialGradient3472);fill-opacity:1;fill-rule:evenodd;stroke:none;stroke-width:1;stroke-linecap:round;stroke-linejoin:round;marker:none;marker-start:none;marker-mid:none;marker-end:none;stroke-miterlimit:4;stroke-dasharray:none;stroke-dashoffset:0;stroke-opacity:1;visibility:visible;display:inline;overflow:visible"
         sodipodi:type="arc" />
      <path
         transform="matrix(0.4559089,0,0,0.4560245,24.922998,1.0594495)"
         d="M 45.785164,23.825787 A 21.876116,21.876116 0 1 1 2.0329323,23.825787 A 21.876116,21.876116 0 1 1 45.785164,23.825787 z"
         sodipodi:ry="21.876116"
         sodipodi:rx="21.876116"
         sodipodi:cy="23.825787"
         sodipodi:cx="23.909048"
         id="path2093"
         style="fill:url(#radialGradient3474);fill-opacity:1;stroke:#204a87"
         sodipodi:type="arc" />
      <path
         sodipodi:type="arc"
         style="opacity:0.96022728;fill:none;fill-opacity:1;stroke:#ffffff;stroke-width:3.03077435;stroke-miterlimit:4;stroke-dasharray:none;stroke-opacity:1"
         id="path2209"
         sodipodi:cx="23.909048"
         sodipodi:cy="23.825787"
         sodipodi:rx="21.876116"
         sodipodi:ry="21.876116"
         d="M 45.785164,23.825787 A 21.876116,21.876116 0 1 1 2.0329323,23.825787 A 21.876116,21.876116 0 1 1 45.785164,23.825787 z"
         transform="matrix(0.4154216,0,0,0.415475,25.890358,2.0267614)" />
      <path
         transform="matrix(0.4128915,0,0,0.4057549,44.436102,4.4185768)"
         d="M -20.25,5.875 C -21.309019,5.8750263 -22.397637,5.9982356 -23.53125,6.21875 C -24.664175,6.4391783 -25.911412,6.7562625 -27.28125,7.21875 C -27.291632,7.21754 -27.302118,7.21754 -27.3125,7.21875 C -27.324563,7.2273788 -27.335121,7.237937 -27.34375,7.25 C -27.355813,7.2586288 -27.366371,7.269187 -27.375,7.28125 C -27.37621,7.2916315 -27.37621,7.3021185 -27.375,7.3125 C -27.37621,7.3228815 -27.37621,7.3333685 -27.375,7.34375 L -27.375,12.5 C -27.37621,12.510382 -27.37621,12.520868 -27.375,12.53125 C -27.37621,12.541632 -27.37621,12.552118 -27.375,12.5625 C -27.366371,12.574563 -27.355813,12.585121 -27.34375,12.59375 C -27.335121,12.605813 -27.324563,12.616371 -27.3125,12.625 C -27.302118,12.62621 -27.291632,12.62621 -27.28125,12.625 C -27.270868,12.62621 -27.260382,12.62621 -27.25,12.625 C -27.239618,12.62621 -27.229132,12.62621 -27.21875,12.625 C -27.208368,12.62621 -27.197882,12.62621 -27.1875,12.625 C -26.045062,11.905957 -24.954148,11.357862 -23.90625,11 C -22.858109,10.631244 -21.863134,10.437521 -20.96875,10.4375 C -20.019532,10.437521 -19.323825,10.648045 -18.8125,11.0625 C -18.303777,11.46459 -18.031262,12.04554 -18.03125,12.78125 C -18.03126,13.261907 -18.175438,13.73266 -18.46875,14.21875 C -18.751741,14.705766 -19.209015,15.249245 -19.84375,15.8125 L -20.9375,16.75 C -22.138959,17.83049 -22.926743,18.741022 -23.3125,19.46875 C -23.695613,20.180196 -23.875005,20.988074 -23.875,21.90625 L -23.875,22.71875 C -23.87621,22.729132 -23.87621,22.739618 -23.875,22.75 C -23.87621,22.760382 -23.87621,22.770868 -23.875,22.78125 C -23.866371,22.793313 -23.855813,22.803871 -23.84375,22.8125 C -23.835121,22.824563 -23.824563,22.835121 -23.8125,22.84375 C -23.802118,22.84496 -23.791632,22.84496 -23.78125,22.84375 C -23.770868,22.84496 -23.760382,22.84496 -23.75,22.84375 L -17.65625,22.84375 C -17.645868,22.84496 -17.635382,22.84496 -17.625,22.84375 C -17.614618,22.84496 -17.604132,22.84496 -17.59375,22.84375 C -17.581687,22.835121 -17.571129,22.824563 -17.5625,22.8125 C -17.550437,22.803871 -17.539879,22.793313 -17.53125,22.78125 C -17.53004,22.770868 -17.53004,22.760382 -17.53125,22.75 C -17.53004,22.739618 -17.53004,22.729132 -17.53125,22.71875 L -17.53125,21.96875 C -17.531261,21.500554 -17.38288,21.075901 -17.15625,20.6875 C -16.933955,20.296216 -16.448177,19.737141 -15.6875,19.0625 L -14.625,18.125 C -13.558412,17.14269 -12.794341,16.240346 -12.34375,15.375 C -11.894481,14.500954 -11.656268,13.50158 -11.65625,12.40625 C -11.656268,10.279985 -12.400019,8.6722224 -13.875,7.5625 C -15.350197,6.4414748 -17.48124,5.8750263 -20.25,5.875 z M -23.8125,25.03125 C -23.824563,25.039879 -23.835121,25.050437 -23.84375,25.0625 C -23.855813,25.071129 -23.866371,25.081687 -23.875,25.09375 C -23.87621,25.104132 -23.87621,25.114618 -23.875,25.125 C -23.87621,25.135382 -23.87621,25.145868 -23.875,25.15625 L -23.875,31 C -23.87621,31.010382 -23.87621,31.020868 -23.875,31.03125 C -23.87621,31.041632 -23.87621,31.052118 -23.875,31.0625 C -23.866371,31.074563 -23.855813,31.085121 -23.84375,31.09375 C -23.835121,31.105813 -23.824563,31.116371 -23.8125,31.125 C -23.802118,31.12621 -23.791632,31.12621 -23.78125,31.125 C -23.770868,31.12621 -23.760382,31.12621 -23.75,31.125 L -17.65625,31.125 C -17.645868,31.12621 -17.635382,31.12621 -17.625,31.125 C -17.614618,31.12621 -17.604132,31.12621 -17.59375,31.125 C -17.581687,31.116371 -17.571129,31.105813 -17.5625,31.09375 C -17.550437,31.085121 -17.539879,31.074563 -17.53125,31.0625 C -17.53004,31.052118 -17.53004,31.041632 -17.53125,31.03125 C -17.53004,31.020868 -17.53004,31.010382 -17.53125,31 L -17.53125,25.15625 C -17.53004,25.145868 -17.53004,25.135382 -17.53125,25.125 C -17.53004,25.114618 -17.53004,25.104132 -17.53125,25.09375 C -17.539879,25.081687 -17.550437,25.071129 -17.5625,25.0625 C -17.571129,25.050437 -17.581687,25.039879 -17.59375,25.03125 C -17.604132,25.03004 -17.614618,25.03004 -17.625,25.03125 C -17.635382,25.03004 -17.645868,25.03004 -17.65625,25.03125 L -23.75,25.03125 C -23.760382,25.03004 -23.770868,25.03004 -23.78125,25.03125 C -23.791632,25.03004 -23.802118,25.03004 -23.8125,25.03125 z"
         id="path1554"
         style="font-size:34.15322876px;font-style:normal;font-variant:normal;font-weight:bold;font-stretch:normal;text-align:start;line-height:125%;writing-mode:lr-tb;text-anchor:start;fill:url(#radialGradient3476);fill-opacity:1;stroke:#ffffff;stroke-width:1.09947276px;stroke-linecap:butt;stroke-linejoin:miter;stroke-opacity:0.78612713;font-family:Bitstream Vera Sans"
         xlink:href="#text2215"
         inkscape:original="M -20.25 6 C -21.298341 6.000026 -22.372769 6.1244771 -23.5 6.34375 C -24.627244 6.563073 -25.886043 6.8832479 -27.25 7.34375 L -27.25 12.5 C -26.100219 11.776335 -24.997109 11.236862 -23.9375 10.875 C -22.877902 10.502213 -21.881822 10.312521 -20.96875 10.3125 C -19.999334 10.312521 -19.259834 10.530174 -18.71875 10.96875 C -18.177686 11.396402 -17.906262 12.013726 -17.90625 12.78125 C -17.906261 13.285654 -18.039408 13.776881 -18.34375 14.28125 C -18.636843 14.785651 -19.107484 15.33609 -19.75 15.90625 L -20.84375 16.84375 C -22.038631 17.918325 -22.815518 18.829509 -23.1875 19.53125 C -23.559495 20.22205 -23.750005 21.007137 -23.75 21.90625 L -23.75 22.71875 L -17.65625 22.71875 L -17.65625 21.96875 C -17.656262 21.475338 -17.517981 21.030712 -17.28125 20.625 C -17.044542 20.208345 -16.547785 19.648586 -15.78125 18.96875 L -14.71875 18.03125 C -13.659161 17.055386 -12.908389 16.156813 -12.46875 15.3125 C -12.029144 14.457253 -11.781268 13.480828 -11.78125 12.40625 C -11.781268 10.311973 -12.525902 8.7417969 -13.96875 7.65625 C -15.41163 6.559783 -17.499549 6.0000261 -20.25 6 z M -23.75 25.15625 L -23.75 31 L -17.65625 31 L -17.65625 25.15625 L -23.75 25.15625 z "
         inkscape:radius="0.13495015"
         sodipodi:type="inkscape:offset"
         inkscape:href="#text2215" />
    </g>
    <text
       xml:space="preserve"
       style="font-size:21.40934944000000000px;font-style:normal;font-variant:normal;font-weight:bold;font-stretch:normal;text-align:start;line-height:125%;writing-mode:lr-tb;text-anchor:start;fill:#ffffff;fill-opacity:1;stroke:#000000;stroke-width:1.33;stroke-linecap:butt;stroke-linejoin:miter;stroke-miterlimit:4;stroke-dasharray:none;stroke-opacity:1;font-family:Comic Sans MS;-inkscape-font-specification:Comic Sans MS Bold"
       x="0.012391953"
       y="61.118885"
       id="text3279"
       sodipodi:linespacing="125%"><tspan
         sodipodi:role="line"
         id="tspan3281"
         x="0.012391953"
         y="61.118885"
         style="stroke-width:1.33;stroke-miterlimit:4;stroke-dasharray:none">Where am I</tspan></text>
  </g>
</svg>
