<?xml version="1.0" encoding="UTF-8" standalone="no"?>
<!-- Created with Inkscape (http://www.inkscape.org/) -->
<svg
   xmlns:dc="http://purl.org/dc/elements/1.1/"
   xmlns:cc="http://creativecommons.org/ns#"
   xmlns:rdf="http://www.w3.org/1999/02/22-rdf-syntax-ns#"
   xmlns:svg="http://www.w3.org/2000/svg"
   xmlns="http://www.w3.org/2000/svg"
   xmlns:xlink="http://www.w3.org/1999/xlink"
   xmlns:sodipodi="http://sodipodi.sourceforge.net/DTD/sodipodi-0.dtd"
   xmlns:inkscape="http://www.inkscape.org/namespaces/inkscape"
   width="48px"
   height="48px"
   id="svg2160"
   sodipodi:version="0.32"
   inkscape:version="0.46"
   sodipodi:docbase="G:\Projekte\Workspace\Java\AndNav\ext\img"
   sodipodi:docname="navto.svg"
   inkscape:output_extension="org.inkscape.output.svg.inkscape"
   inkscape:export-filename="D:\Workspace\Java\AndNav2\res\drawable\navto_small.png"
   inkscape:export-xdpi="60"
   inkscape:export-ydpi="60">
  <defs
     id="defs2162">
    <inkscape:perspective
       sodipodi:type="inkscape:persp3d"
       inkscape:vp_x="0 : 24 : 1"
       inkscape:vp_y="0 : 1000 : 0"
       inkscape:vp_z="48 : 24 : 1"
       inkscape:persp3d-origin="24 : 16 : 1"
       id="perspective38" />
    <linearGradient
       id="linearGradient19083">
      <stop
         style="stop-color:#ffffff;stop-opacity:0.73737371;"
         offset="0"
         id="stop19085" />
      <stop
         style="stop-color:#89bf33;stop-opacity:0;"
         offset="1"
         id="stop19087" />
    </linearGradient>
    <linearGradient
       id="linearGradient11275">
      <stop
         style="stop-color:#2c2c2c;stop-opacity:1;"
         offset="0"
         id="stop11277" />
      <stop
         style="stop-color:#b4b4b4;stop-opacity:1;"
         offset="1"
         id="stop11279" />
    </linearGradient>
    <linearGradient
       id="linearGradient7308">
      <stop
         style="stop-color:#87ff29;stop-opacity:1;"
         offset="0"
         id="stop7310" />
      <stop
         style="stop-color:#ffffff;stop-opacity:0;"
         offset="1"
         id="stop7312" />
    </linearGradient>
    <linearGradient
       id="linearGradient3141">
      <stop
         style="stop-color:#494949;stop-opacity:1;"
         offset="0"
         id="stop3143" />
      <stop
         style="stop-color:#949494;stop-opacity:1;"
         offset="1"
         id="stop3145" />
    </linearGradient>
    <linearGradient
       inkscape:collect="always"
       xlink:href="#linearGradient7308"
       id="linearGradient7314"
       x1="-6.7842059"
       y1="28.133862"
       x2="69.101758"
       y2="28.133862"
       gradientUnits="userSpaceOnUse" />
    <linearGradient
       inkscape:collect="always"
       xlink:href="#linearGradient11275"
       id="linearGradient11281"
       x1="4.4108953"
       y1="45.798565"
       x2="47.068836"
       y2="0.4151167"
       gradientUnits="userSpaceOnUse" />
    <radialGradient
       inkscape:collect="always"
       xlink:href="#linearGradient7308"
       id="radialGradient19089"
       cx="24"
       cy="23.739962"
       fx="24"
       fy="23.739962"
       r="24.799999"
       gradientUnits="userSpaceOnUse"
       gradientTransform="matrix(0.9677417,-0.967742,0.967742,0.9677418,-22.199958,24.25165)" />
    <radialGradient
       gradientTransform="matrix(3.4159184,0.4951629,-8.5905963e-2,2.1283235,36.93989,-342.00914)"
       gradientUnits="userSpaceOnUse"
       r="204.03581"
       fy="305.06235"
       fx="-4.4427061"
       cy="305.06235"
       cx="-4.4427061"
       id="radialGradient4562"
       xlink:href="#linearGradient4556"
       inkscape:collect="always" />
    <linearGradient
       id="linearGradient3151">
      <stop
         id="stop3153"
         offset="0"
         style="stop-color:#ffffff;stop-opacity:1;" />
      <stop
         id="stop3155"
         offset="1"
         style="stop-color:#ffffff;stop-opacity:0;" />
    </linearGradient>
    <linearGradient
       y2="609.50507"
       x2="302.85715"
       y1="366.64789"
       x1="302.85715"
       gradientTransform="matrix(2.774389,0,0,1.969706,-1892.179,-872.8854)"
       gradientUnits="userSpaceOnUse"
       id="linearGradient6715"
       xlink:href="#linearGradient5048"
       inkscape:collect="always" />
    <linearGradient
       id="linearGradient5048">
      <stop
         id="stop5050"
         offset="0"
         style="stop-color:black;stop-opacity:0;" />
      <stop
         style="stop-color:black;stop-opacity:1;"
         offset="0.5"
         id="stop5056" />
      <stop
         id="stop5052"
         offset="1"
         style="stop-color:black;stop-opacity:0;" />
    </linearGradient>
    <radialGradient
       r="117.14286"
       fy="486.64789"
       fx="605.71429"
       cy="486.64789"
       cx="605.71429"
       gradientTransform="matrix(2.774389,0,0,1.969706,-1891.633,-872.8854)"
       gradientUnits="userSpaceOnUse"
       id="radialGradient6717"
       xlink:href="#linearGradient5060"
       inkscape:collect="always" />
    <linearGradient
       id="linearGradient5060"
       inkscape:collect="always">
      <stop
         id="stop5062"
         offset="0"
         style="stop-color:black;stop-opacity:1;" />
      <stop
         id="stop5064"
         offset="1"
         style="stop-color:black;stop-opacity:0;" />
    </linearGradient>
    <radialGradient
       r="117.14286"
       fy="486.64789"
       fx="605.71429"
       cy="486.64789"
       cx="605.71429"
       gradientTransform="matrix(-2.774389,0,0,1.969706,112.7623,-872.8854)"
       gradientUnits="userSpaceOnUse"
       id="radialGradient6719"
       xlink:href="#linearGradient5060"
       inkscape:collect="always" />
    <linearGradient
       id="linearGradient4556">
      <stop
         id="stop4558"
         offset="0"
         style="stop-color:#ffd712;stop-opacity:1;" />
      <stop
         id="stop4560"
         offset="1"
         style="stop-color:#ffe012;stop-opacity:0;" />
    </linearGradient>
    <inkscape:perspective
       id="perspective31"
       inkscape:persp3d-origin="24 : 16 : 1"
       inkscape:vp_z="48 : 24 : 1"
       inkscape:vp_y="0 : 1000 : 0"
       inkscape:vp_x="0 : 24 : 1"
       sodipodi:type="inkscape:persp3d" />
  </defs>
  <sodipodi:namedview
     id="base"
     pagecolor="#ffffff"
     bordercolor="#666666"
     borderopacity="1.0"
     inkscape:pageopacity="0.0"
     inkscape:pageshadow="2"
     inkscape:zoom="5.6568543"
     inkscape:cx="53.183428"
     inkscape:cy="6.0936115"
     inkscape:current-layer="layer1"
     showgrid="true"
     inkscape:grid-bbox="true"
     inkscape:document-units="px"
     inkscape:window-width="1264"
     inkscape:window-height="750"
     inkscape:window-x="0"
     inkscape:window-y="14" />
  <metadata
     id="metadata2165">
    <rdf:RDF>
      <cc:Work
         rdf:about="">
        <dc:format>image/svg+xml</dc:format>
        <dc:type
           rdf:resource="http://purl.org/dc/dcmitype/StillImage" />
      </cc:Work>
    </rdf:RDF>
  </metadata>
  <g
     id="layer1"
     inkscape:label="Layer 1"
     inkscape:groupmode="layer">
    <g
       id="g8342" />
    <path
       style="fill:url(#linearGradient11281);fill-rule:evenodd;stroke:#000000;stroke-width:1px;stroke-linecap:butt;stroke-linejoin:miter;stroke-opacity:1;fill-opacity:1.0"
       d="M 0,48 C 0,48 13.674304,25.646959 16.256758,20.22804 C 18.905163,14.670732 15.24071,0.57702229 15.24071,0.57702229 L 27.941301,0.58445776 C 27.941301,0.58445776 29.507708,11.769846 31.497467,15.486485 C 36.630527,14.886716 47.923566,10.878801 47.923566,10.878801 L 48.092907,25.477617 C 48.092907,25.477617 33.868244,26.62067 30.48142,29.203124 C 26.92484,31.915016 22.691724,47.830659 22.691724,47.830659 L 0,48 z "
       id="path10296"
       sodipodi:nodetypes="czccccczcc" />
    <path
       style="fill:none;fill-rule:evenodd;stroke:#d7d7d7;stroke-width:1.75399997;stroke-linecap:butt;stroke-linejoin:round;stroke-miterlimit:4;stroke-dasharray:3.50799994,3.50799994;stroke-dashoffset:3.50799986;stroke-opacity:1"
       d="M 10.475227,49.023 C 10.475227,49.023 22.632586,28.907972 24.477477,24.264568 C 24.051733,11.941691 21.260744,1.3388223 21.260744,1.3388223"
       id="path11291"
       sodipodi:nodetypes="ccc" />
    <path
       style="fill:none;fill-rule:evenodd;stroke:#dcdcdc;stroke-width:1.8;stroke-linecap:butt;stroke-linejoin:miter;stroke-opacity:1;stroke-miterlimit:4;stroke-dasharray:3.6,3.6;stroke-dashoffset:3.59999979"
       d="M 25,23.445523 L 46.399495,18"
       id="path11293" />
    <g
       id="g3420"
       transform="matrix(1.177295,0,0,1.1958111,-9.6651137,-8.3838461)">
      <g
         id="g3629"
         inkscape:label="Layer 1"
         transform="matrix(2.045576,0,0,2.045576,155.67325,-7.7666572)">
        <path
           sodipodi:type="inkscape:offset"
           inkscape:radius="0.1935069"
           inkscape:original="M -69.9375 11.40625 C -70.350753 11.406265 -70.712563 11.552923 -71.03125 11.84375 C -71.352213 12.13668 -71.500001 12.499319 -71.5 12.875 C -71.500001 13.237319 -71.478357 13.7537 -71.40625 14.46875 C -71.334548 15.179813 -71.3125 15.736918 -71.3125 16.09375 C -71.312501 16.472893 -71.299231 17.020179 -71.28125 17.78125 C -71.263274 18.542329 -71.250004 19.124034 -71.25 19.5 C -71.250001 19.852662 -71.257298 20.387278 -71.28125 21.09375 C -71.305245 21.801601 -71.312505 22.332994 -71.3125 22.6875 C -71.312501 22.922801 -71.336092 23.296381 -71.375 23.78125 C -71.413981 24.267 -71.437499 24.599619 -71.4375 24.84375 C -71.437501 25.199834 -71.339313 25.52939 -71.09375 25.78125 C -70.816485 26.064818 -70.420277 26.187498 -69.96875 26.1875 C -69.514112 26.187499 -69.157571 25.958989 -68.9375 25.5 C -68.717429 25.041011 -68.625002 24.358024 -68.625 23.46875 C -68.625003 22.994337 -68.635273 22.296864 -68.65625 21.34375 C -68.677224 20.391124 -68.687502 19.691219 -68.6875 19.21875 C -68.687504 18.891381 -68.657402 17.91556 -68.625 16.53125 C -65.774086 20.205563 -63.184092 23.103242 -60.90625 25.15625 C -60.37093 25.636832 -59.879964 25.843748 -59.4375 25.84375 C -59.048542 25.843749 -58.733244 25.736423 -58.5 25.53125 C -58.266756 25.326077 -58.124082 25.022157 -58.0625 24.625 C -57.960117 23.974474 -57.937515 23.521865 -57.9375 23.21875 C -57.937514 22.477242 -57.910974 20.575709 -57.875 17.53125 C -57.869019 17.091108 -57.850057 16.764209 -57.84375 16.53125 C -57.837443 16.298291 -57.84376 16.164498 -57.84375 16.125 C -57.843758 14.614121 -57.969613 13.487267 -58.21875 12.71875 C -58.343319 12.334491 -58.493614 12.043787 -58.6875 11.84375 C -58.881386 11.643713 -59.113332 11.531254 -59.375 11.53125 C -59.82336 11.531257 -60.171349 11.650441 -60.40625 11.875 C -60.641151 12.099559 -60.750005 12.418348 -60.75 12.84375 C -60.750011 13.089826 -60.716347 13.391926 -60.65625 13.8125 C -60.590712 14.283281 -60.57461 14.605834 -60.5625 14.78125 C -60.502793 15.808423 -60.468761 17.827271 -60.46875 20.78125 C -60.468761 21.417111 -60.465789 21.751964 -60.46875 21.96875 C -63.081702 19.534559 -65.721013 16.42644 -68.40625 12.59375 C -68.950406 11.819858 -69.454562 11.406265 -69.9375 11.40625 z M -33.0625 11.5625 C -33.459493 11.562515 -33.814358 11.745856 -34.09375 12.0625 C -34.509096 12.532819 -34.863599 13.176473 -35.21875 14.03125 C -35.47586 14.748755 -35.767117 15.473133 -36.03125 16.1875 C -36.513493 17.494774 -37.197374 19.25621 -38.0625 21.4375 C -38.480074 20.16641 -38.897196 18.699891 -39.34375 17.0625 C -39.711903 15.779925 -40.021027 14.833929 -40.21875 14.1875 C -40.221075 14.177504 -40.216437 14.166231 -40.21875 14.15625 C -40.335497 13.652499 -40.444801 13.168269 -40.5625 12.65625 C -40.560055 12.645977 -40.560055 12.635273 -40.5625 12.625 C -40.7972 12.007389 -41.244436 11.687515 -41.84375 11.6875 C -42.192321 11.687515 -42.48658 11.774224 -42.75 12 C -43.027201 12.245713 -43.156249 12.569772 -43.15625 12.9375 C -43.15625 13.391896 -42.992564 14.183461 -42.65625 15.3125 C -42.404584 16.121438 -42.151907 16.941148 -41.90625 17.75 C -41.012971 21.035365 -40.233403 23.53191 -39.5 25.28125 C -39.246495 25.887199 -38.771285 26.218749 -38.125 26.21875 C -37.610586 26.218749 -37.203657 25.951534 -36.9375 25.46875 C -36.535136 24.742079 -36.183581 24.041983 -35.90625 23.3125 C -34.839483 20.543682 -34.039197 18.446427 -33.5 17.0625 C -33.284214 16.481067 -33.108645 16.047035 -33 15.75 C -32.945677 15.601482 -32.903332 15.483416 -32.875 15.40625 C -32.860834 15.367667 -32.851446 15.333026 -32.84375 15.3125 C -32.836054 15.291974 -32.838142 15.27004 -32.84375 15.28125 C -32.575238 14.62487 -32.288433 14.055509 -31.96875 13.59375 C -31.800909 13.351307 -31.718762 13.100023 -31.71875 12.84375 C -31.718763 12.486722 -31.856329 12.18433 -32.125 11.9375 C -32.392722 11.691594 -32.702708 11.562515 -33.0625 11.5625 z M -48.75 12.0625 C -48.873613 12.062505 -48.994629 12.135236 -49.15625 12.28125 C -49.317871 12.427264 -49.520338 12.65209 -49.75 12.9375 C -50.209325 13.50832 -50.812801 14.363455 -51.5625 15.5 C -52.597429 17.070237 -53.528653 18.598055 -54.375 20.0625 C -54.385655 20.065593 -54.395775 20.059351 -54.40625 20.0625 C -54.410615 20.070056 -54.40189 20.086197 -54.40625 20.09375 C -54.670101 20.173996 -54.882811 20.257445 -55.03125 20.375 C -55.187501 20.498742 -55.267499 20.647484 -55.28125 20.8125 C -55.292648 20.966351 -55.255342 21.11088 -55.1875 21.28125 C -55.183731 21.290715 -55.191576 21.302912 -55.1875 21.3125 C -55.618329 22.183899 -55.938928 22.887612 -56.15625 23.40625 C -56.266091 23.668386 -56.35064 23.890477 -56.40625 24.0625 C -56.46186 24.234523 -56.5 24.344993 -56.5 24.4375 C -56.500001 24.803537 -56.337464 25.109406 -56.0625 25.34375 C -55.787707 25.577949 -55.470854 25.6875 -55.125 25.6875 C -54.635929 25.6875 -54.241355 25.446076 -53.96875 25 C -53.292425 23.688872 -52.809714 22.725045 -52.53125 22.0625 C -52.036524 21.97824 -51.351713 21.9074 -50.4375 21.84375 C -49.464283 21.78003 -48.762363 21.690291 -48.3125 21.625 C -48.085765 22.538587 -47.816489 23.357893 -47.5 24.0625 C -47.25858 24.614761 -47.028672 25.02959 -46.78125 25.3125 C -46.533828 25.59541 -46.261523 25.740069 -46 25.75 C -45.656631 25.762486 -45.366169 25.681724 -45.09375 25.4375 C -44.821451 25.193357 -44.656265 24.866422 -44.65625 24.5 C -44.656263 24.219967 -44.783342 23.830108 -45 23.3125 C -45.262845 22.691263 -45.397569 22.28478 -45.4375 22.125 C -45.964795 19.902027 -46.415846 17.943989 -46.78125 16.21875 C -47.038914 14.936484 -47.223992 13.984525 -47.34375 13.34375 C -47.341305 13.333477 -47.341305 13.322773 -47.34375 13.3125 C -47.457049 12.905262 -47.637117 12.591011 -47.875 12.375 C -48.112883 12.158989 -48.406008 12.062507 -48.75 12.0625 z M -49.375 16.65625 C -49.149867 17.774012 -48.946503 18.714168 -48.8125 19.4375 C -48.995308 19.45978 -49.392657 19.491343 -50.03125 19.53125 C -50.530971 19.562817 -50.885412 19.603393 -51.15625 19.65625 C -50.416062 18.408208 -49.819094 17.41736 -49.375 16.65625 z "
           style="font-size:18.4101963px;font-style:normal;font-variant:normal;font-weight:bold;font-stretch:normal;text-align:start;line-height:125%;writing-mode:lr-tb;text-anchor:start;fill:#ffffff;fill-opacity:1;stroke:#000000;stroke-width:1.08393395;stroke-linecap:butt;stroke-linejoin:miter;stroke-miterlimit:4;stroke-opacity:1;font-family:Comic Sans MS;-inkscape-font-specification:Comic Sans MS Bold"
           id="path3647"
           d="M -69.9375,11.21875 C -70.396531,11.218767 -70.807623,11.36935 -71.15625,11.6875 C -71.514102,12.014097 -71.687501,12.44857 -71.6875,12.875 C -71.687501,13.245026 -71.666402,13.779543 -71.59375,14.5 C -71.522663,15.204964 -71.5,15.744889 -71.5,16.09375 C -71.500001,16.477409 -71.48673,17.020237 -71.46875,17.78125 C -71.450776,18.54225 -71.437504,19.128585 -71.4375,19.5 C -71.437501,19.849993 -71.444865,20.389252 -71.46875,21.09375 C -71.492811,21.803557 -71.500005,22.330349 -71.5,22.6875 C -71.500001,22.909868 -71.523727,23.298064 -71.5625,23.78125 C -71.601548,24.267835 -71.624999,24.587192 -71.625,24.84375 C -71.625001,25.235407 -71.505215,25.612439 -71.21875,25.90625 C -70.896566,26.235758 -70.455327,26.374998 -69.96875,26.375 C -69.449272,26.374999 -68.994473,26.103632 -68.75,25.59375 C -68.506706,25.086327 -68.437502,24.371432 -68.4375,23.46875 C -68.437503,22.991546 -68.447758,22.297551 -68.46875,21.34375 C -68.489709,20.391818 -68.500002,19.688412 -68.5,19.21875 C -68.500003,18.965581 -68.461891,18.037953 -68.4375,17.0625 C -65.715912,20.536393 -63.230757,23.330095 -61.03125,25.3125 C -60.47271,25.813928 -59.940292,26.031248 -59.4375,26.03125 C -59.012946,26.031249 -58.648051,25.927689 -58.375,25.6875 C -58.099985,25.445583 -57.941226,25.083357 -57.875,24.65625 C -57.771154,23.996427 -57.750015,23.531475 -57.75,23.21875 C -57.750014,22.481866 -57.723476,20.575881 -57.6875,17.53125 C -57.681577,17.095363 -57.662708,16.769802 -57.65625,16.53125 C -57.649794,16.292793 -57.656255,16.143755 -57.65625,16.125 C -57.656258,14.603376 -57.770897,13.459366 -58.03125,12.65625 C -58.16107,12.255792 -58.338188,11.950178 -58.5625,11.71875 C -58.784839,11.489358 -59.05789,11.343755 -59.375,11.34375 C -59.857651,11.343758 -60.252069,11.48311 -60.53125,11.75 C -60.810689,12.017136 -60.937505,12.385337 -60.9375,12.84375 C -60.937512,13.107481 -60.904251,13.420348 -60.84375,13.84375 C -60.779279,14.306863 -60.762421,14.601332 -60.75,14.78125 C -60.690898,15.798012 -60.656261,17.828757 -60.65625,20.78125 C -60.656257,21.166479 -60.656453,21.295696 -60.65625,21.5 C -63.154205,19.122846 -65.678779,16.138703 -68.25,12.46875 C -68.807844,11.675391 -69.344085,11.218768 -69.9375,11.21875 z M -33.0625,11.375 C -33.519066,11.375017 -33.941343,11.587689 -34.25,11.9375 C -34.687168,12.432529 -35.046799,13.103624 -35.40625,13.96875 C -35.661657,14.681502 -35.953327,15.407143 -36.21875,16.125 C -36.648374,17.289634 -37.294047,18.946459 -38.03125,20.8125 C -38.39432,19.665144 -38.767165,18.426666 -39.15625,17 C -39.518023,15.739653 -39.83409,14.829644 -40.03125,14.1875 C -40.030962,14.184863 -40.031615,14.169623 -40.03125,14.15625 C -40.030885,14.142877 -40.025652,14.149155 -40.03125,14.125 C -40.143221,13.641855 -40.262482,13.177613 -40.375,12.6875 C -40.368697,12.661015 -40.372899,12.651981 -40.375,12.625 C -40.376051,12.611509 -40.371848,12.606992 -40.375,12.59375 C -40.374158,12.58335 -40.374158,12.5729 -40.375,12.5625 C -40.630816,11.889323 -41.175584,11.500017 -41.84375,11.5 C -42.224407,11.500016 -42.576103,11.587567 -42.875,11.84375 C -43.193092,12.125709 -43.343749,12.5245 -43.34375,12.9375 C -43.34375,13.438367 -43.182224,14.238709 -42.84375,15.375 C -42.592185,16.183613 -42.339249,17.004168 -42.09375,17.8125 C -41.199504,21.10142 -40.42738,23.57896 -39.6875,25.34375 C -39.410464,26.005944 -38.837465,26.406249 -38.125,26.40625 C -37.543574,26.406249 -37.073092,26.091875 -36.78125,25.5625 C -36.37651,24.831539 -36.00077,24.116816 -35.71875,23.375 C -34.65187,20.605889 -33.851202,18.507658 -33.3125,17.125 C -33.097697,16.546216 -32.923358,16.115584 -32.8125,15.8125 C -32.757956,15.663378 -32.715322,15.544528 -32.6875,15.46875 C -32.669952,15.420955 -32.656981,15.37695 -32.65625,15.375 C -32.651643,15.362712 -32.658974,15.354366 -32.65625,15.34375 C -32.391173,14.695768 -32.12064,14.163837 -31.8125,13.71875 C -31.62586,13.449153 -31.531264,13.141369 -31.53125,12.84375 C -31.531265,12.437019 -31.697579,12.059086 -32,11.78125 C -32.297682,11.507826 -32.656431,11.375017 -33.0625,11.375 z M -48.75,11.875 C -48.949511,11.875008 -49.107694,11.968203 -49.28125,12.125 C -49.456538,12.283362 -49.672881,12.522483 -49.90625,12.8125 C -50.372853,13.392365 -50.967335,14.267103 -51.71875,15.40625 C -52.734274,16.947044 -53.635106,18.435999 -54.46875,19.875 C -54.469592,19.8854 -54.469592,19.89585 -54.46875,19.90625 C -54.47915,19.905408 -54.4896,19.905408 -54.5,19.90625 C -54.511576,19.915439 -54.522061,19.925924 -54.53125,19.9375 C -54.541217,19.940658 -54.552646,19.934314 -54.5625,19.9375 C -54.563342,19.9479 -54.563342,19.95835 -54.5625,19.96875 C -54.784375,20.041192 -54.99932,20.09447 -55.15625,20.21875 C -55.346466,20.36939 -55.45064,20.56393 -55.46875,20.78125 C -55.469592,20.79165 -55.469592,20.8021 -55.46875,20.8125 C -55.480505,20.971166 -55.457593,21.101225 -55.40625,21.25 C -55.827022,22.102975 -56.128214,22.829374 -56.34375,23.34375 C -56.454968,23.609173 -56.535476,23.819738 -56.59375,24 C -56.648853,24.170454 -56.6875,24.291805 -56.6875,24.4375 C -56.687501,24.860821 -56.497077,25.236156 -56.1875,25.5 C -55.87949,25.762509 -55.511717,25.875 -55.125,25.875 C -54.572247,25.875 -54.112229,25.58421 -53.8125,25.09375 C -53.8021,25.094592 -53.79165,25.094592 -53.78125,25.09375 C -53.133085,23.837213 -52.693915,22.919472 -52.40625,22.25 C -51.927695,22.172374 -51.307521,22.091823 -50.4375,22.03125 C -49.530159,21.971843 -48.892098,21.907805 -48.4375,21.84375 C -48.219341,22.686672 -47.986816,23.489876 -47.6875,24.15625 C -47.442265,24.717238 -47.207525,25.128745 -46.9375,25.4375 C -46.66528,25.748765 -46.327637,25.925058 -46,25.9375 C -45.622388,25.951231 -45.276286,25.869456 -44.96875,25.59375 C -44.661482,25.318254 -44.468767,24.924574 -44.46875,24.5 C -44.468766,24.161433 -44.592885,23.774671 -44.8125,23.25 C -45.072788,22.634807 -45.216175,22.197848 -45.25,22.0625 C -45.777125,19.840243 -46.228885,17.910195 -46.59375,16.1875 C -46.845903,14.932658 -47.03658,14.013736 -47.15625,13.375 C -47.149947,13.348515 -47.154149,13.339481 -47.15625,13.3125 C -47.157301,13.299009 -47.153098,13.294492 -47.15625,13.28125 C -47.155408,13.27085 -47.155408,13.2604 -47.15625,13.25 C -47.27685,12.816521 -47.478948,12.46488 -47.75,12.21875 C -48.025222,11.968833 -48.369827,11.875008 -48.75,11.875 z M -49.46875,17.15625 C -49.305446,17.953648 -49.13959,18.682641 -49.03125,19.25 C -49.236056,19.270471 -49.494003,19.310176 -50.03125,19.34375 C -50.372486,19.365306 -50.581788,19.405967 -50.8125,19.4375 C -50.273827,18.531367 -49.837977,17.782977 -49.46875,17.15625 z"
           transform="matrix(0.4832038,0,0,0.4832038,-37.185456,13.827657)" />
      </g>
    </g>
  </g>
</svg>
