<?xml version="1.0" encoding="UTF-8" standalone="no"?>
<!-- Created with Inkscape (http://www.inkscape.org/) -->
<svg
   xmlns:dc="http://purl.org/dc/elements/1.1/"
   xmlns:cc="http://creativecommons.org/ns#"
   xmlns:rdf="http://www.w3.org/1999/02/22-rdf-syntax-ns#"
   xmlns:svg="http://www.w3.org/2000/svg"
   xmlns="http://www.w3.org/2000/svg"
   xmlns:sodipodi="http://sodipodi.sourceforge.net/DTD/sodipodi-0.dtd"
   xmlns:inkscape="http://www.inkscape.org/namespaces/inkscape"
   version="1.0"
   width="600"
   height="160"
   id="svg2268"
   sodipodi:version="0.32"
   inkscape:version="0.46"
   sodipodi:docname="paypal.svg"
   inkscape:output_extension="org.inkscape.output.svg.inkscape"
   inkscape:export-filename="D:\Workspace\Java\AndNav2\res\drawable\paypal.png"
   inkscape:export-xdpi="45"
   inkscape:export-ydpi="45">
  <metadata
     id="metadata15">
    <rdf:RDF>
      <cc:Work
         rdf:about="">
        <dc:format>image/svg+xml</dc:format>
        <dc:type
           rdf:resource="http://purl.org/dc/dcmitype/StillImage" />
      </cc:Work>
    </rdf:RDF>
  </metadata>
  <sodipodi:namedview
     inkscape:window-height="669"
     inkscape:window-width="715"
     inkscape:pageshadow="2"
     inkscape:pageopacity="0.0"
     guidetolerance="10.0"
     gridtolerance="10.0"
     objecttolerance="10.0"
     borderopacity="1.0"
     bordercolor="#666666"
     pagecolor="#ffffff"
     id="base"
     showgrid="false"
     inkscape:zoom="0.35355339"
     inkscape:cx="592.35462"
     inkscape:cy="-310.90592"
     inkscape:window-x="18"
     inkscape:window-y="-9"
     inkscape:current-layer="svg2268" />
  <defs
     id="defs2270">
    <inkscape:perspective
       sodipodi:type="inkscape:persp3d"
       inkscape:vp_x="0 : 80 : 1"
       inkscape:vp_y="0 : 1000 : 0"
       inkscape:vp_z="600 : 80 : 1"
       inkscape:persp3d-origin="300 : 53.333333 : 1"
       id="perspective17" />
  </defs>
  <path
     d="M 462.61909,26.187167 L 461.2623,26.277796 L 459.9055,26.277796 L 458.63916,26.368423 L 456.01602,26.54968 L 453.48334,26.821564 L 451.0411,27.184077 L 448.59886,27.54659 L 446.33755,27.909103 L 444.07622,28.452871 L 441.90535,28.815384 L 439.73447,29.359153 L 437.74451,29.812294 L 435.75454,30.265436 L 433.85503,30.718575 L 431.95551,31.171717 L 430.23691,31.624858 L 428.42784,31.896742 L 425.71425,54.553786 C 430.20067,52.414903 444.34766,48.481698 456.10648,48.119186 C 467.82913,47.756731 474.77596,50.276194 472.38802,60.353989 C 437.50952,60.353903 413.97341,67.495635 409.16134,90.080031 C 402.25079,128.86869 444.69142,127.8175 461.62411,110.92452 L 459.54369,120.25923 L 490.65954,120.25923 L 504.13704,58.541427 C 509.6727,32.331844 485.84729,25.824655 464.06634,26.187167 L 462.61909,26.187167 z M 460.26731,81.107842 C 462.65525,81.107842 465.47744,81.107842 467.86536,81.107842 C 467.17795,83.971663 466.79803,86.491185 466.14676,89.355006 L 465.96586,90.080031 L 465.6945,90.895685 L 465.51358,91.530082 L 465.24223,92.255107 L 464.97087,92.889506 L 464.60906,93.523902 L 464.3377,94.1583 L 463.97589,94.702068 L 463.61408,95.245837 L 463.16181,95.789607 L 462.8,96.242747 L 462.34773,96.786516 L 461.89546,97.239658 L 461.35275,97.692799 L 460.81003,98.055312 L 460.35776,98.417824 L 459.81505,98.780337 L 459.18187,99.142849 L 458.63916,99.414734 L 458.09644,99.686616 L 457.46326,100.04913 L 456.83009,100.23039 L 456.19692,100.50228 L 455.56375,100.68353 L 454.84013,100.86479 L 454.20696,101.04605 L 453.48334,101.13667 L 452.85016,101.31792 L 452.12654,101.40856 L 451.40292,101.49919 L 450.6793,101.49919 L 449.86521,101.58982 C 442.95464,101.95241 436.74955,95.807674 441.27218,88.629981 C 444.70938,82.503574 454.3698,81.107842 460.26731,81.107842 z"
     style="font-style:normal;font-variant:normal;font-weight:normal;font-stretch:normal;letter-spacing:normal;word-spacing:normal;text-anchor:start;fill:#2997d8;fill-opacity:1;fill-rule:evenodd;stroke:#ffffff;stroke-width:0.98897457;stroke-linecap:butt;stroke-linejoin:miter;stroke-miterlimit:9.71822166;stroke-dasharray:none;stroke-dashoffset:0;stroke-opacity:1"
     id="path42" />
  <polygon
     points="155.71,285.86 148.61,253.18 157.34,253.18 164.53,285.86 155.71,285.86 "
     transform="matrix(3.6180957,0,0,-3.6251009,-32.701728,1038.0487)"
     style="font-style:normal;font-variant:normal;font-weight:normal;font-stretch:normal;letter-spacing:normal;word-spacing:normal;text-anchor:start;fill:#2997d8;fill-opacity:1;fill-rule:evenodd;stroke:#ffffff;stroke-width:0.27307695;stroke-linecap:butt;stroke-linejoin:miter;stroke-miterlimit:9.71822166;stroke-dasharray:none;stroke-dashoffset:0;stroke-opacity:1"
     id="polygon44" />
  <path
     d="M 327.84406,2.1707002 L 302.24585,120.25923 L 335.80392,120.25923 L 344.48742,81.107842 L 368.36702,81.107842 C 391.92085,81.107842 411.27798,66.752195 416.48803,42.318983 C 422.38552,14.695659 402.25061,2.1707002 385.64356,2.1707002 L 327.84406,2.1707002 z M 356.24631,26.187167 L 372.88966,26.187167 C 381.53693,26.187167 386.71089,33.364976 384.64856,42.318983 L 384.37721,43.134636 L 384.10585,44.040918 L 383.83449,44.765943 L 383.56313,45.581597 L 383.20132,46.397251 L 382.74905,47.122276 L 382.29678,47.93793 L 381.84452,48.662955 L 381.39226,49.38798 L 380.84954,50.022378 L 380.30682,50.747403 L 379.7641,51.3818 L 379.13093,52.016197 L 378.49776,52.650595 L 377.86459,53.194363 L 377.23141,53.828761 L 376.5078,54.372529 L 375.78417,54.825671 L 375.06055,55.278812 L 374.33692,55.731953 L 373.6133,56.185094 L 372.88966,56.547606 L 372.07559,56.910119 L 371.35197,57.272631 L 370.53789,57.544516 L 369.72381,57.816401 L 368.90974,57.997656 L 368.09566,58.178913 L 367.28158,58.360169 L 366.55795,58.450798 L 365.65343,58.450798 L 364.92981,58.541427 L 349.28143,58.541427 L 356.24631,26.187167 z"
     style="font-style:normal;font-variant:normal;font-weight:normal;font-stretch:normal;letter-spacing:normal;word-spacing:normal;text-anchor:start;fill:#2997d8;fill-opacity:1;fill-rule:evenodd;stroke:#ffffff;stroke-width:0.98897457;stroke-linecap:butt;stroke-linejoin:miter;stroke-miterlimit:9.71822166;stroke-dasharray:none;stroke-dashoffset:0;stroke-opacity:1"
     id="path48" />
  <path
     d="M 159.96321,26.187167 L 158.60641,26.277796 L 157.34007,26.277796 L 155.98327,26.368423 L 153.45059,26.54968 L 150.9179,26.821564 L 148.47567,27.184077 L 146.12388,27.54659 L 143.86256,27.909103 L 141.69169,28.452871 L 139.52082,28.815384 L 137.4404,29.359153 L 135.45043,29.812294 L 133.55091,30.265436 L 131.6514,30.718575 L 129.9328,31.171717 L 128.21418,31.624858 L 126.58603,31.896742 L 123.87244,54.553786 C 127.95728,52.414903 141.95227,48.481698 153.54104,48.119186 C 165.14428,47.756731 171.96451,50.276194 169.91304,60.353989 C 135.45789,60.353903 112.27995,67.495635 107.50045,90.080031 C 100.67671,128.86869 142.59994,127.8175 158.96822,110.92452 L 156.88781,120.25923 L 188.00365,120.25923 L 201.30025,58.541427 C 206.77081,32.331844 182.80065,25.824655 161.32001,26.187167 L 159.96321,26.187167 z M 157.61142,81.107842 C 160.33947,81.107842 162.75279,81.107842 165.48083,81.107842 C 164.80064,83.971663 164.11681,86.491185 163.76224,89.355006 L 163.58133,90.080031 L 163.40042,90.895685 L 163.12906,91.530082 L 162.8577,92.255107 L 162.58635,92.889506 L 162.22453,93.523902 L 161.95317,94.1583 L 161.59136,94.702068 L 161.13909,95.245837 L 160.77728,95.789607 L 160.32501,96.242747 L 159.87275,96.786516 L 159.42049,97.239658 L 158.87777,97.692799 L 158.4255,98.055312 L 157.88278,98.417824 L 157.34007,98.780337 L 156.70689,99.142849 L 156.16419,99.414734 L 155.531,99.686616 L 154.89783,100.04913 L 154.26466,100.23039 L 153.63149,100.50228 L 152.99832,100.68353 L 152.36515,100.86479 L 151.64152,101.04605 L 150.9179,101.13667 L 150.28473,101.31792 L 149.56111,101.40856 L 148.83748,101.49919 L 148.11386,101.49919 L 147.39023,101.58982 C 140.56288,101.95241 134.7196,95.807674 139.159,88.629981 C 142.56364,82.503574 152.15533,81.107842 157.61142,81.107842 z"
     style="font-style:normal;font-variant:normal;font-weight:normal;font-stretch:normal;letter-spacing:normal;word-spacing:normal;text-anchor:start;fill:#11559d;fill-opacity:1;fill-rule:evenodd;stroke:#ffffff;stroke-width:0.98897457;stroke-linecap:butt;stroke-linejoin:miter;stroke-miterlimit:9.71822166;stroke-dasharray:none;stroke-dashoffset:0;stroke-opacity:1"
     id="path52" />
  <polygon
     points="68.406,278.65 76.984,278.65 78.367,263.48 86.762,278.65 95.613,278.65 75.23,242.35 65.637,242.35 71.91,253.02 68.406,278.65 "
     transform="matrix(3.6180957,0,0,-3.6251009,-32.701728,1038.0487)"
     style="font-style:normal;font-variant:normal;font-weight:normal;font-stretch:normal;letter-spacing:normal;word-spacing:normal;text-anchor:start;fill:#11559d;fill-opacity:1;fill-rule:evenodd;stroke:#ffffff;stroke-width:0.27307695;stroke-linecap:butt;stroke-linejoin:miter;stroke-miterlimit:9.71822166;stroke-dasharray:none;stroke-dashoffset:0;stroke-opacity:1"
     id="polygon54" />
  <path
     d="M 26.183152,2.1707002 L 0.49448729,120.25923 L 34.504832,120.25923 L 42.826513,81.107842 L 67.158381,81.107842 C 90.404666,81.107842 109.80884,66.752195 115.00805,42.318983 C 120.90193,14.695659 101.165,2.1707002 84.163554,2.1707002 L 26.183152,2.1707002 z M 55.037674,26.187167 L 71.681034,26.187167 C 80.006277,26.187167 85.50948,33.364976 83.078117,42.318983 L 82.897211,43.134636 L 82.625852,44.040918 L 82.354493,44.765943 L 81.99268,45.581597 L 81.630868,46.397251 L 81.269057,47.122276 L 80.907245,47.93793 L 80.454979,48.662955 L 79.91226,49.38798 L 79.459996,50.022378 L 78.917277,50.747403 L 78.374558,51.3818 L 77.741387,52.016197 L 77.108216,52.650595 L 76.475045,53.194363 L 75.841874,53.828761 L 75.208702,54.372529 L 74.485078,54.825671 L 73.851907,55.278812 L 73.128282,55.731953 L 72.314206,56.185094 L 71.59058,56.547606 L 70.866957,56.910119 L 70.052879,57.272631 L 69.329254,57.544516 L 68.515177,57.816401 L 67.7011,57.997656 L 66.887022,58.178913 L 66.072944,58.360169 L 65.258868,58.450798 L 64.44479,58.450798 L 63.630713,58.541427 L 47.710977,58.541427 L 55.037674,26.187167 z"
     style="font-style:normal;font-variant:normal;font-weight:normal;font-stretch:normal;letter-spacing:normal;word-spacing:normal;text-anchor:start;fill:#11559d;fill-opacity:1;fill-rule:evenodd;stroke:#ffffff;stroke-width:0.98897457;stroke-linecap:butt;stroke-linejoin:miter;stroke-miterlimit:9.71822166;stroke-dasharray:none;stroke-dashoffset:0;stroke-opacity:1"
     id="path58" />
  <path
     sodipodi:type="inkscape:offset"
     inkscape:radius="0.79056942"
     inkscape:original="M 569.96875 0 L 569.96875 1.9375 L 575.21875 1.9375 L 575.21875 16.03125 L 577.40625 16.03125 L 577.40625 1.9375 L 582.65625 1.9375 L 582.65625 0 L 569.96875 0 z M 584.75 0 L 584.75 16.03125 L 586.78125 16.03125 L 586.78125 2.375 L 591.40625 16.03125 L 593.3125 16.03125 L 597.9375 2.59375 L 597.9375 16.03125 L 600 16.03125 L 600 0 L 597.15625 0 L 593.3125 11.15625 C 592.94666 12.255905 592.65167 13.132267 592.46875 13.71875 C 592.28583 13.168923 592.05332 12.375499 591.6875 11.3125 L 587.9375 0 L 584.75 0 z "
     style="font-style:normal;font-variant:normal;font-weight:normal;font-stretch:normal;letter-spacing:normal;word-spacing:normal;text-anchor:start;fill:#11559d;fill-opacity:1;fill-rule:nonzero;stroke:#ffffff;stroke-width:0.99999994;stroke-linecap:butt;stroke-linejoin:miter;stroke-miterlimit:9.71822166;stroke-dasharray:none;stroke-dashoffset:0;stroke-opacity:1"
     id="path3201"
     d="M 569.8125,-0.78125 C 569.44494,-0.70251565 569.18363,-0.37587815 569.1875,-1.9338946e-16 L 569.1875,1.9375 C 569.19257,2.3668531 569.5394,2.7136759 569.96875,2.71875 L 574.4375,2.71875 L 574.4375,16.03125 C 574.44257,16.460603 574.7894,16.807426 575.21875,16.8125 L 577.40625,16.8125 C 577.8356,16.807426 578.18243,16.460603 578.1875,16.03125 L 578.1875,2.71875 L 582.65625,2.71875 C 583.0856,2.7136759 583.43243,2.3668531 583.4375,1.9375 L 583.4375,0 C 583.43243,-0.42935313 583.0856,-0.77617588 582.65625,-0.78125 L 569.96875,-0.78125 C 569.91679,-0.78640905 569.86446,-0.78640905 569.8125,-0.78125 L 569.8125,-0.78125 z M 584.59375,-0.78125 C 584.22619,-0.70251565 583.96488,-0.37587815 583.96875,-1.9338946e-16 L 583.96875,16.03125 C 583.97382,16.460603 584.32065,16.807426 584.75,16.8125 L 586.78125,16.8125 C 587.2106,16.807426 587.55743,16.460603 587.5625,16.03125 L 587.5625,7.15625 L 590.65625,16.28125 C 590.76708,16.600376 591.06843,16.81383 591.40625,16.8125 L 593.3125,16.8125 C 593.65032,16.81383 593.95167,16.600376 594.0625,16.28125 L 597.15625,7.28125 L 597.15625,16.03125 C 597.16132,16.460603 597.50815,16.807426 597.9375,16.8125 L 600,16.8125 C 600.42935,16.807426 600.77618,16.460603 600.78125,16.03125 L 600.78125,0 C 600.77618,-0.42935313 600.42935,-0.77617588 600,-0.78125 L 597.15625,-0.78125 C 596.81843,-0.78257998 596.51708,-0.56912645 596.40625,-0.25 L 592.5625,10.90625 C 592.52235,11.026935 592.50715,11.072271 592.46875,11.1875 C 592.45055,11.134024 592.45638,11.117373 592.4375,11.0625 L 588.6875,-0.25 C 588.57667,-0.56912645 588.27532,-0.78257998 587.9375,-0.78125 L 584.75,-0.78125 C 584.69804,-0.78640905 584.64571,-0.78640905 584.59375,-0.78125 L 584.59375,-0.78125 z"
     transform="matrix(0.9889746,0,0,0.9889746,0.4943781,1.2709775)" />
  <path
     sodipodi:type="inkscape:offset"
     inkscape:radius="-0.97452796"
     inkscape:original="M 275.34375 89.96875 C 273.79643 89.968841 272.11387 90.520149 270.875 91.59375 C 269.33467 92.928817 268.78125 94.91317 268.78125 96.75 L 268.78125 146.65625 C 268.78124 148.49312 269.33452 150.47744 270.875 151.8125 C 272.11388 152.88621 273.79634 153.4375 275.34375 153.4375 L 289.03125 153.4375 C 294.32903 153.4375 298.98194 152.87592 303.03125 151.65625 C 307.08915 150.43398 310.68338 148.4549 313.625 145.75 C 316.58639 143.02683 318.82782 139.53014 320.34375 135.40625 C 321.87743 131.23384 322.59369 126.39794 322.59375 120.875 C 322.5937 116.04144 321.92089 111.6789 320.5 107.8125 C 319.08566 103.96437 316.93976 100.61991 314.15625 97.9375 C 311.37222 95.254813 307.96913 93.229845 304.03125 91.90625 C 300.04246 90.565695 295.37208 89.968811 290.03125 89.96875 L 275.34375 89.96875 z M 477.90625 94.0625 C 476.74426 94.062558 475.74447 94.133282 474.90625 94.21875 C 474.04273 94.306927 473.26254 94.425284 472.40625 94.75 C 471.63114 95.044097 470.7359 95.489347 470.0625 96.46875 C 469.54152 97.226655 469.24994 98.148064 469.25 99.0625 L 469.25 104.71875 L 467.6875 104.71875 C 466.89002 104.71886 465.98005 104.94049 465.1875 105.46875 C 464.23998 106.10061 463.77939 106.84809 463.46875 107.5625 C 463.11034 108.38693 463.02654 109.10022 462.9375 109.8125 C 462.84589 110.54542 462.78126 111.39519 462.78125 112.375 C 462.78125 114.17979 462.82715 115.55485 463.46875 117.0625 C 464.04431 118.41515 465.80903 120.00013 467.625 120 L 469.25 120 L 469.25 137.09375 C 469.24999 139.72577 469.52149 142.08873 470.125 144.21875 C 470.7342 146.36889 471.72618 148.30591 473.15625 149.875 C 474.58317 151.44066 476.4104 152.60145 478.46875 153.3125 C 480.50055 154.0144 482.77175 154.34375 485.25 154.34375 C 486.2464 154.34375 487.17094 154.2501 488.03125 154.15625 C 488.94182 154.05691 489.83503 153.91825 490.6875 153.71875 C 491.48549 153.53198 492.23527 153.32772 493 153 C 493.7916 152.66072 494.54765 152.20656 495.1875 151.53125 C 496.1008 150.56708 496.38973 149.63006 496.625 148.625 C 496.89889 147.45453 496.93747 146.32564 496.9375 144.9375 C 496.93747 144.06147 496.92746 143.26538 496.8125 142.4375 C 496.72241 141.78907 496.60699 141.2652 496.46875 140.78125 C 496.27154 140.09127 495.96726 139.13001 494.78125 138.375 C 494.23944 138.03031 493.39406 137.7188 492.59375 137.71875 C 491.8531 137.71879 491.24387 137.90878 490.71875 138.125 C 490.41535 138.24993 490.15969 138.34625 489.90625 138.4375 C 489.72373 138.50321 489.45935 138.56944 489.0625 138.65625 C 488.85104 138.70251 488.52769 138.75001 488.125 138.75 C 487.04094 138.75001 487.16829 138.66245 487.125 138.59375 C 486.93671 138.29496 486.59374 137.21794 486.59375 135.40625 L 486.59375 120 L 492.09375 120 C 493.90969 120.0001 495.6744 118.41505 496.25 117.0625 C 496.89146 115.55498 496.93747 114.17977 496.9375 112.375 C 496.93747 111.47126 496.91755 110.65307 496.8125 109.8125 C 496.70996 108.99256 496.54391 108.23878 496.25 107.5625 C 496.00367 106.99612 495.62298 106.17596 494.5625 105.46875 C 493.77024 104.94082 492.86007 104.71886 492.0625 104.71875 L 486.59375 104.71875 L 486.59375 99.0625 C 486.5937 98.252518 486.36333 97.234651 485.71875 96.375 C 484.96719 95.373234 484.171 95.025995 483.46875 94.75 C 482.61304 94.413949 481.80577 94.307418 480.9375 94.21875 C 480.09874 94.133226 479.09498 94.062557 477.90625 94.0625 z M 347.625 103.71875 C 343.69172 103.71879 340.15094 104.28838 337 105.5625 C 333.9134 106.81068 331.22348 108.64336 329.09375 111 C 326.99196 113.32579 325.39824 116.11095 324.375 119.28125 C 323.36001 122.42607 322.875 125.86339 322.875 129.5 C 322.875 133.23331 323.31894 136.62837 324.25 139.6875 C 325.18874 142.77197 326.69189 145.51447 328.75 147.75 C 330.81203 149.98981 333.41133 151.65816 336.40625 152.78125 C 339.42818 153.91448 342.85333 154.46874 346.65625 154.46875 C 350.60743 154.46875 354.16748 153.85858 357.3125 152.59375 C 360.40254 151.35101 363.10648 149.54571 365.25 147.15625 C 367.3613 144.80262 368.93302 141.95972 369.9375 138.8125 C 370.93531 135.68588 371.40622 132.31393 371.40625 128.6875 C 371.4062 124.9454 371.00191 121.52433 370.0625 118.4375 C 369.1207 115.34322 367.62465 112.63151 365.59375 110.40625 C 363.54128 108.15756 360.93584 106.45114 357.9375 105.34375 C 354.90568 104.22411 351.44522 103.7188 347.625 103.71875 z M 400.28125 103.71875 C 397.34896 103.7188 394.4625 104.44183 391.78125 105.84375 C 390.88309 106.31338 390.01805 106.95187 389.15625 107.5625 C 389.05792 107.3335 389.06413 107.06501 388.9375 106.875 C 388.30555 105.92733 387.55792 105.46687 386.84375 105.15625 C 386.09944 104.83275 385.36591 104.69318 384.53125 104.59375 C 383.67236 104.49156 382.80022 104.46879 381.8125 104.46875 C 380.85284 104.46879 380.00613 104.49016 379.15625 104.59375 C 378.33671 104.69376 377.59573 104.87191 376.9375 105.125 C 376.12396 105.43799 375.27253 105.99767 374.6875 106.875 C 374.34734 107.38531 373.90622 108.32544 373.90625 109.34375 L 373.90625 148.8125 C 373.90622 149.8431 374.31165 150.82715 374.875 151.53125 C 375.57711 152.40892 376.39067 152.81899 377.1875 153.09375 C 378.06657 153.3969 378.8289 153.47958 379.625 153.5625 C 380.45208 153.64865 381.43613 153.71876 382.625 153.71875 C 383.81383 153.71875 384.79788 153.64865 385.625 153.5625 C 386.42107 153.47958 387.18343 153.39689 388.0625 153.09375 C 388.85925 152.81899 389.67295 152.40874 390.375 151.53125 C 391.05006 150.68735 391.31245 149.62252 391.3125 148.8125 L 391.3125 123.84375 C 392.46868 122.49068 393.61792 121.24614 394.53125 120.59375 C 395.57622 119.84735 396.3178 119.65626 397 119.65625 C 397.75422 119.65627 398.21527 119.77675 398.53125 119.9375 C 398.93063 120.14072 399.16325 120.36105 399.40625 120.71875 C 399.7011 121.15288 399.98138 121.75976 400.1875 122.5625 C 400.3498 123.19469 400.49997 124.53254 400.5 126.3125 L 400.5 148.8125 C 400.4999 149.84323 400.9053 150.8271 401.46875 151.53125 C 402.11177 152.33519 402.91862 152.80803 403.71875 153.09375 C 404.57712 153.40035 405.33455 153.47866 406.15625 153.5625 C 407.00416 153.64902 408.02983 153.71876 409.21875 153.71875 C 410.38078 153.71875 411.35812 153.64712 412.1875 153.5625 C 413.00006 153.47958 413.75105 153.41701 414.65625 153.09375 C 415.45616 152.80803 416.26338 152.33464 416.90625 151.53125 C 417.58117 150.68738 417.84361 149.62233 417.84375 148.8125 L 417.84375 124.4375 C 417.84371 121.3963 417.58298 118.71023 417 116.34375 C 416.41393 113.96527 415.43692 111.7867 414.03125 109.90625 C 412.59236 107.98162 410.66782 106.42938 408.40625 105.34375 C 406.02213 104.19945 403.29626 103.71881 400.28125 103.71875 z M 441.90625 103.71875 C 440.01567 103.71879 438.1468 103.87357 436.3125 104.1875 C 434.54485 104.49011 432.88558 104.88297 431.34375 105.375 C 429.83595 105.85626 428.46134 106.39437 427.25 107 C 426.0637 107.59319 425.1255 108.12456 424.25 109.03125 C 423.524 109.78324 422.95009 110.72361 422.65625 111.78125 C 422.37743 112.78502 422.3125 113.73616 422.3125 114.8125 C 422.31249 115.60281 422.34691 116.38475 422.46875 117.15625 C 422.58619 117.90012 422.77227 118.59535 423.0625 119.28125 C 423.36502 119.9964 423.80188 120.72299 424.59375 121.375 C 425.38244 122.02461 426.43281 122.40634 427.4375 122.40625 C 428.84462 122.40634 429.79113 121.93271 430.75 121.40625 C 431.39912 121.04989 432.28004 120.60091 433.34375 120.125 C 434.29726 119.69845 435.44166 119.28515 436.78125 118.90625 C 437.91746 118.58492 439.28589 118.40628 440.90625 118.40625 C 442.11223 118.40628 443.02673 118.52267 443.5625 118.6875 C 444.102 118.85353 444.35577 119.06345 444.5 119.21875 C 444.68925 119.42258 444.89456 119.7435 445.03125 120.25 C 445.14173 120.65948 445.17654 121.3155 445.21875 121.9375 L 444.5625 121.9375 C 440.90487 121.93753 437.61259 122.19626 434.6875 122.78125 C 431.74646 123.36948 429.17258 124.30964 427 125.65625 C 424.82174 127.00643 423.04917 128.81772 421.875 131.03125 C 420.69804 133.25013 420.15626 135.79813 420.15625 138.5 C 420.15625 140.97071 420.57967 143.30426 421.5 145.375 C 422.37896 147.35269 423.65769 149.08025 425.3125 150.46875 C 426.93352 151.82892 428.83054 152.8449 430.9375 153.5 C 433.03686 154.15275 435.29737 154.46874 437.65625 154.46875 C 440.59872 154.46875 443.36729 153.8613 445.875 152.6875 C 446.58743 152.35402 447.23567 151.9113 447.90625 151.5 C 448.06239 151.72934 448.17476 151.99908 448.375 152.1875 C 449.2949 153.05337 450.25203 153.32963 451.25 153.5 C 452.2281 153.667 453.27732 153.71876 454.6875 153.71875 C 456.01506 153.71875 457.0506 153.68581 458 153.53125 C 459.01093 153.36667 459.96452 153.02204 460.8125 152.34375 C 461.79868 151.5547 462.43742 150.06868 462.4375 148.9375 L 462.4375 122.40625 C 462.43746 119.448 462.09432 116.78748 461.3125 114.40625 C 460.5157 111.97982 459.16148 109.82471 457.3125 108.1875 C 455.48705 106.5713 453.21781 105.45492 450.65625 104.75 C 448.09799 104.04611 445.20521 103.7188 441.90625 103.71875 z M 519.78125 103.71875 C 516.32332 103.71879 513.11098 104.28914 510.1875 105.5 C 507.28821 106.70093 504.71368 108.49359 502.65625 110.8125 C 500.60293 113.12688 499.08856 115.90161 498.0625 119.0625 C 497.03083 122.24073 496.53125 125.74896 496.53125 129.53125 C 496.53125 133.46709 497.00896 137.00077 498 140.125 C 498.9968 143.2675 500.57671 146.00976 502.71875 148.1875 C 504.85493 150.35929 507.49968 151.95258 510.53125 152.96875 C 513.55341 153.98177 516.96871 154.46874 520.75 154.46875 C 522.82912 154.46875 524.80537 154.33833 526.6875 154.0625 C 528.50731 153.7958 530.16225 153.45958 531.59375 153.09375 C 533.0139 152.73082 534.19607 152.34233 535.25 151.90625 C 535.73241 151.70662 536.15904 151.52495 536.5625 151.3125 C 536.96596 151.10005 537.31977 150.97752 537.9375 150.3125 C 538.21807 150.01029 538.57163 149.59992 538.875 149.03125 C 539.23141 148.36277 539.35125 147.78677 539.4375 147.3125 C 539.53779 146.76055 539.59245 146.25347 539.625 145.75 C 539.65516 145.28192 539.68748 144.66085 539.6875 143.90625 C 539.68746 143.11764 539.65257 142.42859 539.59375 141.78125 C 539.5288 141.06735 539.41889 140.38793 539.09375 139.65625 C 538.82585 139.05372 538.39035 138.27995 537.375 137.6875 C 536.51684 137.18706 535.80597 137.09378 535.125 137.09375 C 533.94289 137.09378 533.11773 137.40653 532.25 137.75 C 531.606 138.00492 530.81599 138.30884 529.8125 138.625 C 528.93792 138.90055 527.73164 139.16786 526.3125 139.4375 C 525.06064 139.67535 523.55932 139.81251 521.78125 139.8125 C 520.13428 139.81251 518.83219 139.58853 517.90625 139.25 C 516.94298 138.89784 516.32895 138.47524 515.8125 137.90625 C 515.28173 137.32152 514.87547 136.59537 514.59375 135.625 C 514.546 135.46052 514.57226 135.20673 514.53125 135.03125 L 535 135.03125 C 536.68851 135.03128 538.55012 134.38364 539.78125 133.0625 C 541.11703 131.62891 541.53118 129.75654 541.53125 127.9375 L 541.53125 126.15625 C 541.53121 123.11817 541.14725 120.24094 540.34375 117.5625 C 539.52243 114.82496 538.18419 112.35659 536.375 110.28125 C 534.52408 108.15823 532.15266 106.56462 529.4375 105.4375 C 526.62093 104.26842 523.39605 103.7188 519.78125 103.71875 z M 286.625 105.3125 L 289.375 105.3125 C 292.66393 105.31255 295.15439 105.79034 296.78125 106.5 C 298.57298 107.28168 299.91606 108.27026 301 109.59375 C 302.11086 110.95025 302.93887 112.55317 303.46875 114.5 C 304.02612 116.54818 304.31246 118.79361 304.3125 121.25 C 304.31246 124.31905 303.96291 126.9396 303.34375 129.0625 C 302.72819 131.17291 301.84369 132.80972 300.71875 134.09375 C 299.6089 135.36052 298.26448 136.3011 296.5 136.96875 C 294.77297 137.62222 292.47021 138 289.5625 138 L 286.625 138 L 286.625 105.3125 z M 519.53125 117.84375 C 521.68525 117.84378 522.54357 118.31071 523.25 119.25 C 523.67879 119.82017 524.02825 120.62353 524.25 121.625 L 514.6875 121.625 C 514.95528 120.79074 515.27456 120.09848 515.6875 119.5625 C 516.09201 119.03751 516.59382 118.61398 517.25 118.28125 C 517.77427 118.01544 518.48363 117.84378 519.53125 117.84375 z M 347.21875 118.75 C 348.68139 118.75002 349.69115 119.01334 350.34375 119.375 C 351.11505 119.80249 351.69608 120.37038 352.15625 121.125 C 352.67113 121.96946 353.05985 123.00843 353.3125 124.34375 C 353.58109 125.7636 353.71873 127.34876 353.71875 129.125 C 353.71872 131.00976 353.53997 132.62846 353.21875 134 C 352.90193 135.35246 352.45583 136.37627 351.9375 137.125 C 351.43709 137.84779 350.85158 138.3336 350.0625 138.71875 C 349.32203 139.08016 348.37004 139.3125 347.0625 139.3125 C 345.61691 139.31251 344.62221 139.05433 343.9375 138.6875 C 343.12315 138.25125 342.60783 137.76592 342.1875 137.0625 C 341.68751 136.22582 341.26943 135.14072 341 133.78125 C 340.72573 132.39748 340.59374 130.79202 340.59375 129 C 340.59374 127.10063 340.76868 125.49257 341.09375 124.15625 C 341.42316 122.80199 341.87222 121.71879 342.40625 120.9375 C 342.89831 120.21764 343.47407 119.769 344.28125 119.375 C 345.07938 118.98545 345.98663 118.75003 347.21875 118.75 z M 444.15625 135.1875 L 445.28125 135.1875 L 445.28125 137.40625 C 444.39525 138.30056 443.50806 139.184 442.78125 139.625 C 441.94509 140.13233 441.13593 140.34376 440.09375 140.34375 C 438.75377 140.34376 438.15692 140.06047 437.8125 139.75 C 437.45472 139.4275 437.28123 139.15821 437.28125 138.15625 C 437.28124 137.59747 437.39027 137.22509 437.53125 136.9375 C 437.65614 136.68272 437.74247 136.52585 438.15625 136.25 C 438.52416 136.00473 439.22782 135.70087 440.1875 135.5 C 441.13259 135.3022 442.48408 135.18752 444.15625 135.1875 z "
     style="font-size:90.59049988px;font-style:normal;font-variant:normal;font-weight:bold;font-stretch:normal;text-align:start;line-height:125%;writing-mode:lr-tb;text-anchor:start;fill:#11559d;fill-opacity:1;stroke:#ffffff;stroke-width:2.39288521;stroke-linecap:butt;stroke-linejoin:miter;stroke-miterlimit:9.71822166;stroke-dasharray:none;stroke-opacity:1;font-family:Calibri;-inkscape-font-specification:Calibri Bold"
     id="path3196"
     d="M 275.34375,90.9375 C 274.02787,90.937577 272.53363,91.448009 271.5,92.34375 C 270.23352,93.441459 269.75,95.108914 269.75,96.75 L 269.75,146.65625 C 269.74999,148.29743 270.23341,149.9648 271.5,151.0625 C 272.53365,151.95834 274.0278,152.46875 275.34375,152.46875 L 289.03125,152.46875 C 294.26016,152.46875 298.81899,151.90279 302.75,150.71875 C 306.6819,149.53443 310.14393,147.62875 312.96875,145.03125 C 315.80453,142.42359 317.96735,139.06185 319.4375,135.0625 C 320.92095,131.02674 321.62494,126.31369 321.625,120.875 C 321.62495,116.13187 320.96713,111.89337 319.59375,108.15625 C 318.22645,104.4361 316.14102,101.20021 313.46875,98.625 C 310.79401,96.047623 307.53282,94.125731 303.71875,92.84375 C 299.8649,91.548546 295.29948,90.93756 290.03125,90.9375 L 275.34375,90.9375 z M 477.90625,95.03125 C 476.78377,95.031306 475.8144,95.104461 475,95.1875 C 474.16514,95.272751 473.4962,95.373282 472.75,95.65625 C 472.04721,95.922906 471.39807,96.270494 470.875,97.03125 C 470.46673,97.625186 470.2187,98.355268 470.21875,99.0625 L 470.21875,104.71875 C 470.21554,105.25244 469.78369,105.68429 469.25,105.6875 L 467.6875,105.6875 C 467.07047,105.68759 466.32952,105.87415 465.71875,106.28125 C 464.9451,106.79716 464.6443,107.31817 464.375,107.9375 C 464.07639,108.62438 463.99589,109.22044 463.90625,109.9375 C 463.81914,110.6344 463.75001,111.43804 463.75,112.375 C 463.75,114.16327 463.81044,115.36089 464.375,116.6875 C 464.57598,117.15983 465.07405,117.78145 465.6875,118.25 C 466.30095,118.71855 467.00056,119.03129 467.625,119.03125 L 469.25,119.03125 C 469.78369,119.03446 470.21554,119.46631 470.21875,120 L 470.21875,137.09375 C 470.21874,139.65875 470.48962,141.9156 471.0625,143.9375 C 471.63791,145.96838 472.56276,147.77895 473.875,149.21875 C 475.18446,150.65552 476.86405,151.74396 478.78125,152.40625 C 480.69013,153.06569 482.85809,153.375 485.25,153.375 C 486.18534,153.375 487.08254,153.28077 487.9375,153.1875 C 488.81918,153.09131 489.66579,152.96916 490.46875,152.78125 C 491.24511,152.59954 491.93749,152.38838 492.625,152.09375 C 493.33368,151.79001 493.94248,151.43044 494.46875,150.875 C 495.23583,150.06519 495.46195,149.36979 495.6875,148.40625 C 495.93434,147.35137 495.96872,146.30759 495.96875,144.9375 C 495.96872,144.06887 495.94806,143.31371 495.84375,142.5625 C 495.75943,141.95558 495.65782,141.50561 495.53125,141.0625 C 495.3411,140.39724 495.18361,139.78183 494.25,139.1875 C 493.87118,138.9465 493.14122,138.68753 492.59375,138.6875 C 492.01973,138.68753 491.55934,138.83954 491.09375,139.03125 C 490.77519,139.16242 490.51256,139.24922 490.25,139.34375 C 489.98165,139.44036 489.69092,139.50414 489.28125,139.59375 C 489.00323,139.65457 488.60434,139.71876 488.125,139.71875 C 487.55673,139.71876 487.31694,139.72228 486.96875,139.625 C 486.79466,139.57636 486.47901,139.42462 486.3125,139.15625 C 486.14599,138.88788 486.15865,138.88085 486.3125,139.125 C 486.07906,138.75457 485.96766,138.35445 485.84375,137.75 C 485.71984,137.14555 485.62499,136.37359 485.625,135.40625 L 485.625,120 C 485.62821,119.46631 486.06006,119.03446 486.59375,119.03125 L 492.09375,119.03125 C 492.71816,119.03128 493.41779,118.71857 494.03125,118.25 C 494.64471,117.78143 495.14276,117.1598 495.34375,116.6875 C 495.90818,115.36101 495.96872,114.16322 495.96875,112.375 C 495.96872,111.48556 495.94103,110.7159 495.84375,109.9375 C 495.74816,109.17313 495.58563,108.49406 495.34375,107.9375 C 495.10665,107.39234 494.89195,106.85523 494.03125,106.28125 C 493.42071,105.87441 492.67937,105.68759 492.0625,105.6875 L 486.59375,105.6875 C 486.06006,105.68429 485.62821,105.25244 485.625,104.71875 L 485.625,99.0625 C 485.62496,98.437247 485.42744,97.622165 484.9375,96.96875 C 484.31934,96.144797 483.80165,95.922184 483.125,95.65625 C 482.39817,95.370812 481.69427,95.274355 480.84375,95.1875 C 480.02915,95.104439 479.05638,95.031305 477.90625,95.03125 z M 286.46875,104.34375 C 286.52075,104.33957 286.573,104.33957 286.625,104.34375 L 289.375,104.34375 C 292.7583,104.3438 295.34224,104.80245 297.15625,105.59375 C 299.0604,106.42447 300.56675,107.52401 301.75,108.96875 C 302.94889,110.43275 303.84441,112.18573 304.40625,114.25 C 304.9888,116.39071 305.28121,118.71789 305.28125,121.25 C 305.28121,124.39304 304.93316,127.10855 304.28125,129.34375 C 303.63335,131.56503 302.6661,133.34765 301.4375,134.75 C 300.22816,136.13033 298.73833,137.15812 296.84375,137.875 C 294.96482,138.58595 292.55462,138.96875 289.5625,138.96875 L 286.625,138.96875 C 286.09131,138.96554 285.65946,138.53369 285.65625,138 L 285.65625,105.3125 C 285.65247,104.83388 285.99678,104.42335 286.46875,104.34375 L 286.46875,104.34375 z M 347.625,104.6875 C 343.7858,104.68754 340.3843,105.25191 337.375,106.46875 C 334.41333,107.66641 331.83706,109.41599 329.8125,111.65625 C 327.80589,113.87672 326.29613,116.54617 325.3125,119.59375 C 324.33339,122.6274 323.84375,125.95004 323.84375,129.5 C 323.84375,133.15605 324.28979,136.45671 325.1875,139.40625 C 326.08872,142.36744 327.51949,144.97645 329.46875,147.09375 C 331.41771,149.21074 333.8786,150.79823 336.75,151.875 C 339.64307,152.95991 342.94802,153.49999 346.65625,153.5 C 350.5071,153.5 353.92802,152.89782 356.9375,151.6875 C 359.90701,150.49323 362.49683,148.76784 364.53125,146.5 C 366.54261,144.25778 368.03336,141.5599 369,138.53125 C 369.96311,135.51336 370.43747,132.22957 370.4375,128.6875 C 370.43745,125.01558 370.02869,121.68822 369.125,118.71875 C 368.22073,115.74777 366.8008,113.1726 364.875,111.0625 C 362.93388,108.9358 360.45899,107.30823 357.59375,106.25 C 354.6986,105.18083 351.35929,104.68755 347.625,104.6875 z M 400.28125,104.6875 C 397.50915,104.68755 394.76743,105.38615 392.21875,106.71875 C 391.41431,107.13938 390.59102,107.7257 389.71875,108.34375 C 389.4787,108.51792 389.17241,108.57331 388.88656,108.49425 C 388.60072,108.41519 388.36643,108.21027 388.25,107.9375 C 388.03684,107.44108 388.00853,107.23149 388.125,107.40625 C 387.60904,106.63252 387.08801,106.33184 386.46875,106.0625 C 385.84513,105.79146 385.20114,105.65719 384.40625,105.5625 C 383.60735,105.46745 382.78527,105.43754 381.8125,105.4375 C 380.86728,105.43754 380.06994,105.46637 379.28125,105.5625 C 378.52973,105.65421 377.8538,105.81111 377.28125,106.03125 C 376.61841,106.28626 375.94903,106.73287 375.5,107.40625 C 375.25055,107.78047 374.87498,108.60689 374.875,109.34375 L 374.875,148.8125 C 374.87498,149.5875 375.19588,150.40116 375.625,150.9375 C 376.19021,151.64404 376.79241,151.94351 377.5,152.1875 C 378.26654,152.45184 378.92528,152.5111 379.71875,152.59375 C 380.5208,152.67729 381.47445,152.75001 382.625,152.75 C 383.77552,152.75 384.72917,152.67729 385.53125,152.59375 C 386.32469,152.5111 386.98345,152.45184 387.75,152.1875 C 388.45743,151.94354 389.05986,151.64386 389.625,150.9375 C 390.12722,150.30967 390.34371,149.41212 390.34375,148.8125 L 390.34375,123.84375 C 390.34149,123.61627 390.41888,123.39517 390.5625,123.21875 C 391.73415,121.84758 392.89305,120.58087 393.96875,119.8125 C 395.12715,118.98508 396.13583,118.68751 397,118.6875 C 397.85799,118.68752 398.4867,118.81727 398.96875,119.0625 C 399.48556,119.32547 399.91783,119.71329 400.21875,120.15625 C 400.58949,120.70212 400.89538,121.41824 401.125,122.3125 C 401.33364,123.12519 401.46872,124.47774 401.46875,126.3125 L 401.46875,148.8125 C 401.46867,149.58764 401.78951,150.40107 402.21875,150.9375 C 402.72981,151.57646 403.3564,151.94652 404.03125,152.1875 C 404.7681,152.4507 405.4291,152.50999 406.25,152.59375 C 407.07157,152.67758 408.06794,152.75001 409.21875,152.75 C 410.34073,152.75 411.28603,152.67616 412.09375,152.59375 C 412.91738,152.5097 413.56181,152.46674 414.34375,152.1875 C 415.01813,151.94662 415.64534,151.57598 416.15625,150.9375 C 416.65832,150.30975 416.8749,149.41194 416.875,148.8125 L 416.875,124.4375 C 416.87496,121.45199 416.62065,118.82821 416.0625,116.5625 C 415.50355,114.29409 414.56921,112.26479 413.25,110.5 C 411.91017,108.70788 410.12931,107.24089 408,106.21875 C 405.78115,105.15377 403.1927,104.68756 400.28125,104.6875 z M 441.90625,104.6875 C 440.06885,104.68754 438.24706,104.8519 436.46875,105.15625 C 434.73939,105.4523 433.11705,105.83636 431.625,106.3125 C 430.15422,106.78195 428.8416,107.29799 427.6875,107.875 C 426.52559,108.45599 425.7035,108.92546 424.9375,109.71875 C 424.31522,110.3633 423.83986,111.1454 423.59375,112.03125 C 423.34698,112.91965 423.28125,113.77535 423.28125,114.8125 C 423.28124,115.57451 423.32708,116.30078 423.4375,117 C 423.5448,117.67963 423.71236,118.30033 423.96875,118.90625 C 424.23239,119.5295 424.56537,120.08702 425.21875,120.625 C 425.82431,121.12377 426.67972,121.43757 427.4375,121.4375 C 428.62591,121.43758 429.34339,121.07742 430.28125,120.5625 C 430.95372,120.19332 431.84831,119.73731 432.9375,119.25 C 433.94213,118.80058 435.15294,118.3586 436.53125,117.96875 C 437.77362,117.6174 439.21427,117.43753 440.90625,117.4375 C 442.17492,117.43753 443.13332,117.53144 443.84375,117.75 C 444.52185,117.95868 444.98462,118.3104 445.21875,118.5625 C 445.51591,118.88256 445.79508,119.35648 445.96875,120 C 446.13401,120.61251 446.14597,121.26307 446.1875,121.875 C 446.20305,122.14213 446.10808,122.40391 445.92488,122.59894 C 445.74167,122.79396 445.48633,122.90509 445.21875,122.90625 L 444.5625,122.90625 C 440.95082,122.90628 437.71639,123.18175 434.875,123.75 C 432.02256,124.32051 429.55227,125.22796 427.5,126.5 C 425.45224,127.76929 423.83704,129.45073 422.75,131.5 C 421.65975,133.55542 421.12501,135.9284 421.125,138.5 C 421.125,140.85937 421.51997,143.04494 422.375,144.96875 C 423.19704,146.81836 424.39823,148.42719 425.9375,149.71875 C 427.45478,150.99187 429.22621,151.94298 431.21875,152.5625 C 433.21386,153.18284 435.3844,153.49999 437.65625,153.5 C 440.4646,153.5 443.09355,152.92428 445.46875,151.8125 C 446.08682,151.52319 446.70859,151.08416 447.40625,150.65625 C 447.84888,150.38579 448.42581,150.50941 448.71875,150.9375 C 448.95253,151.28088 449.03655,151.47373 449.03125,151.46875 C 449.78082,152.17429 450.47866,152.37289 451.40625,152.53125 C 452.30331,152.68441 453.30117,152.75001 454.6875,152.75 C 455.99894,152.75 456.9836,152.70253 457.84375,152.5625 C 458.73765,152.41697 459.52333,152.15001 460.21875,151.59375 C 460.89916,151.04935 461.4687,149.70188 461.46875,148.9375 L 461.46875,122.40625 C 461.46871,119.52335 461.11607,116.97587 460.375,114.71875 C 459.62695,112.44078 458.36426,110.41864 456.65625,108.90625 C 454.96415,107.40812 452.85599,106.36165 450.40625,105.6875 C 447.95466,105.01296 445.14076,104.68755 441.90625,104.6875 z M 519.78125,104.6875 C 516.43047,104.68754 513.35276,105.25057 510.5625,106.40625 C 507.79154,107.55402 505.33005,109.26523 503.375,111.46875 C 501.42044,113.67181 499.99083,116.32264 499,119.375 C 498.00483,122.4408 497.5,125.83477 497.5,129.53125 C 497.5,133.38823 497.98321,136.83536 498.9375,139.84375 C 499.89397,142.85911 501.38302,145.44305 503.40625,147.5 C 505.42754,149.55498 507.94129,151.05836 510.84375,152.03125 C 513.74537,153.00387 517.05238,153.49999 520.75,153.5 C 522.78837,153.5 524.70235,153.36178 526.53125,153.09375 C 528.31866,152.8318 529.94804,152.51293 531.34375,152.15625 C 532.72796,151.8025 533.87002,151.41583 534.875,151 C 535.35197,150.80262 535.73824,150.6247 536.09375,150.4375 C 536.56835,150.18759 536.68668,150.22905 537.21875,149.65625 C 537.47778,149.37725 537.75299,149.02552 538,148.5625 C 538.28974,148.01907 538.38608,147.57958 538.46875,147.125 C 538.56141,146.61507 538.62551,146.16292 538.65625,145.6875 C 538.68573,145.23004 538.71873,144.63304 538.71875,143.90625 C 538.71871,143.14635 538.68132,142.49486 538.625,141.875 C 538.56398,141.20433 538.48607,140.66407 538.21875,140.0625 C 537.9843,139.53521 537.6761,138.99869 536.875,138.53125 C 536.17363,138.12224 535.71701,138.06253 535.125,138.0625 C 534.11477,138.06253 533.45313,138.31608 532.59375,138.65625 C 531.94262,138.91399 531.12815,139.2366 530.09375,139.5625 C 529.1465,139.86095 527.93568,140.13347 526.5,140.40625 C 525.17527,140.65795 523.60944,140.78126 521.78125,140.78125 C 520.04592,140.78126 518.63497,140.54835 517.5625,140.15625 C 516.48853,139.76362 515.70717,139.23832 515.09375,138.5625 C 514.45944,137.86371 513.97162,136.99252 513.65625,135.90625 C 513.507,135.39214 513.5664,135.13296 513.59375,135.25 C 513.52961,134.96357 513.59798,134.66349 513.77986,134.43311 C 513.96174,134.20273 514.23776,134.06659 514.53125,134.0625 L 535,134.0625 C 536.43931,134.06253 538.05712,133.48514 539.0625,132.40625 C 540.17826,131.20879 540.56244,129.60865 540.5625,127.9375 L 540.5625,126.15625 C 540.56246,123.20027 540.17911,120.42005 539.40625,117.84375 C 538.62232,115.23085 537.3391,112.87251 535.625,110.90625 C 533.88629,108.91193 531.66282,107.4232 529.0625,106.34375 C 526.38931,105.23418 523.29728,104.68755 519.78125,104.6875 z M 519.53125,116.875 C 520.67867,116.87502 521.56802,116.97657 522.3125,117.28125 C 523.05698,117.58593 523.6107,118.09707 524.03125,118.65625 C 524.57146,119.37458 524.94281,120.30118 525.1875,121.40625 C 525.25164,121.69268 525.18327,121.99276 525.00139,122.22314 C 524.81951,122.45352 524.54349,122.58966 524.25,122.59375 L 514.6875,122.59375 C 514.37233,122.59776 514.07468,122.4491 513.88856,122.19473 C 513.70243,121.94036 513.65081,121.61168 513.75,121.3125 C 514.03873,120.41298 514.39393,119.63371 514.90625,118.96875 C 515.39393,118.33582 516.03755,117.7992 516.8125,117.40625 C 517.50206,117.05663 518.37719,116.87503 519.53125,116.875 z M 347.21875,117.78125 C 348.79835,117.78127 349.96253,118.06021 350.8125,118.53125 C 351.72237,119.03554 352.46314,119.74461 353,120.625 C 353.58634,121.58666 354.01182,122.73225 354.28125,124.15625 C 354.56316,125.64651 354.68748,127.29842 354.6875,129.125 C 354.68747,131.07137 354.49799,132.75961 354.15625,134.21875 C 353.81801,135.66267 353.35603,136.81209 352.75,137.6875 C 352.16341,138.53477 351.4086,139.15026 350.5,139.59375 C 349.6116,140.02736 348.48548,140.28125 347.0625,140.28125 C 345.50087,140.28126 344.33199,139.99373 343.46875,139.53125 C 342.54005,139.03374 341.84274,138.39755 341.34375,137.5625 C 340.77615,136.61268 340.31883,135.4198 340.03125,133.96875 C 339.74062,132.50246 339.62499,130.83988 339.625,129 C 339.62499,127.04079 339.80772,125.37026 340.15625,123.9375 C 340.50553,122.50156 340.96655,121.29261 341.59375,120.375 C 342.17922,119.51849 342.93867,118.94179 343.84375,118.5 C 344.7644,118.05065 345.86251,117.78128 347.21875,117.78125 z M 444.15625,134.21875 L 445.28125,134.21875 C 445.81494,134.22196 446.24679,134.65381 446.25,135.1875 L 446.25,137.40625 C 446.25068,137.66356 446.14958,137.91069 445.96875,138.09375 C 445.07966,138.99117 444.20084,139.91078 443.28125,140.46875 C 442.30937,141.05842 441.26774,141.31251 440.09375,141.3125 C 438.61642,141.31251 437.69757,140.95671 437.15625,140.46875 C 436.93535,140.26963 436.65445,139.97081 436.5,139.5625 C 436.34555,139.15419 436.31249,138.71348 436.3125,138.15625 C 436.31249,137.47069 436.45633,136.90782 436.65625,136.5 C 436.78968,136.2278 437.12139,135.77323 437.625,135.4375 C 438.161,135.08017 438.94092,134.75292 440,134.53125 C 441.0535,134.31076 442.43953,134.21877 444.15625,134.21875 z"
     transform="matrix(0.826596,0,0,0.826596,59.402302,26.51578)" />
</svg>
