<?xml version="1.0" encoding="UTF-8" standalone="no"?>
<!-- Created with Inkscape (http://www.inkscape.org/) -->
<svg
   xmlns:dc="http://purl.org/dc/elements/1.1/"
   xmlns:cc="http://creativecommons.org/ns#"
   xmlns:rdf="http://www.w3.org/1999/02/22-rdf-syntax-ns#"
   xmlns:svg="http://www.w3.org/2000/svg"
   xmlns="http://www.w3.org/2000/svg"
   xmlns:xlink="http://www.w3.org/1999/xlink"
   xmlns:sodipodi="http://sodipodi.sourceforge.net/DTD/sodipodi-0.dtd"
   xmlns:inkscape="http://www.inkscape.org/namespaces/inkscape"
   width="48"
   height="48"
   id="svg2571"
   sodipodi:version="0.32"
   inkscape:version="0.46"
   version="1.0"
   sodipodi:docname="public_transport.svg"
   inkscape:output_extension="org.inkscape.output.svg.inkscape"
   inkscape:export-filename="G:\Projekte\Workspace\Java\AndNav\res\drawable\public_transport.png"
   inkscape:export-xdpi="90"
   inkscape:export-ydpi="90">
  <defs
     id="defs2573">
    <inkscape:perspective
       sodipodi:type="inkscape:persp3d"
       inkscape:vp_x="-0.8000596 : -421.89425 : 1"
       inkscape:vp_y="6.6357451e-14 : -10.161696 : 0"
       inkscape:vp_z="805.60132 : -421.89425 : 1"
       inkscape:persp3d-origin="402.40063 : -420.11195 : 1"
       id="perspective2579" />
    <inkscape:perspective
       id="perspective2935"
       inkscape:persp3d-origin="372.04724 : 350.78739 : 1"
       inkscape:vp_z="744.09448 : 526.18109 : 1"
       inkscape:vp_y="0 : 1000 : 0"
       inkscape:vp_x="0 : 526.18109 : 1"
       sodipodi:type="inkscape:persp3d" />
    <inkscape:perspective
       id="perspective3004"
       inkscape:persp3d-origin="372.04724 : 350.78739 : 1"
       inkscape:vp_z="744.09448 : 526.18109 : 1"
       inkscape:vp_y="0 : 1000 : 0"
       inkscape:vp_x="0 : 526.18109 : 1"
       sodipodi:type="inkscape:persp3d" />
    <radialGradient
       gradientTransform="matrix(0.9677417,-0.967742,0.967742,0.9677418,-22.199958,24.25165)"
       gradientUnits="userSpaceOnUse"
       r="24.799999"
       fy="23.739962"
       fx="24"
       cy="23.739962"
       cx="24"
       id="radialGradient19089"
       xlink:href="#linearGradient7308"
       inkscape:collect="always" />
    <linearGradient
       gradientUnits="userSpaceOnUse"
       y2="28.133862"
       x2="69.101758"
       y1="28.133862"
       x1="-6.7842059"
       id="linearGradient7314"
       xlink:href="#linearGradient7308"
       inkscape:collect="always" />
    <linearGradient
       id="linearGradient3141">
      <stop
         id="stop3143"
         offset="0"
         style="stop-color:#494949;stop-opacity:1;" />
      <stop
         id="stop3145"
         offset="1"
         style="stop-color:#949494;stop-opacity:1;" />
    </linearGradient>
    <linearGradient
       id="linearGradient7308">
      <stop
         id="stop7310"
         offset="0"
         style="stop-color:#87ff29;stop-opacity:1;" />
      <stop
         id="stop7312"
         offset="1"
         style="stop-color:#ffffff;stop-opacity:0;" />
    </linearGradient>
    <linearGradient
       id="linearGradient11275">
      <stop
         id="stop11277"
         offset="0"
         style="stop-color:#2c2c2c;stop-opacity:1;" />
      <stop
         id="stop11279"
         offset="1"
         style="stop-color:#b4b4b4;stop-opacity:1;" />
    </linearGradient>
    <linearGradient
       id="linearGradient19083">
      <stop
         id="stop19085"
         offset="0"
         style="stop-color:#ffffff;stop-opacity:0.73737371;" />
      <stop
         id="stop19087"
         offset="1"
         style="stop-color:#89bf33;stop-opacity:0;" />
    </linearGradient>
    <inkscape:perspective
       id="perspective4211"
       inkscape:persp3d-origin="24 : 16 : 1"
       inkscape:vp_z="48 : 24 : 1"
       inkscape:vp_y="0 : 1000 : 0"
       inkscape:vp_x="0 : 24 : 1"
       sodipodi:type="inkscape:persp3d" />
  </defs>
  <sodipodi:namedview
     id="base"
     pagecolor="#ffffff"
     bordercolor="#666666"
     borderopacity="1.0"
     inkscape:pageopacity="0.0"
     inkscape:pageshadow="2"
     inkscape:zoom="4"
     inkscape:cx="15.525088"
     inkscape:cy="29.613034"
     inkscape:document-units="px"
     inkscape:current-layer="layer1"
     showgrid="false"
     inkscape:window-width="1276"
     inkscape:window-height="750"
     inkscape:window-x="0"
     inkscape:window-y="14" />
  <metadata
     id="metadata2576">
    <rdf:RDF>
      <cc:Work
         rdf:about="">
        <dc:format>image/svg+xml</dc:format>
        <dc:type
           rdf:resource="http://purl.org/dc/dcmitype/StillImage" />
      </cc:Work>
    </rdf:RDF>
  </metadata>
  <g
     inkscape:label="Ebene 1"
     inkscape:groupmode="layer"
     id="layer1">
    <g
       id="g8342"
       transform="translate(6.9784055,11.895236)" />
    <g
       id="g3420"
       transform="matrix(1.0741764,0,0,1.0910707,1.3340439,5.8858194)" />
    <g
       id="g4441"
       transform="matrix(1.5350762,0,0,1.5350762,-27.638944,-1.9143191)">
      <path
         sodipodi:nodetypes="csssssscsssssssssscssssscssssssc"
         id="path3791"
         d="M 33.881208,1.651624 C 31.154864,1.652368 28.430373,1.998296 26.455075,2.689556 C 26.258361,2.758396 26.062791,2.832383 25.881733,2.908068 C 25.810652,2.935816 25.732066,2.961273 25.663318,2.990011 C 25.338481,3.125798 25.055711,3.269277 24.789654,3.399721 C 24.746217,3.422307 24.695325,3.458711 24.653145,3.481663 C 22.916277,4.369321 22.401262,5.26014 22.004854,7.660707 C 21.877414,8.432495 21.788055,9.44269 21.704533,10.528677 C 21.493649,12.537688 21.32276,15.143513 21.10389,18.613624 C 20.584279,26.852147 20.68282,28.009642 21.895647,28.009645 C 22.039889,28.009645 22.166779,28.034512 22.305177,28.091587 C 22.53011,28.184352 22.748814,28.342197 22.933121,28.555925 C 22.946113,28.570989 22.947721,28.594988 22.960423,28.610553 C 23.103599,28.896227 23.178839,29.286868 23.178839,29.703114 C 23.178839,32.311036 24.919175,33.013138 25.909035,31.615095 C 25.926771,31.599346 25.946245,31.577167 25.963639,31.560467 C 25.982869,31.531343 25.999678,31.509329 26.018243,31.478525 C 26.361112,31.11706 26.641733,30.584673 26.728094,29.976254 C 26.835808,29.217477 26.978556,28.733824 27.547152,28.446669 C 28.443871,28.122248 30.175357,28.091587 33.662792,28.091587 C 40.119762,28.091587 40.553422,28.209221 40.815906,30.058196 C 40.931063,30.869422 41.368218,31.561321 41.880681,31.860922 C 41.899212,31.871756 41.916554,31.878464 41.935285,31.888236 C 42.941727,32.767071 44.365169,31.967906 44.36516,29.621172 C 44.36516,29.332053 44.400544,29.063897 44.474368,28.829065 C 44.790224,28.383816 45.210533,28.091587 45.648352,28.091587 C 46.861162,28.091587 46.95972,26.934089 46.440109,18.695566 C 46.230264,15.368484 46.066584,12.831557 45.866768,10.856445 C 45.86468,10.835771 45.868865,10.822367 45.866768,10.801817 C 45.779489,9.576701 45.679751,8.43025 45.539144,7.578765 C 45.072976,4.755711 44.452115,3.994369 41.853379,2.908068 C 39.85679,2.07347 36.87905,1.650806 33.881208,1.651624 z"
         style="fill:#ffffff;fill-opacity:1;stroke:none;stroke-width:0.60000002;stroke-miterlimit:4;stroke-dasharray:none;stroke-opacity:1" />
      <g
         id="g4381">
        <g
           id="g4356"
           transform="translate(4.0624998,0.6250001)">
          <rect
             y="12.375"
             x="37.46875"
             height="5.5"
             width="3.375"
             id="rect4358"
             style="opacity:1;fill:#356db8;fill-opacity:1;fill-rule:evenodd;stroke:#000000;stroke-width:0.39086008;stroke-linecap:round;stroke-linejoin:round;stroke-miterlimit:4;stroke-dasharray:none;stroke-opacity:1" />
          <path
             transform="matrix(0.3974359,0,0,0.3974359,41.596154,4.028846)"
             d="M -1.5,16.125 A 4.875,4.875 0 1 1 -11.25,16.125 A 4.875,4.875 0 1 1 -1.5,16.125 z"
             sodipodi:ry="4.875"
             sodipodi:rx="4.875"
             sodipodi:cy="16.125"
             sodipodi:cx="-6.375"
             id="path4360"
             style="opacity:1;fill:#eec0a5;fill-opacity:1;fill-rule:evenodd;stroke:#000000;stroke-width:0.98345435;stroke-linecap:round;stroke-linejoin:round;stroke-miterlimit:4;stroke-dasharray:none;stroke-opacity:1"
             sodipodi:type="arc" />
        </g>
        <g
           id="g4346">
          <rect
             y="12.3125"
             x="39.09375"
             height="5.5"
             width="3.375"
             id="rect4284"
             style="fill:#1c3b63;fill-opacity:1;fill-rule:evenodd;stroke:#000000;stroke-width:0.39086008;stroke-linecap:round;stroke-linejoin:round;stroke-miterlimit:4;stroke-dasharray:none;stroke-opacity:1" />
          <path
             transform="matrix(0.3974359,0,0,0.3974359,43.221154,3.966346)"
             d="M -1.5,16.125 A 4.875,4.875 0 1 1 -11.25,16.125 A 4.875,4.875 0 1 1 -1.5,16.125 z"
             sodipodi:ry="4.875"
             sodipodi:rx="4.875"
             sodipodi:cy="16.125"
             sodipodi:cx="-6.375"
             id="path4282"
             style="fill:#eec0a5;fill-opacity:1;fill-rule:evenodd;stroke:#000000;stroke-width:0.98345435;stroke-linecap:round;stroke-linejoin:round;stroke-miterlimit:4;stroke-dasharray:none;stroke-opacity:1"
             sodipodi:type="arc" />
        </g>
        <g
           id="g4350"
           transform="translate(-6.7500002,-6.2499901e-2)">
          <rect
             y="12.375"
             x="37.46875"
             height="5.5"
             width="3.375"
             id="rect4352"
             style="opacity:1;fill:#356db8;fill-opacity:1;fill-rule:evenodd;stroke:#000000;stroke-width:0.39086008;stroke-linecap:round;stroke-linejoin:round;stroke-miterlimit:4;stroke-dasharray:none;stroke-opacity:1" />
          <path
             transform="matrix(0.3974359,0,0,0.3974359,41.596154,4.028846)"
             d="M -1.5,16.125 A 4.875,4.875 0 1 1 -11.25,16.125 A 4.875,4.875 0 1 1 -1.5,16.125 z"
             sodipodi:ry="4.875"
             sodipodi:rx="4.875"
             sodipodi:cy="16.125"
             sodipodi:cx="-6.375"
             id="path4354"
             style="opacity:1;fill:#eec0a5;fill-opacity:1;fill-rule:evenodd;stroke:#000000;stroke-width:0.98345435;stroke-linecap:round;stroke-linejoin:round;stroke-miterlimit:4;stroke-dasharray:none;stroke-opacity:1"
             sodipodi:type="arc" />
        </g>
        <g
           id="g4340">
          <rect
             y="13"
             x="32.65625"
             height="5.5"
             width="3.375"
             id="rect4292"
             style="fill:#f65910;fill-opacity:1;fill-rule:evenodd;stroke:#000000;stroke-width:0.39086008;stroke-linecap:round;stroke-linejoin:round;stroke-miterlimit:4;stroke-dasharray:none;stroke-opacity:1" />
          <path
             transform="matrix(0.3974359,0,0,0.3974359,36.783654,4.6538461)"
             d="M -1.5,16.125 A 4.875,4.875 0 1 1 -11.25,16.125 A 4.875,4.875 0 1 1 -1.5,16.125 z"
             sodipodi:ry="4.875"
             sodipodi:rx="4.875"
             sodipodi:cy="16.125"
             sodipodi:cx="-6.375"
             id="path4294"
             style="fill:#eec0a5;fill-opacity:1;fill-rule:evenodd;stroke:#000000;stroke-width:0.98345435;stroke-linecap:round;stroke-linejoin:round;stroke-miterlimit:4;stroke-dasharray:none;stroke-opacity:1"
             sodipodi:type="arc" />
        </g>
        <g
           id="g4334">
          <rect
             y="12.5625"
             x="27.34375"
             height="5.5"
             width="3.375"
             id="rect4298"
             style="fill:#b8b035;fill-opacity:1;fill-rule:evenodd;stroke:#000000;stroke-width:0.39086008;stroke-linecap:round;stroke-linejoin:round;stroke-miterlimit:4;stroke-dasharray:none;stroke-opacity:1" />
          <path
             transform="matrix(0.3974359,0,0,0.3974359,31.471154,4.2163461)"
             d="M -1.5,16.125 A 4.875,4.875 0 1 1 -11.25,16.125 A 4.875,4.875 0 1 1 -1.5,16.125 z"
             sodipodi:ry="4.875"
             sodipodi:rx="4.875"
             sodipodi:cy="16.125"
             sodipodi:cx="-6.375"
             id="path4300"
             style="fill:#eec0a5;fill-opacity:1;fill-rule:evenodd;stroke:#000000;stroke-width:0.98345435;stroke-linecap:round;stroke-linejoin:round;stroke-miterlimit:4;stroke-dasharray:none;stroke-opacity:1"
             sodipodi:type="arc" />
        </g>
        <g
           id="g4328">
          <rect
             y="14.5"
             x="29.40625"
             height="5.5"
             width="3.375"
             id="rect4316"
             style="fill:#b06d2b;fill-opacity:1;fill-rule:evenodd;stroke:#000000;stroke-width:0.39086008;stroke-linecap:round;stroke-linejoin:round;stroke-miterlimit:4;stroke-dasharray:none;stroke-opacity:1" />
          <path
             transform="matrix(0.3974359,0,0,0.3974359,33.533654,6.1538461)"
             d="M -1.5,16.125 A 4.875,4.875 0 1 1 -11.25,16.125 A 4.875,4.875 0 1 1 -1.5,16.125 z"
             sodipodi:ry="4.875"
             sodipodi:rx="4.875"
             sodipodi:cy="16.125"
             sodipodi:cx="-6.375"
             id="path4318"
             style="fill:#eec0a5;fill-opacity:1;fill-rule:evenodd;stroke:#000000;stroke-width:0.98345435;stroke-linecap:round;stroke-linejoin:round;stroke-miterlimit:4;stroke-dasharray:none;stroke-opacity:1"
             sodipodi:type="arc" />
        </g>
        <g
           id="g4322">
          <g
             id="g4362">
            <rect
               style="fill:#356d12;fill-opacity:1;fill-rule:evenodd;stroke:#000000;stroke-width:0.39086008;stroke-linecap:round;stroke-linejoin:round;stroke-miterlimit:4;stroke-dasharray:none;stroke-opacity:1"
               id="rect4304"
               width="3.375"
               height="5.5"
               x="36.34375"
               y="13" />
            <path
               sodipodi:type="arc"
               style="fill:#eec0a5;fill-opacity:1;fill-rule:evenodd;stroke:#000000;stroke-width:0.98345435;stroke-linecap:round;stroke-linejoin:round;stroke-miterlimit:4;stroke-dasharray:none;stroke-opacity:1"
               id="path4306"
               sodipodi:cx="-6.375"
               sodipodi:cy="16.125"
               sodipodi:rx="4.875"
               sodipodi:ry="4.875"
               d="M -1.5,16.125 A 4.875,4.875 0 1 1 -11.25,16.125 A 4.875,4.875 0 1 1 -1.5,16.125 z"
               transform="matrix(0.3974359,0,0,0.3974359,40.471154,4.6538461)" />
          </g>
        </g>
        <g
           id="g4308"
           transform="translate(-13.125,1.1875001)">
          <rect
             y="12.375"
             x="37.46875"
             height="5.5"
             width="3.375"
             id="rect4310"
             style="opacity:1;fill:#356db8;fill-opacity:1;fill-rule:evenodd;stroke:#000000;stroke-width:0.39086008;stroke-linecap:round;stroke-linejoin:round;stroke-miterlimit:4;stroke-dasharray:none;stroke-opacity:1" />
          <path
             transform="matrix(0.3974359,0,0,0.3974359,41.596154,4.028846)"
             d="M -1.5,16.125 A 4.875,4.875 0 1 1 -11.25,16.125 A 4.875,4.875 0 1 1 -1.5,16.125 z"
             sodipodi:ry="4.875"
             sodipodi:rx="4.875"
             sodipodi:cy="16.125"
             sodipodi:cx="-6.375"
             id="path4312"
             style="opacity:1;fill:#eec0a5;fill-opacity:1;fill-rule:evenodd;stroke:#000000;stroke-width:0.98345435;stroke-linecap:round;stroke-linejoin:round;stroke-miterlimit:4;stroke-dasharray:none;stroke-opacity:1"
             sodipodi:type="arc" />
        </g>
      </g>
      <path
         id="path3010"
         d="M 33.881208,1.651623 C 31.154864,1.652367 28.430373,1.998296 26.455075,2.689556 C 26.258361,2.758395 26.062791,2.832382 25.881733,2.908068 C 25.810652,2.935816 25.732066,2.961272 25.663318,2.99001 C 25.338481,3.125798 25.055711,3.269276 24.789654,3.39972 C 24.746217,3.422307 24.695325,3.458711 24.653145,3.481662 C 22.916277,4.369321 22.401262,5.260139 22.004854,7.660706 C 21.877414,8.432495 21.788055,9.44269 21.704533,10.528677 C 21.493649,12.537688 21.32276,15.143513 21.10389,18.613624 C 20.584279,26.852147 20.68282,28.009642 21.895647,28.009645 C 22.039889,28.009645 22.166779,28.034512 22.305177,28.091587 C 22.53011,28.184352 22.748814,28.342197 22.933121,28.555925 C 22.946113,28.570989 22.947721,28.594988 22.960423,28.610553 C 23.103599,28.896227 23.178839,29.286868 23.178839,29.703114 C 23.178839,32.311036 24.919175,33.013138 25.909035,31.615095 C 25.926771,31.599346 25.946245,31.577167 25.963639,31.560467 C 25.982869,31.531343 25.999678,31.509329 26.018243,31.478525 C 26.361112,31.11706 26.641733,30.584673 26.728094,29.976254 C 26.835808,29.217477 26.978556,28.733824 27.547152,28.446669 C 28.443871,28.122248 30.175357,28.091587 33.662792,28.091587 C 40.119762,28.091587 40.553422,28.209221 40.815906,30.058196 C 40.931063,30.869422 41.368218,31.561321 41.880681,31.860922 C 41.899212,31.871756 41.916554,31.878464 41.935285,31.888236 C 42.941727,32.767071 44.365169,31.967906 44.36516,29.621172 C 44.36516,29.332053 44.400544,29.063897 44.474368,28.829065 C 44.790224,28.383816 45.210533,28.091587 45.648352,28.091587 C 46.861162,28.091587 46.95972,26.934089 46.440109,18.695566 C 46.230264,15.368484 46.066584,12.831557 45.866768,10.856446 C 45.86468,10.835771 45.868865,10.822367 45.866768,10.801818 C 45.779489,9.576701 45.679751,8.430249 45.539144,7.578764 C 45.072976,4.75571 44.452115,3.994369 41.853379,2.908068 C 39.85679,2.07347 36.87905,1.650805 33.881208,1.651623 z M 33.662792,3.618232 C 37.157443,3.618232 39.778431,3.992824 39.778431,4.492281 C 39.778431,4.554713 39.747713,4.625437 39.669223,4.683479 C 39.62021,4.71972 39.528258,4.758514 39.450808,4.792735 C 38.51224,5.09544 36.435396,5.284387 33.881208,5.284387 C 30.386556,5.284387 27.765577,4.909795 27.765569,4.410339 C 27.765569,4.347906 27.796287,4.277183 27.874777,4.219141 C 27.906561,4.195641 27.967429,4.159867 28.011286,4.137199 C 28.034254,4.129143 28.068642,4.117803 28.093192,4.109885 C 29.031759,3.80718 31.108612,3.618232 33.662792,3.618232 z M 24.489333,7.114426 L 33.662792,7.114426 L 43.054666,7.114426 L 43.573404,10.392107 C 43.711932,11.230559 43.856147,11.945426 43.955631,12.577228 C 43.958583,12.612739 43.980137,12.651235 43.982933,12.686484 C 43.991504,12.742035 43.974886,12.796335 43.982933,12.850368 C 44.05867,13.891744 44.081098,14.779501 44.010235,15.335943 C 44.008837,15.346924 43.984391,15.352552 43.982933,15.363257 C 43.877586,15.639791 43.712673,15.870659 43.464196,16.046108 C 42.198214,16.390116 38.089134,16.647016 33.389772,16.647016 C 32.002894,16.647016 30.803181,16.649979 29.758612,16.647016 C 29.705336,16.646865 29.674539,16.647214 29.622102,16.647016 C 27.413089,16.560501 25.583011,16.414829 24.571239,16.237306 C 24.550218,16.229657 24.537001,16.217921 24.516635,16.209992 C 23.98709,16.003821 23.690587,15.695706 23.533765,15.254001 C 23.53103,15.246296 23.536403,15.234479 23.533765,15.226687 C 23.483651,14.629821 23.482463,13.759235 23.561067,12.768426 C 23.567943,12.681801 23.580532,12.583417 23.588369,12.495286 C 23.59341,12.463258 23.610473,12.418553 23.615671,12.38603 C 23.712979,11.776976 23.811791,11.106114 23.943294,10.310165 L 24.489333,7.114426 z M 24.980769,21.0992 C 26.202114,21.0992 26.700146,21.564338 26.509679,22.546843 C 26.333137,23.457496 25.789745,24.097516 25.171883,24.322253 C 24.448944,24.213854 23.736428,23.510358 23.533765,22.464901 C 23.464719,22.108743 23.502112,21.842436 23.615671,21.618166 C 23.619585,21.610433 23.611538,21.598431 23.615671,21.590852 C 23.932601,21.28869 24.392226,21.0992 24.980769,21.0992 z M 42.454023,21.0992 C 43.675368,21.0992 44.1734,21.564338 43.982933,22.546843 C 43.806391,23.457496 43.262999,24.097516 42.645137,24.322253 C 41.922198,24.213854 41.209682,23.510358 41.007019,22.464901 C 40.937974,22.108743 40.975366,21.842436 41.088925,21.618166 C 41.092839,21.610433 41.084792,21.598431 41.088925,21.590852 C 41.405855,21.28869 41.86548,21.0992 42.454023,21.0992 z"
         style="fill:#404040;fill-opacity:1;stroke:#000000;stroke-width:0.39086008;stroke-miterlimit:4;stroke-dasharray:none;stroke-opacity:1" />
    </g>
  </g>
</svg>
