<?xml version="1.0" encoding="UTF-8" standalone="no"?>
<!-- Created with Inkscape (http://www.inkscape.org/) -->
<svg
   xmlns:dc="http://purl.org/dc/elements/1.1/"
   xmlns:cc="http://creativecommons.org/ns#"
   xmlns:rdf="http://www.w3.org/1999/02/22-rdf-syntax-ns#"
   xmlns:svg="http://www.w3.org/2000/svg"
   xmlns="http://www.w3.org/2000/svg"
   xmlns:xlink="http://www.w3.org/1999/xlink"
   xmlns:sodipodi="http://sodipodi.sourceforge.net/DTD/sodipodi-0.dtd"
   xmlns:inkscape="http://www.inkscape.org/namespaces/inkscape"
   width="64"
   height="64"
   id="svg2571"
   sodipodi:version="0.32"
   inkscape:version="0.46"
   version="1.0"
   sodipodi:docname="settingsmenu_navigationsettings.svg"
   inkscape:output_extension="org.inkscape.output.svg.inkscape"
   inkscape:export-filename="D:\Workspace\Java\AndNav2\res\drawable\settingsmenu_navigationsettings.png"
   inkscape:export-xdpi="90"
   inkscape:export-ydpi="90">
  <defs
     id="defs2573">
    <linearGradient
       id="linearGradient4890">
      <stop
         style="stop-color:#ff0004;stop-opacity:1;"
         offset="0"
         id="stop4892" />
      <stop
         id="stop4894"
         offset="0.24528439"
         style="stop-color:#ff000c;stop-opacity:1;" />
      <stop
         style="stop-color:#0fff00;stop-opacity:1;"
         offset="0.33340442"
         id="stop4896" />
      <stop
         id="stop4898"
         offset="1"
         style="stop-color:#08ff00;stop-opacity:1;" />
    </linearGradient>
    <inkscape:perspective
       sodipodi:type="inkscape:persp3d"
       inkscape:vp_x="-0.8000596 : -421.89425 : 1"
       inkscape:vp_y="6.6357451e-14 : -10.161696 : 0"
       inkscape:vp_z="805.60132 : -421.89425 : 1"
       inkscape:persp3d-origin="402.40063 : -420.11195 : 1"
       id="perspective2579" />
    <inkscape:perspective
       id="perspective2935"
       inkscape:persp3d-origin="372.04724 : 350.78739 : 1"
       inkscape:vp_z="744.09448 : 526.18109 : 1"
       inkscape:vp_y="0 : 1000 : 0"
       inkscape:vp_x="0 : 526.18109 : 1"
       sodipodi:type="inkscape:persp3d" />
    <inkscape:perspective
       id="perspective3004"
       inkscape:persp3d-origin="372.04724 : 350.78739 : 1"
       inkscape:vp_z="744.09448 : 526.18109 : 1"
       inkscape:vp_y="0 : 1000 : 0"
       inkscape:vp_x="0 : 526.18109 : 1"
       sodipodi:type="inkscape:persp3d" />
    <radialGradient
       gradientTransform="matrix(0.9677417,-0.967742,0.967742,0.9677418,-22.199958,24.25165)"
       gradientUnits="userSpaceOnUse"
       r="24.799999"
       fy="23.739962"
       fx="24"
       cy="23.739962"
       cx="24"
       id="radialGradient19089"
       xlink:href="#linearGradient7308"
       inkscape:collect="always" />
    <linearGradient
       gradientUnits="userSpaceOnUse"
       y2="28.133862"
       x2="69.101761"
       y1="28.133862"
       x1="-6.7842059"
       id="linearGradient7314"
       xlink:href="#linearGradient7308"
       inkscape:collect="always" />
    <linearGradient
       id="linearGradient3141">
      <stop
         id="stop3143"
         offset="0"
         style="stop-color:#494949;stop-opacity:1;" />
      <stop
         id="stop3145"
         offset="1"
         style="stop-color:#949494;stop-opacity:1;" />
    </linearGradient>
    <linearGradient
       id="linearGradient7308">
      <stop
         id="stop7310"
         offset="0"
         style="stop-color:#87ff29;stop-opacity:1;" />
      <stop
         id="stop7312"
         offset="1"
         style="stop-color:#ffffff;stop-opacity:0;" />
    </linearGradient>
    <linearGradient
       id="linearGradient11275">
      <stop
         id="stop11277"
         offset="0"
         style="stop-color:#2c2c2c;stop-opacity:1;" />
      <stop
         id="stop11279"
         offset="1"
         style="stop-color:#b4b4b4;stop-opacity:1;" />
    </linearGradient>
    <linearGradient
       id="linearGradient19083">
      <stop
         id="stop19085"
         offset="0"
         style="stop-color:#ffffff;stop-opacity:0.73737371;" />
      <stop
         id="stop19087"
         offset="1"
         style="stop-color:#89bf33;stop-opacity:0;" />
    </linearGradient>
    <inkscape:perspective
       id="perspective4211"
       inkscape:persp3d-origin="24 : 16 : 1"
       inkscape:vp_z="48 : 24 : 1"
       inkscape:vp_y="0 : 1000 : 0"
       inkscape:vp_x="0 : 24 : 1"
       sodipodi:type="inkscape:persp3d" />
    <linearGradient
       inkscape:collect="always"
       xlink:href="#linearGradient11275"
       id="linearGradient4270"
       gradientUnits="userSpaceOnUse"
       gradientTransform="translate(6.9784055,11.895236)"
       x1="4.4108953"
       y1="45.798565"
       x2="47.068836"
       y2="0.4151167" />
    <radialGradient
       gradientTransform="matrix(3.4159184,0.4951629,-8.5905963e-2,2.1283235,36.93989,-342.00914)"
       gradientUnits="userSpaceOnUse"
       r="204.03581"
       fy="305.06235"
       fx="-4.4427061"
       cy="305.06235"
       cx="-4.4427061"
       id="radialGradient4562"
       xlink:href="#linearGradient4556"
       inkscape:collect="always" />
    <linearGradient
       id="linearGradient3151">
      <stop
         id="stop3153"
         offset="0"
         style="stop-color:#ffffff;stop-opacity:1;" />
      <stop
         id="stop3155"
         offset="1"
         style="stop-color:#ffffff;stop-opacity:0;" />
    </linearGradient>
    <linearGradient
       y2="609.50507"
       x2="302.85715"
       y1="366.64789"
       x1="302.85715"
       gradientTransform="matrix(2.774389,0,0,1.969706,-1892.179,-872.8854)"
       gradientUnits="userSpaceOnUse"
       id="linearGradient6715"
       xlink:href="#linearGradient5048"
       inkscape:collect="always" />
    <linearGradient
       id="linearGradient5048">
      <stop
         id="stop5050"
         offset="0"
         style="stop-color:black;stop-opacity:0;" />
      <stop
         style="stop-color:black;stop-opacity:1;"
         offset="0.5"
         id="stop5056" />
      <stop
         id="stop5052"
         offset="1"
         style="stop-color:black;stop-opacity:0;" />
    </linearGradient>
    <radialGradient
       r="117.14286"
       fy="486.64789"
       fx="605.71429"
       cy="486.64789"
       cx="605.71429"
       gradientTransform="matrix(2.774389,0,0,1.969706,-1891.633,-872.8854)"
       gradientUnits="userSpaceOnUse"
       id="radialGradient6717"
       xlink:href="#linearGradient5060"
       inkscape:collect="always" />
    <linearGradient
       id="linearGradient5060"
       inkscape:collect="always">
      <stop
         id="stop5062"
         offset="0"
         style="stop-color:black;stop-opacity:1;" />
      <stop
         id="stop5064"
         offset="1"
         style="stop-color:black;stop-opacity:0;" />
    </linearGradient>
    <radialGradient
       r="117.14286"
       fy="486.64789"
       fx="605.71429"
       cy="486.64789"
       cx="605.71429"
       gradientTransform="matrix(-2.774389,0,0,1.969706,112.7623,-872.8854)"
       gradientUnits="userSpaceOnUse"
       id="radialGradient6719"
       xlink:href="#linearGradient5060"
       inkscape:collect="always" />
    <linearGradient
       id="linearGradient4556">
      <stop
         id="stop4558"
         offset="0"
         style="stop-color:#ffd712;stop-opacity:1;" />
      <stop
         id="stop4560"
         offset="1"
         style="stop-color:#ffe012;stop-opacity:0;" />
    </linearGradient>
    <inkscape:perspective
       id="perspective31"
       inkscape:persp3d-origin="24 : 16 : 1"
       inkscape:vp_z="48 : 24 : 1"
       inkscape:vp_y="0 : 1000 : 0"
       inkscape:vp_x="0 : 24 : 1"
       sodipodi:type="inkscape:persp3d" />
    <inkscape:perspective
       sodipodi:type="inkscape:persp3d"
       inkscape:vp_x="0 : 24 : 1"
       inkscape:vp_y="0 : 1000 : 0"
       inkscape:vp_z="48 : 24 : 1"
       inkscape:persp3d-origin="24 : 16 : 1"
       id="perspective23" />
    <linearGradient
       id="linearGradient2304">
      <stop
         id="stop2306"
         offset="0"
         style="stop-color:#73d216" />
      <stop
         id="stop2308"
         offset="1.0000000"
         style="stop-color:#4e9a06" />
    </linearGradient>
    <linearGradient
       id="linearGradient8662"
       inkscape:collect="always">
      <stop
         id="stop8664"
         offset="0"
         style="stop-color:#000000;stop-opacity:1;" />
      <stop
         id="stop8666"
         offset="1"
         style="stop-color:#000000;stop-opacity:0;" />
    </linearGradient>
    <linearGradient
       id="linearGradient8650"
       inkscape:collect="always">
      <stop
         id="stop8652"
         offset="0"
         style="stop-color:#ffffff;stop-opacity:1;" />
      <stop
         id="stop8654"
         offset="1"
         style="stop-color:#ffffff;stop-opacity:0;" />
    </linearGradient>
    <radialGradient
       inkscape:collect="always"
       xlink:href="#linearGradient8650"
       id="radialGradient1438"
       gradientUnits="userSpaceOnUse"
       gradientTransform="matrix(0,-2.046729,1.55761,0,2.767009,66.93275)"
       cx="24.53788"
       cy="0.40010813"
       fx="24.53788"
       fy="0.40010813"
       r="17.171415" />
    <radialGradient
       inkscape:collect="always"
       xlink:href="#linearGradient2304"
       id="radialGradient1441"
       gradientUnits="userSpaceOnUse"
       gradientTransform="matrix(0,-0.843022,1.020168,0,0.606436,42.58614)"
       cx="11.319205"
       cy="22.454971"
       fx="11.319205"
       fy="22.454971"
       r="16.9562" />
    <radialGradient
       inkscape:collect="always"
       xlink:href="#linearGradient8662"
       id="radialGradient1444"
       gradientUnits="userSpaceOnUse"
       gradientTransform="matrix(1,0,0,0.536723,0,16.87306)"
       cx="24.837126"
       cy="36.421127"
       fx="24.837126"
       fy="36.421127"
       r="15.644737" />
    <radialGradient
       inkscape:collect="always"
       xlink:href="#linearGradient2304"
       id="radialGradient2406"
       gradientUnits="userSpaceOnUse"
       gradientTransform="matrix(0,-0.843022,1.020168,0,0.606436,42.58614)"
       cx="11.319205"
       cy="22.454971"
       fx="11.319205"
       fy="22.454971"
       r="16.9562" />
    <radialGradient
       inkscape:collect="always"
       xlink:href="#linearGradient8650"
       id="radialGradient2408"
       gradientUnits="userSpaceOnUse"
       gradientTransform="matrix(0,-2.046729,1.55761,0,2.767009,66.93275)"
       cx="24.53788"
       cy="0.40010813"
       fx="24.53788"
       fy="0.40010813"
       r="17.171415" />
    <radialGradient
       inkscape:collect="always"
       xlink:href="#linearGradient8650"
       id="radialGradient2413"
       gradientUnits="userSpaceOnUse"
       gradientTransform="matrix(0,-2.4317897,1.8806543,0,-1.3438068,75.815798)"
       cx="24.53788"
       cy="0.40010813"
       fx="24.53788"
       fy="0.40010813"
       r="17.171415" />
    <radialGradient
       inkscape:collect="always"
       xlink:href="#linearGradient2304"
       id="radialGradient2416"
       gradientUnits="userSpaceOnUse"
       gradientTransform="matrix(0,-1.0016237,1.2317482,0,-3.9524771,46.888746)"
       cx="11.319205"
       cy="22.454971"
       fx="11.319205"
       fy="22.454971"
       r="16.9562" />
    <inkscape:perspective
       id="perspective2879"
       inkscape:persp3d-origin="24 : 16 : 1"
       inkscape:vp_z="48 : 24 : 1"
       inkscape:vp_y="0 : 1000 : 0"
       inkscape:vp_x="0 : 24 : 1"
       sodipodi:type="inkscape:persp3d" />
    <inkscape:perspective
       id="perspective10"
       inkscape:persp3d-origin="372.04724 : 350.78739 : 1"
       inkscape:vp_z="744.09448 : 526.18109 : 1"
       inkscape:vp_y="0 : 1000 : 0"
       inkscape:vp_x="0 : 526.18109 : 1"
       sodipodi:type="inkscape:persp3d" />
    <linearGradient
       id="linearGradient3419">
      <stop
         id="stop3421"
         offset="0"
         style="stop-color:#ff0004;stop-opacity:1;" />
      <stop
         style="stop-color:#ff000c;stop-opacity:1;"
         offset="0.15963827"
         id="stop3429" />
      <stop
         id="stop3433"
         offset="0.29255942"
         style="stop-color:#0fff00;stop-opacity:1;" />
      <stop
         style="stop-color:#08ff00;stop-opacity:1;"
         offset="0.8758055"
         id="stop3427" />
      <stop
         id="stop3431"
         offset="0.90259272"
         style="stop-color:#0436fa;stop-opacity:1;" />
      <stop
         id="stop3423"
         offset="1"
         style="stop-color:#0024ff;stop-opacity:1;" />
    </linearGradient>
    <linearGradient
       inkscape:collect="always"
       xlink:href="#linearGradient4890"
       id="linearGradient4888"
       gradientUnits="userSpaceOnUse"
       gradientTransform="matrix(1.0068746,0,0,0.8932583,18.040664,-14.108782)"
       x1="9.6790962"
       y1="24.131586"
       x2="13.489122"
       y2="51.740845" />
    <inkscape:perspective
       sodipodi:type="inkscape:persp3d"
       inkscape:vp_x="0 : 526.18109 : 1"
       inkscape:vp_y="0 : 1000 : 0"
       inkscape:vp_z="744.09448 : 526.18109 : 1"
       inkscape:persp3d-origin="372.04724 : 350.78739 : 1"
       id="perspective2400" />
    <inkscape:perspective
       id="perspective2391"
       inkscape:persp3d-origin="16 : 10.666667 : 1"
       inkscape:vp_z="32 : 16 : 1"
       inkscape:vp_y="0 : 1000 : 0"
       inkscape:vp_x="0 : 16 : 1"
       sodipodi:type="inkscape:persp3d" />
  </defs>
  <sodipodi:namedview
     id="base"
     pagecolor="#ffffff"
     bordercolor="#666666"
     borderopacity="1.0"
     inkscape:pageopacity="0.0"
     inkscape:pageshadow="2"
     inkscape:zoom="5.6568542"
     inkscape:cx="40.740761"
     inkscape:cy="5.1410384"
     inkscape:document-units="px"
     inkscape:current-layer="layer1"
     showgrid="false"
     inkscape:window-width="1257"
     inkscape:window-height="750"
     inkscape:window-x="36"
     inkscape:window-y="8" />
  <metadata
     id="metadata2576">
    <rdf:RDF>
      <cc:Work
         rdf:about="">
        <dc:format>image/svg+xml</dc:format>
        <dc:type
           rdf:resource="http://purl.org/dc/dcmitype/StillImage" />
      </cc:Work>
    </rdf:RDF>
  </metadata>
  <g
     inkscape:label="Ebene 1"
     inkscape:groupmode="layer"
     id="layer1">
    <g
       id="g8342"
       transform="translate(6.9784055,11.895236)" />
    <g
       id="g3420"
       transform="matrix(1.0741764,0,0,1.0910707,1.3340439,5.8858194)" />
    <g
       id="g4265"
       transform="matrix(1.2976631,0,0,1.3209997,-8.1095376,-15.621209)">
      <path
         sodipodi:nodetypes="czccccczcc"
         id="path10296"
         d="M 6.9784055,59.895236 C 6.9784055,59.895236 20.65271,37.542195 23.235164,32.123276 C 25.883569,26.565968 22.219116,12.472258 22.219116,12.472258 L 34.919706,12.479694 C 34.919706,12.479694 36.486114,23.665082 38.475873,27.381721 C 43.608933,26.781952 54.901972,22.774037 54.901972,22.774037 L 55.071312,37.372853 C 55.071312,37.372853 40.846649,38.515906 37.459826,41.09836 C 33.903245,43.810252 29.67013,59.725895 29.67013,59.725895 L 6.9784055,59.895236 z"
         style="fill:url(#linearGradient4270);fill-opacity:1;fill-rule:evenodd;stroke:#000000;stroke-width:1px;stroke-linecap:butt;stroke-linejoin:miter;stroke-opacity:1" />
      <path
         sodipodi:nodetypes="ccc"
         id="path11291"
         d="M 17.453633,60.918236 C 17.453633,60.918236 29.610992,40.803208 31.455883,36.159804 C 31.030138,23.836927 28.239149,13.234058 28.239149,13.234058"
         style="fill:none;fill-rule:evenodd;stroke:#d7d7d7;stroke-width:1.75399995;stroke-linecap:butt;stroke-linejoin:round;stroke-miterlimit:4;stroke-dasharray:3.50799994, 3.50799994;stroke-dashoffset:3.50799986;stroke-opacity:1" />
      <path
         id="path11293"
         d="M 31.978406,35.340759 L 53.377901,29.895236"
         style="fill:none;fill-rule:evenodd;stroke:#dcdcdc;stroke-width:1.79999995;stroke-linecap:butt;stroke-linejoin:miter;stroke-miterlimit:4;stroke-dasharray:3.6, 3.6;stroke-dashoffset:3.59999979;stroke-opacity:1" />
    </g>
    <g
       id="g4441"
       transform="matrix(1.1103069,0,0,1.0936471,162.25897,5.3206142)">
      <path
         sodipodi:nodetypes="csssssscsssssssssscssssscssssssc"
         id="path3791"
         d="M 33.881208,1.651624 C 31.154864,1.652368 28.430373,1.998296 26.455075,2.689556 C 26.258361,2.758396 26.062791,2.832383 25.881733,2.908068 C 25.810652,2.935816 25.732066,2.961273 25.663318,2.990011 C 25.338481,3.125798 25.055711,3.269277 24.789654,3.399721 C 24.746217,3.422307 24.695325,3.458711 24.653145,3.481663 C 22.916277,4.369321 22.401262,5.26014 22.004854,7.660707 C 21.877414,8.432495 21.788055,9.44269 21.704533,10.528677 C 21.493649,12.537688 21.32276,15.143513 21.10389,18.613624 C 20.584279,26.852147 20.68282,28.009642 21.895647,28.009645 C 22.039889,28.009645 22.166779,28.034512 22.305177,28.091587 C 22.53011,28.184352 22.748814,28.342197 22.933121,28.555925 C 22.946113,28.570989 22.947721,28.594988 22.960423,28.610553 C 23.103599,28.896227 23.178839,29.286868 23.178839,29.703114 C 23.178839,32.311036 24.919175,33.013138 25.909035,31.615095 C 25.926771,31.599346 25.946245,31.577167 25.963639,31.560467 C 25.982869,31.531343 25.999678,31.509329 26.018243,31.478525 C 26.361112,31.11706 26.641733,30.584673 26.728094,29.976254 C 26.835808,29.217477 26.978556,28.733824 27.547152,28.446669 C 28.443871,28.122248 30.175357,28.091587 33.662792,28.091587 C 40.119762,28.091587 40.553422,28.209221 40.815906,30.058196 C 40.931063,30.869422 41.368218,31.561321 41.880681,31.860922 C 41.899212,31.871756 41.916554,31.878464 41.935285,31.888236 C 42.941727,32.767071 44.365169,31.967906 44.36516,29.621172 C 44.36516,29.332053 44.400544,29.063897 44.474368,28.829065 C 44.790224,28.383816 45.210533,28.091587 45.648352,28.091587 C 46.861162,28.091587 46.95972,26.934089 46.440109,18.695566 C 46.230264,15.368484 46.066584,12.831557 45.866768,10.856445 C 45.86468,10.835771 45.868865,10.822367 45.866768,10.801817 C 45.779489,9.576701 45.679751,8.43025 45.539144,7.578765 C 45.072976,4.755711 44.452115,3.994369 41.853379,2.908068 C 39.85679,2.07347 36.87905,1.650806 33.881208,1.651624 z"
         style="fill:#ffffff;fill-opacity:1;stroke:none;stroke-width:0.60000002;stroke-miterlimit:4;stroke-dasharray:none;stroke-opacity:1" />
      <g
         id="g4381">
        <g
           id="g4356"
           transform="translate(4.0624998,0.6250001)">
          <rect
             y="12.375"
             x="37.46875"
             height="5.5"
             width="3.375"
             id="rect4358"
             style="opacity:1;fill:#356db8;fill-opacity:1;fill-rule:evenodd;stroke:#000000;stroke-width:0.60000002;stroke-linecap:round;stroke-linejoin:round;stroke-miterlimit:4;stroke-dasharray:none;stroke-opacity:1" />
          <path
             transform="matrix(0.3974359,0,0,0.3974359,41.596154,4.028846)"
             d="M -1.5,16.125 A 4.875,4.875 0 1 1 -11.25,16.125 A 4.875,4.875 0 1 1 -1.5,16.125 z"
             sodipodi:ry="4.875"
             sodipodi:rx="4.875"
             sodipodi:cy="16.125"
             sodipodi:cx="-6.375"
             id="path4360"
             style="opacity:1;fill:#eec0a5;fill-opacity:1;fill-rule:evenodd;stroke:#000000;stroke-width:1.50967741;stroke-linecap:round;stroke-linejoin:round;stroke-miterlimit:4;stroke-dasharray:none;stroke-opacity:1"
             sodipodi:type="arc" />
        </g>
        <g
           id="g4346">
          <rect
             y="12.3125"
             x="39.09375"
             height="5.5"
             width="3.375"
             id="rect4284"
             style="fill:#1c3b63;fill-opacity:1;fill-rule:evenodd;stroke:#000000;stroke-width:0.60000002;stroke-linecap:round;stroke-linejoin:round;stroke-miterlimit:4;stroke-dasharray:none;stroke-opacity:1" />
          <path
             transform="matrix(0.3974359,0,0,0.3974359,43.221154,3.966346)"
             d="M -1.5,16.125 A 4.875,4.875 0 1 1 -11.25,16.125 A 4.875,4.875 0 1 1 -1.5,16.125 z"
             sodipodi:ry="4.875"
             sodipodi:rx="4.875"
             sodipodi:cy="16.125"
             sodipodi:cx="-6.375"
             id="path4282"
             style="fill:#eec0a5;fill-opacity:1;fill-rule:evenodd;stroke:#000000;stroke-width:1.50967741;stroke-linecap:round;stroke-linejoin:round;stroke-miterlimit:4;stroke-dasharray:none;stroke-opacity:1"
             sodipodi:type="arc" />
        </g>
        <g
           id="g4350"
           transform="translate(-6.7500002,-6.2499901e-2)">
          <rect
             y="12.375"
             x="37.46875"
             height="5.5"
             width="3.375"
             id="rect4352"
             style="opacity:1;fill:#356db8;fill-opacity:1;fill-rule:evenodd;stroke:#000000;stroke-width:0.60000002;stroke-linecap:round;stroke-linejoin:round;stroke-miterlimit:4;stroke-dasharray:none;stroke-opacity:1" />
          <path
             transform="matrix(0.3974359,0,0,0.3974359,41.596154,4.028846)"
             d="M -1.5,16.125 A 4.875,4.875 0 1 1 -11.25,16.125 A 4.875,4.875 0 1 1 -1.5,16.125 z"
             sodipodi:ry="4.875"
             sodipodi:rx="4.875"
             sodipodi:cy="16.125"
             sodipodi:cx="-6.375"
             id="path4354"
             style="opacity:1;fill:#eec0a5;fill-opacity:1;fill-rule:evenodd;stroke:#000000;stroke-width:1.50967741;stroke-linecap:round;stroke-linejoin:round;stroke-miterlimit:4;stroke-dasharray:none;stroke-opacity:1"
             sodipodi:type="arc" />
        </g>
        <g
           id="g4340">
          <rect
             y="13"
             x="32.65625"
             height="5.5"
             width="3.375"
             id="rect4292"
             style="fill:#f65910;fill-opacity:1;fill-rule:evenodd;stroke:#000000;stroke-width:0.60000002;stroke-linecap:round;stroke-linejoin:round;stroke-miterlimit:4;stroke-dasharray:none;stroke-opacity:1" />
          <path
             transform="matrix(0.3974359,0,0,0.3974359,36.783654,4.6538461)"
             d="M -1.5,16.125 A 4.875,4.875 0 1 1 -11.25,16.125 A 4.875,4.875 0 1 1 -1.5,16.125 z"
             sodipodi:ry="4.875"
             sodipodi:rx="4.875"
             sodipodi:cy="16.125"
             sodipodi:cx="-6.375"
             id="path4294"
             style="fill:#eec0a5;fill-opacity:1;fill-rule:evenodd;stroke:#000000;stroke-width:1.50967741;stroke-linecap:round;stroke-linejoin:round;stroke-miterlimit:4;stroke-dasharray:none;stroke-opacity:1"
             sodipodi:type="arc" />
        </g>
        <g
           id="g4334">
          <rect
             y="12.5625"
             x="27.34375"
             height="5.5"
             width="3.375"
             id="rect4298"
             style="fill:#b8b035;fill-opacity:1;fill-rule:evenodd;stroke:#000000;stroke-width:0.60000002;stroke-linecap:round;stroke-linejoin:round;stroke-miterlimit:4;stroke-dasharray:none;stroke-opacity:1" />
          <path
             transform="matrix(0.3974359,0,0,0.3974359,31.471154,4.2163461)"
             d="M -1.5,16.125 A 4.875,4.875 0 1 1 -11.25,16.125 A 4.875,4.875 0 1 1 -1.5,16.125 z"
             sodipodi:ry="4.875"
             sodipodi:rx="4.875"
             sodipodi:cy="16.125"
             sodipodi:cx="-6.375"
             id="path4300"
             style="fill:#eec0a5;fill-opacity:1;fill-rule:evenodd;stroke:#000000;stroke-width:1.50967741;stroke-linecap:round;stroke-linejoin:round;stroke-miterlimit:4;stroke-dasharray:none;stroke-opacity:1"
             sodipodi:type="arc" />
        </g>
        <g
           id="g4328">
          <rect
             y="14.5"
             x="29.40625"
             height="5.5"
             width="3.375"
             id="rect4316"
             style="fill:#b06d2b;fill-opacity:1;fill-rule:evenodd;stroke:#000000;stroke-width:0.60000002;stroke-linecap:round;stroke-linejoin:round;stroke-miterlimit:4;stroke-dasharray:none;stroke-opacity:1" />
          <path
             transform="matrix(0.3974359,0,0,0.3974359,33.533654,6.1538461)"
             d="M -1.5,16.125 A 4.875,4.875 0 1 1 -11.25,16.125 A 4.875,4.875 0 1 1 -1.5,16.125 z"
             sodipodi:ry="4.875"
             sodipodi:rx="4.875"
             sodipodi:cy="16.125"
             sodipodi:cx="-6.375"
             id="path4318"
             style="fill:#eec0a5;fill-opacity:1;fill-rule:evenodd;stroke:#000000;stroke-width:1.50967741;stroke-linecap:round;stroke-linejoin:round;stroke-miterlimit:4;stroke-dasharray:none;stroke-opacity:1"
             sodipodi:type="arc" />
        </g>
        <g
           id="g4322">
          <g
             id="g4362">
            <rect
               style="fill:#356d12;fill-opacity:1;fill-rule:evenodd;stroke:#000000;stroke-width:0.60000002;stroke-linecap:round;stroke-linejoin:round;stroke-miterlimit:4;stroke-dasharray:none;stroke-opacity:1"
               id="rect4304"
               width="3.375"
               height="5.5"
               x="36.34375"
               y="13" />
            <path
               sodipodi:type="arc"
               style="fill:#eec0a5;fill-opacity:1;fill-rule:evenodd;stroke:#000000;stroke-width:1.50967741;stroke-linecap:round;stroke-linejoin:round;stroke-miterlimit:4;stroke-dasharray:none;stroke-opacity:1"
               id="path4306"
               sodipodi:cx="-6.375"
               sodipodi:cy="16.125"
               sodipodi:rx="4.875"
               sodipodi:ry="4.875"
               d="M -1.5,16.125 A 4.875,4.875 0 1 1 -11.25,16.125 A 4.875,4.875 0 1 1 -1.5,16.125 z"
               transform="matrix(0.3974359,0,0,0.3974359,40.471154,4.6538461)" />
          </g>
        </g>
        <g
           id="g4308"
           transform="translate(-13.125,1.1875001)">
          <rect
             y="12.375"
             x="37.46875"
             height="5.5"
             width="3.375"
             id="rect4310"
             style="opacity:1;fill:#356db8;fill-opacity:1;fill-rule:evenodd;stroke:#000000;stroke-width:0.60000002;stroke-linecap:round;stroke-linejoin:round;stroke-miterlimit:4;stroke-dasharray:none;stroke-opacity:1" />
          <path
             transform="matrix(0.3974359,0,0,0.3974359,41.596154,4.028846)"
             d="M -1.5,16.125 A 4.875,4.875 0 1 1 -11.25,16.125 A 4.875,4.875 0 1 1 -1.5,16.125 z"
             sodipodi:ry="4.875"
             sodipodi:rx="4.875"
             sodipodi:cy="16.125"
             sodipodi:cx="-6.375"
             id="path4312"
             style="opacity:1;fill:#eec0a5;fill-opacity:1;fill-rule:evenodd;stroke:#000000;stroke-width:1.50967741;stroke-linecap:round;stroke-linejoin:round;stroke-miterlimit:4;stroke-dasharray:none;stroke-opacity:1"
             sodipodi:type="arc" />
        </g>
      </g>
      <path
         id="path3010"
         d="M 33.881208,1.651623 C 31.154864,1.652367 28.430373,1.998296 26.455075,2.689556 C 26.258361,2.758395 26.062791,2.832382 25.881733,2.908068 C 25.810652,2.935816 25.732066,2.961272 25.663318,2.99001 C 25.338481,3.125798 25.055711,3.269276 24.789654,3.39972 C 24.746217,3.422307 24.695325,3.458711 24.653145,3.481662 C 22.916277,4.369321 22.401262,5.260139 22.004854,7.660706 C 21.877414,8.432495 21.788055,9.44269 21.704533,10.528677 C 21.493649,12.537688 21.32276,15.143513 21.10389,18.613624 C 20.584279,26.852147 20.68282,28.009642 21.895647,28.009645 C 22.039889,28.009645 22.166779,28.034512 22.305177,28.091587 C 22.53011,28.184352 22.748814,28.342197 22.933121,28.555925 C 22.946113,28.570989 22.947721,28.594988 22.960423,28.610553 C 23.103599,28.896227 23.178839,29.286868 23.178839,29.703114 C 23.178839,32.311036 24.919175,33.013138 25.909035,31.615095 C 25.926771,31.599346 25.946245,31.577167 25.963639,31.560467 C 25.982869,31.531343 25.999678,31.509329 26.018243,31.478525 C 26.361112,31.11706 26.641733,30.584673 26.728094,29.976254 C 26.835808,29.217477 26.978556,28.733824 27.547152,28.446669 C 28.443871,28.122248 30.175357,28.091587 33.662792,28.091587 C 40.119762,28.091587 40.553422,28.209221 40.815906,30.058196 C 40.931063,30.869422 41.368218,31.561321 41.880681,31.860922 C 41.899212,31.871756 41.916554,31.878464 41.935285,31.888236 C 42.941727,32.767071 44.365169,31.967906 44.36516,29.621172 C 44.36516,29.332053 44.400544,29.063897 44.474368,28.829065 C 44.790224,28.383816 45.210533,28.091587 45.648352,28.091587 C 46.861162,28.091587 46.95972,26.934089 46.440109,18.695566 C 46.230264,15.368484 46.066584,12.831557 45.866768,10.856446 C 45.86468,10.835771 45.868865,10.822367 45.866768,10.801818 C 45.779489,9.576701 45.679751,8.430249 45.539144,7.578764 C 45.072976,4.75571 44.452115,3.994369 41.853379,2.908068 C 39.85679,2.07347 36.87905,1.650805 33.881208,1.651623 z M 33.662792,3.618232 C 37.157443,3.618232 39.778431,3.992824 39.778431,4.492281 C 39.778431,4.554713 39.747713,4.625437 39.669223,4.683479 C 39.62021,4.71972 39.528258,4.758514 39.450808,4.792735 C 38.51224,5.09544 36.435396,5.284387 33.881208,5.284387 C 30.386556,5.284387 27.765577,4.909795 27.765569,4.410339 C 27.765569,4.347906 27.796287,4.277183 27.874777,4.219141 C 27.906561,4.195641 27.967429,4.159867 28.011286,4.137199 C 28.034254,4.129143 28.068642,4.117803 28.093192,4.109885 C 29.031759,3.80718 31.108612,3.618232 33.662792,3.618232 z M 24.489333,7.114426 L 33.662792,7.114426 L 43.054666,7.114426 L 43.573404,10.392107 C 43.711932,11.230559 43.856147,11.945426 43.955631,12.577228 C 43.958583,12.612739 43.980137,12.651235 43.982933,12.686484 C 43.991504,12.742035 43.974886,12.796335 43.982933,12.850368 C 44.05867,13.891744 44.081098,14.779501 44.010235,15.335943 C 44.008837,15.346924 43.984391,15.352552 43.982933,15.363257 C 43.877586,15.639791 43.712673,15.870659 43.464196,16.046108 C 42.198214,16.390116 38.089134,16.647016 33.389772,16.647016 C 32.002894,16.647016 30.803181,16.649979 29.758612,16.647016 C 29.705336,16.646865 29.674539,16.647214 29.622102,16.647016 C 27.413089,16.560501 25.583011,16.414829 24.571239,16.237306 C 24.550218,16.229657 24.537001,16.217921 24.516635,16.209992 C 23.98709,16.003821 23.690587,15.695706 23.533765,15.254001 C 23.53103,15.246296 23.536403,15.234479 23.533765,15.226687 C 23.483651,14.629821 23.482463,13.759235 23.561067,12.768426 C 23.567943,12.681801 23.580532,12.583417 23.588369,12.495286 C 23.59341,12.463258 23.610473,12.418553 23.615671,12.38603 C 23.712979,11.776976 23.811791,11.106114 23.943294,10.310165 L 24.489333,7.114426 z M 24.980769,21.0992 C 26.202114,21.0992 26.700146,21.564338 26.509679,22.546843 C 26.333137,23.457496 25.789745,24.097516 25.171883,24.322253 C 24.448944,24.213854 23.736428,23.510358 23.533765,22.464901 C 23.464719,22.108743 23.502112,21.842436 23.615671,21.618166 C 23.619585,21.610433 23.611538,21.598431 23.615671,21.590852 C 23.932601,21.28869 24.392226,21.0992 24.980769,21.0992 z M 42.454023,21.0992 C 43.675368,21.0992 44.1734,21.564338 43.982933,22.546843 C 43.806391,23.457496 43.262999,24.097516 42.645137,24.322253 C 41.922198,24.213854 41.209682,23.510358 41.007019,22.464901 C 40.937974,22.108743 40.975366,21.842436 41.088925,21.618166 C 41.092839,21.610433 41.084792,21.598431 41.088925,21.590852 C 41.405855,21.28869 41.86548,21.0992 42.454023,21.0992 z"
         style="fill:#404040;fill-opacity:1;stroke:#000000;stroke-width:0.60000002;stroke-miterlimit:4;stroke-dasharray:none;stroke-opacity:1" />
    </g>
    <g
       id="g4488"
       transform="matrix(1.1103069,0,0,1.0936471,164.21518,6.4378387)">
      <path
         sodipodi:nodetypes="ccssssssssssssccccc"
         id="path3785"
         d="M 5.7970575,24.231188 L 4.1592765,28.050934 C 3.2552825,30.158919 2.0863005,32.149587 1.5661235,32.470926 C 0.37649546,33.205822 0.32767646,41.692884 1.5115315,41.692884 C 1.9919465,41.692884 2.3850145,42.187277 2.3850145,42.811524 C 2.3850145,43.435781 2.8299055,44.429429 3.3949785,44.994236 C 4.6000365,46.198752 6.7524295,44.853478 6.7524295,42.893376 C 6.7524295,42.017075 8.2371245,41.714811 12.621145,41.692884 C 12.805109,41.692884 12.910704,41.692011 13.085183,41.692884 C 17.469204,41.714811 18.953898,42.017074 18.953898,42.893376 C 18.953898,44.853478 21.106292,46.171467 22.311349,44.966952 C 22.876423,44.402145 23.321314,43.43578 23.321314,42.811524 C 23.321314,42.187277 23.714381,41.692884 24.194797,41.692884 C 25.378655,41.692884 25.329836,33.205821 24.140204,32.470926 C 23.620028,32.149587 22.451045,30.158918 21.547051,28.050934 L 19.90927,24.231188 L 13.303554,24.231188 L 12.402774,24.231188 L 5.7970575,24.231188 z"
         style="fill:#ffffff;fill-opacity:1;stroke:none;stroke-width:0.60000002;stroke-linecap:round;stroke-linejoin:round;stroke-miterlimit:4;stroke-dasharray:none;stroke-opacity:1" />
      <g
         transform="translate(-31.9375,19.375)"
         id="g4366">
        <rect
           style="fill:#1c3b63;fill-opacity:1;fill-rule:evenodd;stroke:#000000;stroke-width:0.60000002;stroke-linecap:round;stroke-linejoin:round;stroke-miterlimit:4;stroke-dasharray:none;stroke-opacity:1"
           id="rect4368"
           width="3.375"
           height="5.5"
           x="39.09375"
           y="12.3125" />
        <path
           sodipodi:type="arc"
           style="fill:#eec0a5;fill-opacity:1;fill-rule:evenodd;stroke:#000000;stroke-width:1.50967741;stroke-linecap:round;stroke-linejoin:round;stroke-miterlimit:4;stroke-dasharray:none;stroke-opacity:1"
           id="path4370"
           sodipodi:cx="-6.375"
           sodipodi:cy="16.125"
           sodipodi:rx="4.875"
           sodipodi:ry="4.875"
           d="M -1.5,16.125 A 4.875,4.875 0 1 1 -11.25,16.125 A 4.875,4.875 0 1 1 -1.5,16.125 z"
           transform="matrix(0.3974359,0,0,0.3974359,43.221154,3.966346)" />
      </g>
      <g
         id="g4484">
        <rect
           style="fill:#efe126;fill-opacity:1;fill-rule:evenodd;stroke:#000000;stroke-width:0.60000002;stroke-linecap:round;stroke-linejoin:round;stroke-miterlimit:4;stroke-dasharray:none;stroke-opacity:1"
           id="rect4478"
           width="3.375"
           height="5.5"
           x="14.846482"
           y="31.807926" />
        <path
           sodipodi:type="arc"
           style="fill:#eec0a5;fill-opacity:1;fill-rule:evenodd;stroke:#000000;stroke-width:1.50967741;stroke-linecap:round;stroke-linejoin:round;stroke-miterlimit:4;stroke-dasharray:none;stroke-opacity:1"
           id="path4480"
           sodipodi:cx="-6.375"
           sodipodi:cy="16.125"
           sodipodi:rx="4.875"
           sodipodi:ry="4.875"
           d="M -1.5,16.125 A 4.875,4.875 0 1 1 -11.25,16.125 A 4.875,4.875 0 1 1 -1.5,16.125 z"
           transform="matrix(0.3974359,0,0,0.3974359,18.973886,23.461773)" />
      </g>
      <path
         sodipodi:nodetypes="ccssssssssssssccccccccccsssccsssc"
         id="path2953"
         d="M 5.864015,24.425028 L 4.226234,28.244774 C 3.32224,30.352759 2.1532578,32.343427 1.6330811,32.664766 C 0.44345288,33.399662 0.39463388,41.886724 1.5784884,41.886724 C 2.0589042,41.886724 2.4519715,42.381117 2.4519715,43.005364 C 2.4519715,43.629621 2.8968624,44.623269 3.4619362,45.188076 C 4.6669936,46.392592 6.8193872,45.047318 6.8193872,43.087216 C 6.8193872,42.210915 8.3040818,41.908651 12.688102,41.886724 C 12.872066,41.886724 12.977661,41.885851 13.15214,41.886724 C 17.536161,41.908651 19.020855,42.210914 19.020855,43.087216 C 19.020855,45.047318 21.173249,46.365307 22.378306,45.160792 C 22.94338,44.595985 23.388271,43.62962 23.388271,43.005364 C 23.388271,42.381117 23.781338,41.886724 24.261754,41.886724 C 25.445612,41.886724 25.396793,33.399661 24.207161,32.664766 C 23.686985,32.343427 22.518002,30.352758 21.614008,28.244774 L 19.976227,24.425028 L 13.370511,24.425028 L 12.469731,24.425028 L 5.864015,24.425028 z M 12.77276,26.171198 C 20.073472,26.115026 19.842818,26.09908 20.822414,33.222207 L 5.0178281,33.222207 C 5.9882521,26.06748 6.0120647,26.165184 12.77276,26.171198 z M 4.3354194,35.055801 C 4.6385705,35.047265 5.0273054,35.137474 5.4545697,35.301356 C 6.2222654,35.595814 6.5702873,36.383492 6.2734602,37.156661 C 5.6112901,38.881457 4.2887667,38.856479 3.6257143,37.129377 C 3.1314014,35.841826 3.4259574,35.081409 4.3354194,35.055801 z M 21.504823,35.055801 C 22.414285,35.081409 22.708832,35.841825 22.214528,37.129377 C 21.551476,38.856479 20.228952,38.854173 19.566782,37.129377 C 19.269955,36.356208 19.617977,35.56853 20.385672,35.274072 C 20.812937,35.11019 21.201672,35.047265 21.504823,35.055801 z"
         style="fill:#a3a3ac;fill-opacity:1;stroke:#000000;stroke-width:0.60000002;stroke-linecap:round;stroke-linejoin:round;stroke-miterlimit:4;stroke-dasharray:none;stroke-opacity:1" />
    </g>
    <path
       style="fill:none;fill-rule:evenodd;stroke:url(#linearGradient4888);stroke-width:6.02547646000000010;stroke-linecap:round;stroke-linejoin:miter;stroke-miterlimit:4;stroke-dasharray:none;stroke-opacity:1"
       d="M 25.160143,3.2509449 C 28.440377,11.342692 28.331075,29.058353 31.884374,34.159354 C 34.756731,38.282819 53.203115,29.9389 60.08986,28.999057"
       id="path2409"
       sodipodi:nodetypes="csc" />
    <g
       id="g4491"
       inkscape:label="Layer 1"
       transform="matrix(1.5335729,0,0,1.5335729,-93.04828,-18.442904)">
      <text
         sodipodi:linespacing="125%"
         id="text3279"
         y="52.497597"
         x="61.045006"
         style="font-size:18.4101963px;font-style:normal;font-variant:normal;font-weight:bold;font-stretch:normal;text-align:start;line-height:125%;writing-mode:lr-tb;text-anchor:start;fill:#ffffff;fill-opacity:1;stroke:#000000;stroke-width:1.08393395;stroke-linecap:butt;stroke-linejoin:miter;stroke-miterlimit:4;stroke-dasharray:none;stroke-opacity:1;font-family:Comic Sans MS;-inkscape-font-specification:Comic Sans MS Bold"
         xml:space="preserve"><tspan
           style="stroke-width:1.08393395;stroke-miterlimit:4;stroke-dasharray:none"
           y="52.497597"
           x="61.045006"
           id="tspan3281"
           sodipodi:role="line">NAV</tspan></text>
    </g>
    <path
       style="fill:#ffffff;fill-opacity:1;fill-rule:evenodd;stroke:#000000;stroke-width:1.13427281;stroke-linecap:round;stroke-linejoin:round;stroke-miterlimit:4;stroke-dasharray:none;stroke-opacity:1"
       d="M 25.703016,23.083858 L 31.300748,21.6169 L 34.553313,33.484543 L 44.170136,31.06873 L 43.256619,27.64692 L 52.404351,31.732073 L 46.405779,39.717753 L 45.454773,36.155514 L 30.230001,40.068474 L 25.703016,23.083858 z"
       id="path6042"
       sodipodi:nodetypes="cccccccccc" />
    <g
       inkscape:label="Layer 1"
       id="g6037"
       transform="matrix(-0.7850661,0.2505673,-0.2505673,-0.7850661,45.713304,32.210822)">
      <path
         sodipodi:nodetypes="csssccsc"
         id="path2406"
         d="M 15.96693,0.80985676 C 10.966096,5.8106931 3.8697023,13.527793 3.8697013,19.8668 C 3.8697013,26.474532 9.4352908,30.875969 16.09347,31.179489 C 22.746646,31.482784 28.467789,25.258123 28.114784,19.183484 C 27.788235,13.564203 21.930972,6.7738977 15.96693,0.80985676 z M 16.017547,12.223778 C 23.112917,12.223778 25.73417,25.958785 16.017547,25.958785 C 6.2286114,25.958783 8.9204908,12.223778 16.017547,12.223778 z"
         style="fill:#619845;fill-opacity:1;fill-rule:evenodd;stroke:#ffffff;stroke-width:1.61971366;stroke-linecap:round;stroke-linejoin:miter;stroke-miterlimit:4;stroke-dasharray:none;stroke-opacity:1" />
    </g>
  </g>
</svg>
