<?xml version="1.0" encoding="UTF-8" standalone="no"?>
<!-- Created with Inkscape (http://www.inkscape.org/) -->
<svg
   xmlns:dc="http://purl.org/dc/elements/1.1/"
   xmlns:cc="http://creativecommons.org/ns#"
   xmlns:rdf="http://www.w3.org/1999/02/22-rdf-syntax-ns#"
   xmlns:svg="http://www.w3.org/2000/svg"
   xmlns="http://www.w3.org/2000/svg"
   xmlns:sodipodi="http://sodipodi.sourceforge.net/DTD/sodipodi-0.dtd"
   xmlns:inkscape="http://www.inkscape.org/namespaces/inkscape"
   width="100"
   height="45"
   id="svg4489"
   sodipodi:version="0.32"
   inkscape:version="0.46"
   version="1.0"
   sodipodi:docname="skyhook_logo.svg"
   inkscape:output_extension="org.inkscape.output.svg.inkscape"
   inkscape:export-filename="D:\Workspace\Java\AndNav2\res\drawable\skyhook_logo.png"
   inkscape:export-xdpi="90"
   inkscape:export-ydpi="90">
  <defs
     id="defs4491">
    <filter
       inkscape:collect="always"
       id="filter5100"
       x="-0.028772986"
       width="1.057546"
       y="-0.14182924"
       height="1.2836585">
      <feGaussianBlur
         inkscape:collect="always"
         stdDeviation="2.1208"
         id="feGaussianBlur5102" />
    </filter>
    <filter
       inkscape:collect="always"
       id="filter5038">
      <feGaussianBlur
         inkscape:collect="always"
         stdDeviation="1.9993089"
         id="feGaussianBlur5040" />
    </filter>
    <inkscape:perspective
       sodipodi:type="inkscape:persp3d"
       inkscape:vp_x="0 : 526.18109 : 1"
       inkscape:vp_y="0 : 1000 : 0"
       inkscape:vp_z="744.09448 : 526.18109 : 1"
       inkscape:persp3d-origin="372.04724 : 350.78739 : 1"
       id="perspective4497" />
    <filter
       inkscape:collect="always"
       id="filter3325"
       x="-0.035584822"
       width="1.0711696"
       y="-0.19115107"
       height="1.382302">
      <feGaussianBlur
         inkscape:collect="always"
         stdDeviation="0.96501624"
         id="feGaussianBlur3327" />
    </filter>
    <filter
       inkscape:collect="always"
       id="filter3329"
       x="-0.035672095"
       width="1.0713443"
       y="-0.28596109"
       height="1.5719222">
      <feGaussianBlur
         inkscape:collect="always"
         stdDeviation="0.83655744"
         id="feGaussianBlur3331" />
    </filter>
  </defs>
  <sodipodi:namedview
     id="base"
     pagecolor="#ffffff"
     bordercolor="#666666"
     borderopacity="1.0"
     inkscape:pageopacity="0.0"
     inkscape:pageshadow="2"
     inkscape:zoom="0.99999999"
     inkscape:cx="117.97365"
     inkscape:cy="-4.4438555"
     inkscape:document-units="px"
     inkscape:current-layer="layer1"
     showgrid="false"
     inkscape:window-width="1280"
     inkscape:window-height="750"
     inkscape:window-x="-8"
     inkscape:window-y="-8" />
  <metadata
     id="metadata4494">
    <rdf:RDF>
      <cc:Work
         rdf:about="">
        <dc:format>image/svg+xml</dc:format>
        <dc:type
           rdf:resource="http://purl.org/dc/dcmitype/StillImage" />
      </cc:Work>
    </rdf:RDF>
  </metadata>
  <g
     inkscape:label="Ebene 1"
     inkscape:groupmode="layer"
     id="layer1">
    <rect
       style="opacity:1;fill:#000000;fill-opacity:1;stroke:none;stroke-width:1.53299046;stroke-linecap:butt;stroke-linejoin:miter;stroke-miterlimit:4;stroke-dasharray:none;stroke-dashoffset:0;stroke-opacity:1"
       id="rect3279"
       width="100"
       height="45"
       x="0"
       y="0"
       rx="0.17365299"
       ry="0.05231268" />
    <g
       id="g3364"
       transform="matrix(1.2654078,0,0,1.2654078,-0.9074781,-1.4602955)">
      <g
         style="stroke:#ffffff;stroke-opacity:1;filter:url(#filter5100)"
         transform="matrix(0.3706176,0,0,0.369603,-167.77478,82.364996)"
         id="g5042">
        <path
           style="opacity:1;fill:#6b89b4;fill-opacity:1;fill-rule:evenodd;stroke:#ffffff;stroke-width:1px;stroke-linecap:butt;stroke-linejoin:miter;stroke-opacity:1"
           d="M 476.94352,-183.52738 C 487.24297,-190.54322 509.24204,-201.6045 537.52858,-208.84875 C 575.3496,-218.5348 620.87447,-219.054 641.30186,-210.03256 C 648.97197,-206.64517 652.5353,-203.40474 652.83633,-197.13918 C 653.14583,-190.69726 642.23651,-182.3974 641.34585,-181.58283 C 642.74596,-191.92808 638.0285,-197.8254 629.16389,-200.54741 C 616.33512,-204.92292 603.89174,-206.82586 591.67141,-206.62631 C 518.25346,-205.42744 494.88012,-188.43213 476.94352,-183.52738 z"
           id="path5044"
           sodipodi:nodetypes="csszccsc" />
        <path
           style="opacity:1;fill:#00467f;fill-opacity:1;fill-rule:evenodd;stroke:#ffffff;stroke-width:1px;stroke-linecap:butt;stroke-linejoin:miter;stroke-opacity:1"
           d="M 476.67512,-183.05411 C 486.97457,-190.06995 500.31158,-196.53504 528.59812,-203.77929 C 566.41914,-213.46534 613.18145,-214.33809 633.60884,-205.31665 C 641.27895,-201.92926 645.37261,-200.10304 645.67364,-193.83748 C 645.98314,-187.39556 641.96811,-181.92413 641.07745,-181.10956 C 642.47756,-191.45481 637.7601,-197.35213 628.89549,-200.07414 C 616.06672,-204.44965 603.62334,-206.35259 591.40301,-206.15304 C 517.98506,-204.95417 494.61172,-187.95886 476.67512,-183.05411 z"
           id="path5046"
           sodipodi:nodetypes="csszccsc" />
      </g>
      <g
         transform="matrix(0.3668601,0,0,0.3569171,-165.31544,79.913234)"
         id="g4891">
        <path
           style="opacity:1;fill:#6b89b4;fill-opacity:1;fill-rule:evenodd;stroke:#6b89b4;stroke-width:1px;stroke-linecap:butt;stroke-linejoin:miter;stroke-opacity:1"
           d="M 476.94352,-183.52738 C 487.24297,-190.54322 509.24204,-201.6045 537.52858,-208.84875 C 575.3496,-218.5348 620.87447,-219.054 641.30186,-210.03256 C 648.97197,-206.64517 652.5353,-203.40474 652.83633,-197.13918 C 653.14583,-190.69726 642.23651,-182.3974 641.34585,-181.58283 C 642.74596,-191.92808 638.0285,-197.8254 629.16389,-200.54741 C 616.33512,-204.92292 603.89174,-206.82586 591.67141,-206.62631 C 518.25346,-205.42744 494.88012,-188.43213 476.94352,-183.52738 z"
           id="path4086"
           sodipodi:nodetypes="csszccsc" />
        <path
           style="opacity:1;fill:#00467f;fill-opacity:1;fill-rule:evenodd;stroke:none;stroke-width:1px;stroke-linecap:butt;stroke-linejoin:miter;stroke-opacity:1"
           d="M 476.67512,-183.05411 C 486.97457,-190.06995 500.31158,-196.53504 528.59812,-203.77929 C 566.41914,-213.46534 613.18145,-214.33809 633.60884,-205.31665 C 641.27895,-201.92926 645.37261,-200.10304 645.67364,-193.83748 C 645.98314,-187.39556 641.96811,-181.92413 641.07745,-181.10956 C 642.47756,-191.45481 637.7601,-197.35213 628.89549,-200.07414 C 616.06672,-204.44965 603.62334,-206.35259 591.40301,-206.15304 C 517.98506,-204.95417 494.61172,-187.95886 476.67512,-183.05411 z"
           id="path4871"
           sodipodi:nodetypes="csszccsc" />
      </g>
    </g>
    <g
       id="g3347"
       transform="matrix(1.2654078,0,0,1.2654078,-2.0259511,-3.9209362)">
      <path
         transform="translate(6.25,-13.625)"
         d="M 4.03125,31.21875 C 3.0011623,31.218762 2.030301,31.562368 1.3125,32.25 C 0.60749417,32.925393 0.21874906,33.828456 0.21875,34.8125 C 0.21874903,35.388681 0.35186466,35.941469 0.625,36.4375 C 0.89506114,36.927966 1.2636829,37.3592 1.71875,37.71875 C 2.1839155,38.086295 2.8627992,38.485726 3.78125,38.9375 C 4.4045066,39.244412 4.838995,39.492695 4.96875,39.59375 C 5.1240217,39.714687 5.2245525,39.844808 5.3125,40 C 5.385668,40.129127 5.406248,40.169143 5.40625,40.25 C 5.4062471,40.435179 5.3656759,40.524057 5.1875,40.6875 C 5.0306663,40.83136 4.8325267,40.937499 4.4375,40.9375 C 3.9452049,40.9375 3.5222775,40.756579 3.03125,40.3125 C 2.5820313,39.906237 2.2498168,39.294563 2.0625,38.375 C 1.9829669,38.007934 1.6568213,37.747018 1.28125,37.75 L 1,37.75 C 0.57115369,37.756275 0.22502516,38.102404 0.21875,38.53125 L 0.21875,42.21875 C 0.22502516,42.647596 0.57115369,42.993725 1,43 L 1.28125,43 C 1.5919851,42.998082 1.8729617,42.814836 2,42.53125 C 2.0651796,42.382783 2.0718013,42.409533 2.03125,42.4375 C 2.0215099,42.441602 2.0791181,42.428802 2.25,42.5 C 2.6986839,42.687823 3.0791348,42.831646 3.40625,42.90625 C 3.7438226,42.98324 4.1076463,43.000001 4.46875,43 C 5.6027115,43 6.6458493,42.669396 7.4375,41.9375 C 8.2189321,41.215037 8.6249905,40.229981 8.625,39.21875 C 8.6249905,38.411126 8.3713578,37.629542 7.875,37 C 7.3267701,36.31308 6.4642414,35.800315 5.28125,35.21875 C 4.4770714,34.821399 3.9618026,34.520392 3.84375,34.4375 C 3.619873,34.276595 3.4909029,34.137204 3.40625,34 C 3.3670343,33.934645 3.3437491,33.923884 3.34375,33.84375 C 3.3437493,33.738876 3.3680804,33.680712 3.53125,33.53125 C 3.6649343,33.408803 3.8230893,33.312506 4.15625,33.3125 C 4.5782322,33.312506 4.9353776,33.474122 5.375,33.875 C 5.7867018,34.250439 6.0420217,34.705423 6.15625,35.375 C 6.2226614,35.754495 6.5522383,36.031339 6.9375,36.03125 L 7.25,36.03125 C 7.4616997,36.028195 7.6633856,35.940603 7.8101318,35.787987 C 7.956878,35.635371 8.0364957,35.430407 8.03125,35.21875 L 8,34.5625 C 8.1360691,34.833908 8.4151668,35.003794 8.71875,35 L 8.96875,35 C 9.0266576,35.000002 9.0113701,35.026095 9.03125,35.03125 C 9.0362972,35.126613 9.0624994,35.224208 9.0625,35.375 L 9.0625,40.625 C 9.0624988,40.968721 8.9868686,41.126563 9.0625,40.96875 C 9.0480296,40.968756 9.0922568,40.96875 8.96875,40.96875 L 8.71875,40.96875 C 8.2899037,40.975025 7.9437752,41.321154 7.9375,41.75 L 7.9375,41.96875 C 7.9437752,42.397596 8.2899037,42.743725 8.71875,42.75 L 12.75,42.75 C 12.933332,42.747188 13.110024,42.680929 13.25,42.5625 C 13.260416,42.562705 13.270834,42.562705 13.28125,42.5625 C 13.429412,42.687921 13.618435,42.754635 13.8125,42.75 L 17.96875,42.75 C 18.397596,42.743725 18.743725,42.397596 18.75,41.96875 L 18.75,41.75 C 18.743725,41.321154 18.397596,40.975025 17.96875,40.96875 C 17.878271,40.96875 17.817061,40.93436 17.71875,40.875 C 17.561899,40.778314 17.268318,40.514198 16.90625,40.0625 L 14.59375,37.1875 L 16.3125,35.8125 C 16.875518,35.357459 17.293392,35.071786 17.25,35.09375 C 17.280416,35.078355 17.422923,35.014237 17.625,35 C 17.656869,34.991543 17.68818,34.981106 17.71875,34.96875 C 17.739575,34.969571 17.760425,34.969571 17.78125,34.96875 C 17.832152,34.984387 17.884499,34.994856 17.9375,35 C 18.066457,35.001988 18.015131,35.018645 18.03125,35.03125 C 17.945069,34.963847 18.076493,35.049523 18.1875,35.21875 C 18.298507,35.387977 18.444077,35.641188 18.625,35.96875 L 20.4375,39.21875 L 20.4375,40.625 C 20.437498,40.931103 20.372898,41.038389 20.40625,40.96875 C 20.372457,40.973579 20.42783,40.96875 20.34375,40.96875 L 19.90625,40.96875 C 19.477404,40.975025 19.131275,41.321154 19.125,41.75 L 19.125,41.96875 C 19.131275,42.397596 19.477404,42.743725 19.90625,42.75 L 24.40625,42.75 C 24.835096,42.743725 25.181225,42.397596 25.1875,41.96875 L 25.1875,41.75 C 25.181225,41.321154 24.835096,40.975025 24.40625,40.96875 L 23.96875,40.96875 C 23.884174,40.96875 23.931917,40.973528 23.90625,40.96875 C 23.929693,40.994846 23.906246,40.929441 23.90625,40.625 L 23.90625,38.9375 L 25.53125,36.1875 C 25.938959,35.481554 26.300398,35.015165 26.28125,35.03125 C 26.222135,35.080512 26.307352,35.025884 26.5,35 C 26.531223,35.001849 26.562527,35.001849 26.59375,35 C 26.614575,35.000821 26.635425,35.000821 26.65625,35 C 26.697852,35.003289 26.739648,35.003289 26.78125,35 L 27.0625,35 C 27.088237,35.000001 27.076142,34.998174 27.09375,35 C 27.099623,35.097548 27.124999,35.210588 27.125,35.375 L 27.125,40.625 C 27.124999,40.968721 27.049366,41.126567 27.125,40.96875 C 27.091055,40.973322 27.144838,40.96875 27.0625,40.96875 L 26.78125,40.96875 C 26.352404,40.975025 26.006275,41.321154 26,41.75 L 26,41.96875 C 26.006275,42.397596 26.352404,42.743725 26.78125,42.75 L 30.96875,42.75 C 31.042768,42.749844 31.116399,42.739325 31.1875,42.71875 C 31.208325,42.719571 31.229175,42.719571 31.25,42.71875 C 31.341118,42.745946 31.436385,42.756532 31.53125,42.75 L 35.6875,42.75 C 36.116346,42.743725 36.462475,42.397596 36.46875,41.96875 L 36.46875,41.75 C 36.462475,41.321154 36.116346,40.975025 35.6875,40.96875 L 35.4375,40.96875 C 35.300108,40.96875 35.32803,40.959103 35.34375,40.96875 C 35.365237,40.990321 35.343746,40.92617 35.34375,40.625 L 35.34375,35.375 C 35.343747,35.214171 35.369299,35.091125 35.375,35 C 35.402455,34.995169 35.383612,35.000002 35.4375,35 L 35.6875,35 C 36.116346,34.993725 36.462475,34.647596 36.46875,34.21875 L 36.46875,34 C 36.462475,33.571154 36.116346,33.225025 35.6875,33.21875 L 31.53125,33.21875 C 31.457232,33.218906 31.383601,33.229425 31.3125,33.25 C 31.291675,33.249179 31.270825,33.249179 31.25,33.25 C 31.158882,33.222804 31.063615,33.212218 30.96875,33.21875 L 26.78125,33.21875 C 26.728249,33.223894 26.675902,33.234363 26.625,33.25 C 26.604175,33.249179 26.583325,33.249179 26.5625,33.25 C 26.511598,33.234363 26.459251,33.223894 26.40625,33.21875 L 23.96875,33.21875 C 23.539904,33.225025 23.193775,33.571154 23.1875,34 L 23.1875,34.21875 C 23.189817,34.614158 23.483095,34.947429 23.875,35 C 23.807535,35.13228 23.735869,35.254748 23.625,35.4375 L 22.90625,36.65625 L 22.125,35.21875 C 22.064898,35.109817 22.046444,35.058316 22,34.96875 C 22.318688,34.857335 22.531884,34.556351 22.53125,34.21875 L 22.53125,34 C 22.524975,33.571154 22.178846,33.225025 21.75,33.21875 L 17.9375,33.21875 C 17.884499,33.223894 17.832152,33.234363 17.78125,33.25 C 17.760425,33.249179 17.739575,33.249179 17.71875,33.25 C 17.667848,33.234363 17.615501,33.223894 17.5625,33.21875 L 14.4375,33.21875 C 14.008654,33.225025 13.662525,33.571154 13.65625,34 L 13.65625,34.21875 C 13.646421,34.515497 13.803198,34.792871 14.0625,34.9375 L 12.53125,36.1875 L 12.53125,35.375 C 12.531248,35.084108 12.593818,34.979575 12.5625,35.03125 C 12.604497,35.022262 12.595999,35.000003 12.6875,35 C 13.116346,34.993725 13.462475,34.647596 13.46875,34.21875 L 13.46875,34 C 13.462475,33.571154 13.116346,33.225025 12.6875,33.21875 L 8.71875,33.21875 C 8.4220031,33.208921 8.1446294,33.365698 8,33.625 L 7.9375,31.96875 C 7.9149455,31.552151 7.5734228,31.224289 7.15625,31.21875 L 6.9375,31.21875 C 6.5998986,31.218116 6.2989155,31.431312 6.1875,31.75 C 6.1423502,31.732325 6.1814587,31.745936 6.125,31.71875 C 5.7500893,31.538252 5.4012859,31.414302 5.125,31.34375 C 4.7837312,31.255694 4.428422,31.218761 4.03125,31.21875 z M 40.53125,33.09375 C 39.190663,33.056525 37.962376,33.524503 37.03125,34.4375 C 36.084201,35.366121 35.593751,36.599442 35.59375,37.96875 C 35.59375,39.183608 35.955351,40.310518 36.6875,41.21875 C 37.62707,42.383821 39.04869,42.937501 40.65625,42.9375 C 42.277546,42.9375 43.669368,42.295436 44.59375,41.09375 C 44.899238,40.697218 45.102852,40.273123 45.28125,39.8125 C 45.467184,40.323664 45.717309,40.79054 46.0625,41.21875 C 47.00207,42.383821 48.42369,42.937501 50.03125,42.9375 C 51.652546,42.9375 53.044368,42.295436 53.96875,41.09375 C 54.656223,40.20139 55.031238,39.145217 55.03125,37.96875 C 55.03124,36.594194 54.525045,35.361912 53.59375,34.4375 C 52.66181,33.512479 51.388792,33.056516 49.96875,33.09375 C 49.947172,33.092887 49.927766,33.094347 49.90625,33.09375 C 48.565663,33.056525 47.337376,33.524503 46.40625,34.4375 C 45.894492,34.9393 45.557365,35.533404 45.3125,36.1875 C 45.066133,35.534249 44.721995,34.937026 44.21875,34.4375 C 43.28681,33.512479 42.013792,33.056516 40.59375,33.09375 C 40.571986,33.094321 40.553087,33.092941 40.53125,33.09375 z M 54.78125,33.21875 C 54.414184,33.298283 54.153268,33.624429 54.15625,34 L 54.15625,34.21875 C 54.162525,34.647596 54.508654,34.993725 54.9375,35 L 55.1875,35 C 55.245407,35.000002 55.23012,35.026095 55.25,35.03125 C 55.255047,35.126613 55.28125,35.224209 55.28125,35.375 L 55.28125,40.625 C 55.281249,40.968717 55.205631,41.126545 55.28125,40.96875 C 55.26678,40.968756 55.311007,40.96875 55.1875,40.96875 L 54.9375,40.96875 C 54.508654,40.975025 54.162525,41.321154 54.15625,41.75 L 54.15625,41.96875 C 54.162525,42.397596 54.508654,42.743725 54.9375,42.75 L 58.96875,42.75 C 59.152082,42.747188 59.328774,42.680929 59.46875,42.5625 C 59.479166,42.562705 59.489584,42.562705 59.5,42.5625 C 59.648162,42.687921 59.837185,42.754635 60.03125,42.75 L 64.1875,42.75 C 64.616346,42.743725 64.962475,42.397596 64.96875,41.96875 L 64.96875,41.75 C 64.962475,41.321154 64.616346,40.975025 64.1875,40.96875 C 64.097021,40.96875 64.035811,40.93436 63.9375,40.875 C 63.780649,40.778314 63.487068,40.514198 63.125,40.0625 L 60.8125,37.1875 L 62.53125,35.8125 C 63.094268,35.357459 63.51214,35.071787 63.46875,35.09375 C 63.499168,35.078354 63.641671,35.014237 63.84375,35 C 64.248029,34.962031 64.558294,34.624786 64.5625,34.21875 L 64.5625,34 C 64.556225,33.571154 64.210096,33.225025 63.78125,33.21875 L 60.65625,33.21875 C 60.227404,33.225025 59.881275,33.571154 59.875,34 L 59.875,34.21875 C 59.865171,34.515497 60.021948,34.792871 60.28125,34.9375 L 58.75,36.1875 L 58.75,35.375 C 58.749998,35.084107 58.812572,34.97957 58.78125,35.03125 C 58.823247,35.022262 58.814748,35.000003 58.90625,35 C 59.335096,34.993725 59.681225,34.647596 59.6875,34.21875 L 59.6875,34 C 59.681225,33.571154 59.335096,33.225025 58.90625,33.21875 L 54.9375,33.21875 C 54.885544,33.213606 54.833206,33.213606 54.78125,33.21875 z M 31.1875,34.96875 C 31.208325,34.969571 31.229175,34.969571 31.25,34.96875 C 31.341118,34.995946 31.436385,35.006532 31.53125,35 L 31.78125,35 C 31.839154,35.000002 31.823777,35.026046 31.84375,35.03125 C 31.848798,35.126615 31.874998,35.224208 31.875,35.375 L 31.875,36.84375 L 30.625,36.84375 L 30.625,35.375 C 30.624999,35.214168 30.650548,35.091127 30.65625,35 C 30.676021,34.998291 30.661623,35.000001 30.6875,35 L 30.96875,35 C 31.042768,34.999844 31.116399,34.989325 31.1875,34.96875 L 31.1875,34.96875 z M 40.625,35.03125 C 40.851158,35.031255 41.035884,35.120231 41.21875,35.25 C 41.356569,35.347812 41.527469,35.54149 41.6875,35.96875 C 41.827512,36.342598 41.968743,37.064548 41.96875,38.0625 C 41.968744,38.878238 41.843284,39.522053 41.6875,39.96875 C 41.531575,40.415829 41.326827,40.657193 41.15625,40.78125 C 41.041108,40.864685 40.91834,40.937501 40.625,40.9375 C 40.228523,40.9375 40.04276,40.834092 39.84375,40.5625 C 39.515966,40.116503 39.281247,39.300567 39.28125,38.03125 C 39.281247,36.95797 39.469144,36.149936 39.6875,35.71875 C 39.978445,35.148858 40.169109,35.031256 40.625,35.03125 z M 50,35.03125 C 50.226158,35.031255 50.410884,35.120231 50.59375,35.25 C 50.731569,35.347812 50.902469,35.54149 51.0625,35.96875 C 51.202512,36.342598 51.343743,37.064548 51.34375,38.0625 C 51.343744,38.878238 51.218284,39.522053 51.0625,39.96875 C 50.906575,40.415829 50.701827,40.657193 50.53125,40.78125 C 50.416108,40.864685 50.29334,40.937501 50,40.9375 C 49.603523,40.9375 49.41776,40.834092 49.21875,40.5625 C 48.890966,40.116503 48.656247,39.300567 48.65625,38.03125 C 48.656247,36.95797 48.844144,36.149936 49.0625,35.71875 C 49.353445,35.148858 49.544109,35.031256 50,35.03125 z M 30.625,38.9375 L 31.875,38.9375 L 31.875,40.625 C 31.874995,40.968723 31.799389,41.126538 31.875,40.96875 C 31.862847,40.968005 31.907367,40.96875 31.78125,40.96875 L 31.53125,40.96875 C 31.457232,40.968906 31.383601,40.979425 31.3125,41 C 31.291675,40.999179 31.270825,40.999179 31.25,41 C 31.158882,40.972804 31.063615,40.962218 30.96875,40.96875 L 30.6875,40.96875 C 30.595909,40.96875 30.646395,40.971796 30.625,40.96875 C 30.650672,40.998231 30.624997,40.928165 30.625,40.625 L 30.625,38.9375 z M 12.53125,40.09375 L 13.25,41 C 13.292368,41.053422 13.307151,41.076833 13.34375,41.125 C 13.322468,41.134493 13.301614,41.14492 13.28125,41.15625 C 13.133088,41.030829 12.944065,40.964115 12.75,40.96875 C 12.578968,40.96875 12.587653,40.967958 12.5625,40.96875 C 12.57634,40.97355 12.531247,40.905829 12.53125,40.625 L 12.53125,40.09375 z M 58.75,40.09375 L 59.46875,41 C 59.511118,41.053422 59.525901,41.076833 59.5625,41.125 C 59.541218,41.134493 59.520364,41.14492 59.5,41.15625 C 59.351838,41.030829 59.162815,40.964115 58.96875,40.96875 C 58.797718,40.96875 58.806403,40.967958 58.78125,40.96875 C 58.79509,40.973549 58.749998,40.905831 58.75,40.625 L 58.75,40.09375 z"
         id="path3244"
         style="font-size:13.40093994px;font-style:normal;font-weight:normal;line-height:125%;fill:#ffffff;fill-opacity:1;stroke:#ffffff;stroke-width:0.33502349px;stroke-linecap:butt;stroke-linejoin:miter;stroke-opacity:1;filter:url(#filter3325);font-family:Bitstream Vera Sans"
         inkscape:original="M 4.03125 32 C 3.1627161 32.00001 2.4460209 32.265479 1.875 32.8125 C 1.3039758 33.359539 0.99999926 34.03515 1 34.8125 C 0.99999923 35.268366 1.1037637 35.683422 1.3125 36.0625 C 1.521234 36.441588 1.8300687 36.786652 2.21875 37.09375 C 2.6074272 37.400859 3.2372722 37.782088 4.125 38.21875 C 4.7583993 38.530657 5.2192224 38.774415 5.46875 38.96875 C 5.7182672 39.163093 5.8776325 39.377821 6 39.59375 C 6.1223562 39.809685 6.1874942 40.019672 6.1875 40.25 C 6.187494 40.638681 6.0378453 40.98854 5.71875 41.28125 C 5.3996437 41.57396 4.9749287 41.718749 4.4375 41.71875 C 3.741712 41.71875 3.1022106 41.450881 2.5 40.90625 C 1.8977849 40.36162 1.4923834 39.567732 1.28125 38.53125 L 1 38.53125 L 1 42.21875 L 1.28125 42.21875 C 1.3676221 42.022011 1.4545919 41.877222 1.59375 41.78125 C 1.7329054 41.68528 1.8752371 41.625002 2 41.625 C 2.148752 41.625 2.3321692 41.685282 2.5625 41.78125 C 2.9751694 41.953997 3.3202316 42.06262 3.59375 42.125 C 3.8672616 42.18738 4.1616412 42.218751 4.46875 42.21875 C 5.4476415 42.21875 6.2704411 41.931567 6.90625 41.34375 C 7.5420458 40.755933 7.8437423 40.034498 7.84375 39.21875 C 7.8437424 38.575753 7.6434705 37.999048 7.25 37.5 C 6.8517168 37.00096 6.0795403 36.498933 4.9375 35.9375 C 4.1217488 35.534431 3.6005267 35.252106 3.375 35.09375 C 3.0678923 34.873026 2.8579042 34.631789 2.71875 34.40625 C 2.6179788 34.23831 2.5624977 34.059692 2.5625 33.84375 C 2.5624977 33.503064 2.7144859 33.199029 3 32.9375 C 3.2855085 32.67599 3.6667982 32.531259 4.15625 32.53125 C 4.7896492 32.531259 5.3616135 32.784613 5.90625 33.28125 C 6.4508751 33.777904 6.7983368 34.434261 6.9375 35.25 L 7.25 35.25 L 7.15625 32 L 6.9375 32 C 6.8751127 32.292719 6.8219709 32.485735 6.75 32.5625 C 6.6780159 32.639286 6.562255 32.65626 6.4375 32.65625 C 6.3079341 32.656259 6.1051436 32.593463 5.78125 32.4375 C 5.4573451 32.281558 5.1630252 32.18259 4.9375 32.125 C 4.6399878 32.048234 4.3479479 32.000009 4.03125 32 z M 40.5625 33.875 C 39.384679 33.827895 38.400552 34.208907 37.59375 35 C 36.786944 35.791107 36.375001 36.783087 36.375 37.96875 C 36.375 39.024862 36.692182 39.949245 37.3125 40.71875 C 38.097709 41.692412 39.219311 42.156251 40.65625 42.15625 C 42.089255 42.15625 43.18353 41.645777 43.96875 40.625 C 44.561576 39.855495 44.87499 38.981674 44.875 37.96875 C 44.874991 36.783086 44.45127 35.789144 43.65625 35 C 42.861217 34.21087 41.834536 33.827896 40.5625 33.875 z M 49.9375 33.875 C 48.759679 33.827895 47.775552 34.208907 46.96875 35 C 46.161944 35.791107 45.750001 36.783087 45.75 37.96875 C 45.75 39.024862 46.067182 39.949245 46.6875 40.71875 C 47.472709 41.692412 48.594311 42.156251 50.03125 42.15625 C 51.464255 42.15625 52.55853 41.645777 53.34375 40.625 C 53.936576 39.855495 54.24999 38.981674 54.25 37.96875 C 54.249991 36.783086 53.82627 35.789144 53.03125 35 C 52.236217 34.21087 51.209536 33.827896 49.9375 33.875 z M 8.71875 34 L 8.71875 34.21875 L 8.96875 34.21875 C 9.1925345 34.218758 9.3684759 34.2672 9.5 34.34375 C 9.6315217 34.420316 9.7380621 34.491682 9.78125 34.59375 C 9.8244353 34.695835 9.8437483 34.966697 9.84375 35.375 L 9.84375 40.625 C 9.8437486 41.025459 9.8244353 41.249527 9.78125 41.34375 C 9.7262839 41.477236 9.6333262 41.601287 9.53125 41.65625 C 9.389911 41.738697 9.2003869 41.75 8.96875 41.75 L 8.71875 41.75 L 8.71875 41.96875 L 12.75 41.96875 L 12.75 41.75 C 12.455542 41.75 12.227232 41.728881 12.09375 41.65625 C 11.960261 41.583618 11.890859 41.508329 11.84375 41.40625 C 11.796634 41.304173 11.749996 41.041163 11.75 40.625 L 11.75 38.4375 L 12.0625 38.1875 L 13.875 40.5 C 14.236191 40.955424 14.437494 41.272607 14.4375 41.4375 C 14.437494 41.523874 14.389052 41.597361 14.3125 41.65625 C 14.235936 41.715141 14.07554 41.726443 13.8125 41.75 L 13.8125 41.96875 L 17.96875 41.96875 L 17.96875 41.75 C 17.737103 41.75 17.520572 41.688133 17.3125 41.5625 C 17.025889 41.385828 16.677773 41.057183 16.28125 40.5625 L 13.46875 37.0625 L 15.8125 35.1875 C 16.385696 34.724233 16.747236 34.455491 16.90625 34.375 C 17.065247 34.294524 17.283742 34.238389 17.5625 34.21875 L 17.5625 34 L 14.4375 34 L 14.4375 34.21875 C 14.779061 34.230536 15.007371 34.269322 15.09375 34.3125 C 15.262564 34.398881 15.343743 34.507066 15.34375 34.65625 C 15.343743 34.856486 15.130979 35.103791 14.71875 35.4375 L 11.75 37.84375 L 11.75 35.375 C 11.749997 34.970623 11.796634 34.723159 11.84375 34.625 C 11.902637 34.495448 11.960419 34.398722 12.0625 34.34375 C 12.203834 34.265237 12.416598 34.218759 12.6875 34.21875 L 12.6875 34 L 8.71875 34 z M 17.9375 34 L 17.9375 34.21875 C 18.192693 34.222684 18.378133 34.286511 18.53125 34.40625 C 18.684365 34.526002 18.939524 34.918474 19.3125 35.59375 L 21.21875 39 L 21.21875 40.625 C 21.218747 41.025459 21.168183 41.249527 21.125 41.34375 C 21.066106 41.477236 21.008325 41.601287 20.90625 41.65625 C 20.768835 41.738697 20.579312 41.75 20.34375 41.75 L 19.90625 41.75 L 19.90625 41.96875 L 24.40625 41.96875 L 24.40625 41.75 L 23.96875 41.75 C 23.756737 41.75 23.565091 41.732808 23.4375 41.65625 C 23.309898 41.579692 23.23068 41.475117 23.1875 41.375 C 23.144308 41.274886 23.124995 41.037237 23.125 40.625 L 23.125 38.6875 L 24.84375 35.78125 C 25.267757 35.047084 25.584939 34.602402 25.78125 34.4375 C 25.92258 34.319726 26.143196 34.254093 26.40625 34.21875 L 26.40625 34 L 23.96875 34 L 23.96875 34.21875 C 24.326015 34.238388 24.554007 34.308106 24.6875 34.40625 C 24.789571 34.476927 24.843742 34.550255 24.84375 34.65625 C 24.843743 34.848634 24.669765 35.254849 24.3125 35.84375 L 22.875 38.25 L 21.4375 35.59375 C 21.123412 35.024479 20.968747 34.672595 20.96875 34.53125 C 20.968747 34.456662 21.001485 34.379249 21.09375 34.3125 C 21.186009 34.245765 21.362109 34.218759 21.59375 34.21875 L 21.75 34.21875 L 21.75 34 L 17.9375 34 z M 26.78125 34 L 26.78125 34.21875 L 27.0625 34.21875 C 27.286284 34.218758 27.462226 34.2672 27.59375 34.34375 C 27.725272 34.420316 27.800563 34.491682 27.84375 34.59375 C 27.886935 34.695835 27.906248 34.966697 27.90625 35.375 L 27.90625 40.625 C 27.906249 41.025459 27.886936 41.249527 27.84375 41.34375 C 27.788784 41.477236 27.727077 41.601287 27.625 41.65625 C 27.483661 41.738697 27.294137 41.75 27.0625 41.75 L 26.78125 41.75 L 26.78125 41.96875 L 30.96875 41.96875 L 30.96875 41.75 L 30.6875 41.75 C 30.463711 41.75 30.287769 41.732808 30.15625 41.65625 C 30.024724 41.579692 29.951396 41.477076 29.90625 41.375 C 29.861097 41.272923 29.843746 41.033311 29.84375 40.625 L 29.84375 38.15625 L 32.65625 38.15625 L 32.65625 40.625 C 32.656244 41.025459 32.63693 41.249527 32.59375 41.34375 C 32.534853 41.477236 32.445823 41.601287 32.34375 41.65625 C 32.206332 41.738697 32.016808 41.75 31.78125 41.75 L 31.53125 41.75 L 31.53125 41.96875 L 35.6875 41.96875 L 35.6875 41.75 L 35.4375 41.75 C 35.213706 41.75 35.039726 41.732808 34.90625 41.65625 C 34.772756 41.579692 34.668179 41.477076 34.625 41.375 C 34.581805 41.272923 34.562494 41.033311 34.5625 40.625 L 34.5625 35.375 C 34.562492 34.974549 34.581806 34.719231 34.625 34.625 C 34.683883 34.491522 34.772916 34.398721 34.875 34.34375 C 35.012404 34.261311 35.201929 34.218759 35.4375 34.21875 L 35.6875 34.21875 L 35.6875 34 L 31.53125 34 L 31.53125 34.21875 L 31.78125 34.21875 C 32.00503 34.218758 32.179009 34.2672 32.3125 34.34375 C 32.44598 34.420316 32.550556 34.491682 32.59375 34.59375 C 32.636931 34.695835 32.656245 34.966697 32.65625 35.375 L 32.65625 37.625 L 29.84375 37.625 L 29.84375 35.375 C 29.843747 34.974549 29.86306 34.719231 29.90625 34.625 C 29.965137 34.491522 30.022918 34.398721 30.125 34.34375 C 30.266334 34.261311 30.455859 34.218759 30.6875 34.21875 L 30.96875 34.21875 L 30.96875 34 L 26.78125 34 z M 54.9375 34 L 54.9375 34.21875 L 55.1875 34.21875 C 55.411284 34.218758 55.587226 34.2672 55.71875 34.34375 C 55.850272 34.420316 55.95681 34.491682 56 34.59375 C 56.043185 34.695835 56.062499 34.966697 56.0625 35.375 L 56.0625 40.625 C 56.062499 41.025459 56.043183 41.249527 56 41.34375 C 55.945034 41.477236 55.852076 41.601287 55.75 41.65625 C 55.608661 41.738697 55.419137 41.75 55.1875 41.75 L 54.9375 41.75 L 54.9375 41.96875 L 58.96875 41.96875 L 58.96875 41.75 C 58.674292 41.75 58.445982 41.728881 58.3125 41.65625 C 58.179011 41.583618 58.109608 41.508329 58.0625 41.40625 C 58.015384 41.304173 57.968747 41.041163 57.96875 40.625 L 57.96875 38.4375 L 58.28125 38.1875 L 60.09375 40.5 C 60.454941 40.955424 60.656245 41.272607 60.65625 41.4375 C 60.656244 41.523874 60.607804 41.597361 60.53125 41.65625 C 60.454686 41.715141 60.294289 41.726443 60.03125 41.75 L 60.03125 41.96875 L 64.1875 41.96875 L 64.1875 41.75 C 63.955853 41.75 63.739322 41.688133 63.53125 41.5625 C 63.244639 41.385828 62.896523 41.057183 62.5 40.5625 L 59.6875 37.0625 L 62.03125 35.1875 C 62.604446 34.724233 62.965987 34.455491 63.125 34.375 C 63.283997 34.294524 63.50249 34.238389 63.78125 34.21875 L 63.78125 34 L 60.65625 34 L 60.65625 34.21875 C 60.997811 34.230536 61.226119 34.269322 61.3125 34.3125 C 61.481314 34.398881 61.562495 34.507066 61.5625 34.65625 C 61.562493 34.856486 61.349728 35.103791 60.9375 35.4375 L 57.96875 37.84375 L 57.96875 35.375 C 57.968747 34.970623 58.015383 34.723159 58.0625 34.625 C 58.121387 34.495448 58.179169 34.398722 58.28125 34.34375 C 58.422584 34.265237 58.635347 34.218759 58.90625 34.21875 L 58.90625 34 L 54.9375 34 z M 40.625 34.25 C 41.021527 34.250008 41.383224 34.377824 41.6875 34.59375 C 41.991763 34.80969 42.241189 35.163378 42.4375 35.6875 C 42.633796 36.211634 42.749993 37.006395 42.75 38.0625 C 42.749993 38.949792 42.629872 39.667142 42.4375 40.21875 C 42.245117 40.770362 41.970488 41.186233 41.625 41.4375 C 41.354097 41.633803 41.029378 41.718751 40.625 41.71875 C 40.024309 41.71875 39.552462 41.486673 39.21875 41.03125 C 38.739768 40.379526 38.499997 39.393596 38.5 38.03125 C 38.499997 36.884847 38.65859 35.987472 38.96875 35.375 C 39.349574 34.629057 39.894751 34.25001 40.625 34.25 z M 50 34.25 C 50.396527 34.250008 50.758224 34.377824 51.0625 34.59375 C 51.366763 34.80969 51.616189 35.163378 51.8125 35.6875 C 52.008796 36.211634 52.124993 37.006395 52.125 38.0625 C 52.124993 38.949792 52.004872 39.667142 51.8125 40.21875 C 51.620117 40.770362 51.345488 41.186233 51 41.4375 C 50.729097 41.633803 50.404378 41.718751 50 41.71875 C 49.399309 41.71875 48.927462 41.486673 48.59375 41.03125 C 48.114768 40.379526 47.874997 39.393596 47.875 38.03125 C 47.874997 36.884847 48.03359 35.987472 48.34375 35.375 C 48.724574 34.629057 49.269751 34.25001 50 34.25 z "
         inkscape:radius="0.79285711"
         sodipodi:type="inkscape:offset" />
      <text
         sodipodi:linespacing="125%"
         id="text4873"
         y="28.341585"
         x="6.4404387"
         style="font-size:13.40093994px;font-style:normal;font-weight:normal;line-height:125%;fill:#000000;fill-opacity:1;stroke:none;stroke-width:1px;stroke-linecap:butt;stroke-linejoin:miter;stroke-opacity:1;font-family:Bitstream Vera Sans"
         xml:space="preserve"><tspan
           style="font-size:12.06084633px;font-style:normal;font-variant:normal;font-weight:bold;font-stretch:normal;text-align:start;line-height:125%;writing-mode:lr-tb;text-anchor:start;font-family:Times New Roman;-inkscape-font-specification:Times New Roman Bold"
           y="28.341585"
           x="6.4404387"
           id="tspan4875"
           sodipodi:role="line"><tspan
   id="tspan4877"
   style="font-size:14.74103355px">S</tspan>KYHOOK</tspan></text>
    </g>
    <g
       id="g3353"
       transform="matrix(1.2654078,0,0,1.2654078,4.9085819,-20.921727)">
      <path
         transform="scale(1.0727892,0.9321495)"
         d="M 49.46875,47 C 48.885783,47.000008 48.306763,47.180132 47.875,47.59375 C 47.452487,47.998516 47.25,48.543118 47.25,49.09375 C 47.25,49.405923 47.295381,49.747647 47.46875,50.0625 C 47.569714,50.245863 47.710663,50.367187 47.84375,50.5 C 47.762182,50.501141 47.66782,50.528808 47.59375,50.5625 C 47.584979,50.56649 47.571087,50.558074 47.5625,50.5625 L 47.5625,50.59375 C 47.419562,50.672361 47.290055,50.809342 47.25,50.96875 C 47.249472,50.97916 47.249472,50.98959 47.25,51 C 47.246351,51.032654 47.248175,51.060981 47.25,51.09375 C 47.250608,51.104673 47.248784,51.114115 47.25,51.125 L 47.25,53.0625 C 47.251141,53.144068 47.278808,53.23843 47.3125,53.3125 C 47.318648,53.325995 47.336657,53.330853 47.34375,53.34375 C 47.422361,53.486688 47.559342,53.616195 47.71875,53.65625 C 47.72916,53.656778 47.73959,53.656778 47.75,53.65625 C 47.782654,53.659899 47.810981,53.658075 47.84375,53.65625 C 47.854673,53.655642 47.864115,53.657466 47.875,53.65625 L 47.96875,53.65625 C 48.059978,53.654973 48.168904,53.635554 48.25,53.59375 C 48.336645,53.550184 48.3827,53.45305 48.4375,53.375 C 48.448979,53.378846 48.458254,53.370627 48.46875,53.375 C 48.68279,53.4646 48.866878,53.573257 49.09375,53.625 C 49.338164,53.680743 49.541137,53.65625 49.6875,53.65625 C 50.325468,53.656249 50.943329,53.45923 51.40625,53.03125 C 51.856665,52.614825 52.093742,52.057283 52.09375,51.46875 C 52.093744,51.002298 51.945405,50.554243 51.65625,50.1875 C 51.573982,50.084419 51.449976,49.999825 51.34375,49.90625 C 51.373562,49.898019 51.409237,49.887856 51.4375,49.875 C 51.450995,49.868852 51.455853,49.850843 51.46875,49.84375 C 51.611688,49.765139 51.741195,49.628158 51.78125,49.46875 C 51.781778,49.45834 51.781778,49.44791 51.78125,49.4375 C 51.784899,49.404846 51.783075,49.376519 51.78125,49.34375 L 51.78125,49.3125 L 51.71875,47.59375 C 51.718576,47.271849 51.446901,47.000174 51.125,47 L 51.03125,47 C 50.949682,47.001141 50.85532,47.028808 50.78125,47.0625 C 50.772479,47.06649 50.758587,47.058074 50.75,47.0625 L 50.75,47.09375 C 50.684442,47.129805 50.671981,47.22452 50.625,47.28125 C 50.614685,47.276284 50.603964,47.286049 50.59375,47.28125 C 50.392315,47.186598 50.206476,47.099265 50.0625,47.0625 C 49.861011,47.010511 49.680541,47.000007 49.46875,47 z M 55.84375,47 C 55.258186,47.000008 54.700923,47.191713 54.28125,47.59375 C 53.874074,47.983823 53.625,48.515188 53.625,49.09375 C 53.624999,49.405929 53.670384,49.747651 53.84375,50.0625 C 53.944712,50.245861 54.085662,50.367186 54.21875,50.5 C 54.137182,50.501141 54.04282,50.528808 53.96875,50.5625 C 53.959979,50.56649 53.946087,50.558074 53.9375,50.5625 L 53.9375,50.59375 C 53.794562,50.672361 53.665055,50.809342 53.625,50.96875 C 53.624472,50.97916 53.624472,50.98959 53.625,51 C 53.621351,51.032654 53.623175,51.060981 53.625,51.09375 C 53.625608,51.104673 53.623784,51.114115 53.625,51.125 L 53.625,53.0625 C 53.626141,53.144068 53.653808,53.23843 53.6875,53.3125 C 53.693648,53.325995 53.711657,53.330853 53.71875,53.34375 C 53.797361,53.486688 53.934342,53.616195 54.09375,53.65625 C 54.10416,53.656778 54.11459,53.656778 54.125,53.65625 C 54.157654,53.659899 54.185981,53.658075 54.21875,53.65625 C 54.229673,53.655642 54.239115,53.657466 54.25,53.65625 L 54.34375,53.65625 C 54.434978,53.654973 54.543904,53.635554 54.625,53.59375 C 54.711645,53.550184 54.7577,53.45305 54.8125,53.375 C 54.823979,53.378846 54.833254,53.370627 54.84375,53.375 C 55.05779,53.464599 55.241877,53.573257 55.46875,53.625 C 55.713164,53.680743 55.916137,53.65625 56.0625,53.65625 C 56.700469,53.656249 57.318328,53.459229 57.78125,53.03125 C 58.231663,52.614826 58.468743,52.057285 58.46875,51.46875 C 58.468744,51.002298 58.320405,50.554243 58.03125,50.1875 C 57.948982,50.08442 57.824976,49.999825 57.71875,49.90625 C 57.748562,49.898019 57.784237,49.887856 57.8125,49.875 C 57.825995,49.868852 57.830853,49.850843 57.84375,49.84375 C 57.986688,49.765139 58.116195,49.628158 58.15625,49.46875 C 58.156778,49.45834 58.156778,49.44791 58.15625,49.4375 C 58.159899,49.404846 58.158075,49.376519 58.15625,49.34375 L 58.15625,49.3125 L 58.09375,47.59375 C 58.093576,47.271849 57.821901,47.000174 57.5,47 L 57.40625,47 C 57.324682,47.001141 57.23032,47.028808 57.15625,47.0625 C 57.147479,47.06649 57.133587,47.058074 57.125,47.0625 L 57.125,47.09375 C 57.066428,47.125963 57.043965,47.201018 57,47.25 C 56.77937,47.149082 56.554758,47.092441 56.4375,47.0625 C 56.236012,47.010511 56.055542,47.000007 55.84375,47 z M 2.90625,47.125 C 2.8950997,47.134656 2.8846563,47.1451 2.875,47.15625 C 2.8638497,47.165906 2.8534063,47.17635 2.84375,47.1875 C 2.83334,47.186972 2.82291,47.186972 2.8125,47.1875 C 2.7889763,47.207588 2.7388357,47.257729 2.71875,47.28125 L 2.75,47.3125 C 2.6543579,47.391763 2.5308694,47.470899 2.5,47.59375 C 2.4994721,47.60416 2.4994721,47.61459 2.5,47.625 C 2.4963516,47.657652 2.4981758,47.685983 2.5,47.71875 L 2.5,47.75 L 2.5,47.84375 C 2.5011414,47.925319 2.5288088,48.019681 2.5625,48.09375 C 2.5686483,48.107245 2.5866573,48.112103 2.59375,48.125 C 2.6723613,48.267936 2.8093421,48.397445 2.96875,48.4375 C 2.97916,48.438028 2.98959,48.438028 3,48.4375 C 3.0028139,48.44282 3.0282566,48.431781 3.03125,48.4375 C 3.042226,48.458471 3.0493963,48.473968 3.0625,48.5 C 3.1220622,48.618328 3.1989905,48.797984 3.28125,49 L 5,53.28125 C 5.0789104,53.505306 5.2628103,53.643232 5.5,53.65625 C 5.51041,53.656778 5.52084,53.656778 5.53125,53.65625 L 5.6875,53.65625 C 5.7787275,53.654973 5.8876538,53.635555 5.96875,53.59375 C 6.0804224,53.527934 6.1389231,53.400592 6.1875,53.28125 L 6.21875,53.28125 C 6.221724,53.273225 6.2161194,53.258177 6.21875,53.25 L 7.09375,51.21875 L 7.875,53.25 C 7.8795437,53.264124 7.90069,53.26759 7.90625,53.28125 C 7.9548269,53.400592 8.0133276,53.527934 8.125,53.59375 C 8.2060962,53.635555 8.3150225,53.654973 8.40625,53.65625 L 8.5625,53.65625 C 8.6537275,53.654973 8.7626538,53.635555 8.84375,53.59375 C 8.9682042,53.5204 9.0495084,53.387521 9.09375,53.25 L 10.71875,48.9375 C 10.788845,48.761642 10.863475,48.654127 10.90625,48.5625 C 10.916315,48.540941 10.898394,48.516312 10.90625,48.5 C 10.9174,48.490344 10.927844,48.4799 10.9375,48.46875 C 10.940666,48.462298 10.934983,48.442554 10.9375,48.4375 C 10.94791,48.438028 10.95834,48.438028 10.96875,48.4375 C 10.97916,48.438028 10.98959,48.438028 11,48.4375 C 11.271825,48.37551 11.475578,48.122471 11.46875,47.84375 L 11.46875,47.71875 C 11.467609,47.637182 11.439942,47.54282 11.40625,47.46875 C 11.40226,47.459979 11.410676,47.446087 11.40625,47.4375 L 11.375,47.4375 C 11.296389,47.294562 11.159408,47.165055 11,47.125 C 10.98959,47.124472 10.97916,47.124472 10.96875,47.125 C 10.936096,47.121351 10.907769,47.123175 10.875,47.125 L 10.84375,47.125 L 9.5,47.125 C 9.4184319,47.126141 9.3240697,47.153808 9.25,47.1875 C 9.2412286,47.19149 9.2273367,47.183074 9.21875,47.1875 L 9.21875,47.21875 C 9.1016058,47.283176 9.0200546,47.408642 8.96875,47.53125 C 8.9620732,47.51098 8.9463661,47.488242 8.9375,47.46875 C 8.9335103,47.459979 8.9419263,47.446087 8.9375,47.4375 L 8.90625,47.4375 C 8.8276387,47.294564 8.6906579,47.165055 8.53125,47.125 C 8.52084,47.124472 8.51041,47.124472 8.5,47.125 C 8.4673455,47.121351 8.439019,47.123175 8.40625,47.125 L 8.375,47.125 L 5.875,47.125 C 5.8030913,47.126006 5.7227983,47.16108 5.65625,47.1875 C 5.6383714,47.194598 5.6109233,47.178647 5.59375,47.1875 C 5.5576225,47.173276 5.5387962,47.131901 5.5,47.125 C 5.48959,47.124472 5.47916,47.124472 5.46875,47.125 C 5.4360955,47.121351 5.407769,47.123175 5.375,47.125 L 5.34375,47.125 L 3.15625,47.125 C 3.1376656,47.12186 3.1124962,47.126346 3.09375,47.125 C 3.0468845,47.121636 2.983961,47.117151 2.9375,47.125 C 2.92709,47.124472 2.91666,47.124472 2.90625,47.125 L 2.90625,47.125 z M 12.875,47.125 C 12.86385,47.134656 12.853406,47.1451 12.84375,47.15625 C 12.8326,47.165906 12.822156,47.17635 12.8125,47.1875 C 12.80209,47.186972 12.79166,47.186972 12.78125,47.1875 C 12.757725,47.207588 12.707588,47.257725 12.6875,47.28125 L 12.71875,47.3125 C 12.623108,47.391764 12.499619,47.470898 12.46875,47.59375 C 12.468222,47.60416 12.468222,47.61459 12.46875,47.625 C 12.465101,47.657654 12.466925,47.685981 12.46875,47.71875 C 12.469358,47.729673 12.467534,47.739115 12.46875,47.75 L 12.46875,47.84375 C 12.469891,47.925318 12.497558,48.01968 12.53125,48.09375 C 12.537398,48.107245 12.555407,48.112103 12.5625,48.125 C 12.641111,48.267938 12.778092,48.397445 12.9375,48.4375 C 12.94791,48.438028 12.95834,48.438028 12.96875,48.4375 C 13.001404,48.441149 13.029731,48.439325 13.0625,48.4375 C 13.073423,48.436892 13.082865,48.438716 13.09375,48.4375 L 13.21875,48.4375 C 13.222762,48.484313 13.21875,48.5271 13.21875,48.59375 L 13.21875,52.0625 C 13.21875,52.13631 13.223385,52.175344 13.21875,52.21875 L 13.0625,52.21875 C 12.980932,52.219891 12.88657,52.247558 12.8125,52.28125 C 12.803729,52.28524 12.789837,52.276824 12.78125,52.28125 L 12.78125,52.3125 C 12.638312,52.391111 12.508805,52.528092 12.46875,52.6875 C 12.468222,52.69791 12.468222,52.70834 12.46875,52.71875 C 12.465101,52.751404 12.466925,52.779731 12.46875,52.8125 C 12.469358,52.823423 12.467534,52.832865 12.46875,52.84375 L 12.46875,52.9375 C 12.469891,53.019068 12.497558,53.11343 12.53125,53.1875 C 12.537398,53.200995 12.555407,53.205853 12.5625,53.21875 C 12.641111,53.361688 12.778092,53.491195 12.9375,53.53125 C 12.94791,53.531778 12.95834,53.531778 12.96875,53.53125 C 13.001404,53.534899 13.029731,53.533075 13.0625,53.53125 C 13.073423,53.530642 13.082865,53.532466 13.09375,53.53125 L 15.8125,53.53125 C 15.894068,53.530109 15.98843,53.502442 16.0625,53.46875 C 16.075995,53.462602 16.080853,53.444593 16.09375,53.4375 C 16.236688,53.358889 16.366195,53.221908 16.40625,53.0625 C 16.406778,53.05209 16.406778,53.04166 16.40625,53.03125 C 16.409899,52.998596 16.408075,52.970269 16.40625,52.9375 L 16.40625,52.90625 L 16.40625,52.8125 C 16.405109,52.730932 16.377442,52.63657 16.34375,52.5625 C 16.33976,52.553729 16.348176,52.539837 16.34375,52.53125 L 16.3125,52.53125 C 16.233889,52.388312 16.096908,52.258805 15.9375,52.21875 C 15.92709,52.218222 15.91666,52.218222 15.90625,52.21875 C 15.873596,52.215101 15.845269,52.216925 15.8125,52.21875 L 15.78125,52.21875 L 15.65625,52.21875 C 15.656634,52.167639 15.656249,52.13188 15.65625,52.0625 L 15.65625,48.59375 C 15.656249,48.508809 15.656493,48.485142 15.65625,48.4375 L 15.8125,48.4375 C 15.894068,48.436359 15.98843,48.408692 16.0625,48.375 C 16.075995,48.368852 16.080853,48.350843 16.09375,48.34375 C 16.236688,48.265139 16.366195,48.128158 16.40625,47.96875 C 16.406778,47.95834 16.406778,47.94791 16.40625,47.9375 C 16.409899,47.904846 16.408075,47.876519 16.40625,47.84375 C 16.405642,47.832827 16.407466,47.823385 16.40625,47.8125 L 16.40625,47.71875 C 16.405109,47.637182 16.377442,47.54282 16.34375,47.46875 C 16.33976,47.459979 16.348176,47.446087 16.34375,47.4375 L 16.3125,47.4375 C 16.233889,47.294562 16.096908,47.165055 15.9375,47.125 C 15.92709,47.124472 15.91666,47.124472 15.90625,47.125 C 15.873596,47.121351 15.845269,47.123175 15.8125,47.125 L 15.78125,47.125 L 13.125,47.125 C 13.106415,47.12186 13.081246,47.126346 13.0625,47.125 C 13.015634,47.121636 12.952711,47.117151 12.90625,47.125 C 12.89584,47.124472 12.88541,47.124472 12.875,47.125 L 12.875,47.125 z M 17.90625,47.125 C 17.8951,47.134656 17.884656,47.1451 17.875,47.15625 C 17.86385,47.165906 17.853406,47.17635 17.84375,47.1875 C 17.83334,47.186972 17.82291,47.186972 17.8125,47.1875 C 17.788975,47.207588 17.738838,47.257725 17.71875,47.28125 L 17.75,47.3125 C 17.654358,47.391764 17.530869,47.470898 17.5,47.59375 C 17.499472,47.60416 17.499472,47.61459 17.5,47.625 C 17.496351,47.657654 17.498175,47.685981 17.5,47.71875 C 17.500608,47.729673 17.498784,47.739115 17.5,47.75 L 17.5,47.84375 C 17.501141,47.925318 17.528808,48.01968 17.5625,48.09375 C 17.568648,48.107245 17.586657,48.112103 17.59375,48.125 C 17.672361,48.267938 17.809342,48.397445 17.96875,48.4375 C 17.97916,48.438028 17.98959,48.438028 18,48.4375 C 18.032654,48.441149 18.060981,48.439325 18.09375,48.4375 C 18.104673,48.436892 18.114115,48.438716 18.125,48.4375 C 18.170805,48.43848 18.211993,48.434023 18.25,48.4375 C 18.255436,48.492962 18.25,48.548587 18.25,48.625 L 18.25,52.03125 C 18.25,52.106835 18.255743,52.162697 18.25,52.21875 C 18.202023,52.223427 18.15291,52.21875 18.09375,52.21875 C 18.012182,52.219891 17.91782,52.247558 17.84375,52.28125 C 17.834979,52.28524 17.821087,52.276824 17.8125,52.28125 L 17.8125,52.3125 C 17.669562,52.391111 17.540055,52.528092 17.5,52.6875 C 17.499472,52.69791 17.499472,52.70834 17.5,52.71875 C 17.496351,52.751404 17.498175,52.779731 17.5,52.8125 C 17.500608,52.823423 17.498784,52.832865 17.5,52.84375 L 17.5,52.9375 C 17.501141,53.019068 17.528808,53.11343 17.5625,53.1875 C 17.568648,53.200995 17.586657,53.205853 17.59375,53.21875 C 17.672361,53.361688 17.809342,53.491195 17.96875,53.53125 C 17.97916,53.531778 17.98959,53.531778 18,53.53125 C 18.032654,53.534899 18.060981,53.533075 18.09375,53.53125 C 18.104673,53.530642 18.114115,53.532466 18.125,53.53125 L 20.78125,53.53125 C 20.862818,53.530109 20.95718,53.502442 21.03125,53.46875 C 21.044745,53.462602 21.049603,53.444593 21.0625,53.4375 C 21.205438,53.358889 21.334945,53.221908 21.375,53.0625 C 21.375528,53.05209 21.375528,53.04166 21.375,53.03125 C 21.378649,52.998596 21.376825,52.970269 21.375,52.9375 L 21.625,53.28125 C 21.727881,53.435739 21.87717,53.521048 22.0625,53.53125 C 22.07291,53.531778 22.08334,53.531778 22.09375,53.53125 L 23.75,53.53125 C 23.831568,53.530109 23.92593,53.502442 24,53.46875 C 24.013495,53.462602 24.018353,53.444593 24.03125,53.4375 C 24.174188,53.358889 24.303695,53.221908 24.34375,53.0625 C 24.344278,53.05209 24.344278,53.04166 24.34375,53.03125 C 24.347399,52.998596 24.345575,52.970269 24.34375,52.9375 C 24.343142,52.926577 24.344966,52.917135 24.34375,52.90625 L 24.34375,52.8125 C 24.342609,52.730932 24.314942,52.63657 24.28125,52.5625 C 24.27726,52.553729 24.285676,52.539837 24.28125,52.53125 L 24.25,52.53125 C 24.171389,52.388312 24.034408,52.258805 23.875,52.21875 C 23.86459,52.218222 23.85416,52.218222 23.84375,52.21875 C 23.821981,52.216317 23.803121,52.21875 23.78125,52.21875 C 23.714261,52.215029 23.698619,52.203528 23.71875,52.21875 C 23.709044,52.206238 23.699913,52.203617 23.6875,52.1875 C 23.637849,52.123031 23.579642,52.017007 23.5,51.90625 L 22.625,50.71875 C 22.72625,50.675192 22.804687,50.65376 22.90625,50.5625 C 23.296543,50.208343 23.531242,49.709618 23.53125,49.15625 C 23.531243,48.717951 23.398502,48.285091 23.125,47.9375 C 22.861542,47.602705 22.510639,47.396274 22.125,47.28125 C 21.705398,47.156115 21.181844,47.125005 20.53125,47.125 L 18.15625,47.125 C 18.137665,47.12186 18.112496,47.126346 18.09375,47.125 C 18.046884,47.121636 17.983961,47.117151 17.9375,47.125 C 17.92709,47.124472 17.91666,47.124472 17.90625,47.125 L 17.90625,47.125 z M 25.625,47.125 C 25.61385,47.134656 25.603406,47.1451 25.59375,47.15625 C 25.5826,47.165906 25.572156,47.17635 25.5625,47.1875 C 25.55209,47.186972 25.54166,47.186972 25.53125,47.1875 C 25.507725,47.207588 25.457588,47.257725 25.4375,47.28125 L 25.46875,47.3125 C 25.373108,47.391764 25.249619,47.470898 25.21875,47.59375 C 25.218222,47.60416 25.218222,47.61459 25.21875,47.625 C 25.215101,47.657654 25.216925,47.685981 25.21875,47.71875 C 25.219358,47.729673 25.217534,47.739115 25.21875,47.75 L 25.21875,47.84375 C 25.219891,47.925318 25.247558,48.01968 25.28125,48.09375 C 25.287398,48.107245 25.305407,48.112103 25.3125,48.125 C 25.391111,48.267938 25.528092,48.397445 25.6875,48.4375 C 25.69791,48.438028 25.70834,48.438028 25.71875,48.4375 C 25.751404,48.441149 25.779731,48.439325 25.8125,48.4375 C 25.823423,48.436892 25.832865,48.438716 25.84375,48.4375 L 25.9375,48.4375 C 25.937662,48.488353 25.9375,48.526572 25.9375,48.59375 L 25.9375,52.0625 C 25.9375,52.147445 25.937257,52.171109 25.9375,52.21875 L 25.8125,52.21875 C 25.730932,52.219891 25.63657,52.247558 25.5625,52.28125 C 25.553729,52.28524 25.539837,52.276824 25.53125,52.28125 L 25.53125,52.3125 C 25.388312,52.391111 25.258805,52.528092 25.21875,52.6875 C 25.218222,52.69791 25.218222,52.70834 25.21875,52.71875 C 25.215101,52.751404 25.216925,52.779731 25.21875,52.8125 C 25.219358,52.823423 25.217534,52.832865 25.21875,52.84375 L 25.21875,52.9375 C 25.219891,53.019068 25.247558,53.11343 25.28125,53.1875 C 25.287398,53.200995 25.305407,53.205853 25.3125,53.21875 C 25.391111,53.361688 25.528092,53.491195 25.6875,53.53125 C 25.69791,53.531778 25.70834,53.531778 25.71875,53.53125 C 25.751404,53.534899 25.779731,53.533075 25.8125,53.53125 C 25.823423,53.530642 25.832865,53.532466 25.84375,53.53125 L 30.34375,53.53125 C 30.425318,53.530109 30.51968,53.502442 30.59375,53.46875 C 30.607245,53.462602 30.612103,53.444593 30.625,53.4375 C 30.767938,53.358889 30.897445,53.221908 30.9375,53.0625 C 30.938028,53.05209 30.938028,53.04166 30.9375,53.03125 C 30.937905,53.023976 30.937365,53.007282 30.9375,53 C 30.93777,52.985437 30.938309,52.952048 30.9375,52.9375 L 31.15625,51.34375 C 31.167238,51.278704 31.167238,51.221296 31.15625,51.15625 C 31.116195,50.996842 30.986688,50.859861 30.84375,50.78125 L 30.84375,50.75 C 30.835163,50.745574 30.821271,50.75399 30.8125,50.75 C 30.73843,50.716308 30.644068,50.688641 30.5625,50.6875 L 30.4375,50.6875 C 30.355932,50.688641 30.26157,50.716308 30.1875,50.75 C 30.178729,50.75399 30.164837,50.745574 30.15625,50.75 L 30.15625,50.78125 C 30.013312,50.859861 29.883805,50.996842 29.84375,51.15625 C 29.796823,51.325183 29.717844,51.3614 29.65625,51.46875 L 29.65625,49.71875 C 29.72719,49.775093 29.814297,49.824782 29.90625,49.84375 C 29.91666,49.844278 29.92709,49.844278 29.9375,49.84375 C 29.970154,49.847399 29.998481,49.845575 30.03125,49.84375 C 30.042173,49.843142 30.051615,49.844966 30.0625,49.84375 L 30.1875,49.84375 C 30.269068,49.842609 30.36343,49.814942 30.4375,49.78125 C 30.450995,49.775102 30.455853,49.757093 30.46875,49.75 C 30.611688,49.671389 30.741195,49.534408 30.78125,49.375 C 30.781778,49.36459 30.781778,49.35416 30.78125,49.34375 C 30.784899,49.311096 30.783075,49.282769 30.78125,49.25 L 30.78125,49.21875 L 30.78125,47.71875 C 30.780109,47.637182 30.752442,47.54282 30.71875,47.46875 C 30.71476,47.459979 30.723176,47.446087 30.71875,47.4375 L 30.6875,47.4375 C 30.608889,47.294562 30.471908,47.165055 30.3125,47.125 C 30.30209,47.124472 30.29166,47.124472 30.28125,47.125 C 30.248596,47.121351 30.220269,47.123175 30.1875,47.125 L 30.15625,47.125 L 25.875,47.125 C 25.856415,47.12186 25.831246,47.126346 25.8125,47.125 C 25.765634,47.121636 25.702711,47.117151 25.65625,47.125 C 25.64584,47.124472 25.63541,47.124472 25.625,47.125 L 25.625,47.125 z M 32.875,47.125 C 32.86385,47.134656 32.853406,47.1451 32.84375,47.15625 C 32.8326,47.165906 32.822156,47.17635 32.8125,47.1875 C 32.80209,47.186972 32.79166,47.186972 32.78125,47.1875 C 32.757725,47.207588 32.707588,47.257725 32.6875,47.28125 L 32.71875,47.3125 C 32.623108,47.391764 32.499619,47.470898 32.46875,47.59375 C 32.468222,47.60416 32.468222,47.61459 32.46875,47.625 C 32.465101,47.657654 32.466925,47.685981 32.46875,47.71875 C 32.469358,47.729673 32.467534,47.739115 32.46875,47.75 L 32.46875,47.84375 C 32.469891,47.925318 32.497558,48.01968 32.53125,48.09375 C 32.537398,48.107245 32.555407,48.112103 32.5625,48.125 C 32.641111,48.267938 32.778092,48.397445 32.9375,48.4375 C 32.94791,48.438028 32.95834,48.438028 32.96875,48.4375 C 33.001404,48.441149 33.029731,48.439325 33.0625,48.4375 C 33.073423,48.436892 33.082865,48.438716 33.09375,48.4375 L 33.1875,48.4375 C 33.187144,48.491331 33.1875,48.516769 33.1875,48.59375 L 33.1875,52.0625 C 33.1875,52.147444 33.187257,52.171109 33.1875,52.21875 L 33.0625,52.21875 C 32.980932,52.219891 32.88657,52.247558 32.8125,52.28125 C 32.803729,52.28524 32.789837,52.276824 32.78125,52.28125 L 32.78125,52.3125 C 32.638312,52.391111 32.508805,52.528092 32.46875,52.6875 C 32.468222,52.69791 32.468222,52.70834 32.46875,52.71875 C 32.465101,52.751404 32.466925,52.779731 32.46875,52.8125 C 32.469358,52.823423 32.467534,52.832865 32.46875,52.84375 L 32.46875,52.9375 C 32.469891,53.019068 32.497558,53.11343 32.53125,53.1875 C 32.537398,53.200995 32.555407,53.205853 32.5625,53.21875 C 32.641111,53.361688 32.778092,53.491195 32.9375,53.53125 C 32.94791,53.531778 32.95834,53.531778 32.96875,53.53125 C 33.001404,53.534899 33.029731,53.533075 33.0625,53.53125 C 33.073423,53.530642 33.082865,53.532466 33.09375,53.53125 L 37.6875,53.53125 C 37.769068,53.530109 37.86343,53.502442 37.9375,53.46875 C 37.950995,53.462602 37.955853,53.444593 37.96875,53.4375 C 38.111688,53.358889 38.241195,53.221908 38.28125,53.0625 C 38.281778,53.05209 38.281778,53.04166 38.28125,53.03125 C 38.281655,53.023976 38.281115,53.007282 38.28125,53 C 38.28152,52.985437 38.282059,52.952048 38.28125,52.9375 L 38.5,51.15625 C 38.51632,51.009507 38.465787,50.823098 38.34375,50.6875 C 38.221707,50.55189 38.076105,50.49905 37.90625,50.5 L 37.75,50.5 C 37.668432,50.501141 37.57407,50.528808 37.5,50.5625 C 37.491229,50.56649 37.477337,50.558074 37.46875,50.5625 L 37.46875,50.59375 C 37.340285,50.657958 37.241413,50.740766 37.1875,50.875 C 37.186972,50.88541 37.186972,50.89584 37.1875,50.90625 C 37.080796,51.269485 36.939813,51.568704 36.84375,51.71875 C 36.732146,51.89306 36.644259,51.942092 36.59375,51.96875 C 36.495962,52.020359 36.383524,52.062499 36.1875,52.0625 L 35.75,52.0625 C 35.702088,52.0625 35.693926,52.062103 35.65625,52.0625 C 35.656643,52.019435 35.65625,51.99314 35.65625,51.9375 L 35.65625,48.59375 C 35.656249,48.508809 35.656493,48.485142 35.65625,48.4375 L 35.84375,48.4375 C 35.925318,48.436359 36.01968,48.408692 36.09375,48.375 C 36.107245,48.368852 36.112103,48.350843 36.125,48.34375 C 36.267938,48.265139 36.397445,48.128158 36.4375,47.96875 C 36.438028,47.95834 36.438028,47.94791 36.4375,47.9375 C 36.441149,47.904846 36.439325,47.876519 36.4375,47.84375 L 36.4375,47.8125 L 36.4375,47.71875 C 36.436359,47.637182 36.408692,47.54282 36.375,47.46875 C 36.37101,47.459979 36.379426,47.446087 36.375,47.4375 L 36.34375,47.4375 C 36.265139,47.294562 36.128158,47.165055 35.96875,47.125 C 35.95834,47.124472 35.94791,47.124472 35.9375,47.125 C 35.904846,47.121351 35.876519,47.123175 35.84375,47.125 L 35.8125,47.125 L 33.125,47.125 C 33.106415,47.12186 33.081246,47.126346 33.0625,47.125 C 33.015634,47.121636 32.952711,47.117151 32.90625,47.125 C 32.89584,47.124472 32.88541,47.124472 32.875,47.125 L 32.875,47.125 z M 40.125,47.125 C 40.11385,47.134656 40.103406,47.1451 40.09375,47.15625 C 40.0826,47.165906 40.072156,47.17635 40.0625,47.1875 C 40.05209,47.186972 40.04166,47.186972 40.03125,47.1875 C 40.007725,47.207588 39.957588,47.257725 39.9375,47.28125 L 39.96875,47.3125 C 39.873108,47.391764 39.749619,47.470898 39.71875,47.59375 C 39.718222,47.60416 39.718222,47.61459 39.71875,47.625 C 39.715101,47.657654 39.716925,47.685981 39.71875,47.71875 C 39.719358,47.729673 39.717534,47.739115 39.71875,47.75 L 39.71875,47.84375 C 39.719891,47.925318 39.747558,48.01968 39.78125,48.09375 C 39.787398,48.107245 39.805407,48.112103 39.8125,48.125 C 39.891111,48.267938 40.028092,48.397445 40.1875,48.4375 C 40.19791,48.438028 40.20834,48.438028 40.21875,48.4375 C 40.251404,48.441149 40.279731,48.439325 40.3125,48.4375 C 40.323423,48.436892 40.332865,48.438716 40.34375,48.4375 L 40.46875,48.4375 C 40.474036,48.485132 40.46875,48.486201 40.46875,48.59375 L 40.46875,52.0625 C 40.46875,52.147445 40.468507,52.171109 40.46875,52.21875 L 40.3125,52.21875 C 40.230932,52.219891 40.13657,52.247558 40.0625,52.28125 C 40.053729,52.28524 40.039837,52.276824 40.03125,52.28125 L 40.03125,52.3125 C 39.888312,52.391111 39.758805,52.528092 39.71875,52.6875 C 39.718222,52.69791 39.718222,52.70834 39.71875,52.71875 C 39.715101,52.751404 39.716925,52.779731 39.71875,52.8125 C 39.719358,52.823423 39.717534,52.832865 39.71875,52.84375 L 39.71875,52.9375 C 39.719891,53.019068 39.747558,53.11343 39.78125,53.1875 C 39.787398,53.200995 39.805407,53.205853 39.8125,53.21875 C 39.891111,53.361688 40.028092,53.491195 40.1875,53.53125 C 40.19791,53.531778 40.20834,53.531778 40.21875,53.53125 C 40.251404,53.534899 40.279731,53.533075 40.3125,53.53125 C 40.323423,53.530642 40.332865,53.532466 40.34375,53.53125 L 44.84375,53.53125 C 44.925318,53.530109 45.01968,53.502442 45.09375,53.46875 C 45.107245,53.462602 45.112103,53.444593 45.125,53.4375 C 45.267938,53.358889 45.397445,53.221908 45.4375,53.0625 C 45.438028,53.05209 45.438028,53.04166 45.4375,53.03125 C 45.437905,53.023976 45.437365,53.007282 45.4375,53 C 45.43777,52.985437 45.438309,52.952048 45.4375,52.9375 L 45.6875,51.34375 C 45.688309,51.329202 45.68777,51.295813 45.6875,51.28125 C 45.687426,51.271074 45.688097,51.260091 45.6875,51.25 C 45.675075,51.040109 45.533337,50.844134 45.34375,50.75 C 45.262654,50.708196 45.184978,50.688777 45.09375,50.6875 L 44.9375,50.6875 C 44.855932,50.688641 44.76157,50.716308 44.6875,50.75 C 44.678729,50.75399 44.664837,50.745574 44.65625,50.75 L 44.65625,50.78125 C 44.513312,50.859861 44.383805,50.996842 44.34375,51.15625 C 44.289083,51.353044 44.218867,51.388878 44.15625,51.5 L 44.15625,49.6875 C 44.233124,49.75766 44.331754,49.821937 44.4375,49.84375 C 44.44791,49.844278 44.45834,49.844278 44.46875,49.84375 C 44.501404,49.847399 44.529731,49.845575 44.5625,49.84375 C 44.573423,49.843142 44.582865,49.844966 44.59375,49.84375 L 44.71875,49.84375 C 44.800318,49.842609 44.89468,49.814942 44.96875,49.78125 C 44.982245,49.775102 44.987103,49.757093 45,49.75 C 45.142938,49.671389 45.272445,49.534408 45.3125,49.375 C 45.313028,49.36459 45.313028,49.35416 45.3125,49.34375 C 45.316149,49.311096 45.314325,49.282769 45.3125,49.25 L 45.3125,49.21875 L 45.3125,47.71875 C 45.311359,47.637182 45.283692,47.54282 45.25,47.46875 C 45.24601,47.459979 45.254426,47.446087 45.25,47.4375 L 45.21875,47.4375 C 45.140139,47.294562 45.003158,47.165055 44.84375,47.125 C 44.83334,47.124472 44.82291,47.124472 44.8125,47.125 C 44.779846,47.121351 44.751519,47.123175 44.71875,47.125 L 44.6875,47.125 L 40.375,47.125 C 40.356415,47.12186 40.331246,47.126346 40.3125,47.125 C 40.265634,47.121636 40.202711,47.117151 40.15625,47.125 C 40.14584,47.124472 40.13541,47.124472 40.125,47.125 L 40.125,47.125 z M 8.9375,48 C 8.9457308,48.029812 8.9558941,48.065487 8.96875,48.09375 C 8.9748983,48.107245 8.9929073,48.112103 9,48.125 C 9.0786113,48.267936 9.2155921,48.397445 9.375,48.4375 C 9.3528272,48.502877 9.3427029,48.52947 9.28125,48.6875 C 9.2807221,48.69791 9.2807221,48.70834 9.28125,48.71875 L 8.96875,49.5625 L 8.5625,48.46875 C 8.5527469,48.443177 8.5398728,48.430993 8.53125,48.40625 C 8.5801158,48.395284 8.6426586,48.398116 8.6875,48.375 C 8.8311049,48.305175 8.8892779,48.14773 8.9375,48 z M 26.0625,48 C 26.08074,48.026034 26.176223,48.095551 26.21875,48.15625 C 26.169464,48.124183 26.063575,48.052282 26.03125,48.03125 C 26.047523,48.014511 26.046232,48.016742 26.0625,48 z M 5.5625,48.3125 C 5.5697202,48.317145 5.5863316,48.308172 5.59375,48.3125 C 5.6530972,48.347121 5.6810289,48.425231 5.75,48.4375 C 5.76041,48.438028 5.77084,48.438028 5.78125,48.4375 C 5.8139045,48.441149 5.842231,48.439325 5.875,48.4375 C 5.885923,48.436892 5.8953652,48.438716 5.90625,48.4375 C 5.9113345,48.437123 5.9420354,48.439872 5.9375,48.4375 C 5.9001048,48.417937 5.964799,48.431258 5.96875,48.4375 C 5.9452689,48.400396 5.9557632,48.442596 5.96875,48.46875 C 5.9817368,48.494904 6.0096536,48.546889 6.03125,48.59375 C 6.0744427,48.687473 6.1291432,48.81906 6.1875,48.96875 L 6.3125,49.3125 L 6.125,49.75 L 5.625,48.53125 C 5.5931978,48.451422 5.5818872,48.405392 5.5625,48.34375 C 5.5595625,48.33441 5.5651975,48.321378 5.5625,48.3125 z M 49.53125,48.46875 C 49.707508,48.468753 49.838951,48.514905 50.0625,48.71875 C 50.191022,48.835952 50.244967,49.041469 50.3125,49.21875 C 50.268941,49.196612 50.23267,49.178456 50.1875,49.15625 C 49.75414,48.942124 49.485381,48.792927 49.46875,48.78125 C 49.382282,48.719103 49.283367,48.616581 49.25,48.5625 C 49.261464,48.550006 49.285094,48.556354 49.3125,48.53125 C 49.363203,48.484808 49.391426,48.468753 49.53125,48.46875 z M 55.90625,48.46875 C 56.082507,48.468753 56.213954,48.514907 56.4375,48.71875 C 56.566023,48.835953 56.619968,49.04147 56.6875,49.21875 C 56.643941,49.196612 56.607671,49.178456 56.5625,49.15625 C 56.129141,48.942123 55.860369,48.792919 55.84375,48.78125 C 55.763459,48.723543 55.692757,48.619129 55.65625,48.5625 C 55.643195,48.589082 55.639417,48.575292 55.6875,48.53125 C 55.738203,48.484808 55.766428,48.468753 55.90625,48.46875 z M 28.40625,48.59375 C 28.437449,48.594776 28.440053,48.591876 28.46875,48.59375 C 28.451025,48.616683 28.420467,48.630876 28.40625,48.65625 L 28.40625,48.59375 z M 42.90625,48.59375 C 42.953048,48.59529 42.958855,48.590402 43,48.59375 C 42.968612,48.63436 42.926254,48.670944 42.90625,48.71875 L 42.90625,48.59375 z M 20.65625,48.625 C 20.78555,48.651719 20.965452,48.684134 20.96875,48.6875 C 21.00806,48.727625 21.062497,48.840095 21.0625,49.15625 C 21.062498,49.342732 21.030263,49.480302 21,49.53125 C 20.92686,49.654383 20.952238,49.639255 20.90625,49.65625 C 20.916043,49.652631 20.821178,49.678308 20.71875,49.6875 C 20.701679,49.689032 20.674907,49.686146 20.65625,49.6875 L 20.65625,48.625 z M 48.59375,51.0625 C 48.797039,51.186789 48.961256,51.29547 49.25,51.4375 C 49.57325,51.596679 49.791482,51.740543 49.84375,51.78125 C 49.938123,51.854755 50.012106,51.958861 50,51.9375 C 50.032379,51.994642 50.031249,51.95886 50.03125,52 C 50.031248,52.078095 50.0408,52.058909 49.96875,52.125 C 49.891155,52.196177 49.845506,52.218751 49.6875,52.21875 C 49.471411,52.218751 49.266661,52.150403 49.03125,51.9375 C 48.841785,51.766152 48.692037,51.471455 48.59375,51.0625 z M 54.96875,51.0625 C 55.172038,51.186788 55.336256,51.295471 55.625,51.4375 C 55.94825,51.596679 56.166482,51.740543 56.21875,51.78125 C 56.313121,51.854753 56.387102,51.958855 56.375,51.9375 C 56.407379,51.994642 56.406249,51.95886 56.40625,52 C 56.406249,52.078089 56.415799,52.058909 56.34375,52.125 C 56.266145,52.196186 56.220515,52.218751 56.0625,52.21875 C 55.846411,52.218751 55.641661,52.150403 55.40625,51.9375 C 55.216785,51.766152 55.067037,51.471455 54.96875,51.0625 z M 20.65625,51.90625 L 20.875,52.21875 C 20.842346,52.215101 20.814019,52.216925 20.78125,52.21875 C 20.769467,52.21875 20.76145,52.218995 20.75,52.21875 C 20.715649,52.218016 20.686495,52.221049 20.65625,52.21875 C 20.656551,52.15829 20.656249,52.11147 20.65625,52.03125 L 20.65625,51.90625 z M 28.40625,51.9375 C 28.438463,51.996072 28.513518,52.018535 28.5625,52.0625 L 28.40625,52.0625 C 28.406613,52.016975 28.406031,51.994896 28.40625,51.9375 z M 42.90625,51.9375 C 42.909818,51.944664 42.933658,51.930514 42.9375,51.9375 C 42.969713,51.996072 43.044768,52.018535 43.09375,52.0625 L 42.90625,52.0625 C 42.906613,52.016975 42.906031,51.994896 42.90625,51.9375 z M 28.03125,52.0625 C 28.031026,52.062544 28.065438,52.061062 28.09375,52.0625 C 28.094323,52.067919 28.09273,52.084102 28.09375,52.09375 C 28.081612,52.094968 28.074033,52.091787 28.0625,52.09375 C 28.016368,52.101601 27.960152,52.077793 27.9375,52.09375 C 27.936947,52.094086 28.03181,52.06239 28.03125,52.0625 z M 13.5,52.15625 C 13.510724,52.157484 13.53151,52.156309 13.53125,52.15625 C 13.530471,52.156074 13.62538,52.218977 13.625,52.21875 C 13.62481,52.218636 13.687581,52.250081 13.6875,52.25 C 13.6875,52.25 13.594811,52.342618 13.53125,52.40625 C 13.606372,52.356114 13.71875,52.3125 13.71875,52.3125 C 13.71875,52.3125 13.75,52.3125 13.75,52.3125 C 13.75,52.3125 13.78125,52.40625 13.78125,52.40625 C 13.78125,52.40625 13.680192,52.418275 13.59375,52.4375 L 13.53125,52.4375 C 13.519659,52.440078 13.506039,52.467407 13.5,52.46875 C 13.497743,52.459815 13.501263,52.442499 13.5,52.4375 C 13.498737,52.432501 13.5,52.40625 13.5,52.40625 C 13.526717,52.335781 13.526717,52.257969 13.5,52.1875 C 13.500528,52.17709 13.500528,52.16666 13.5,52.15625 L 13.5,52.15625 z M 13.5,52.40625 C 13.5,52.40625 13.53125,52.4375 13.53125,52.4375 L 13.53125,52.40625 C 13.527657,52.404335 13.500003,52.406246 13.5,52.40625 z M 26.25,52.15625 C 26.260721,52.157482 26.28151,52.156309 26.28125,52.15625 C 26.28047,52.156074 26.37538,52.218977 26.375,52.21875 C 26.37481,52.218636 26.437581,52.250081 26.4375,52.25 C 26.4375,52.25 26.34476,52.342567 26.28125,52.40625 C 26.356313,52.356025 26.46875,52.3125 26.46875,52.3125 C 26.46875,52.3125 26.5,52.3125 26.5,52.3125 C 26.5,52.3125 26.53125,52.40625 26.53125,52.40625 C 26.53125,52.40625 26.43016,52.418135 26.34375,52.4375 L 26.28125,52.4375 L 26.28125,52.40625 C 26.274899,52.412618 26.25524,52.400996 26.25,52.40625 C 26.276717,52.335781 26.276717,52.257969 26.25,52.1875 C 26.250528,52.17709 26.250528,52.16666 26.25,52.15625 L 26.25,52.15625 z M 33.5,52.15625 C 33.510722,52.157482 33.53151,52.156309 33.53125,52.15625 C 33.530471,52.156074 33.62538,52.218977 33.625,52.21875 C 33.62481,52.218636 33.687581,52.250081 33.6875,52.25 C 33.6875,52.25 33.594765,52.342572 33.53125,52.40625 C 33.606317,52.356032 33.71875,52.3125 33.71875,52.3125 C 33.71875,52.3125 33.75,52.3125 33.75,52.3125 C 33.75,52.3125 33.78125,52.40625 33.78125,52.40625 C 33.78125,52.40625 33.680162,52.418142 33.59375,52.4375 L 33.53125,52.4375 L 33.53125,52.40625 C 33.524898,52.412618 33.50524,52.400997 33.5,52.40625 C 33.526717,52.335781 33.526717,52.257969 33.5,52.1875 C 33.500528,52.17709 33.500528,52.16666 33.5,52.15625 L 33.5,52.15625 z M 40.78125,52.15625 C 40.791974,52.157484 40.81276,52.156309 40.8125,52.15625 C 40.811721,52.156074 40.90663,52.218977 40.90625,52.21875 C 40.90606,52.218636 40.968831,52.250081 40.96875,52.25 C 40.96875,52.25 40.876061,52.342618 40.8125,52.40625 C 40.887622,52.356114 41,52.3125 41,52.3125 C 41,52.3125 41.03125,52.3125 41.03125,52.3125 C 41.03125,52.3125 41.0625,52.40625 41.0625,52.40625 C 41.0625,52.40625 40.961442,52.418275 40.875,52.4375 L 40.8125,52.4375 L 40.8125,52.40625 C 40.806144,52.412613 40.786494,52.401 40.78125,52.40625 C 40.807967,52.335781 40.807967,52.257969 40.78125,52.1875 C 40.781778,52.17709 40.781778,52.16666 40.78125,52.15625 L 40.78125,52.15625 z M 48.375,53.03125 C 48.37508,53.03129 48.281109,53.312452 48.28125,53.3125 C 48.28125,53.3125 48.25,53.3125 48.25,53.3125 C 48.25,53.3125 48.224264,53.249811 48.21875,53.21875 C 48.20979,53.168275 48.201157,53.139433 48.1875,53.0625 C 48.274633,53.046632 48.375,53.03125 48.375,53.03125 z M 54.75,53.03125 C 54.75008,53.03129 54.656109,53.312452 54.65625,53.3125 C 54.65625,53.3125 54.625,53.3125 54.625,53.3125 C 54.625,53.3125 54.599283,53.249809 54.59375,53.21875 C 54.584759,53.168279 54.576205,53.139428 54.5625,53.0625 C 54.649642,53.046681 54.75,53.03125 54.75,53.03125 z"
         id="path3253"
         style="font-size:7.90701103px;font-style:normal;font-variant:normal;font-weight:bold;font-stretch:normal;text-align:start;line-height:100%;writing-mode:lr-tb;text-anchor:start;fill:#ffffff;fill-opacity:1;stroke:#ffffff;stroke-width:0.33502349px;stroke-linecap:butt;stroke-linejoin:miter;stroke-opacity:1;filter:url(#filter3329);font-family:Times New Roman;-inkscape-font-specification:Times New Roman Bold"
         inkscape:original="M 49.46875 47.3125 C 48.944865 47.312507 48.458571 47.463011 48.09375 47.8125 C 47.735245 48.155946 47.5625 48.617757 47.5625 49.09375 C 47.5625 49.372247 47.608102 49.648551 47.75 49.90625 C 47.892591 50.165214 48.094753 50.359203 48.3125 50.53125 C 48.544616 50.714653 48.887535 50.916472 49.375 51.15625 C 49.709178 51.32081 49.936103 51.457148 50.03125 51.53125 C 50.140552 51.616383 50.241559 51.711213 50.28125 51.78125 C 50.328131 51.863986 50.343749 51.919139 50.34375 52 C 50.343747 52.137558 50.303973 52.236909 50.1875 52.34375 C 50.067299 52.454009 49.915257 52.531252 49.6875 52.53125 C 49.387344 52.531251 49.091485 52.408561 48.8125 52.15625 C 48.544964 51.914297 48.35473 51.545393 48.25 51.03125 C 48.24222 51.009199 48.231723 50.988204 48.21875 50.96875 C 48.183265 50.890862 48.11426 50.833358 48.03125 50.8125 C 48.010481 50.810179 47.989519 50.810179 47.96875 50.8125 L 47.84375 50.8125 C 47.800227 50.813109 47.757439 50.823806 47.71875 50.84375 C 47.640862 50.879235 47.583358 50.94824 47.5625 51.03125 C 47.560179 51.052019 47.560179 51.072981 47.5625 51.09375 L 47.5625 53.0625 C 47.563109 53.106023 47.573806 53.148811 47.59375 53.1875 C 47.629235 53.265388 47.69824 53.322892 47.78125 53.34375 C 47.802019 53.346071 47.822981 53.346071 47.84375 53.34375 L 47.96875 53.34375 C 48.012273 53.343141 48.055061 53.332444 48.09375 53.3125 C 48.147762 53.285342 48.191592 53.241512 48.21875 53.1875 C 48.241462 53.135766 48.260093 53.098643 48.3125 53.0625 C 48.371781 53.021617 48.426561 53.03125 48.375 53.03125 C 48.35541 53.03125 48.474038 53.04387 48.59375 53.09375 C 48.819714 53.188341 48.980909 53.27251 49.15625 53.3125 C 49.348091 53.356253 49.525285 53.34375 49.6875 53.34375 C 50.26739 53.343749 50.790005 53.179992 51.1875 52.8125 C 51.57757 52.451866 51.781243 51.974454 51.78125 51.46875 C 51.781245 51.068679 51.652111 50.686832 51.40625 50.375 C 51.144699 50.047281 50.696735 49.749294 50.0625 49.4375 C 49.628293 49.222955 49.366557 49.091147 49.28125 49.03125 C 49.139779 48.929572 49.044009 48.790079 49 48.71875 C 48.96506 48.660523 48.9375 48.614041 48.9375 48.5625 C 48.9375 48.479177 48.968603 48.427132 49.09375 48.3125 C 49.19127 48.223176 49.324772 48.156255 49.53125 48.15625 C 49.793789 48.156254 50.025069 48.266399 50.28125 48.5 C 50.526742 48.723869 50.684777 49.023943 50.75 49.40625 C 50.770858 49.48926 50.828362 49.558265 50.90625 49.59375 C 50.944939 49.613694 50.987727 49.624391 51.03125 49.625 L 51.1875 49.625 C 51.231023 49.624391 51.273811 49.613694 51.3125 49.59375 C 51.390388 49.558265 51.447892 49.48926 51.46875 49.40625 C 51.471071 49.385481 51.471071 49.364519 51.46875 49.34375 L 51.40625 47.59375 C 51.406166 47.438455 51.280295 47.312584 51.125 47.3125 L 51.03125 47.3125 C 50.987727 47.313109 50.944939 47.323806 50.90625 47.34375 C 50.828362 47.379235 50.770858 47.44824 50.75 47.53125 C 50.735302 47.600211 50.730028 47.604469 50.71875 47.625 C 50.711376 47.618789 50.632737 47.626414 50.5 47.5625 C 50.304911 47.468576 50.128375 47.407781 50 47.375 C 49.824811 47.329797 49.66216 47.312506 49.46875 47.3125 z M 55.84375 47.3125 C 55.319864 47.312507 54.857917 47.469624 54.5 47.8125 C 54.148399 48.149332 53.9375 48.603698 53.9375 49.09375 C 53.937499 49.37225 53.983104 49.648553 54.125 49.90625 C 54.267589 50.165213 54.469745 50.359201 54.6875 50.53125 C 54.919615 50.714654 55.262535 50.916472 55.75 51.15625 C 56.084178 51.32081 56.311103 51.457148 56.40625 51.53125 C 56.515552 51.616382 56.616558 51.711212 56.65625 51.78125 C 56.703131 51.863986 56.718749 51.919139 56.71875 52 C 56.718748 52.137556 56.678973 52.236909 56.5625 52.34375 C 56.442295 52.454011 56.290263 52.531252 56.0625 52.53125 C 55.762344 52.531251 55.466485 52.408561 55.1875 52.15625 C 54.919964 51.914297 54.72973 51.545393 54.625 51.03125 C 54.61722 51.009199 54.606723 50.988204 54.59375 50.96875 C 54.558265 50.890862 54.48926 50.833358 54.40625 50.8125 C 54.385481 50.810179 54.364519 50.810179 54.34375 50.8125 L 54.21875 50.8125 C 54.175227 50.813109 54.132439 50.823806 54.09375 50.84375 C 54.015862 50.879235 53.958358 50.94824 53.9375 51.03125 C 53.935179 51.052019 53.935179 51.072981 53.9375 51.09375 L 53.9375 53.0625 C 53.938109 53.106023 53.948806 53.148811 53.96875 53.1875 C 54.004235 53.265388 54.07324 53.322892 54.15625 53.34375 C 54.177019 53.346071 54.197981 53.346071 54.21875 53.34375 L 54.34375 53.34375 C 54.387273 53.343141 54.430061 53.332444 54.46875 53.3125 C 54.522762 53.285342 54.566592 53.241512 54.59375 53.1875 C 54.616464 53.135763 54.635094 53.098642 54.6875 53.0625 C 54.746778 53.021618 54.801561 53.03125 54.75 53.03125 C 54.730408 53.03125 54.84904 53.043871 54.96875 53.09375 C 55.194715 53.188341 55.355908 53.27251 55.53125 53.3125 C 55.723091 53.356253 55.900285 53.34375 56.0625 53.34375 C 56.642391 53.343749 57.165004 53.179992 57.5625 52.8125 C 57.952568 52.451867 58.156244 51.974455 58.15625 51.46875 C 58.156245 51.068679 58.027111 50.686832 57.78125 50.375 C 57.5197 50.047283 57.071739 49.749294 56.4375 49.4375 C 56.003294 49.222955 55.741553 49.091145 55.65625 49.03125 C 55.514779 48.929573 55.419011 48.790082 55.375 48.71875 C 55.364677 48.701546 55.343749 48.664645 55.34375 48.5625 C 55.343749 48.4471 55.357662 48.414254 55.46875 48.3125 C 55.56627 48.223177 55.699773 48.156255 55.90625 48.15625 C 56.168789 48.156254 56.400071 48.2664 56.65625 48.5 C 56.901743 48.72387 57.059782 49.023947 57.125 49.40625 C 57.145858 49.48926 57.203362 49.558265 57.28125 49.59375 C 57.319939 49.613694 57.362727 49.624391 57.40625 49.625 L 57.5625 49.625 C 57.606023 49.624391 57.648811 49.613694 57.6875 49.59375 C 57.765388 49.558265 57.822892 49.48926 57.84375 49.40625 C 57.846071 49.385481 57.846071 49.364519 57.84375 49.34375 L 57.78125 47.59375 C 57.781166 47.438455 57.655295 47.312584 57.5 47.3125 L 57.40625 47.3125 C 57.362727 47.313109 57.319939 47.323806 57.28125 47.34375 C 57.203362 47.379235 57.145858 47.44824 57.125 47.53125 C 57.110303 47.60021 57.105028 47.604469 57.09375 47.625 C 57.090898 47.619189 57.04542 47.629513 56.90625 47.5625 C 56.699281 47.462857 56.492127 47.404908 56.375 47.375 C 56.199812 47.329797 56.037161 47.312506 55.84375 47.3125 z M 3 47.4375 C 2.9887802 47.447081 2.9783313 47.45753 2.96875 47.46875 C 2.8908622 47.504235 2.8333583 47.57324 2.8125 47.65625 C 2.8101793 47.677019 2.8101793 47.697981 2.8125 47.71875 L 2.8125 47.84375 C 2.813109 47.887273 2.8238061 47.930061 2.84375 47.96875 C 2.8792354 48.046638 2.9482401 48.104142 3.03125 48.125 C 3.0416586 48.125579 3.0520914 48.125579 3.0625 48.125 C 3.1817663 48.136185 3.2053856 48.138927 3.21875 48.15625 C 3.2315579 48.172854 3.3908726 48.45351 3.5625 48.875 L 5.28125 53.15625 C 5.319033 53.26353 5.417682 53.337517 5.53125 53.34375 L 5.6875 53.34375 C 5.7310228 53.343141 5.773811 53.332444 5.8125 53.3125 C 5.8719024 53.27749 5.9163834 53.221889 5.9375 53.15625 L 7.09375 50.40625 L 8.15625 53.15625 C 8.1773666 53.221889 8.2218476 53.27749 8.28125 53.3125 C 8.319939 53.332444 8.3627272 53.343141 8.40625 53.34375 L 8.5625 53.34375 C 8.6060228 53.343141 8.648811 53.332444 8.6875 53.3125 C 8.7469024 53.27749 8.7913834 53.221889 8.8125 53.15625 L 10.4375 48.84375 C 10.582544 48.479855 10.692868 48.270517 10.6875 48.28125 C 10.719122 48.222744 10.760026 48.170944 10.78125 48.15625 C 10.818042 48.130779 10.871071 48.127778 10.90625 48.125 C 10.916659 48.125579 10.927091 48.125579 10.9375 48.125 C 11.068041 48.09523 11.159529 47.977603 11.15625 47.84375 L 11.15625 47.71875 C 11.155641 47.675227 11.144944 47.632439 11.125 47.59375 C 11.089515 47.515862 11.02051 47.458358 10.9375 47.4375 C 10.916731 47.435179 10.895769 47.435179 10.875 47.4375 L 9.5 47.4375 C 9.4564772 47.438109 9.413689 47.448806 9.375 47.46875 C 9.2971122 47.504235 9.2396083 47.57324 9.21875 47.65625 C 9.2164293 47.677019 9.2164293 47.697981 9.21875 47.71875 L 9.21875 47.84375 C 9.219359 47.887273 9.2300561 47.930061 9.25 47.96875 C 9.2854854 48.046638 9.3544901 48.104142 9.4375 48.125 C 9.4582687 48.127321 9.4792313 48.127321 9.5 48.125 C 9.6804739 48.129574 9.7422294 48.175952 9.71875 48.15625 C 9.7445536 48.177911 9.7499992 48.176057 9.75 48.1875 C 9.7499957 48.231856 9.7334976 48.314149 9.71875 48.375 C 9.7177754 48.379019 9.6570798 48.569282 9.5625 48.8125 L 8.96875 50.40625 L 8.28125 48.59375 C 8.2237615 48.443011 8.1863254 48.307184 8.15625 48.21875 C 8.1472274 48.19222 8.1613322 48.210137 8.15625 48.1875 C 8.2180114 48.167865 8.2780806 48.12686 8.40625 48.125 C 8.4497728 48.124391 8.492561 48.113694 8.53125 48.09375 C 8.6170464 48.052033 8.6758641 47.969688 8.6875 47.875 C 8.6880788 47.864591 8.6880788 47.854159 8.6875 47.84375 L 8.6875 47.71875 C 8.686891 47.675227 8.6761939 47.632439 8.65625 47.59375 C 8.6207646 47.515862 8.5517599 47.458358 8.46875 47.4375 C 8.4479813 47.435179 8.4270187 47.435179 8.40625 47.4375 L 5.875 47.4375 C 5.8314772 47.438109 5.788689 47.448806 5.75 47.46875 C 5.7003189 47.487574 5.6569814 47.520077 5.625 47.5625 C 5.5826402 47.496535 5.5146832 47.45123 5.4375 47.4375 C 5.4167313 47.435179 5.3957687 47.435179 5.375 47.4375 L 3.09375 47.4375 C 3.0627198 47.432258 3.0310302 47.432258 3 47.4375 z M 12.96875 47.4375 C 12.95753 47.447081 12.947081 47.45753 12.9375 47.46875 C 12.859612 47.504235 12.802108 47.57324 12.78125 47.65625 C 12.778929 47.677019 12.778929 47.697981 12.78125 47.71875 L 12.78125 47.84375 C 12.781859 47.887273 12.792556 47.930061 12.8125 47.96875 C 12.847985 48.046638 12.91699 48.104142 13 48.125 C 13.020769 48.127321 13.041731 48.127321 13.0625 48.125 L 13.25 48.125 C 13.341021 48.125003 13.380676 48.154428 13.4375 48.1875 C 13.502865 48.225553 13.494988 48.206905 13.5 48.21875 C 13.495171 48.207336 13.531249 48.350025 13.53125 48.59375 L 13.53125 52.0625 C 13.531249 52.300613 13.494843 52.417502 13.5 52.40625 C 13.499421 52.416659 13.499421 52.427091 13.5 52.4375 C 13.482777 52.479326 13.46821 52.469041 13.46875 52.46875 C 13.458341 52.468171 13.447909 52.468171 13.4375 52.46875 C 13.368565 52.508962 13.35282 52.531251 13.25 52.53125 L 13.0625 52.53125 C 13.018977 52.531859 12.976189 52.542556 12.9375 52.5625 C 12.859612 52.597985 12.802108 52.66699 12.78125 52.75 C 12.778929 52.770769 12.778929 52.791731 12.78125 52.8125 L 12.78125 52.9375 C 12.781859 52.981023 12.792556 53.023811 12.8125 53.0625 C 12.847985 53.140388 12.91699 53.197892 13 53.21875 C 13.020769 53.221071 13.041731 53.221071 13.0625 53.21875 L 15.8125 53.21875 C 15.856023 53.218141 15.898811 53.207444 15.9375 53.1875 C 16.015388 53.152015 16.072892 53.08301 16.09375 53 C 16.096071 52.979231 16.096071 52.958269 16.09375 52.9375 L 16.09375 52.8125 C 16.093141 52.768977 16.082444 52.726189 16.0625 52.6875 C 16.027015 52.609612 15.95801 52.552108 15.875 52.53125 C 15.854231 52.528929 15.833269 52.528929 15.8125 52.53125 L 15.625 52.53125 C 15.53398 52.53125 15.494314 52.501821 15.4375 52.46875 C 15.347645 52.416448 15.321795 52.38786 15.34375 52.4375 C 15.362858 52.480696 15.347313 52.447071 15.34375 52.375 C 15.340187 52.302929 15.343749 52.195765 15.34375 52.0625 L 15.34375 48.59375 C 15.343749 48.463533 15.340147 48.377118 15.34375 48.3125 C 15.347353 48.247882 15.362662 48.208736 15.34375 48.25 C 15.366054 48.199444 15.378156 48.1858 15.375 48.1875 C 15.385409 48.188079 15.395841 48.188079 15.40625 48.1875 C 15.451406 48.161161 15.522173 48.125002 15.625 48.125 L 15.8125 48.125 C 15.856023 48.124391 15.898811 48.113694 15.9375 48.09375 C 16.015388 48.058265 16.072892 47.98926 16.09375 47.90625 C 16.096071 47.885481 16.096071 47.864519 16.09375 47.84375 L 16.09375 47.71875 C 16.093141 47.675227 16.082444 47.632439 16.0625 47.59375 C 16.027015 47.515862 15.95801 47.458358 15.875 47.4375 C 15.854231 47.435179 15.833269 47.435179 15.8125 47.4375 L 13.0625 47.4375 C 13.03147 47.432258 12.99978 47.432258 12.96875 47.4375 z M 18 47.4375 C 17.98878 47.447081 17.978331 47.45753 17.96875 47.46875 C 17.890862 47.504235 17.833358 47.57324 17.8125 47.65625 C 17.810179 47.677019 17.810179 47.697981 17.8125 47.71875 L 17.8125 47.84375 C 17.813109 47.887273 17.823806 47.930061 17.84375 47.96875 C 17.879235 48.046638 17.94824 48.104142 18.03125 48.125 C 18.052019 48.127321 18.072981 48.127321 18.09375 48.125 C 18.318435 48.125005 18.485234 48.164491 18.46875 48.15625 C 18.498347 48.17105 18.525023 48.205604 18.53125 48.21875 C 18.516804 48.18825 18.562499 48.360264 18.5625 48.625 L 18.5625 52.03125 C 18.562499 52.295994 18.513597 52.474113 18.53125 52.4375 C 18.526393 52.447573 18.500996 52.483154 18.46875 52.5 C 18.492053 52.487826 18.322162 52.531251 18.09375 52.53125 C 18.050227 52.531859 18.007439 52.542556 17.96875 52.5625 C 17.890862 52.597985 17.833358 52.66699 17.8125 52.75 C 17.810179 52.770769 17.810179 52.791731 17.8125 52.8125 L 17.8125 52.9375 C 17.813109 52.981023 17.823806 53.023811 17.84375 53.0625 C 17.879235 53.140388 17.94824 53.197892 18.03125 53.21875 C 18.052019 53.221071 18.072981 53.221071 18.09375 53.21875 L 20.78125 53.21875 C 20.824773 53.218141 20.867561 53.207444 20.90625 53.1875 C 20.984138 53.152015 21.041642 53.08301 21.0625 53 C 21.064821 52.979231 21.064821 52.958269 21.0625 52.9375 L 21.0625 52.8125 C 21.061891 52.768977 21.051194 52.726189 21.03125 52.6875 C 20.995765 52.609612 20.92676 52.552108 20.84375 52.53125 C 20.822981 52.528929 20.802019 52.528929 20.78125 52.53125 C 20.556564 52.53125 20.389745 52.491747 20.40625 52.5 C 20.376661 52.485206 20.349976 52.450645 20.34375 52.4375 C 20.364951 52.482253 20.346771 52.451854 20.34375 52.375 C 20.340729 52.298146 20.343748 52.173972 20.34375 52.03125 L 20.34375 50.9375 L 21.875 53.09375 C 21.92415 53.167555 22.005212 53.213876 22.09375 53.21875 L 23.75 53.21875 C 23.793523 53.218141 23.836311 53.207444 23.875 53.1875 C 23.952888 53.152015 24.010392 53.08301 24.03125 53 C 24.033571 52.979231 24.033571 52.958269 24.03125 52.9375 L 24.03125 52.8125 C 24.030641 52.768977 24.019944 52.726189 24 52.6875 C 23.964515 52.609612 23.89551 52.552108 23.8125 52.53125 C 23.791731 52.528929 23.770769 52.528929 23.75 52.53125 C 23.651625 52.525785 23.581587 52.506812 23.53125 52.46875 C 23.540426 52.476226 23.414608 52.322666 23.25 52.09375 L 22.15625 50.59375 C 22.340968 50.521977 22.546826 50.470154 22.6875 50.34375 C 23.016364 50.045335 23.218743 49.619839 23.21875 49.15625 C 23.218744 48.782828 23.100942 48.412147 22.875 48.125 C 22.65155 47.841046 22.36638 47.662459 22.03125 47.5625 C 21.678439 47.457284 21.175531 47.437505 20.53125 47.4375 L 18.09375 47.4375 C 18.06272 47.432258 18.03103 47.432258 18 47.4375 z M 25.71875 47.4375 C 25.70753 47.447081 25.697081 47.45753 25.6875 47.46875 C 25.609612 47.504235 25.552108 47.57324 25.53125 47.65625 C 25.528929 47.677019 25.528929 47.697981 25.53125 47.71875 L 25.53125 47.84375 C 25.531859 47.887273 25.542556 47.930061 25.5625 47.96875 C 25.597985 48.046638 25.66699 48.104142 25.75 48.125 C 25.770769 48.127321 25.791731 48.127321 25.8125 48.125 L 25.96875 48.125 C 26.080183 48.125003 26.17014 48.151685 26.21875 48.1875 C 26.280028 48.230627 26.2492 48.21595 26.25 48.21875 C 26.238265 48.169456 26.251546 48.242319 26.25 48.3125 C 26.248454 48.382681 26.25 48.470255 26.25 48.59375 L 26.25 52.0625 C 26.25 52.192721 26.253603 52.279131 26.25 52.34375 C 26.246397 52.408369 26.231083 52.447523 26.25 52.40625 C 26.249421 52.416659 26.249421 52.427091 26.25 52.4375 C 26.232779 52.479323 26.218211 52.46904 26.21875 52.46875 C 26.208341 52.468171 26.197909 52.468171 26.1875 52.46875 C 26.142348 52.495089 26.07157 52.531251 25.96875 52.53125 L 25.8125 52.53125 C 25.768977 52.531859 25.726189 52.542556 25.6875 52.5625 C 25.609612 52.597985 25.552108 52.66699 25.53125 52.75 C 25.528929 52.770769 25.528929 52.791731 25.53125 52.8125 L 25.53125 52.9375 C 25.531859 52.981023 25.542556 53.023811 25.5625 53.0625 C 25.597985 53.140388 25.66699 53.197892 25.75 53.21875 C 25.770769 53.221071 25.791731 53.221071 25.8125 53.21875 L 30.34375 53.21875 C 30.387273 53.218141 30.430061 53.207444 30.46875 53.1875 C 30.546638 53.152015 30.604142 53.08301 30.625 53 C 30.625579 52.989591 30.625579 52.979159 30.625 52.96875 L 30.84375 51.3125 C 30.848992 51.28147 30.848992 51.24978 30.84375 51.21875 C 30.822892 51.13574 30.765388 51.066735 30.6875 51.03125 C 30.648811 51.011306 30.606023 51.000609 30.5625 51 L 30.4375 51 C 30.393977 51.000609 30.351189 51.011306 30.3125 51.03125 C 30.234612 51.066735 30.177108 51.13574 30.15625 51.21875 C 30.041433 51.632077 29.868155 51.906871 29.625 52.09375 C 29.383914 52.279036 29.069065 52.374999 28.625 52.375 L 28.3125 52.375 C 28.189996 52.375 28.092922 52.324009 28.125 52.34375 C 28.110068 52.334562 28.105212 52.373917 28.09375 52.34375 C 28.109162 52.384304 28.097992 52.329142 28.09375 52.25 C 28.089508 52.170858 28.093749 52.048176 28.09375 51.90625 L 28.09375 50.75 C 28.137701 50.760005 28.225809 50.769155 28.25 50.78125 C 28.317667 50.815086 28.388083 50.876208 28.46875 51.03125 C 28.539852 51.167921 28.596062 51.407801 28.625 51.6875 C 28.629805 51.720349 28.640385 51.752088 28.65625 51.78125 C 28.691735 51.859138 28.76074 51.916642 28.84375 51.9375 C 28.864519 51.939821 28.885481 51.939821 28.90625 51.9375 L 29.0625 51.9375 C 29.106023 51.936891 29.148811 51.926194 29.1875 51.90625 C 29.265388 51.870765 29.322892 51.80176 29.34375 51.71875 C 29.346071 51.697981 29.346071 51.677019 29.34375 51.65625 L 29.34375 48.90625 C 29.343141 48.862727 29.332444 48.819939 29.3125 48.78125 C 29.277015 48.703362 29.20801 48.645858 29.125 48.625 C 29.104231 48.622679 29.083269 48.622679 29.0625 48.625 L 28.90625 48.625 C 28.862727 48.625609 28.819939 48.636306 28.78125 48.65625 C 28.703362 48.691735 28.645858 48.76074 28.625 48.84375 C 28.624421 48.854159 28.624421 48.864591 28.625 48.875 C 28.586489 49.255271 28.507044 49.546737 28.40625 49.6875 C 28.341066 49.778532 28.230422 49.816497 28.09375 49.84375 L 28.09375 48.28125 L 28.34375 48.28125 C 28.717687 48.281255 28.963268 48.343108 29.0625 48.375 C 29.279577 48.442841 29.40664 48.511197 29.5 48.625 C 29.584073 48.727495 29.679932 48.957352 29.75 49.3125 C 29.772701 49.422552 29.858698 49.508549 29.96875 49.53125 C 29.989519 49.533571 30.010481 49.533571 30.03125 49.53125 L 30.1875 49.53125 C 30.231023 49.530641 30.273811 49.519944 30.3125 49.5 C 30.390388 49.464515 30.447892 49.39551 30.46875 49.3125 C 30.471071 49.291731 30.471071 49.270769 30.46875 49.25 L 30.46875 47.71875 C 30.468141 47.675227 30.457444 47.632439 30.4375 47.59375 C 30.402015 47.515862 30.33301 47.458358 30.25 47.4375 C 30.229231 47.435179 30.208269 47.435179 30.1875 47.4375 L 25.8125 47.4375 C 25.78147 47.432258 25.74978 47.432258 25.71875 47.4375 z M 32.96875 47.4375 C 32.95753 47.447081 32.947081 47.45753 32.9375 47.46875 C 32.859612 47.504235 32.802108 47.57324 32.78125 47.65625 C 32.778929 47.677019 32.778929 47.697981 32.78125 47.71875 L 32.78125 47.84375 C 32.781859 47.887273 32.792556 47.930061 32.8125 47.96875 C 32.847985 48.046638 32.91699 48.104142 33 48.125 C 33.020769 48.127321 33.041731 48.127321 33.0625 48.125 L 33.21875 48.125 C 33.309772 48.125003 33.349431 48.15443 33.40625 48.1875 C 33.497161 48.240424 33.52394 48.27533 33.5 48.21875 C 33.483113 48.178832 33.496284 48.208922 33.5 48.28125 C 33.503716 48.353578 33.5 48.460938 33.5 48.59375 L 33.5 52.0625 C 33.5 52.19272 33.503603 52.27913 33.5 52.34375 C 33.496397 52.40837 33.481085 52.447521 33.5 52.40625 C 33.499421 52.416659 33.499421 52.427091 33.5 52.4375 C 33.482778 52.479324 33.468211 52.46904 33.46875 52.46875 C 33.458341 52.468171 33.447909 52.468171 33.4375 52.46875 C 33.392348 52.495088 33.321569 52.531251 33.21875 52.53125 L 33.0625 52.53125 C 33.018977 52.531859 32.976189 52.542556 32.9375 52.5625 C 32.859612 52.597985 32.802108 52.66699 32.78125 52.75 C 32.778929 52.770769 32.778929 52.791731 32.78125 52.8125 L 32.78125 52.9375 C 32.781859 52.981023 32.792556 53.023811 32.8125 53.0625 C 32.847985 53.140388 32.91699 53.197892 33 53.21875 C 33.020769 53.221071 33.041731 53.221071 33.0625 53.21875 L 37.6875 53.21875 C 37.731023 53.218141 37.773811 53.207444 37.8125 53.1875 C 37.890388 53.152015 37.947892 53.08301 37.96875 53 C 37.969329 52.989591 37.969329 52.979159 37.96875 52.96875 L 38.1875 51.125 C 38.196378 51.045171 38.178732 50.965953 38.125 50.90625 C 38.071269 50.846546 37.98657 50.812051 37.90625 50.8125 L 37.75 50.8125 C 37.706477 50.813109 37.663689 50.823806 37.625 50.84375 C 37.553791 50.87235 37.49735 50.928791 37.46875 51 C 37.354594 51.388602 37.211445 51.691166 37.09375 51.875 C 36.974229 52.061675 36.878176 52.18235 36.75 52.25 C 36.606602 52.325681 36.426044 52.374999 36.1875 52.375 L 35.75 52.375 C 35.629521 52.375 35.536687 52.379269 35.46875 52.375 C 35.400813 52.370731 35.34823 52.365362 35.375 52.375 C 35.318663 52.352466 35.335192 52.354673 35.34375 52.375 C 35.361909 52.418123 35.347254 52.329966 35.34375 52.25 C 35.340246 52.170034 35.343749 52.071214 35.34375 51.9375 L 35.34375 48.59375 C 35.343749 48.463533 35.340147 48.377118 35.34375 48.3125 C 35.347353 48.247882 35.362664 48.208733 35.34375 48.25 C 35.366055 48.19944 35.378157 48.1858 35.375 48.1875 C 35.385409 48.188079 35.395841 48.188079 35.40625 48.1875 C 35.451405 48.161162 35.522174 48.125002 35.625 48.125 L 35.84375 48.125 C 35.887273 48.124391 35.930061 48.113694 35.96875 48.09375 C 36.046638 48.058265 36.104142 47.98926 36.125 47.90625 C 36.127321 47.885481 36.127321 47.864519 36.125 47.84375 L 36.125 47.71875 C 36.124391 47.675227 36.113694 47.632439 36.09375 47.59375 C 36.058265 47.515862 35.98926 47.458358 35.90625 47.4375 C 35.885481 47.435179 35.864519 47.435179 35.84375 47.4375 L 33.0625 47.4375 C 33.03147 47.432258 32.99978 47.432258 32.96875 47.4375 z M 40.21875 47.4375 C 40.20753 47.447081 40.197081 47.45753 40.1875 47.46875 C 40.109612 47.504235 40.052108 47.57324 40.03125 47.65625 C 40.028929 47.677019 40.028929 47.697981 40.03125 47.71875 L 40.03125 47.84375 C 40.031859 47.887273 40.042556 47.930061 40.0625 47.96875 C 40.097985 48.046638 40.16699 48.104142 40.25 48.125 C 40.270769 48.127321 40.291731 48.127321 40.3125 48.125 L 40.5 48.125 C 40.611433 48.125003 40.70139 48.151685 40.75 48.1875 C 40.778812 48.207777 40.732671 48.158106 40.75 48.21875 C 40.750297 48.219997 40.78125 48.371516 40.78125 48.59375 L 40.78125 52.0625 C 40.78125 52.192721 40.784853 52.279131 40.78125 52.34375 C 40.777647 52.408369 40.762333 52.447523 40.78125 52.40625 C 40.780671 52.416659 40.780671 52.427091 40.78125 52.4375 C 40.764027 52.479326 40.74946 52.469041 40.75 52.46875 C 40.739591 52.468171 40.729159 52.468171 40.71875 52.46875 C 40.673598 52.495089 40.60282 52.531251 40.5 52.53125 L 40.3125 52.53125 C 40.268977 52.531859 40.226189 52.542556 40.1875 52.5625 C 40.109612 52.597985 40.052108 52.66699 40.03125 52.75 C 40.028929 52.770769 40.028929 52.791731 40.03125 52.8125 L 40.03125 52.9375 C 40.031859 52.981023 40.042556 53.023811 40.0625 53.0625 C 40.097985 53.140388 40.16699 53.197892 40.25 53.21875 C 40.270769 53.221071 40.291731 53.221071 40.3125 53.21875 L 44.84375 53.21875 C 44.887273 53.218141 44.930061 53.207444 44.96875 53.1875 C 45.046638 53.152015 45.104142 53.08301 45.125 53 C 45.125579 52.989591 45.125579 52.979159 45.125 52.96875 L 45.375 51.3125 C 45.375579 51.302091 45.375579 51.291659 45.375 51.28125 C 45.374229 51.175119 45.313811 51.07845 45.21875 51.03125 C 45.180061 51.011306 45.137273 51.000609 45.09375 51 L 44.9375 51 C 44.893977 51.000609 44.851189 51.011306 44.8125 51.03125 C 44.734612 51.066735 44.677108 51.13574 44.65625 51.21875 C 44.538289 51.643395 44.391785 51.912727 44.15625 52.09375 C 43.922784 52.27318 43.569066 52.374999 43.125 52.375 L 42.8125 52.375 C 42.689996 52.375 42.657479 52.344506 42.65625 52.34375 C 42.608022 52.314072 42.576938 52.299503 42.59375 52.34375 C 42.609162 52.384304 42.597992 52.329142 42.59375 52.25 C 42.589508 52.170858 42.593749 52.048176 42.59375 51.90625 L 42.59375 50.75 C 42.637701 50.760005 42.72581 50.769156 42.75 50.78125 C 42.833645 50.823075 42.930515 50.897697 43 51.03125 C 43.071102 51.167919 43.127312 51.4078 43.15625 51.6875 C 43.161055 51.720349 43.171635 51.752088 43.1875 51.78125 C 43.222985 51.859138 43.29199 51.916642 43.375 51.9375 C 43.395769 51.939821 43.416731 51.939821 43.4375 51.9375 L 43.5625 51.9375 C 43.606023 51.936891 43.648811 51.926194 43.6875 51.90625 C 43.765388 51.870765 43.822892 51.80176 43.84375 51.71875 C 43.846071 51.697981 43.846071 51.677019 43.84375 51.65625 L 43.84375 48.90625 C 43.843141 48.862727 43.832444 48.819939 43.8125 48.78125 C 43.777015 48.703362 43.70801 48.645858 43.625 48.625 C 43.604231 48.622679 43.583269 48.622679 43.5625 48.625 L 43.4375 48.625 C 43.393977 48.625609 43.351189 48.636306 43.3125 48.65625 C 43.234612 48.691735 43.177108 48.76074 43.15625 48.84375 C 43.155671 48.854159 43.155671 48.864591 43.15625 48.875 C 43.117739 49.255271 43.038294 49.546737 42.9375 49.6875 C 42.867852 49.784767 42.748218 49.81932 42.59375 49.84375 L 42.59375 48.28125 L 42.84375 48.28125 C 43.217687 48.281255 43.463268 48.343108 43.5625 48.375 C 43.786023 48.444856 43.951377 48.527639 44.03125 48.625 C 44.115324 48.727496 44.211184 48.957354 44.28125 49.3125 C 44.303951 49.422552 44.389948 49.508549 44.5 49.53125 C 44.520769 49.533571 44.541731 49.533571 44.5625 49.53125 L 44.71875 49.53125 C 44.762273 49.530641 44.805061 49.519944 44.84375 49.5 C 44.921638 49.464515 44.979142 49.39551 45 49.3125 C 45.002321 49.291731 45.002321 49.270769 45 49.25 L 45 47.71875 C 44.999391 47.675227 44.988694 47.632439 44.96875 47.59375 C 44.933265 47.515862 44.86426 47.458358 44.78125 47.4375 C 44.760481 47.435179 44.739519 47.435179 44.71875 47.4375 L 40.3125 47.4375 C 40.28147 47.432258 40.24978 47.432258 40.21875 47.4375 z M 5.59375 48 C 5.6041586 48.000579 5.6145914 48.000579 5.625 48 C 5.6673598 48.065965 5.7353168 48.11127 5.8125 48.125 C 5.8332687 48.127321 5.8542313 48.127321 5.875 48.125 C 6.0154712 48.125004 6.0607678 48.139001 6.09375 48.15625 C 6.1462571 48.183719 6.1935647 48.241461 6.21875 48.28125 C 6.2325631 48.303077 6.3467711 48.530863 6.46875 48.84375 L 6.65625 49.3125 L 6.125 50.5625 L 5.34375 48.65625 C 5.2284869 48.366925 5.1921823 48.162813 5.1875 48.15625 C 5.1477381 48.189242 5.2278255 48.129148 5.375 48.125 C 5.4635384 48.120126 5.5446003 48.073805 5.59375 48 z M 20.34375 48.28125 L 20.46875 48.28125 C 20.842052 48.281255 21.076957 48.355925 21.1875 48.46875 C 21.308998 48.592767 21.374997 48.801801 21.375 49.15625 C 21.374997 49.39449 21.315039 49.578004 21.25 49.6875 C 21.174579 49.814472 21.125269 49.891207 21 49.9375 C 20.896904 49.975602 20.643512 49.994731 20.34375 50 L 20.34375 48.28125 z "
         inkscape:radius="0.30849594"
         sodipodi:type="inkscape:offset" />
      <text
         transform="scale(1.0727892,0.9321495)"
         sodipodi:linespacing="100%"
         id="text4883"
         y="52.928314"
         x="3.0955613"
         style="font-size:7.90701056px;font-style:normal;font-variant:normal;font-weight:bold;font-stretch:normal;text-align:start;line-height:100%;writing-mode:lr-tb;text-anchor:start;fill:#000000;fill-opacity:1;stroke:none;stroke-width:1px;stroke-linecap:butt;stroke-linejoin:miter;stroke-opacity:1;font-family:Times New Roman;-inkscape-font-specification:Times New Roman Bold"
         xml:space="preserve"><tspan
           y="52.928314"
           x="3.0955613"
           style="font-size:7.90701056px;font-style:normal;font-variant:normal;font-weight:bold;font-stretch:normal;text-align:start;line-height:100%;writing-mode:lr-tb;text-anchor:start;font-family:Times New Roman;-inkscape-font-specification:Times New Roman Bold"
           id="tspan4887"
           sodipodi:role="line">W I R E L E S S</tspan></text>
    </g>
  </g>
</svg>
