<?xml version="1.0" encoding="UTF-8" standalone="no"?>
<!-- Created with Inkscape (http://www.inkscape.org/) -->
<svg
   xmlns:dc="http://purl.org/dc/elements/1.1/"
   xmlns:cc="http://web.resource.org/cc/"
   xmlns:rdf="http://www.w3.org/1999/02/22-rdf-syntax-ns#"
   xmlns:svg="http://www.w3.org/2000/svg"
   xmlns="http://www.w3.org/2000/svg"
   xmlns:sodipodi="http://sodipodi.sourceforge.net/DTD/sodipodi-0.dtd"
   xmlns:inkscape="http://www.inkscape.org/namespaces/inkscape"
   width="48"
   height="48"
   id="svg2"
   sodipodi:version="0.32"
   inkscape:version="0.45.1"
   version="1.0"
   sodipodi:docbase="G:\Projekte\Workspace\Java\AndNav\ext\img"
   sodipodi:docname="traffic_off.svg"
   inkscape:output_extension="org.inkscape.output.svg.inkscape"
   inkscape:export-filename="G:\Projekte\Workspace\Java\AndNav\res\drawable\traffic_off_48.png"
   inkscape:export-xdpi="90"
   inkscape:export-ydpi="90">
  <defs
     id="defs4">
    <filter
       inkscape:collect="always"
       x="-0.26059348"
       width="1.521187"
       y="-0.25105958"
       height="1.5021192"
       id="filter5292">
      <feGaussianBlur
         inkscape:collect="always"
         stdDeviation="1.6246793"
         id="feGaussianBlur5294" />
    </filter>
  </defs>
  <sodipodi:namedview
     id="base"
     pagecolor="#ffffff"
     bordercolor="#666666"
     borderopacity="1.0"
     gridtolerance="10000"
     guidetolerance="10"
     objecttolerance="10"
     inkscape:pageopacity="0.0"
     inkscape:pageshadow="2"
     inkscape:zoom="11.313708"
     inkscape:cx="49.615559"
     inkscape:cy="31.173588"
     inkscape:document-units="px"
     inkscape:current-layer="layer1"
     width="48px"
     height="48px"
     showgrid="true"
     gridempspacing="1"
     inkscape:window-width="1680"
     inkscape:window-height="1030"
     inkscape:window-x="1272"
     inkscape:window-y="-8" />
  <metadata
     id="metadata7">
    <rdf:RDF>
      <cc:Work
         rdf:about="">
        <dc:format>image/svg+xml</dc:format>
        <dc:type
           rdf:resource="http://purl.org/dc/dcmitype/StillImage" />
      </cc:Work>
    </rdf:RDF>
  </metadata>
  <g
     inkscape:label="Layer 1"
     inkscape:groupmode="layer"
     id="layer1">
    <rect
       style="opacity:1;fill:#e1c113;fill-opacity:1;fill-rule:evenodd;stroke:#151400;stroke-width:0.99081272;stroke-linecap:round;stroke-linejoin:round;stroke-miterlimit:4;stroke-dasharray:none;stroke-dashoffset:0;stroke-opacity:1"
       id="rect2160"
       width="23.009188"
       height="47.00919"
       x="13.494406"
       y="0.49540636"
       rx="1.7272766"
       ry="1.9928175" />
    <path
       style="fill:#1d051a;fill-opacity:0.21428572;fill-rule:evenodd;stroke:none;stroke-width:0.99081272;stroke-linecap:round;stroke-linejoin:round;stroke-miterlimit:4;stroke-dashoffset:0;stroke-opacity:1;opacity:1"
       d="M 15.217123,1 L 34.814926,1 C 30.95729,2.0769885 18.291886,1.6572292 15.377973,2.3235391 C 13.629539,4.0946904 14.03205,46.366811 14.03205,45.580294 L 14.03205,2.4197057 C 14.03205,1.6331888 14.560593,1 15.217123,1 z "
       id="rect5394"
       sodipodi:nodetypes="cccccc" />
    <path
       sodipodi:type="arc"
       style="fill:#f73838;fill-opacity:1;fill-rule:evenodd;stroke:#000000;stroke-width:1.00100005;stroke-linecap:round;stroke-linejoin:round;stroke-miterlimit:4;stroke-dasharray:none;stroke-dashoffset:0;stroke-opacity:1"
       id="path3134"
       sodipodi:cx="25.892857"
       sodipodi:cy="11.616072"
       sodipodi:rx="8.4821424"
       sodipodi:ry="8.4375"
       d="M 34.374999 11.616072 A 8.4821424 8.4375 0 1 1  17.410714,11.616072 A 8.4821424 8.4375 0 1 1  34.374999 11.616072 z"
       transform="matrix(0.7791631,0,0,0.7833301,4.8252566,-9.8858337e-2)" />
    <path
       style="fill:#ffffff;fill-opacity:0.24675323;fill-rule:evenodd;stroke:none;stroke-width:1.00100005;stroke-linecap:round;stroke-linejoin:round;stroke-miterlimit:4;stroke-dashoffset:0;stroke-opacity:0.71241832"
       d="M 31.226363,9.2525886 C 31.226363,12.877814 30.338102,6.8549537 26.902971,6.8549537 C 23.46784,6.8549537 18.780235,12.877814 18.780235,9.2525886 C 18.780235,5.6273643 21.568167,2.685153 25.003299,2.685153 C 28.43843,2.685153 31.226363,5.6273643 31.226363,9.2525886 z "
       id="path4105"
       sodipodi:nodetypes="csssc" />
    <path
       sodipodi:type="arc"
       style="fill:#d3c52c;fill-opacity:1;fill-rule:evenodd;stroke:#000000;stroke-width:1.00100005;stroke-linecap:round;stroke-linejoin:round;stroke-miterlimit:4;stroke-dasharray:none;stroke-dashoffset:0;stroke-opacity:1"
       id="path5107"
       sodipodi:cx="25.892857"
       sodipodi:cy="11.616072"
       sodipodi:rx="8.4821424"
       sodipodi:ry="8.4375"
       d="M 34.374999 11.616072 A 8.4821424 8.4375 0 1 1  17.410714,11.616072 A 8.4821424 8.4375 0 1 1  34.374999 11.616072 z"
       transform="matrix(0.7791631,0,0,0.7833301,4.8252265,14.900421)" />
    <path
       style="fill:#ffffff;fill-opacity:0.24675323;fill-rule:evenodd;stroke:none;stroke-width:1.00100005;stroke-linecap:round;stroke-linejoin:round;stroke-miterlimit:4;stroke-dashoffset:0;stroke-opacity:0.71241832"
       d="M 31.226333,24.251868 C 31.226333,27.877093 30.338072,21.854233 26.902941,21.854233 C 23.467809,21.854233 18.780205,27.877093 18.780205,24.251868 C 18.780205,20.626644 21.568137,17.684432 25.003269,17.684432 C 28.4384,17.684432 31.226333,20.626644 31.226333,24.251868 z "
       id="path5109"
       sodipodi:nodetypes="csssc" />
    <path
       sodipodi:type="arc"
       style="fill:#46a746;fill-opacity:1;fill-rule:evenodd;stroke:#000000;stroke-width:1.00100005;stroke-linecap:round;stroke-linejoin:round;stroke-miterlimit:4;stroke-dasharray:none;stroke-dashoffset:0;stroke-opacity:1"
       id="path5113"
       sodipodi:cx="25.892857"
       sodipodi:cy="11.616072"
       sodipodi:rx="8.4821424"
       sodipodi:ry="8.4375"
       d="M 34.374999 11.616072 A 8.4821424 8.4375 0 1 1  17.410714,11.616072 A 8.4821424 8.4375 0 1 1  34.374999 11.616072 z"
       transform="matrix(0.7791631,0,0,0.7833301,4.8252266,29.900421)" />
    <path
       style="fill:#ffffff;fill-opacity:0.24675323;fill-rule:evenodd;stroke:none;stroke-width:1.00100005;stroke-linecap:round;stroke-linejoin:round;stroke-miterlimit:4;stroke-dashoffset:0;stroke-opacity:0.71241832"
       d="M 31.226333,39.251868 C 31.226333,42.877093 30.338072,36.854233 26.902941,36.854233 C 23.467809,36.854233 18.780205,42.877093 18.780205,39.251868 C 18.780205,35.626644 21.568137,32.684432 25.003269,32.684432 C 28.4384,32.684432 31.226333,35.626644 31.226333,39.251868 z "
       id="path5115"
       sodipodi:nodetypes="csssc" />
    <path
       sodipodi:type="arc"
       style="fill:#ff0000;fill-opacity:0.46753247;fill-rule:evenodd;stroke:#ff0000;stroke-width:1.00100005;stroke-linecap:round;stroke-linejoin:round;stroke-miterlimit:4;stroke-dasharray:none;stroke-dashoffset:0;stroke-opacity:1;filter:url(#filter5292)"
       id="path5126"
       sodipodi:cx="25.790457"
       sodipodi:cy="39.2243"
       sodipodi:rx="7.4814425"
       sodipodi:ry="7.7655478"
       d="M 33.271899 39.2243 A 7.4814425 7.7655478 0 1 1  18.309014,39.2243 A 7.4814425 7.7655478 0 1 1  33.271899 39.2243 z"
       transform="matrix(1.2585136,0,0,1.0836965,-7.4576409,-33.507237)" />
  </g>
</svg>
