<?xml version="1.0" encoding="UTF-8" standalone="no"?>
<!-- Created with Inkscape (http://www.inkscape.org/) -->
<svg
   xmlns:dc="http://purl.org/dc/elements/1.1/"
   xmlns:cc="http://creativecommons.org/ns#"
   xmlns:rdf="http://www.w3.org/1999/02/22-rdf-syntax-ns#"
   xmlns:svg="http://www.w3.org/2000/svg"
   xmlns="http://www.w3.org/2000/svg"
   xmlns:xlink="http://www.w3.org/1999/xlink"
   xmlns:sodipodi="http://sodipodi.sourceforge.net/DTD/sodipodi-0.dtd"
   xmlns:inkscape="http://www.inkscape.org/namespaces/inkscape"
   width="48"
   height="48"
   id="svg2"
   sodipodi:version="0.32"
   inkscape:version="0.46"
   version="1.0"
   sodipodi:docname="warning_severe.svg"
   inkscape:output_extension="org.inkscape.output.svg.inkscape"
   inkscape:export-filename="D:\Workspace\Java\AndNav2\res\drawable\warning_severe.png"
   inkscape:export-xdpi="90"
   inkscape:export-ydpi="90">
  <defs
     id="defs4">
    <linearGradient
       y2="56.052299"
       x2="47.319698"
       y1="11.1133"
       x1="4.1914001"
       gradientUnits="userSpaceOnUse"
       id="linearGradient6525">
      <stop
         id="stop6529"
         style="stop-color:#ffffff;stop-opacity:1;"
         offset="0" />
      <stop
         id="stop6531"
         style="stop-color:#ffffff;stop-opacity:0.34020618;"
         offset="1" />
    </linearGradient>
    <linearGradient
       y2="56.0523"
       x2="47.3197"
       y1="11.1133"
       x1="4.1914"
       gradientUnits="userSpaceOnUse"
       id="aigrd1">
      <stop
         id="stop6490"
         style="stop-color:#D4D4D4"
         offset="0" />
      <stop
         id="stop6492"
         style="stop-color:#E2E2E2"
         offset="0.3982" />
      <stop
         id="stop6494"
         style="stop-color:#FFFFFF"
         offset="1" />
    </linearGradient>
    <linearGradient
       inkscape:collect="always"
       id="linearGradient5060">
      <stop
         style="stop-color:black;stop-opacity:1;"
         offset="0"
         id="stop5062" />
      <stop
         style="stop-color:black;stop-opacity:0;"
         offset="1"
         id="stop5064" />
    </linearGradient>
    <linearGradient
       id="linearGradient5048">
      <stop
         style="stop-color:black;stop-opacity:0;"
         offset="0"
         id="stop5050" />
      <stop
         id="stop5056"
         offset="0.5"
         style="stop-color:black;stop-opacity:1;" />
      <stop
         style="stop-color:black;stop-opacity:0;"
         offset="1"
         id="stop5052" />
    </linearGradient>
    <inkscape:perspective
       sodipodi:type="inkscape:persp3d"
       inkscape:vp_x="0 : 526.18109 : 1"
       inkscape:vp_y="0 : 1000 : 0"
       inkscape:vp_z="744.09448 : 526.18109 : 1"
       inkscape:persp3d-origin="372.04724 : 350.78739 : 1"
       id="perspective10" />
    <inkscape:perspective
       id="perspective2390"
       inkscape:persp3d-origin="372.04724 : 350.78739 : 1"
       inkscape:vp_z="744.09448 : 526.18109 : 1"
       inkscape:vp_y="0 : 1000 : 0"
       inkscape:vp_x="0 : 526.18109 : 1"
       sodipodi:type="inkscape:persp3d" />
    <linearGradient
       inkscape:collect="always"
       xlink:href="#linearGradient5048"
       id="linearGradient2559"
       gradientUnits="userSpaceOnUse"
       gradientTransform="matrix(2.774389,0,0,1.969706,-1892.179,-872.8854)"
       x1="302.85715"
       y1="366.64789"
       x2="302.85715"
       y2="609.50507" />
    <radialGradient
       inkscape:collect="always"
       xlink:href="#linearGradient5060"
       id="radialGradient2561"
       gradientUnits="userSpaceOnUse"
       gradientTransform="matrix(2.774389,0,0,1.969706,-1891.633,-872.8854)"
       cx="605.71429"
       cy="486.64789"
       fx="605.71429"
       fy="486.64789"
       r="117.14286" />
    <radialGradient
       inkscape:collect="always"
       xlink:href="#linearGradient5060"
       id="radialGradient2563"
       gradientUnits="userSpaceOnUse"
       gradientTransform="matrix(-2.774389,0,0,1.969706,112.7623,-872.8854)"
       cx="605.71429"
       cy="486.64789"
       fx="605.71429"
       fy="486.64789"
       r="117.14286" />
    <linearGradient
       inkscape:collect="always"
       xlink:href="#aigrd1"
       id="linearGradient2565"
       gradientUnits="userSpaceOnUse"
       x1="4.1914"
       y1="11.1133"
       x2="47.3197"
       y2="56.0523" />
    <linearGradient
       inkscape:collect="always"
       xlink:href="#linearGradient6525"
       id="linearGradient2567"
       gradientUnits="userSpaceOnUse"
       gradientTransform="matrix(1.471726,0,-6.4063776e-3,1.5293929,38.978161,-33.32758)"
       x1="8.5469341"
       y1="30.281681"
       x2="30.85088"
       y2="48.301884" />
    <linearGradient
       inkscape:collect="always"
       xlink:href="#linearGradient5048"
       id="linearGradient2579"
       gradientUnits="userSpaceOnUse"
       gradientTransform="matrix(2.774389,0,0,1.969706,-1892.179,-872.8854)"
       x1="302.85715"
       y1="366.64789"
       x2="302.85715"
       y2="609.50507" />
    <radialGradient
       inkscape:collect="always"
       xlink:href="#linearGradient5060"
       id="radialGradient2581"
       gradientUnits="userSpaceOnUse"
       gradientTransform="matrix(2.774389,0,0,1.969706,-1891.633,-872.8854)"
       cx="605.71429"
       cy="486.64789"
       fx="605.71429"
       fy="486.64789"
       r="117.14286" />
    <radialGradient
       inkscape:collect="always"
       xlink:href="#linearGradient5060"
       id="radialGradient2583"
       gradientUnits="userSpaceOnUse"
       gradientTransform="matrix(-2.774389,0,0,1.969706,112.7623,-872.8854)"
       cx="605.71429"
       cy="486.64789"
       fx="605.71429"
       fy="486.64789"
       r="117.14286" />
    <linearGradient
       inkscape:collect="always"
       xlink:href="#aigrd1"
       id="linearGradient2585"
       gradientUnits="userSpaceOnUse"
       x1="4.1914"
       y1="11.1133"
       x2="47.3197"
       y2="56.0523" />
    <linearGradient
       inkscape:collect="always"
       xlink:href="#linearGradient6525"
       id="linearGradient2587"
       gradientUnits="userSpaceOnUse"
       gradientTransform="matrix(1.471726,0,-6.4063776e-3,1.5293929,38.978161,-33.32758)"
       x1="8.5469341"
       y1="30.281681"
       x2="30.85088"
       y2="48.301884" />
  </defs>
  <sodipodi:namedview
     id="base"
     pagecolor="#ffffff"
     bordercolor="#666666"
     borderopacity="1.0"
     inkscape:pageopacity="0.0"
     inkscape:pageshadow="2"
     inkscape:zoom="5.6"
     inkscape:cx="14.318617"
     inkscape:cy="14.845895"
     inkscape:document-units="px"
     inkscape:current-layer="layer1"
     showgrid="false"
     inkscape:window-width="1264"
     inkscape:window-height="750"
     inkscape:window-x="0"
     inkscape:window-y="14" />
  <metadata
     id="metadata7">
    <rdf:RDF>
      <cc:Work
         rdf:about="">
        <dc:format>image/svg+xml</dc:format>
        <dc:type
           rdf:resource="http://purl.org/dc/dcmitype/StillImage" />
      </cc:Work>
    </rdf:RDF>
  </metadata>
  <g
     inkscape:label="Ebene 1"
     inkscape:groupmode="layer"
     id="layer1">
    <g
       id="g2543"
       transform="matrix(1.0980392,0,0,1.0980392,-52.895283,10.368914)">
      <g
         style="display:inline"
         transform="matrix(2.152953e-2,0,0,1.8818701e-2,88.752466,28.320947)"
         id="g6707">
        <rect
           style="opacity:0.40206185;fill:url(#linearGradient2579);fill-opacity:1;fill-rule:nonzero;stroke:none;stroke-width:1;stroke-linecap:round;stroke-linejoin:miter;marker:none;marker-start:none;marker-mid:none;marker-end:none;stroke-miterlimit:4;stroke-dasharray:none;stroke-dashoffset:0;stroke-opacity:1;visibility:visible;display:inline;overflow:visible"
           id="rect6709"
           width="1339.6335"
           height="478.35718"
           x="-1559.2523"
           y="-150.69685" />
        <path
           style="opacity:0.40206185;fill:url(#radialGradient2581);fill-opacity:1;fill-rule:nonzero;stroke:none;stroke-width:1;stroke-linecap:round;stroke-linejoin:miter;marker:none;marker-start:none;marker-mid:none;marker-end:none;stroke-miterlimit:4;stroke-dasharray:none;stroke-dashoffset:0;stroke-opacity:1;visibility:visible;display:inline;overflow:visible"
           d="M -219.61876,-150.68038 C -219.61876,-150.68038 -219.61876,327.65041 -219.61876,327.65041 C -76.744594,328.55086 125.78146,220.48075 125.78138,88.454235 C 125.78138,-43.572302 -33.655436,-150.68036 -219.61876,-150.68038 z"
           id="path6711"
           sodipodi:nodetypes="cccc" />
        <path
           sodipodi:nodetypes="cccc"
           id="path6713"
           d="M -1559.2523,-150.68038 C -1559.2523,-150.68038 -1559.2523,327.65041 -1559.2523,327.65041 C -1702.1265,328.55086 -1904.6525,220.48075 -1904.6525,88.454235 C -1904.6525,-43.572302 -1745.2157,-150.68036 -1559.2523,-150.68038 z"
           style="opacity:0.40206185;fill:url(#radialGradient2583);fill-opacity:1;fill-rule:nonzero;stroke:none;stroke-width:1;stroke-linecap:round;stroke-linejoin:miter;marker:none;marker-start:none;marker-mid:none;marker-end:none;stroke-miterlimit:4;stroke-dasharray:none;stroke-dashoffset:0;stroke-opacity:1;visibility:visible;display:inline;overflow:visible" />
      </g>
      <path
         style="fill:#db0a00;fill-opacity:1;fill-rule:nonzero;stroke:#9f0000;stroke-width:1.04492784;stroke-miterlimit:4;stroke-dasharray:none;stroke-opacity:1"
         d="M 90.153432,27.981882 L 72.489351,-5.1684225 C 71.981631,-6.0892636 71.062931,-6.6008413 70.039774,-6.6008413 C 69.016615,-6.6008413 68.093203,-5.9869494 67.577768,-5.0661067 L 50.045227,28.084199 C 49.632535,28.902724 49.62782,30.028199 50.13597,30.846725 C 50.64412,31.665251 51.460932,32.074514 52.484091,32.074514 L 87.680711,32.074514 C 88.703866,32.074514 89.626851,31.562936 90.039545,30.744408 C 90.554548,29.925882 90.558832,28.902724 90.153432,27.981882 z"
         id="path6485"
         inkscape:r_cx="true"
         inkscape:r_cy="true" />
      <g
         style="fill-rule:nonzero;stroke:#000000;stroke-miterlimit:4"
         transform="matrix(1.0231586,0,-4.3493031e-3,1.0383079,45.59414,-11.570631)"
         id="g6487"
         inkscape:r_cx="true"
         inkscape:r_cy="true">
        <linearGradient
           id="linearGradient2473"
           gradientUnits="userSpaceOnUse"
           x1="4.1914001"
           y1="11.1133"
           x2="47.319698"
           y2="56.052299">
          <stop
             offset="0"
             style="stop-color:#ffffff;stop-opacity:1;"
             id="stop2475" />
          <stop
             offset="1"
             style="stop-color:#ffffff;stop-opacity:0.34020618;"
             id="stop2477" />
        </linearGradient>
        <path
           style="fill:url(#linearGradient2585);stroke:none"
           d="M 9.5,37.6 C 9.2,38.1 9.5,38.5 10,38.5 L 38.2,38.5 C 38.7,38.5 39,38.1 38.7,37.6 L 24.4,11 C 24.1,10.5 23.7,10.5 23.5,11 L 9.5,37.6 z"
           id="path6496"
           inkscape:r_cx="true"
           inkscape:r_cy="true" />
      </g>
      <path
         style="opacity:0.5;fill:none;fill-opacity:1;fill-rule:nonzero;stroke:url(#linearGradient2587);stroke-width:1.04492795;stroke-miterlimit:4;stroke-dasharray:none;stroke-opacity:1"
         d="M 88.56952,27.227464 L 72.045767,-3.7427107 C 71.342035,-5.0768703 71.089623,-5.5049222 70.020149,-5.5049222 C 69.100319,-5.5049222 68.619037,-4.8815207 67.954321,-3.6221827 L 51.613973,27.323053 C 50.665122,29.060445 50.563461,29.513319 51.020173,30.278015 C 51.476881,31.042711 52.063275,31.00106 54.229942,31.050943 L 86.345912,31.050943 C 88.363032,31.075884 88.817408,30.922183 89.188546,30.157487 C 89.651668,29.39279 89.454678,28.786095 88.56952,27.227464 z"
         id="path1325"
         sodipodi:nodetypes="ccsccscccc"
         inkscape:r_cx="true"
         inkscape:r_cy="true" />
      <g
         style="fill-rule:nonzero;stroke:#000000;stroke-miterlimit:4"
         transform="matrix(1.0498256,0,0,1.0497575,44.70515,-11.829944)"
         id="g6498"
         inkscape:r_cx="true"
         inkscape:r_cy="true">
        <path
           style="stroke:none"
           d="M 21.802277,17.010655 C 21.635723,17.072817 21.532713,17.240209 21.552277,17.416905 L 22.146027,28.916905 C 22.16801,29.108871 22.327877,29.255416 22.521027,29.260655 L 25.333527,29.260655 C 25.526677,29.255416 25.686544,29.108871 25.708527,28.916905 L 26.302277,17.416905 C 26.307209,17.313099 26.270296,17.211653 26.199807,17.135291 C 26.129318,17.058928 26.031145,17.01403 25.927277,17.010655 L 21.927277,17.010655 C 21.885884,17.0039 21.84367,17.0039 21.802277,17.010655 z M 23.90625,31.53125 C 23.124839,31.53125 22.452826,31.775306 21.96875,32.25 C 21.484674,32.724694 21.21875,33.403202 21.21875,34.1875 C 21.21875,35.688963 22.404787,36.875 23.90625,36.875 C 25.493323,36.875 26.562499,35.662846 26.5625,34.1875 C 26.56292,34.177088 26.56292,34.166662 26.5625,34.15625 C 26.507796,33.390397 26.273294,32.72584 25.8125,32.25 C 25.351706,31.77416 24.687661,31.53125 23.90625,31.53125 z"
           id="path2654"
           sodipodi:nodetypes="cccccccsccccssssssc" />
      </g>
      <path
         sodipodi:nodetypes="ccsccc"
         style="fill:#ffffff;fill-opacity:0.47104247;fill-rule:nonzero;stroke:none;stroke-width:1.00000012;stroke-miterlimit:4;stroke-dasharray:none;stroke-opacity:1"
         d="M 82.842556,14.252668 L 72.542161,-5.3031395 C 72.034441,-6.22398 71.11574,-6.7355578 70.092584,-6.7355578 C 69.069425,-6.7355578 68.146013,-6.1216659 67.630577,-5.2008233 L 55.479193,18.036828 C 63.835301,25.042017 58.823687,8.9507944 82.842556,14.252668 z"
         id="path3451"
         inkscape:r_cx="true"
         inkscape:r_cy="true" />
    </g>
  </g>
</svg>
